<svg width="24" height="24" viewBox="0 0 24 24" fill="none" xmlns="http://www.w3.org/2000/svg">
<path d="M7 11.25C6.58579 11.25 6.25 11.5858 6.25 12C6.25 12.4142 6.58579 12.75 7 12.75V11.25ZM12 12.75C12.4142 12.75 12.75 12.4142 12.75 12C12.75 11.5858 12.4142 11.25 12 11.25V12.75ZM12 11.25C11.5858 11.25 11.25 11.5858 11.25 12C11.25 12.4142 11.5858 12.75 12 12.75V11.25ZM17 12.75C17.4142 12.75 17.75 12.4142 17.75 12C17.75 11.5858 17.4142 11.25 17 11.25V12.75ZM12.75 12C12.75 11.5858 12.4142 11.25 12 11.25C11.5858 11.25 11.25 11.5858 11.25 12H12.75ZM11.25 17C11.25 17.4142 11.5858 17.75 12 17.75C12.4142 17.75 12.75 17.4142 12.75 17H11.25ZM11.25 12C11.25 12.4142 11.5858 12.75 12 12.75C12.4142 12.75 12.75 12.4142 12.75 12H11.25ZM12.75 7C12.75 6.58579 12.4142 6.25 12 6.25C11.5858 6.25 11.25 6.58579 11.25 7H12.75ZM7 12.75H12V11.25H7V12.75ZM12 12.75H17V11.25H12V12.75ZM12 12H11.25C11.25 12 11.25 12 11.25 12C11.25 12 11.25 12 11.25 12C11.25 12 11.25 12 11.25 12C11.25 12 11.25 12 11.25 12C11.25 12 11.25 12 11.25 12C11.25 12 11.25 12 11.25 12C11.25 12 11.25 12 11.25 12C11.25 12 11.25 12 11.25 12C11.25 12 11.25 12 11.25 12C11.25 12 11.25 12 11.25 12C11.25 12.0001 11.25 12.0001 11.25 12.0001C11.25 12.0001 11.25 12.0001 11.25 12.0001C11.25 12.0001 11.25 12.0001 11.25 12.0001C11.25 12.0001 11.25 12.0001 11.25 12.0001C11.25 12.0001 11.25 12.0001 11.25 12.0002C11.25 12.0002 11.25 12.0002 11.25 12.0002C11.25 12.0002 11.25 12.0002 11.25 12.0002C11.25 12.0002 11.25 12.0002 11.25 12.0003C11.25 12.0003 11.25 12.0003 11.25 12.0003C11.25 12.0003 11.25 12.0003 11.25 12.0003C11.25 12.0004 11.25 12.0004 11.25 12.0004C11.25 12.0004 11.25 12.0004 11.25 12.0005C11.25 12.0005 11.25 12.0005 11.25 12.0005C11.25 12.0005 11.25 12.0006 11.25 12.0006C11.25 12.0006 11.25 12.0006 11.25 12.0007C11.25 12.0007 11.25 12.0007 11.25 12.0007C11.25 12.0008 11.25 12.0008 11.25 12.0008C11.25 12.0008 11.25 12.0009 11.25 12.0009C11.25 12.0009 11.25 12.001 11.25 12.001C11.25 12.001 11.25 12.0011 11.25 12.0011C11.25 12.0011 11.25 12.0012 11.25 12.0012C11.25 12.0013 11.25 12.0013 11.25 12.0013C11.25 12.0014 11.25 12.0014 11.25 12.0015C11.25 12.0015 11.25 12.0016 11.25 12.0016C11.25 12.0016 11.25 12.0017 11.25 12.0017C11.25 12.0018 11.25 12.0018 11.25 12.0019C11.25 12.0019 11.25 12.002 11.25 12.002C11.25 12.0021 11.25 12.0022 11.25 12.0022C11.25 12.0023 11.25 12.0023 11.25 12.0024C11.25 12.0024 11.25 12.0025 11.25 12.0026C11.25 12.0026 11.25 12.0027 11.25 12.0028C11.25 12.0028 11.25 12.0029 11.25 12.003C11.25 12.003 11.25 12.0031 11.25 12.0032C11.25 12.0032 11.25 12.0033 11.25 12.0034C11.25 12.0035 11.25 12.0035 11.25 12.0036C11.25 12.0037 11.25 12.0038 11.25 12.0039C11.25 12.004 11.25 12.004 11.25 12.0041C11.25 12.0042 11.25 12.0043 11.25 12.0044C11.25 12.0045 11.25 12.0046 11.25 12.0047C11.25 12.0047 11.25 12.0048 11.25 12.0049C11.25 12.005 11.25 12.0051 11.25 12.0052C11.25 12.0053 11.25 12.0054 11.25 12.0055C11.25 12.0057 11.25 12.0058 11.25 12.0059C11.25 12.006 11.25 12.0061 11.25 12.0062C11.25 12.0063 11.25 12.0064 11.25 12.0065C11.25 12.0067 11.25 12.0068 11.25 12.0069C11.25 12.007 11.25 12.0071 11.25 12.0073C11.25 12.0074 11.25 12.0075 11.25 12.0077C11.25 12.0078 11.25 12.0079 11.25 12.008C11.25 12.0082 11.25 12.0083 11.25 12.0085C11.25 12.0086 11.25 12.0087 11.25 12.0089C11.25 12.009 11.25 12.0092 11.25 12.0093C11.25 12.0095 11.25 12.0096 11.25 12.0098C11.25 12.0099 11.25 12.0101 11.25 12.0102C11.25 12.0104 11.25 12.0105 11.25 12.0107C11.25 12.0109 11.25 12.011 11.25 12.0112C11.25 12.0114 11.25 12.0115 11.25 12.0117C11.25 12.0119 11.25 12.0121 11.25 12.0122C11.25 12.0124 11.25 12.0126 11.25 12.0128C11.25 12.013 11.25 12.0131 11.25 12.0133C11.25 12.0135 11.25 12.0137 11.25 12.0139C11.25 12.0141 11.25 12.0143 11.25 12.0145C11.25 12.0147 11.25 12.0149 11.25 12.0151C11.25 12.0153 11.25 12.0155 11.25 12.0157C11.25 12.0159 11.25 12.0161 11.25 12.0164C11.25 12.0166 11.25 12.0168 11.25 12.017C11.25 12.0172 11.25 12.0175 11.25 12.0177C11.25 12.0179 11.25 12.0181 11.25 12.0184C11.25 12.0186 11.25 12.0188 11.25 12.0191C11.25 12.0193 11.25 12.0196 11.25 12.0198C11.25 12.02 11.25 12.0203 11.25 12.0205C11.25 12.0208 11.25 12.021 11.25 12.0213C11.25 12.0216 11.25 12.0218 11.25 12.0221C11.25 12.0223 11.25 12.0226 11.25 12.0229C11.25 12.0231 11.25 12.0234 11.25 12.0237C11.25 12.024 11.25 12.0242 11.25 12.0245C11.25 12.0248 11.25 12.0251 11.25 12.0254C11.25 12.0257 11.25 12.026 11.25 12.0263C11.25 12.0266 11.25 12.0269 11.25 12.0272C11.25 12.0275 11.25 12.0278 11.25 12.0281C11.25 12.0284 11.25 12.0287 11.25 12.029C11.25 12.0293 11.25 12.0296 11.25 12.03C11.25 12.0303 11.25 12.0306 11.25 12.0309C11.25 12.0313 11.25 12.0316 11.25 12.0319C11.25 12.0323 11.25 12.0326 11.25 12.033C11.25 12.0333 11.25 12.0336 11.25 12.034C11.25 12.0344 11.25 12.0347 11.25 12.0351C11.25 12.0354 11.25 12.0358 11.25 12.0361C11.25 12.0365 11.25 12.0369 11.25 12.0373C11.25 12.0376 11.25 12.038 11.25 12.0384C11.25 12.0388 11.25 12.0391 11.25 12.0395C11.25 12.0399 11.25 12.0403 11.25 12.0407C11.25 12.0411 11.25 12.0415 11.25 12.0419C11.25 12.0423 11.25 12.0427 11.25 12.0431C11.25 12.0435 11.25 12.044 11.25 12.0444C11.25 12.0448 11.25 12.0452 11.25 12.0456C11.25 12.0461 11.25 12.0465 11.25 12.0469C11.25 12.0474 11.25 12.0478 11.25 12.0482C11.25 12.0487 11.25 12.0491 11.25 12.0496C11.25 12.05 11.25 12.0505 11.25 12.0509C11.25 12.0514 11.25 12.0519 11.25 12.0523C11.25 12.0528 11.25 12.0533 11.25 12.0538C11.25 12.0542 11.25 12.0547 11.25 12.0552C11.25 12.0557 11.25 12.0562 11.25 12.0567C11.25 12.0571 11.25 12.0576 11.25 12.0581C11.25 12.0586 11.25 12.0592 11.25 12.0597C11.25 12.0602 11.25 12.0607 11.25 12.0612C11.25 12.0617 11.25 12.0622 11.25 12.0628C11.25 12.0633 11.25 12.0638 11.25 12.0644C11.25 12.0649 11.25 12.0655 11.25 12.066C11.25 12.0665 11.25 12.0671 11.25 12.0676C11.25 12.0682 11.25 12.0688 11.25 12.0693C11.25 12.0699 11.25 12.0705 11.25 12.071C11.25 12.0716 11.25 12.0722 11.25 12.0728C11.25 12.0733 11.25 12.0739 11.25 12.0745C11.25 12.0751 11.25 12.0757 11.25 12.0763C11.25 12.0769 11.25 12.0775 11.25 12.0781C11.25 12.0787 11.25 12.0794 11.25 12.08C11.25 12.0806 11.25 12.0812 11.25 12.0818C11.25 12.0825 11.25 12.0831 11.25 12.0837C11.25 12.0844 11.25 12.085 11.25 12.0857C11.25 12.0863 11.25 12.087 11.25 12.0876C11.25 12.0883 11.25 12.089 11.25 12.0896C11.25 12.0903 11.25 12.091 11.25 12.0917C11.25 12.0923 11.25 12.093 11.25 12.0937C11.25 12.0944 11.25 12.0951 11.25 12.0958C11.25 12.0965 11.25 12.0972 11.25 12.0979C11.25 12.0986 11.25 12.0993 11.25 12.1C11.25 12.1008 11.25 12.1015 11.25 12.1022C11.25 12.103 11.25 12.1037 11.25 12.1044C11.25 12.1052 11.25 12.1059 11.25 12.1067C11.25 12.1074 11.25 12.1082 11.25 12.1089C11.25 12.1097 11.25 12.1105 11.25 12.1112C11.25 12.112 11.25 12.1128 11.25 12.1136C11.25 12.1144 11.25 12.1151 11.25 12.1159C11.25 12.1167 11.25 12.1175 11.25 12.1183C11.25 12.1191 11.25 12.12 11.25 12.1208C11.25 12.1216 11.25 12.1224 11.25 12.1232C11.25 12.1241 11.25 12.1249 11.25 12.1257C11.25 12.1266 11.25 12.1274 11.25 12.1283C11.25 12.1291 11.25 12.13 11.25 12.1308C11.25 12.1317 11.25 12.1326 11.25 12.1334C11.25 12.1343 11.25 12.1352 11.25 12.1361C11.25 12.1369 11.25 12.1378 11.25 12.1387C11.25 12.1396 11.25 12.1405 11.25 12.1414C11.25 12.1423 11.25 12.1432 11.25 12.1442C11.25 12.1451 11.25 12.146 11.25 12.1469C11.25 12.1479 11.25 12.1488 11.25 12.1497C11.25 12.1507 11.25 12.1516 11.25 12.1526C11.25 12.1535 11.25 12.1545 11.25 12.1555C11.25 12.1564 11.25 12.1574 11.25 12.1584C11.25 12.1594 11.25 12.1603 11.25 12.1613C11.25 12.1623 11.25 12.1633 11.25 12.1643C11.25 12.1653 11.25 12.1663 11.25 12.1673C11.25 12.1684 11.25 12.1694 11.25 12.1704C11.25 12.1714 11.25 12.1725 11.25 12.1735C11.25 12.1745 11.25 12.1756 11.25 12.1766C11.25 12.1777 11.25 12.1787 11.25 12.1798C11.25 12.1809 11.25 12.1819 11.25 12.183C11.25 12.1841 11.25 12.1852 11.25 12.1863C11.25 12.1874 11.25 12.1885 11.25 12.1896C11.25 12.1907 11.25 12.1918 11.25 12.1929C11.25 12.194 11.25 12.1951 11.25 12.1962C11.25 12.1974 11.25 12.1985 11.25 12.1997C11.25 12.2008 11.25 12.2019 11.25 12.2031C11.25 12.2042 11.25 12.2054 11.25 12.2066C11.25 12.2077 11.25 12.2089 11.25 12.2101C11.25 12.2113 11.25 12.2125 11.25 12.2137C11.25 12.2149 11.25 12.2161 11.25 12.2173C11.25 12.2185 11.25 12.2197 11.25 12.2209C11.25 12.2221 11.25 12.2233 11.25 12.2246C11.25 12.2258 11.25 12.2271 11.25 12.2283C11.25 12.2296 11.25 12.2308 11.25 12.2321C11.25 12.2333 11.25 12.2346 11.25 12.2359C11.25 12.2371 11.25 12.2384 11.25 12.2397C11.25 12.241 11.25 12.2423 11.25 12.2436C11.25 12.2449 11.25 12.2462 11.25 12.2475C11.25 12.2488 11.25 12.2502 11.25 12.2515C11.25 12.2528 11.25 12.2542 11.25 12.2555C11.25 12.2569 11.25 12.2582 11.25 12.2596C11.25 12.2609 11.25 12.2623 11.25 12.2637C11.25 12.265 11.25 12.2664 11.25 12.2678C11.25 12.2692 11.25 12.2706 11.25 12.272C11.25 12.2734 11.25 12.2748 11.25 12.2762C11.25 12.2776 11.25 12.2791 11.25 12.2805C11.25 12.2819 11.25 12.2834 11.25 12.2848C11.25 12.2863 11.25 12.2877 11.25 12.2892C11.25 12.2906 11.25 12.2921 11.25 12.2936C11.25 12.2951 11.25 12.2965 11.25 12.298C11.25 12.2995 11.25 12.301 11.25 12.3025C11.25 12.304 11.25 12.3055 11.25 12.3071C11.25 12.3086 11.25 12.3101 11.25 12.3116C11.25 12.3132 11.25 12.3147 11.25 12.3163C11.25 12.3178 11.25 12.3194 11.25 12.3209C11.25 12.3225 11.25 12.3241 11.25 12.3257C11.25 12.3272 11.25 12.3288 11.25 12.3304C11.25 12.332 11.25 12.3336 11.25 12.3352C11.25 12.3368 11.25 12.3385 11.25 12.3401C11.25 12.3417 11.25 12.3434 11.25 12.345C11.25 12.3466 11.25 12.3483 11.25 12.35C11.25 12.3516 11.25 12.3533 11.25 12.355C11.25 12.3566 11.25 12.3583 11.25 12.36C11.25 12.3617 11.25 12.3634 11.25 12.3651C11.25 12.3668 11.25 12.3685 11.25 12.3702C11.25 12.372 11.25 12.3737 11.25 12.3754C11.25 12.3772 11.25 12.3789 11.25 12.3807C11.25 12.3824 11.25 12.3842 11.25 12.3859C11.25 12.3877 11.25 12.3895 11.25 12.3913C11.25 12.3931 11.25 12.3949 11.25 12.3967C11.25 12.3985 11.25 12.4003 11.25 12.4021C11.25 12.4039 11.25 12.4057 11.25 12.4076C11.25 12.4094 11.25 12.4113 11.25 12.4131C11.25 12.415 11.25 12.4168 11.25 12.4187C11.25 12.4206 11.25 12.4224 11.25 12.4243C11.25 12.4262 11.25 12.4281 11.25 12.43C11.25 12.4319 11.25 12.4338 11.25 12.4358C11.25 12.4377 11.25 12.4396 11.25 12.4415C11.25 12.4435 11.25 12.4454 11.25 12.4474C11.25 12.4493 11.25 12.4513 11.25 12.4533C11.25 12.4552 11.25 12.4572 11.25 12.4592C11.25 12.4612 11.25 12.4632 11.25 12.4652C11.25 12.4672 11.25 12.4692 11.25 12.4712C11.25 12.4732 11.25 12.4753 11.25 12.4773C11.25 12.4794 11.25 12.4814 11.25 12.4835C11.25 12.4855 11.25 12.4876 11.25 12.4897C11.25 12.4917 11.25 12.4938 11.25 12.4959C11.25 12.498 11.25 12.5001 11.25 12.5022C11.25 12.5043 11.25 12.5064 11.25 12.5086C11.25 12.5107 11.25 12.5128 11.25 12.515C11.25 12.5171 11.25 12.5193 11.25 12.5214C11.25 12.5236 11.25 12.5258 11.25 12.528C11.25 12.5301 11.25 12.5323 11.25 12.5345C11.25 12.5367 11.25 12.5389 11.25 12.5412C11.25 12.5434 11.25 12.5456 11.25 12.5478C11.25 12.5501 11.25 12.5523 11.25 12.5546C11.25 12.5568 11.25 12.5591 11.25 12.5614C11.25 12.5636 11.25 12.5659 11.25 12.5682C11.25 12.5705 11.25 12.5728 11.25 12.5751C11.25 12.5774 11.25 12.5797 11.25 12.5821C11.25 12.5844 11.25 12.5867 11.25 12.5891C11.25 12.5914 11.25 12.5938 11.25 12.5962C11.25 12.5985 11.25 12.6009 11.25 12.6033C11.25 12.6057 11.25 12.6081 11.25 12.6105C11.25 12.6129 11.25 12.6153 11.25 12.6177C11.25 12.6201 11.25 12.6226 11.25 12.625C11.25 12.6274 11.25 12.6299 11.25 12.6324C11.25 12.6348 11.25 12.6373 11.25 12.6398C11.25 12.6422 11.25 12.6447 11.25 12.6472C11.25 12.6497 11.25 12.6522 11.25 12.6548C11.25 12.6573 11.25 12.6598 11.25 12.6623C11.25 12.6649 11.25 12.6674 11.25 12.67C11.25 12.6725 11.25 12.6751 11.25 12.6777C11.25 12.6803 11.25 12.6828 11.25 12.6854C11.25 12.688 11.25 12.6906 11.25 12.6933C11.25 12.6959 11.25 12.6985 11.25 12.7011C11.25 12.7038 11.25 12.7064 11.25 12.7091C11.25 12.7117 11.25 12.7144 11.25 12.7171C11.25 12.7198 11.25 12.7224 11.25 12.7251C11.25 12.7278 11.25 12.7305 11.25 12.7332C11.25 12.736 11.25 12.7387 11.25 12.7414C11.25 12.7442 11.25 12.7469 11.25 12.7497C11.25 12.7524 11.25 12.7552 11.25 12.758C11.25 12.7607 11.25 12.7635 11.25 12.7663C11.25 12.7691 11.25 12.7719 11.25 12.7747C11.25 12.7776 11.25 12.7804 11.25 12.7832C11.25 12.7861 11.25 12.7889 11.25 12.7918C11.25 12.7946 11.25 12.7975 11.25 12.8004C11.25 12.8033 11.25 12.8061 11.25 12.809C11.25 12.8119 11.25 12.8149 11.25 12.8178C11.25 12.8207 11.25 12.8236 11.25 12.8266C11.25 12.8295 11.25 12.8325 11.25 12.8354C11.25 12.8384 11.25 12.8414 11.25 12.8443C11.25 12.8473 11.25 12.8503 11.25 12.8533C11.25 12.8563 11.25 12.8593 11.25 12.8624C11.25 12.8654 11.25 12.8684 11.25 12.8715C11.25 12.8745 11.25 12.8776 11.25 12.8807C11.25 12.8837 11.25 12.8868 11.25 12.8899C11.25 12.893 11.25 12.8961 11.25 12.8992C11.25 12.9023 11.25 12.9054 11.25 12.9086C11.25 12.9117 11.25 12.9148 11.25 12.918C11.25 12.9211 11.25 12.9243 11.25 12.9275C11.25 12.9307 11.25 12.9339 11.25 12.9371C11.25 12.9402 11.25 12.9435 11.25 12.9467C11.25 12.9499 11.25 12.9531 11.25 12.9564C11.25 12.9596 11.25 12.9629 11.25 12.9661C11.25 12.9694 11.25 12.9727 11.25 12.976C11.25 12.9792 11.25 12.9825 11.25 12.9858C11.25 12.9892 11.25 12.9925 11.25 12.9958C11.25 12.9991 11.25 13.0025 11.25 13.0058C11.25 13.0092 11.25 13.0125 11.25 13.0159C11.25 13.0193 11.25 13.0227 11.25 13.0261C11.25 13.0295 11.25 13.0329 11.25 13.0363C11.25 13.0397 11.25 13.0432 11.25 13.0466C11.25 13.05 11.25 13.0535 11.25 13.057C11.25 13.0604 11.25 13.0639 11.25 13.0674C11.25 13.0709 11.25 13.0744 11.25 13.0779C11.25 13.0814 11.25 13.0849 11.25 13.0885C11.25 13.092 11.25 13.0955 11.25 13.0991C11.25 13.1027 11.25 13.1062 11.25 13.1098C11.25 13.1134 11.25 13.117 11.25 13.1206C11.25 13.1242 11.25 13.1278 11.25 13.1314C11.25 13.135 11.25 13.1387 11.25 13.1423C11.25 13.146 11.25 13.1496 11.25 13.1533C11.25 13.157 11.25 13.1607 11.25 13.1644C11.25 13.1681 11.25 13.1718 11.25 13.1755C11.25 13.1792 11.25 13.1829 11.25 13.1867C11.25 13.1904 11.25 13.1942 11.25 13.198C11.25 13.2017 11.25 13.2055 11.25 13.2093C11.25 13.2131 11.25 13.2169 11.25 13.2207C11.25 13.2245 11.25 13.2283 11.25 13.2322C11.25 13.236 11.25 13.2399 11.25 13.2437C11.25 13.2476 11.25 13.2515 11.25 13.2554C11.25 13.2592 11.25 13.2631 11.25 13.2671C11.25 13.271 11.25 13.2749 11.25 13.2788C11.25 13.2828 11.25 13.2867 11.25 13.2907C11.25 13.2946 11.25 13.2986 11.25 13.3026C11.25 13.3066 11.25 13.3106 11.25 13.3146C11.25 13.3186 11.25 13.3226 11.25 13.3266C11.25 13.3307 11.25 13.3347 11.25 13.3388C11.25 13.3428 11.25 13.3469 11.25 13.351C11.25 13.355 11.25 13.3591 11.25 13.3632C11.25 13.3674 11.25 13.3715 11.25 13.3756C11.25 13.3797 11.25 13.3839 11.25 13.388C11.25 13.3922 11.25 13.3964 11.25 13.4005C11.25 13.4047 11.25 13.4089 11.25 13.4131C11.25 13.4173 11.25 13.4215 11.25 13.4258C11.25 13.43 11.25 13.4342 11.25 13.4385C11.25 13.4428 11.25 13.447 11.25 13.4513C11.25 13.4556 11.25 13.4599 11.25 13.4642C11.25 13.4685 11.25 13.4728 11.25 13.4771C11.25 13.4815 11.25 13.4858 11.25 13.4902C11.25 13.4945 11.25 13.4989 11.25 13.5033C11.25 13.5077 11.25 13.5121 11.25 13.5165C11.25 13.5209 11.25 13.5253 11.25 13.5297C11.25 13.5342 11.25 13.5386 11.25 13.5431C11.25 13.5475 11.25 13.552 11.25 13.5565C11.25 13.561 11.25 13.5655 11.25 13.57C11.25 13.5745 11.25 13.579 11.25 13.5836C11.25 13.5881 11.25 13.5927 11.25 13.5972C11.25 13.6018 11.25 13.6064 11.25 13.6109C11.25 13.6155 11.25 13.6201 11.25 13.6248C11.25 13.6294 11.25 13.634 11.25 13.6386C11.25 13.6433 11.25 13.6479 11.25 13.6526C11.25 13.6573 11.25 13.662 11.25 13.6667C11.25 13.6713 11.25 13.6761 11.25 13.6808C11.25 13.6855 11.25 13.6902 11.25 13.695C11.25 13.6997 11.25 13.7045 11.25 13.7093C11.25 13.714 11.25 13.7188 11.25 13.7236C11.25 13.7284 11.25 13.7332 11.25 13.7381C11.25 13.7429 11.25 13.7477 11.25 13.7526C11.25 13.7575 11.25 13.7623 11.25 13.7672C11.25 13.7721 11.25 13.777 11.25 13.7819C11.25 13.7868 11.25 13.7917 11.25 13.7967C11.25 13.8016 11.25 13.8065 11.25 13.8115C11.25 13.8165 11.25 13.8214 11.25 13.8264C11.25 13.8314 11.25 13.8364 11.25 13.8414C11.25 13.8465 11.25 13.8515 11.25 13.8565C11.25 13.8616 11.25 13.8666 11.25 13.8717C11.25 13.8768 11.25 13.8819 11.25 13.887C11.25 13.8921 11.25 13.8972 11.25 13.9023C11.25 13.9074 11.25 13.9126 11.25 13.9177C11.25 13.9229 11.25 13.9281 11.25 13.9332C11.25 13.9384 11.25 13.9436 11.25 13.9488C11.25 13.954 11.25 13.9593 11.25 13.9645C11.25 13.9697 11.25 13.975 11.25 13.9803C11.25 13.9855 11.25 13.9908 11.25 13.9961C11.25 14.0014 11.25 14.0067 11.25 14.012C11.25 14.0174 11.25 14.0227 11.25 14.028C11.25 14.0334 11.25 14.0388 11.25 14.0441C11.25 14.0495 11.25 14.0549 11.25 14.0603C11.25 14.0657 11.25 14.0712 11.25 14.0766C11.25 14.082 11.25 14.0875 11.25 14.0929C11.25 14.0984 11.25 14.1039 11.25 14.1094C11.25 14.1149 11.25 14.1204 11.25 14.1259C11.25 14.1314 11.25 14.137 11.25 14.1425C11.25 14.1481 11.25 14.1536 11.25 14.1592C11.25 14.1648 11.25 14.1704 11.25 14.176C11.25 14.1816 11.25 14.1872 11.25 14.1929C11.25 14.1985 11.25 14.2041 11.25 14.2098C11.25 14.2155 11.25 14.2212 11.25 14.2268C11.25 14.2325 11.25 14.2383 11.25 14.244C11.25 14.2497 11.25 14.2554 11.25 14.2612C11.25 14.2669 11.25 14.2727 11.25 14.2785C11.25 14.2843 11.25 14.2901 11.25 14.2959C11.25 14.3017 11.25 14.3075 11.25 14.3134C11.25 14.3192 11.25 14.3251 11.25 14.3309C11.25 14.3368 11.25 14.3427 11.25 14.3486C11.25 14.3545 11.25 14.3604 11.25 14.3663C11.25 14.3723 11.25 14.3782 11.25 14.3842C11.25 14.3901 11.25 14.3961 11.25 14.4021C11.25 14.4081 11.25 14.4141 11.25 14.4201C11.25 14.4261 11.25 14.4322 11.25 14.4382C11.25 14.4443 11.25 14.4503 11.25 14.4564C11.25 14.4625 11.25 14.4686 11.25 14.4747C11.25 14.4808 11.25 14.487 11.25 14.4931C11.25 14.4992 11.25 14.5054 11.25 14.5116C11.25 14.5177 11.25 14.5239 11.25 14.5301C11.25 14.5363 11.25 14.5425 11.25 14.5488C11.25 14.555 11.25 14.5612 11.25 14.5675C11.25 14.5738 11.25 14.58 11.25 14.5863C11.25 14.5926 11.25 14.5989 11.25 14.6053C11.25 14.6116 11.25 14.6179 11.25 14.6243C11.25 14.6306 11.25 14.637 11.25 14.6434C11.25 14.6498 11.25 14.6562 11.25 14.6626C11.25 14.669 11.25 14.6754 11.25 14.6819C11.25 14.6883 11.25 14.6948 11.25 14.7013C11.25 14.7077 11.25 14.7142 11.25 14.7208C11.25 14.7273 11.25 14.7338 11.25 14.7403C11.25 14.7469 11.25 14.7534 11.25 14.76C11.25 14.7666 11.25 14.7732 11.25 14.7798C11.25 14.7864 11.25 14.793 11.25 14.7996C11.25 14.8062 11.25 14.8129 11.25 14.8196C11.25 14.8262 11.25 14.8329 11.25 14.8396C11.25 14.8463 11.25 14.853 11.25 14.8597C11.25 14.8665 11.25 14.8732 11.25 14.88C11.25 14.8867 11.25 14.8935 11.25 14.9003C11.25 14.9071 11.25 14.9139 11.25 14.9207C11.25 14.9276 11.25 14.9344 11.25 14.9413C11.25 14.9481 11.25 14.955 11.25 14.9619C11.25 14.9688 11.25 14.9757 11.25 14.9826C11.25 14.9895 11.25 14.9964 11.25 15.0034C11.25 15.0103 11.25 15.0173 11.25 15.0243C11.25 15.0313 11.25 15.0383 11.25 15.0453C11.25 15.0523 11.25 15.0593 11.25 15.0664C11.25 15.0734 11.25 15.0805 11.25 15.0876C11.25 15.0947 11.25 15.1018 11.25 15.1089C11.25 15.116 11.25 15.1231 11.25 15.1303C11.25 15.1374 11.25 15.1446 11.25 15.1518C11.25 15.1589 11.25 15.1661 11.25 15.1734C11.25 15.1806 11.25 15.1878 11.25 15.195C11.25 15.2023 11.25 15.2095 11.25 15.2168C11.25 15.2241 11.25 15.2314 11.25 15.2387C11.25 15.246 11.25 15.2533 11.25 15.2607C11.25 15.268 11.25 15.2754 11.25 15.2828C11.25 15.2901 11.25 15.2975 11.25 15.3049C11.25 15.3124 11.25 15.3198 11.25 15.3272C11.25 15.3347 11.25 15.3421 11.25 15.3496C11.25 15.3571 11.25 15.3646 11.25 15.3721C11.25 15.3796 11.25 15.3871 11.25 15.3947C11.25 15.4022 11.25 15.4098 11.25 15.4174C11.25 15.4249 11.25 15.4325 11.25 15.4401C11.25 15.4477 11.25 15.4554 11.25 15.463C11.25 15.4707 11.25 15.4783 11.25 15.486C11.25 15.4937 11.25 15.5014 11.25 15.5091C11.25 15.5168 11.25 15.5245 11.25 15.5323C11.25 15.54 11.25 15.5478 11.25 15.5556C11.25 15.5633 11.25 15.5711 11.25 15.579C11.25 15.5868 11.25 15.5946 11.25 15.6025C11.25 15.6103 11.25 15.6182 11.25 15.626C11.25 15.6339 11.25 15.6418 11.25 15.6497C11.25 15.6577 11.25 15.6656 11.25 15.6736C11.25 15.6815 11.25 15.6895 11.25 15.6975C11.25 15.7054 11.25 15.7134 11.25 15.7215C11.25 15.7295 11.25 15.7375 11.25 15.7456C11.25 15.7536 11.25 15.7617 11.25 15.7698C11.25 15.7779 11.25 15.786 11.25 15.7941C11.25 15.8022 11.25 15.8104 11.25 15.8185C11.25 15.8267 11.25 15.8349 11.25 15.8431C11.25 15.8513 11.25 15.8595 11.25 15.8677C11.25 15.8759 11.25 15.8842 11.25 15.8924C11.25 15.9007 11.25 15.909 11.25 15.9173C11.25 15.9256 11.25 15.9339 11.25 15.9422C11.25 15.9506 11.25 15.9589 11.25 15.9673C11.25 15.9757 11.25 15.9841 11.25 15.9925C11.25 16.0009 11.25 16.0093 11.25 16.0177C11.25 16.0262 11.25 16.0346 11.25 16.0431C11.25 16.0516 11.25 16.0601 11.25 16.0686C11.25 16.0771 11.25 16.0856 11.25 16.0942C11.25 16.1027 11.25 16.1113 11.25 16.1199C11.25 16.1285 11.25 16.1371 11.25 16.1457C11.25 16.1543 11.25 16.1629 11.25 16.1716C11.25 16.1802 11.25 16.1889 11.25 16.1976C11.25 16.2063 11.25 16.215 11.25 16.2237C11.25 16.2325 11.25 16.2412 11.25 16.25C11.25 16.2587 11.25 16.2675 11.25 16.2763C11.25 16.2851 11.25 16.2939 11.25 16.3028C11.25 16.3116 11.25 16.3204 11.25 16.3293C11.25 16.3382 11.25 16.3471 11.25 16.356C11.25 16.3649 11.25 16.3738 11.25 16.3828C11.25 16.3917 11.25 16.4007 11.25 16.4097C11.25 16.4186 11.25 16.4276 11.25 16.4367C11.25 16.4457 11.25 16.4547 11.25 16.4638C11.25 16.4728 11.25 16.4819 11.25 16.491C11.25 16.5001 11.25 16.5092 11.25 16.5183C11.25 16.5274 11.25 16.5366 11.25 16.5457C11.25 16.5549 11.25 16.5641 11.25 16.5733C11.25 16.5825 11.25 16.5917 11.25 16.601C11.25 16.6102 11.25 16.6195 11.25 16.6287C11.25 16.638 11.25 16.6473 11.25 16.6566C11.25 16.6659 11.25 16.6753 11.25 16.6846C11.25 16.694 11.25 16.7033 11.25 16.7127C11.25 16.7221 11.25 16.7315 11.25 16.7409C11.25 16.7504 11.25 16.7598 11.25 16.7693C11.25 16.7787 11.25 16.7882 11.25 16.7977C11.25 16.8072 11.25 16.8167 11.25 16.8263C11.25 16.8358 11.25 16.8454 11.25 16.8549C11.25 16.8645 11.25 16.8741 11.25 16.8837C11.25 16.8933 11.25 16.903 11.25 16.9126C11.25 16.9223 11.25 16.9319 11.25 16.9416C11.25 16.9513 11.25 16.961 11.25 16.9708C11.25 16.9805 11.25 16.9902 11.25 17H12.75C12.75 16.9902 12.75 16.9805 12.75 16.9708C12.75 16.961 12.75 16.9513 12.75 16.9416C12.75 16.9319 12.75 16.9223 12.75 16.9126C12.75 16.903 12.75 16.8933 12.75 16.8837C12.75 16.8741 12.75 16.8645 12.75 16.8549C12.75 16.8454 12.75 16.8358 12.75 16.8263C12.75 16.8167 12.75 16.8072 12.75 16.7977C12.75 16.7882 12.75 16.7787 12.75 16.7693C12.75 16.7598 12.75 16.7504 12.75 16.7409C12.75 16.7315 12.75 16.7221 12.75 16.7127C12.75 16.7033 12.75 16.694 12.75 16.6846C12.75 16.6753 12.75 16.6659 12.75 16.6566C12.75 16.6473 12.75 16.638 12.75 16.6287C12.75 16.6195 12.75 16.6102 12.75 16.601C12.75 16.5917 12.75 16.5825 12.75 16.5733C12.75 16.5641 12.75 16.5549 12.75 16.5457C12.75 16.5366 12.75 16.5274 12.75 16.5183C12.75 16.5092 12.75 16.5001 12.75 16.491C12.75 16.4819 12.75 16.4728 12.75 16.4638C12.75 16.4547 12.75 16.4457 12.75 16.4367C12.75 16.4276 12.75 16.4186 12.75 16.4097C12.75 16.4007 12.75 16.3917 12.75 16.3828C12.75 16.3738 12.75 16.3649 12.75 16.356C12.75 16.3471 12.75 16.3382 12.75 16.3293C12.75 16.3204 12.75 16.3116 12.75 16.3028C12.75 16.2939 12.75 16.2851 12.75 16.2763C12.75 16.2675 12.75 16.2587 12.75 16.25C12.75 16.2412 12.75 16.2325 12.75 16.2237C12.75 16.215 12.75 16.2063 12.75 16.1976C12.75 16.1889 12.75 16.1802 12.75 16.1716C12.75 16.1629 12.75 16.1543 12.75 16.1457C12.75 16.1371 12.75 16.1285 12.75 16.1199C12.75 16.1113 12.75 16.1027 12.75 16.0942C12.75 16.0856 12.75 16.0771 12.75 16.0686C12.75 16.0601 12.75 16.0516 12.75 16.0431C12.75 16.0346 12.75 16.0262 12.75 16.0177C12.75 16.0093 12.75 16.0009 12.75 15.9925C12.75 15.9841 12.75 15.9757 12.75 15.9673C12.75 15.9589 12.75 15.9506 12.75 15.9422C12.75 15.9339 12.75 15.9256 12.75 15.9173C12.75 15.909 12.75 15.9007 12.75 15.8924C12.75 15.8842 12.75 15.8759 12.75 15.8677C12.75 15.8595 12.75 15.8513 12.75 15.8431C12.75 15.8349 12.75 15.8267 12.75 15.8185C12.75 15.8104 12.75 15.8022 12.75 15.7941C12.75 15.786 12.75 15.7779 12.75 15.7698C12.75 15.7617 12.75 15.7536 12.75 15.7456C12.75 15.7375 12.75 15.7295 12.75 15.7215C12.75 15.7134 12.75 15.7054 12.75 15.6975C12.75 15.6895 12.75 15.6815 12.75 15.6736C12.75 15.6656 12.75 15.6577 12.75 15.6497C12.75 15.6418 12.75 15.6339 12.75 15.626C12.75 15.6182 12.75 15.6103 12.75 15.6025C12.75 15.5946 12.75 15.5868 12.75 15.579C12.75 15.5711 12.75 15.5633 12.75 15.5556C12.75 15.5478 12.75 15.54 12.75 15.5323C12.75 15.5245 12.75 15.5168 12.75 15.5091C12.75 15.5014 12.75 15.4937 12.75 15.486C12.75 15.4783 12.75 15.4707 12.75 15.463C12.75 15.4554 12.75 15.4477 12.75 15.4401C12.75 15.4325 12.75 15.4249 12.75 15.4174C12.75 15.4098 12.75 15.4022 12.75 15.3947C12.75 15.3871 12.75 15.3796 12.75 15.3721C12.75 15.3646 12.75 15.3571 12.75 15.3496C12.75 15.3421 12.75 15.3347 12.75 15.3272C12.75 15.3198 12.75 15.3124 12.75 15.3049C12.75 15.2975 12.75 15.2901 12.75 15.2828C12.75 15.2754 12.75 15.268 12.75 15.2607C12.75 15.2533 12.75 15.246 12.75 15.2387C12.75 15.2314 12.75 15.2241 12.75 15.2168C12.75 15.2095 12.75 15.2023 12.75 15.195C12.75 15.1878 12.75 15.1806 12.75 15.1734C12.75 15.1661 12.75 15.1589 12.75 15.1518C12.75 15.1446 12.75 15.1374 12.75 15.1303C12.75 15.1231 12.75 15.116 12.75 15.1089C12.75 15.1018 12.75 15.0947 12.75 15.0876C12.75 15.0805 12.75 15.0734 12.75 15.0664C12.75 15.0593 12.75 15.0523 12.75 15.0453C12.75 15.0383 12.75 15.0313 12.75 15.0243C12.75 15.0173 12.75 15.0103 12.75 15.0034C12.75 14.9964 12.75 14.9895 12.75 14.9826C12.75 14.9757 12.75 14.9688 12.75 14.9619C12.75 14.955 12.75 14.9481 12.75 14.9413C12.75 14.9344 12.75 14.9276 12.75 14.9207C12.75 14.9139 12.75 14.9071 12.75 14.9003C12.75 14.8935 12.75 14.8867 12.75 14.88C12.75 14.8732 12.75 14.8665 12.75 14.8597C12.75 14.853 12.75 14.8463 12.75 14.8396C12.75 14.8329 12.75 14.8262 12.75 14.8196C12.75 14.8129 12.75 14.8062 12.75 14.7996C12.75 14.793 12.75 14.7864 12.75 14.7798C12.75 14.7732 12.75 14.7666 12.75 14.76C12.75 14.7534 12.75 14.7469 12.75 14.7403C12.75 14.7338 12.75 14.7273 12.75 14.7208C12.75 14.7142 12.75 14.7077 12.75 14.7013C12.75 14.6948 12.75 14.6883 12.75 14.6819C12.75 14.6754 12.75 14.669 12.75 14.6626C12.75 14.6562 12.75 14.6498 12.75 14.6434C12.75 14.637 12.75 14.6306 12.75 14.6243C12.75 14.6179 12.75 14.6116 12.75 14.6053C12.75 14.5989 12.75 14.5926 12.75 14.5863C12.75 14.58 12.75 14.5738 12.75 14.5675C12.75 14.5612 12.75 14.555 12.75 14.5488C12.75 14.5425 12.75 14.5363 12.75 14.5301C12.75 14.5239 12.75 14.5177 12.75 14.5116C12.75 14.5054 12.75 14.4992 12.75 14.4931C12.75 14.487 12.75 14.4808 12.75 14.4747C12.75 14.4686 12.75 14.4625 12.75 14.4564C12.75 14.4503 12.75 14.4443 12.75 14.4382C12.75 14.4322 12.75 14.4261 12.75 14.4201C12.75 14.4141 12.75 14.4081 12.75 14.4021C12.75 14.3961 12.75 14.3901 12.75 14.3842C12.75 14.3782 12.75 14.3723 12.75 14.3663C12.75 14.3604 12.75 14.3545 12.75 14.3486C12.75 14.3427 12.75 14.3368 12.75 14.3309C12.75 14.3251 12.75 14.3192 12.75 14.3134C12.75 14.3075 12.75 14.3017 12.75 14.2959C12.75 14.2901 12.75 14.2843 12.75 14.2785C12.75 14.2727 12.75 14.2669 12.75 14.2612C12.75 14.2554 12.75 14.2497 12.75 14.244C12.75 14.2383 12.75 14.2325 12.75 14.2268C12.75 14.2212 12.75 14.2155 12.75 14.2098C12.75 14.2041 12.75 14.1985 12.75 14.1929C12.75 14.1872 12.75 14.1816 12.75 14.176C12.75 14.1704 12.75 14.1648 12.75 14.1592C12.75 14.1536 12.75 14.1481 12.75 14.1425C12.75 14.137 12.75 14.1314 12.75 14.1259C12.75 14.1204 12.75 14.1149 12.75 14.1094C12.75 14.1039 12.75 14.0984 12.75 14.0929C12.75 14.0875 12.75 14.082 12.75 14.0766C12.75 14.0712 12.75 14.0657 12.75 14.0603C12.75 14.0549 12.75 14.0495 12.75 14.0441C12.75 14.0388 12.75 14.0334 12.75 14.028C12.75 14.0227 12.75 14.0174 12.75 14.012C12.75 14.0067 12.75 14.0014 12.75 13.9961C12.75 13.9908 12.75 13.9855 12.75 13.9803C12.75 13.975 12.75 13.9697 12.75 13.9645C12.75 13.9593 12.75 13.954 12.75 13.9488C12.75 13.9436 12.75 13.9384 12.75 13.9332C12.75 13.9281 12.75 13.9229 12.75 13.9177C12.75 13.9126 12.75 13.9074 12.75 13.9023C12.75 13.8972 12.75 13.8921 12.75 13.887C12.75 13.8819 12.75 13.8768 12.75 13.8717C12.75 13.8666 12.75 13.8616 12.75 13.8565C12.75 13.8515 12.75 13.8465 12.75 13.8414C12.75 13.8364 12.75 13.8314 12.75 13.8264C12.75 13.8214 12.75 13.8165 12.75 13.8115C12.75 13.8065 12.75 13.8016 12.75 13.7967C12.75 13.7917 12.75 13.7868 12.75 13.7819C12.75 13.777 12.75 13.7721 12.75 13.7672C12.75 13.7623 12.75 13.7575 12.75 13.7526C12.75 13.7477 12.75 13.7429 12.75 13.7381C12.75 13.7332 12.75 13.7284 12.75 13.7236C12.75 13.7188 12.75 13.714 12.75 13.7093C12.75 13.7045 12.75 13.6997 12.75 13.695C12.75 13.6902 12.75 13.6855 12.75 13.6808C12.75 13.6761 12.75 13.6713 12.75 13.6667C12.75 13.662 12.75 13.6573 12.75 13.6526C12.75 13.6479 12.75 13.6433 12.75 13.6386C12.75 13.634 12.75 13.6294 12.75 13.6248C12.75 13.6201 12.75 13.6155 12.75 13.6109C12.75 13.6064 12.75 13.6018 12.75 13.5972C12.75 13.5927 12.75 13.5881 12.75 13.5836C12.75 13.579 12.75 13.5745 12.75 13.57C12.75 13.5655 12.75 13.561 12.75 13.5565C12.75 13.552 12.75 13.5475 12.75 13.5431C12.75 13.5386 12.75 13.5342 12.75 13.5297C12.75 13.5253 12.75 13.5209 12.75 13.5165C12.75 13.5121 12.75 13.5077 12.75 13.5033C12.75 13.4989 12.75 13.4945 12.75 13.4902C12.75 13.4858 12.75 13.4815 12.75 13.4771C12.75 13.4728 12.75 13.4685 12.75 13.4642C12.75 13.4599 12.75 13.4556 12.75 13.4513C12.75 13.447 12.75 13.4428 12.75 13.4385C12.75 13.4342 12.75 13.43 12.75 13.4258C12.75 13.4215 12.75 13.4173 12.75 13.4131C12.75 13.4089 12.75 13.4047 12.75 13.4005C12.75 13.3964 12.75 13.3922 12.75 13.388C12.75 13.3839 12.75 13.3797 12.75 13.3756C12.75 13.3715 12.75 13.3674 12.75 13.3632C12.75 13.3591 12.75 13.355 12.75 13.351C12.75 13.3469 12.75 13.3428 12.75 13.3388C12.75 13.3347 12.75 13.3307 12.75 13.3266C12.75 13.3226 12.75 13.3186 12.75 13.3146C12.75 13.3106 12.75 13.3066 12.75 13.3026C12.75 13.2986 12.75 13.2946 12.75 13.2907C12.75 13.2867 12.75 13.2828 12.75 13.2788C12.75 13.2749 12.75 13.271 12.75 13.2671C12.75 13.2631 12.75 13.2592 12.75 13.2554C12.75 13.2515 12.75 13.2476 12.75 13.2437C12.75 13.2399 12.75 13.236 12.75 13.2322C12.75 13.2283 12.75 13.2245 12.75 13.2207C12.75 13.2169 12.75 13.2131 12.75 13.2093C12.75 13.2055 12.75 13.2017 12.75 13.198C12.75 13.1942 12.75 13.1904 12.75 13.1867C12.75 13.1829 12.75 13.1792 12.75 13.1755C12.75 13.1718 12.75 13.1681 12.75 13.1644C12.75 13.1607 12.75 13.157 12.75 13.1533C12.75 13.1496 12.75 13.146 12.75 13.1423C12.75 13.1387 12.75 13.135 12.75 13.1314C12.75 13.1278 12.75 13.1242 12.75 13.1206C12.75 13.117 12.75 13.1134 12.75 13.1098C12.75 13.1062 12.75 13.1027 12.75 13.0991C12.75 13.0955 12.75 13.092 12.75 13.0885C12.75 13.0849 12.75 13.0814 12.75 13.0779C12.75 13.0744 12.75 13.0709 12.75 13.0674C12.75 13.0639 12.75 13.0604 12.75 13.057C12.75 13.0535 12.75 13.05 12.75 13.0466C12.75 13.0432 12.75 13.0397 12.75 13.0363C12.75 13.0329 12.75 13.0295 12.75 13.0261C12.75 13.0227 12.75 13.0193 12.75 13.0159C12.75 13.0125 12.75 13.0092 12.75 13.0058C12.75 13.0025 12.75 12.9991 12.75 12.9958C12.75 12.9925 12.75 12.9892 12.75 12.9858C12.75 12.9825 12.75 12.9792 12.75 12.976C12.75 12.9727 12.75 12.9694 12.75 12.9661C12.75 12.9629 12.75 12.9596 12.75 12.9564C12.75 12.9531 12.75 12.9499 12.75 12.9467C12.75 12.9435 12.75 12.9402 12.75 12.9371C12.75 12.9339 12.75 12.9307 12.75 12.9275C12.75 12.9243 12.75 12.9211 12.75 12.918C12.75 12.9148 12.75 12.9117 12.75 12.9086C12.75 12.9054 12.75 12.9023 12.75 12.8992C12.75 12.8961 12.75 12.893 12.75 12.8899C12.75 12.8868 12.75 12.8837 12.75 12.8807C12.75 12.8776 12.75 12.8745 12.75 12.8715C12.75 12.8684 12.75 12.8654 12.75 12.8624C12.75 12.8593 12.75 12.8563 12.75 12.8533C12.75 12.8503 12.75 12.8473 12.75 12.8443C12.75 12.8414 12.75 12.8384 12.75 12.8354C12.75 12.8325 12.75 12.8295 12.75 12.8266C12.75 12.8236 12.75 12.8207 12.75 12.8178C12.75 12.8149 12.75 12.8119 12.75 12.809C12.75 12.8061 12.75 12.8033 12.75 12.8004C12.75 12.7975 12.75 12.7946 12.75 12.7918C12.75 12.7889 12.75 12.7861 12.75 12.7832C12.75 12.7804 12.75 12.7776 12.75 12.7747C12.75 12.7719 12.75 12.7691 12.75 12.7663C12.75 12.7635 12.75 12.7607 12.75 12.758C12.75 12.7552 12.75 12.7524 12.75 12.7497C12.75 12.7469 12.75 12.7442 12.75 12.7414C12.75 12.7387 12.75 12.736 12.75 12.7332C12.75 12.7305 12.75 12.7278 12.75 12.7251C12.75 12.7224 12.75 12.7198 12.75 12.7171C12.75 12.7144 12.75 12.7117 12.75 12.7091C12.75 12.7064 12.75 12.7038 12.75 12.7011C12.75 12.6985 12.75 12.6959 12.75 12.6933C12.75 12.6906 12.75 12.688 12.75 12.6854C12.75 12.6828 12.75 12.6803 12.75 12.6777C12.75 12.6751 12.75 12.6725 12.75 12.67C12.75 12.6674 12.75 12.6649 12.75 12.6623C12.75 12.6598 12.75 12.6573 12.75 12.6548C12.75 12.6522 12.75 12.6497 12.75 12.6472C12.75 12.6447 12.75 12.6422 12.75 12.6398C12.75 12.6373 12.75 12.6348 12.75 12.6324C12.75 12.6299 12.75 12.6274 12.75 12.625C12.75 12.6226 12.75 12.6201 12.75 12.6177C12.75 12.6153 12.75 12.6129 12.75 12.6105C12.75 12.6081 12.75 12.6057 12.75 12.6033C12.75 12.6009 12.75 12.5985 12.75 12.5962C12.75 12.5938 12.75 12.5914 12.75 12.5891C12.75 12.5867 12.75 12.5844 12.75 12.5821C12.75 12.5797 12.75 12.5774 12.75 12.5751C12.75 12.5728 12.75 12.5705 12.75 12.5682C12.75 12.5659 12.75 12.5636 12.75 12.5614C12.75 12.5591 12.75 12.5568 12.75 12.5546C12.75 12.5523 12.75 12.5501 12.75 12.5478C12.75 12.5456 12.75 12.5434 12.75 12.5412C12.75 12.5389 12.75 12.5367 12.75 12.5345C12.75 12.5323 12.75 12.5301 12.75 12.528C12.75 12.5258 12.75 12.5236 12.75 12.5214C12.75 12.5193 12.75 12.5171 12.75 12.515C12.75 12.5128 12.75 12.5107 12.75 12.5086C12.75 12.5064 12.75 12.5043 12.75 12.5022C12.75 12.5001 12.75 12.498 12.75 12.4959C12.75 12.4938 12.75 12.4917 12.75 12.4897C12.75 12.4876 12.75 12.4855 12.75 12.4835C12.75 12.4814 12.75 12.4794 12.75 12.4773C12.75 12.4753 12.75 12.4732 12.75 12.4712C12.75 12.4692 12.75 12.4672 12.75 12.4652C12.75 12.4632 12.75 12.4612 12.75 12.4592C12.75 12.4572 12.75 12.4552 12.75 12.4533C12.75 12.4513 12.75 12.4493 12.75 12.4474C12.75 12.4454 12.75 12.4435 12.75 12.4415C12.75 12.4396 12.75 12.4377 12.75 12.4358C12.75 12.4338 12.75 12.4319 12.75 12.43C12.75 12.4281 12.75 12.4262 12.75 12.4243C12.75 12.4224 12.75 12.4206 12.75 12.4187C12.75 12.4168 12.75 12.415 12.75 12.4131C12.75 12.4113 12.75 12.4094 12.75 12.4076C12.75 12.4057 12.75 12.4039 12.75 12.4021C12.75 12.4003 12.75 12.3985 12.75 12.3967C12.75 12.3949 12.75 12.3931 12.75 12.3913C12.75 12.3895 12.75 12.3877 12.75 12.3859C12.75 12.3842 12.75 12.3824 12.75 12.3807C12.75 12.3789 12.75 12.3772 12.75 12.3754C12.75 12.3737 12.75 12.372 12.75 12.3702C12.75 12.3685 12.75 12.3668 12.75 12.3651C12.75 12.3634 12.75 12.3617 12.75 12.36C12.75 12.3583 12.75 12.3566 12.75 12.355C12.75 12.3533 12.75 12.3516 12.75 12.35C12.75 12.3483 12.75 12.3466 12.75 12.345C12.75 12.3434 12.75 12.3417 12.75 12.3401C12.75 12.3385 12.75 12.3368 12.75 12.3352C12.75 12.3336 12.75 12.332 12.75 12.3304C12.75 12.3288 12.75 12.3272 12.75 12.3257C12.75 12.3241 12.75 12.3225 12.75 12.3209C12.75 12.3194 12.75 12.3178 12.75 12.3163C12.75 12.3147 12.75 12.3132 12.75 12.3116C12.75 12.3101 12.75 12.3086 12.75 12.3071C12.75 12.3055 12.75 12.304 12.75 12.3025C12.75 12.301 12.75 12.2995 12.75 12.298C12.75 12.2965 12.75 12.2951 12.75 12.2936C12.75 12.2921 12.75 12.2906 12.75 12.2892C12.75 12.2877 12.75 12.2863 12.75 12.2848C12.75 12.2834 12.75 12.2819 12.75 12.2805C12.75 12.2791 12.75 12.2776 12.75 12.2762C12.75 12.2748 12.75 12.2734 12.75 12.272C12.75 12.2706 12.75 12.2692 12.75 12.2678C12.75 12.2664 12.75 12.265 12.75 12.2637C12.75 12.2623 12.75 12.2609 12.75 12.2596C12.75 12.2582 12.75 12.2569 12.75 12.2555C12.75 12.2542 12.75 12.2528 12.75 12.2515C12.75 12.2502 12.75 12.2488 12.75 12.2475C12.75 12.2462 12.75 12.2449 12.75 12.2436C12.75 12.2423 12.75 12.241 12.75 12.2397C12.75 12.2384 12.75 12.2371 12.75 12.2359C12.75 12.2346 12.75 12.2333 12.75 12.2321C12.75 12.2308 12.75 12.2296 12.75 12.2283C12.75 12.2271 12.75 12.2258 12.75 12.2246C12.75 12.2233 12.75 12.2221 12.75 12.2209C12.75 12.2197 12.75 12.2185 12.75 12.2173C12.75 12.2161 12.75 12.2149 12.75 12.2137C12.75 12.2125 12.75 12.2113 12.75 12.2101C12.75 12.2089 12.75 12.2077 12.75 12.2066C12.75 12.2054 12.75 12.2042 12.75 12.2031C12.75 12.2019 12.75 12.2008 12.75 12.1997C12.75 12.1985 12.75 12.1974 12.75 12.1962C12.75 12.1951 12.75 12.194 12.75 12.1929C12.75 12.1918 12.75 12.1907 12.75 12.1896C12.75 12.1885 12.75 12.1874 12.75 12.1863C12.75 12.1852 12.75 12.1841 12.75 12.183C12.75 12.1819 12.75 12.1809 12.75 12.1798C12.75 12.1787 12.75 12.1777 12.75 12.1766C12.75 12.1756 12.75 12.1745 12.75 12.1735C12.75 12.1725 12.75 12.1714 12.75 12.1704C12.75 12.1694 12.75 12.1684 12.75 12.1673C12.75 12.1663 12.75 12.1653 12.75 12.1643C12.75 12.1633 12.75 12.1623 12.75 12.1613C12.75 12.1603 12.75 12.1594 12.75 12.1584C12.75 12.1574 12.75 12.1564 12.75 12.1555C12.75 12.1545 12.75 12.1535 12.75 12.1526C12.75 12.1516 12.75 12.1507 12.75 12.1497C12.75 12.1488 12.75 12.1479 12.75 12.1469C12.75 12.146 12.75 12.1451 12.75 12.1442C12.75 12.1432 12.75 12.1423 12.75 12.1414C12.75 12.1405 12.75 12.1396 12.75 12.1387C12.75 12.1378 12.75 12.1369 12.75 12.1361C12.75 12.1352 12.75 12.1343 12.75 12.1334C12.75 12.1326 12.75 12.1317 12.75 12.1308C12.75 12.13 12.75 12.1291 12.75 12.1283C12.75 12.1274 12.75 12.1266 12.75 12.1257C12.75 12.1249 12.75 12.1241 12.75 12.1232C12.75 12.1224 12.75 12.1216 12.75 12.1208C12.75 12.12 12.75 12.1191 12.75 12.1183C12.75 12.1175 12.75 12.1167 12.75 12.1159C12.75 12.1151 12.75 12.1144 12.75 12.1136C12.75 12.1128 12.75 12.112 12.75 12.1112C12.75 12.1105 12.75 12.1097 12.75 12.1089C12.75 12.1082 12.75 12.1074 12.75 12.1067C12.75 12.1059 12.75 12.1052 12.75 12.1044C12.75 12.1037 12.75 12.103 12.75 12.1022C12.75 12.1015 12.75 12.1008 12.75 12.1C12.75 12.0993 12.75 12.0986 12.75 12.0979C12.75 12.0972 12.75 12.0965 12.75 12.0958C12.75 12.0951 12.75 12.0944 12.75 12.0937C12.75 12.093 12.75 12.0923 12.75 12.0917C12.75 12.091 12.75 12.0903 12.75 12.0896C12.75 12.089 12.75 12.0883 12.75 12.0876C12.75 12.087 12.75 12.0863 12.75 12.0857C12.75 12.085 12.75 12.0844 12.75 12.0837C12.75 12.0831 12.75 12.0825 12.75 12.0818C12.75 12.0812 12.75 12.0806 12.75 12.08C12.75 12.0794 12.75 12.0787 12.75 12.0781C12.75 12.0775 12.75 12.0769 12.75 12.0763C12.75 12.0757 12.75 12.0751 12.75 12.0745C12.75 12.0739 12.75 12.0733 12.75 12.0728C12.75 12.0722 12.75 12.0716 12.75 12.071C12.75 12.0705 12.75 12.0699 12.75 12.0693C12.75 12.0688 12.75 12.0682 12.75 12.0676C12.75 12.0671 12.75 12.0665 12.75 12.066C12.75 12.0655 12.75 12.0649 12.75 12.0644C12.75 12.0638 12.75 12.0633 12.75 12.0628C12.75 12.0622 12.75 12.0617 12.75 12.0612C12.75 12.0607 12.75 12.0602 12.75 12.0597C12.75 12.0592 12.75 12.0586 12.75 12.0581C12.75 12.0576 12.75 12.0571 12.75 12.0567C12.75 12.0562 12.75 12.0557 12.75 12.0552C12.75 12.0547 12.75 12.0542 12.75 12.0538C12.75 12.0533 12.75 12.0528 12.75 12.0523C12.75 12.0519 12.75 12.0514 12.75 12.0509C12.75 12.0505 12.75 12.05 12.75 12.0496C12.75 12.0491 12.75 12.0487 12.75 12.0482C12.75 12.0478 12.75 12.0474 12.75 12.0469C12.75 12.0465 12.75 12.0461 12.75 12.0456C12.75 12.0452 12.75 12.0448 12.75 12.0444C12.75 12.044 12.75 12.0435 12.75 12.0431C12.75 12.0427 12.75 12.0423 12.75 12.0419C12.75 12.0415 12.75 12.0411 12.75 12.0407C12.75 12.0403 12.75 12.0399 12.75 12.0395C12.75 12.0391 12.75 12.0388 12.75 12.0384C12.75 12.038 12.75 12.0376 12.75 12.0373C12.75 12.0369 12.75 12.0365 12.75 12.0361C12.75 12.0358 12.75 12.0354 12.75 12.0351C12.75 12.0347 12.75 12.0344 12.75 12.034C12.75 12.0336 12.75 12.0333 12.75 12.033C12.75 12.0326 12.75 12.0323 12.75 12.0319C12.75 12.0316 12.75 12.0313 12.75 12.0309C12.75 12.0306 12.75 12.0303 12.75 12.03C12.75 12.0296 12.75 12.0293 12.75 12.029C12.75 12.0287 12.75 12.0284 12.75 12.0281C12.75 12.0278 12.75 12.0275 12.75 12.0272C12.75 12.0269 12.75 12.0266 12.75 12.0263C12.75 12.026 12.75 12.0257 12.75 12.0254C12.75 12.0251 12.75 12.0248 12.75 12.0245C12.75 12.0242 12.75 12.024 12.75 12.0237C12.75 12.0234 12.75 12.0231 12.75 12.0229C12.75 12.0226 12.75 12.0223 12.75 12.0221C12.75 12.0218 12.75 12.0216 12.75 12.0213C12.75 12.021 12.75 12.0208 12.75 12.0205C12.75 12.0203 12.75 12.02 12.75 12.0198C12.75 12.0196 12.75 12.0193 12.75 12.0191C12.75 12.0188 12.75 12.0186 12.75 12.0184C12.75 12.0181 12.75 12.0179 12.75 12.0177C12.75 12.0175 12.75 12.0172 12.75 12.017C12.75 12.0168 12.75 12.0166 12.75 12.0164C12.75 12.0161 12.75 12.0159 12.75 12.0157C12.75 12.0155 12.75 12.0153 12.75 12.0151C12.75 12.0149 12.75 12.0147 12.75 12.0145C12.75 12.0143 12.75 12.0141 12.75 12.0139C12.75 12.0137 12.75 12.0135 12.75 12.0133C12.75 12.0131 12.75 12.013 12.75 12.0128C12.75 12.0126 12.75 12.0124 12.75 12.0122C12.75 12.0121 12.75 12.0119 12.75 12.0117C12.75 12.0115 12.75 12.0114 12.75 12.0112C12.75 12.011 12.75 12.0109 12.75 12.0107C12.75 12.0105 12.75 12.0104 12.75 12.0102C12.75 12.0101 12.75 12.0099 12.75 12.0098C12.75 12.0096 12.75 12.0095 12.75 12.0093C12.75 12.0092 12.75 12.009 12.75 12.0089C12.75 12.0087 12.75 12.0086 12.75 12.0085C12.75 12.0083 12.75 12.0082 12.75 12.008C12.75 12.0079 12.75 12.0078 12.75 12.0077C12.75 12.0075 12.75 12.0074 12.75 12.0073C12.75 12.0071 12.75 12.007 12.75 12.0069C12.75 12.0068 12.75 12.0067 12.75 12.0065C12.75 12.0064 12.75 12.0063 12.75 12.0062C12.75 12.0061 12.75 12.006 12.75 12.0059C12.75 12.0058 12.75 12.0057 12.75 12.0055C12.75 12.0054 12.75 12.0053 12.75 12.0052C12.75 12.0051 12.75 12.005 12.75 12.0049C12.75 12.0048 12.75 12.0047 12.75 12.0047C12.75 12.0046 12.75 12.0045 12.75 12.0044C12.75 12.0043 12.75 12.0042 12.75 12.0041C12.75 12.004 12.75 12.004 12.75 12.0039C12.75 12.0038 12.75 12.0037 12.75 12.0036C12.75 12.0035 12.75 12.0035 12.75 12.0034C12.75 12.0033 12.75 12.0032 12.75 12.0032C12.75 12.0031 12.75 12.003 12.75 12.003C12.75 12.0029 12.75 12.0028 12.75 12.0028C12.75 12.0027 12.75 12.0026 12.75 12.0026C12.75 12.0025 12.75 12.0024 12.75 12.0024C12.75 12.0023 12.75 12.0023 12.75 12.0022C12.75 12.0022 12.75 12.0021 12.75 12.002C12.75 12.002 12.75 12.0019 12.75 12.0019C12.75 12.0018 12.75 12.0018 12.75 12.0017C12.75 12.0017 12.75 12.0016 12.75 12.0016C12.75 12.0016 12.75 12.0015 12.75 12.0015C12.75 12.0014 12.75 12.0014 12.75 12.0013C12.75 12.0013 12.75 12.0013 12.75 12.0012C12.75 12.0012 12.75 12.0011 12.75 12.0011C12.75 12.0011 12.75 12.001 12.75 12.001C12.75 12.001 12.75 12.0009 12.75 12.0009C12.75 12.0009 12.75 12.0008 12.75 12.0008C12.75 12.0008 12.75 12.0008 12.75 12.0007C12.75 12.0007 12.75 12.0007 12.75 12.0007C12.75 12.0006 12.75 12.0006 12.75 12.0006C12.75 12.0006 12.75 12.0005 12.75 12.0005C12.75 12.0005 12.75 12.0005 12.75 12.0005C12.75 12.0004 12.75 12.0004 12.75 12.0004C12.75 12.0004 12.75 12.0004 12.75 12.0003C12.75 12.0003 12.75 12.0003 12.75 12.0003C12.75 12.0003 12.75 12.0003 12.75 12.0003C12.75 12.0002 12.75 12.0002 12.75 12.0002C12.75 12.0002 12.75 12.0002 12.75 12.0002C12.75 12.0002 12.75 12.0002 12.75 12.0002C12.75 12.0001 12.75 12.0001 12.75 12.0001C12.75 12.0001 12.75 12.0001 12.75 12.0001C12.75 12.0001 12.75 12.0001 12.75 12.0001C12.75 12.0001 12.75 12.0001 12.75 12.0001C12.75 12.0001 12.75 12.0001 12.75 12C12.75 12 12.75 12 12.75 12C12.75 12 12.75 12 12.75 12C12.75 12 12.75 12 12.75 12C12.75 12 12.75 12 12.75 12C12.75 12 12.75 12 12.75 12C12.75 12 12.75 12 12.75 12C12.75 12 12.75 12 12.75 12C12.75 12 12.75 12 12.75 12C12.75 12 12.75 12 12.75 12C12.75 12 12.75 12 12.75 12H12ZM12.75 12V7H11.25V12H12.75Z" fill="currentColor"/>
</svg>
