<svg width="24" height="24" viewBox="0 0 24 24" fill="none" xmlns="http://www.w3.org/2000/svg">
<path d="M17.5 10.75C17.9142 10.75 18.25 10.4142 18.25 10C18.25 9.58579 17.9142 9.25 17.5 9.25V10.75ZM10.5 9.25C10.0858 9.25 9.75 9.58579 9.75 10C9.75 10.4142 10.0858 10.75 10.5 10.75V9.25ZM15.75 15.75C16.1642 15.75 16.5 15.4142 16.5 15C16.5 14.5858 16.1642 14.25 15.75 14.25V15.75ZM10.5 14.25C10.0858 14.25 9.75 14.5858 9.75 15C9.75 15.4142 10.0858 15.75 10.5 15.75V14.25ZM6.75 19C6.75 19.4142 7.08579 19.75 7.5 19.75C7.91421 19.75 8.25 19.4142 8.25 19H6.75ZM8.25 5C8.25 4.58579 7.91421 4.25 7.5 4.25C7.08579 4.25 6.75 4.58579 6.75 5H8.25ZM17.5 9.25H10.5V10.75H17.5V9.25ZM15.75 14.25H10.5V15.75H15.75V14.25ZM8.25 19V5H6.75V19H8.25Z" fill="currentColor"/>
</svg>
