<svg width="24" height="24" viewBox="0 0 24 24" fill="none" xmlns="http://www.w3.org/2000/svg">
<path fill-rule="evenodd" clip-rule="evenodd" d="M13.75 6.75C13.75 7.7165 12.9665 8.5 12 8.5C11.0335 8.5 10.25 7.7165 10.25 6.75C10.25 5.7835 11.0335 5 12 5C12.9665 5 13.75 5.7835 13.75 6.75Z" stroke="currentColor" stroke-width="1.5" stroke-linecap="round" stroke-linejoin="round"/>
<path d="M12.75 8.5C12.75 8.08579 12.4142 7.75 12 7.75C11.5858 7.75 11.25 8.08579 11.25 8.5H12.75ZM11.25 11.125C11.25 11.5392 11.5858 11.875 12 11.875C12.4142 11.875 12.75 11.5392 12.75 11.125H11.25ZM9.375 10.375C8.96079 10.375 8.625 10.7108 8.625 11.125C8.625 11.5392 8.96079 11.875 9.375 11.875V10.375ZM12 11.875C12.4142 11.875 12.75 11.5392 12.75 11.125C12.75 10.7108 12.4142 10.375 12 10.375V11.875ZM14.625 11.875C15.0392 11.875 15.375 11.5392 15.375 11.125C15.375 10.7108 15.0392 10.375 14.625 10.375V11.875ZM12 10.375C11.5858 10.375 11.25 10.7108 11.25 11.125C11.25 11.5392 11.5858 11.875 12 11.875V10.375ZM7.96967 15.1553C8.26256 15.4482 8.73744 15.4482 9.03033 15.1553C9.32322 14.8624 9.32322 14.3876 9.03033 14.0947L7.96967 15.1553ZM7.28033 12.3447C6.98744 12.0518 6.51256 12.0518 6.21967 12.3447C5.92678 12.6376 5.92678 13.1124 6.21967 13.4053L7.28033 12.3447ZM7.28033 13.4053C7.57322 13.1124 7.57322 12.6376 7.28033 12.3447C6.98744 12.0518 6.51256 12.0518 6.21967 12.3447L7.28033 13.4053ZM4.46967 14.0947C4.17678 14.3876 4.17678 14.8624 4.46967 15.1553C4.76256 15.4482 5.23744 15.4482 5.53033 15.1553L4.46967 14.0947ZM7.5 12.875C7.5 12.4608 7.16421 12.125 6.75 12.125C6.33579 12.125 6 12.4608 6 12.875H7.5ZM12 19.75C12.4142 19.75 12.75 19.4142 12.75 19C12.75 18.5858 12.4142 18.25 12 18.25V19.75ZM12 18.25C11.5858 18.25 11.25 18.5858 11.25 19C11.25 19.4142 11.5858 19.75 12 19.75V18.25ZM18 12.875C18 12.4608 17.6642 12.125 17.25 12.125C16.8358 12.125 16.5 12.4608 16.5 12.875H18ZM11.25 19C11.25 19.4142 11.5858 19.75 12 19.75C12.4142 19.75 12.75 19.4142 12.75 19H11.25ZM12.75 11.125C12.75 10.7108 12.4142 10.375 12 10.375C11.5858 10.375 11.25 10.7108 11.25 11.125H12.75ZM14.9697 14.0947C14.6768 14.3876 14.6768 14.8624 14.9697 15.1553C15.2626 15.4482 15.7374 15.4482 16.0303 15.1553L14.9697 14.0947ZM17.7803 13.4053C18.0732 13.1124 18.0732 12.6376 17.7803 12.3447C17.4874 12.0518 17.0126 12.0518 16.7197 12.3447L17.7803 13.4053ZM17.7803 12.3447C17.4874 12.0518 17.0126 12.0518 16.7197 12.3447C16.4268 12.6376 16.4268 13.1124 16.7197 13.4053L17.7803 12.3447ZM18.4697 15.1553C18.7626 15.4482 19.2374 15.4482 19.5303 15.1553C19.8232 14.8624 19.8232 14.3876 19.5303 14.0947L18.4697 15.1553ZM11.25 8.5V11.125H12.75V8.5H11.25ZM9.375 11.875H12V10.375H9.375V11.875ZM14.625 10.375H12V11.875H14.625V10.375ZM9.03033 14.0947L7.28033 12.3447L6.21967 13.4053L7.96967 15.1553L9.03033 14.0947ZM6.21967 12.3447L4.46967 14.0947L5.53033 15.1553L7.28033 13.4053L6.21967 12.3447ZM6 12.875V13.75H7.5V12.875H6ZM6 13.75C6 17.0637 8.68629 19.75 12 19.75V18.25C9.51472 18.25 7.5 16.2353 7.5 13.75H6ZM12 19.75C15.3137 19.75 18 17.0637 18 13.75H16.5C16.5 16.2353 14.4853 18.25 12 18.25V19.75ZM18 13.75V12.875H16.5V13.75H18ZM12.75 19V11.125H11.25V19H12.75ZM16.0303 15.1553L17.7803 13.4053L16.7197 12.3447L14.9697 14.0947L16.0303 15.1553ZM16.7197 13.4053L18.4697 15.1553L19.5303 14.0947L17.7803 12.3447L16.7197 13.4053Z" fill="currentColor"/>
</svg>
