<svg width="24" height="24" viewBox="0 0 24 24" fill="none" xmlns="http://www.w3.org/2000/svg">
<path d="M8.917 14.611C8.917 15.0252 9.25279 15.361 9.667 15.361C10.0812 15.361 10.417 15.0252 10.417 14.611H8.917ZM10.417 13.416C10.417 13.0018 10.0812 12.666 9.667 12.666C9.25279 12.666 8.917 13.0018 8.917 13.416H10.417ZM9.02759 9.68677C8.64639 9.84882 8.46873 10.2892 8.63077 10.6704C8.79282 11.0516 9.23321 11.2293 9.61441 11.0672L9.02759 9.68677ZM14.3856 11.0672C14.7668 11.2293 15.2072 11.0516 15.3692 10.6704C15.5313 10.2892 15.3536 9.84882 14.9724 9.68677L14.3856 11.0672ZM9.61444 11.0672C9.99563 10.9051 10.1733 10.4648 10.0112 10.0836C9.84915 9.70237 9.40875 9.52473 9.02756 9.68679L9.61444 11.0672ZM7.05 11.931L6.51292 11.4075L6.51286 11.4076L7.05 11.931ZM5.533 14.257L6.22837 14.538L6.22856 14.5375L5.533 14.257ZM5 17L4.25 17.0001C4.25007 17.4143 4.58584 17.75 5 17.75V17ZM19 17V17.75C19.4142 17.75 19.7499 17.4143 19.75 17.0001L19 17ZM18.467 14.257L17.7714 14.5375L17.7716 14.538L18.467 14.257ZM16.95 11.931L17.4871 11.4076L17.4871 11.4075L16.95 11.931ZM14.9724 9.68679C14.5912 9.52473 14.1509 9.70237 13.9888 10.0836C13.8267 10.4648 14.0044 10.9051 14.3856 11.0672L14.9724 9.68679ZM8.7165 10.8209C8.96168 11.1548 9.43108 11.2267 9.76493 10.9815C10.0988 10.7363 10.1707 10.2669 9.9255 9.93307L8.7165 10.8209ZM7.4455 6.55607C7.20032 6.22221 6.73092 6.15032 6.39707 6.3955C6.06321 6.64068 5.99132 7.11008 6.2365 7.44393L7.4455 6.55607ZM13.583 14.611C13.583 15.0252 13.9188 15.361 14.333 15.361C14.7472 15.361 15.083 15.0252 15.083 14.611H13.583ZM15.083 13.416C15.083 13.0018 14.7472 12.666 14.333 12.666C13.9188 12.666 13.583 13.0018 13.583 13.416H15.083ZM14.0736 9.93295C13.8283 10.2668 13.9001 10.7362 14.234 10.9814C14.5678 11.2267 15.0372 11.1549 15.2824 10.8211L14.0736 9.93295ZM17.7634 7.44405C18.0087 7.11024 17.9369 6.64083 17.6031 6.39558C17.2692 6.15034 16.7998 6.22214 16.5546 6.55595L17.7634 7.44405ZM10.417 14.611V13.416H8.917V14.611H10.417ZM9.61441 11.0672C11.1388 10.4192 12.8612 10.4192 14.3856 11.0672L14.9724 9.68677C13.073 8.87938 10.927 8.87938 9.02759 9.68677L9.61441 11.0672ZM9.02756 9.68679C8.08363 10.0881 7.22886 10.673 6.51292 11.4075L7.58708 12.4545C8.16428 11.8623 8.85342 11.3908 9.61444 11.0672L9.02756 9.68679ZM6.51286 11.4076C5.79258 12.1467 5.22347 13.0193 4.83744 13.9765L6.22856 14.5375C6.54159 13.7614 7.00307 13.0538 7.58714 12.4544L6.51286 11.4076ZM4.83763 13.976C4.44933 14.937 4.24982 15.9637 4.25 17.0001L5.75 16.9999C5.74985 16.1561 5.91227 15.3203 6.22837 14.538L4.83763 13.976ZM5 17.75H19V16.25H5V17.75ZM19.75 17.0001C19.7502 15.9637 19.5507 14.937 19.1624 13.976L17.7716 14.538C18.0877 15.3203 18.2501 16.1561 18.25 16.9999L19.75 17.0001ZM19.1626 13.9765C18.7765 13.0193 18.2074 12.1467 17.4871 11.4076L16.4129 12.4544C16.9969 13.0538 17.4584 13.7614 17.7714 14.5375L19.1626 13.9765ZM17.4871 11.4075C16.7711 10.673 15.9164 10.0881 14.9724 9.68679L14.3856 11.0672C15.1466 11.3908 15.8357 11.8623 16.4129 12.4545L17.4871 11.4075ZM9.9255 9.93307L7.4455 6.55607L6.2365 7.44393L8.7165 10.8209L9.9255 9.93307ZM15.083 14.611V13.416H13.583V14.611H15.083ZM15.2824 10.8211L17.7634 7.44405L16.5546 6.55595L14.0736 9.93295L15.2824 10.8211Z" fill="currentColor"/>
</svg>
