<svg width="24" height="24" viewBox="0 0 24 24" fill="none" xmlns="http://www.w3.org/2000/svg">
<path fill-rule="evenodd" clip-rule="evenodd" d="M15.5 13L13.909 16.818H17.091L15.5 13Z" stroke="currentColor" stroke-width="1.5" stroke-linecap="round" stroke-linejoin="round"/>
<path d="M13 4.25C12.5858 4.25 12.25 4.58579 12.25 5C12.25 5.41421 12.5858 5.75 13 5.75V4.25ZM18 5L18.5303 5.53033C18.7448 5.31583 18.809 4.99324 18.6929 4.71299C18.5768 4.43273 18.3033 4.25 18 4.25V5ZM13 10L12.4697 9.46967C12.2552 9.68417 12.191 10.0068 12.3071 10.287C12.4232 10.5673 12.6967 10.75 13 10.75V10ZM18 10.75C18.4142 10.75 18.75 10.4142 18.75 10C18.75 9.58579 18.4142 9.25 18 9.25V10.75ZM12.3077 18.7116C12.1484 19.0939 12.3292 19.533 12.7116 19.6923C13.0939 19.8516 13.533 19.6708 13.6923 19.2884L12.3077 18.7116ZM14.6013 17.1064C14.7606 16.7241 14.5798 16.285 14.1974 16.1257C13.8151 15.9664 13.376 16.1472 13.2167 16.5296L14.6013 17.1064ZM17.3077 19.2884C17.467 19.6708 17.9061 19.8516 18.2884 19.6923C18.6708 19.533 18.8516 19.0939 18.6923 18.7116L17.3077 19.2884ZM17.7833 16.5296C17.624 16.1472 17.1849 15.9664 16.8026 16.1257C16.4202 16.285 16.2394 16.7241 16.3987 17.1064L17.7833 16.5296ZM12.2452 15.7194C12.495 15.389 12.4298 14.9186 12.0994 14.6688C11.769 14.419 11.2986 14.4842 11.0488 14.8146L12.2452 15.7194ZM8.22579 18.5476C7.97595 18.878 8.04124 19.3484 8.37162 19.5982C8.702 19.8481 9.17236 19.7828 9.42221 19.4524L8.22579 18.5476ZM8.074 19C8.074 19.4142 8.40979 19.75 8.824 19.75C9.23821 19.75 9.574 19.4142 9.574 19H8.074ZM9.574 5C9.574 4.58579 9.23821 4.25 8.824 4.25C8.40979 4.25 8.074 4.58579 8.074 5H9.574ZM8.22587 19.4525C8.47577 19.7828 8.94614 19.848 9.27648 19.5981C9.60682 19.3482 9.67203 18.8779 9.42213 18.5475L8.22587 19.4525ZM6.59813 14.8145C6.34823 14.4842 5.87786 14.419 5.54752 14.6689C5.21718 14.9188 5.15197 15.3891 5.40187 15.7195L6.59813 14.8145ZM13 5.75H18V4.25H13V5.75ZM17.4697 4.46967L12.4697 9.46967L13.5303 10.5303L18.5303 5.53033L17.4697 4.46967ZM13 10.75H18V9.25H13V10.75ZM13.6923 19.2884L14.6013 17.1064L13.2167 16.5296L12.3077 18.7116L13.6923 19.2884ZM18.6923 18.7116L17.7833 16.5296L16.3987 17.1064L17.3077 19.2884L18.6923 18.7116ZM11.0488 14.8146L8.22579 18.5476L9.42221 19.4524L12.2452 15.7194L11.0488 14.8146ZM9.574 19V5H8.074V19H9.574ZM9.42213 18.5475L6.59813 14.8145L5.40187 15.7195L8.22587 19.4525L9.42213 18.5475Z" fill="currentColor"/>
</svg>
