<svg width="24" height="24" viewBox="0 0 24 24" fill="none" xmlns="http://www.w3.org/2000/svg">
<path d="M8.42259 7.52194C8.71085 7.22448 8.70339 6.74967 8.40594 6.46141C8.10848 6.17315 7.63367 6.18061 7.34541 6.47806L8.42259 7.52194ZM4.46141 9.45406C4.17315 9.75152 4.18061 10.2263 4.47806 10.5146C4.77552 10.8028 5.25033 10.7954 5.53859 10.4979L4.46141 9.45406ZM5.52244 9.43789C5.22525 9.14936 4.75042 9.15638 4.46189 9.45356C4.17336 9.75075 4.18038 10.2256 4.47756 10.5141L5.52244 9.43789ZM7.36156 13.3141C7.65875 13.6026 8.13358 13.5956 8.42211 13.2984C8.71064 13.0012 8.70362 12.5264 8.40644 12.2379L7.36156 13.3141ZM5 9.226C4.58579 9.226 4.25 9.56179 4.25 9.976C4.25 10.3902 4.58579 10.726 5 10.726V9.226ZM15.62 9.976L15.6347 9.22614C15.6298 9.22605 15.6249 9.226 15.62 9.226V9.976ZM19 13.488L18.2501 13.4739C18.25 13.4833 18.25 13.4927 18.2501 13.5021L19 13.488ZM15.62 17V17.75C15.6249 17.75 15.6298 17.75 15.6347 17.7499L15.62 17ZM5 16.25C4.58579 16.25 4.25 16.5858 4.25 17C4.25 17.4142 4.58579 17.75 5 17.75V16.25ZM7.34541 6.47806L4.46141 9.45406L5.53859 10.4979L8.42259 7.52194L7.34541 6.47806ZM4.47756 10.5141L7.36156 13.3141L8.40644 12.2379L5.52244 9.43789L4.47756 10.5141ZM5 10.726H15.62V9.226H5V10.726ZM15.6053 10.7259C17.0943 10.755 18.2781 11.985 18.2501 13.4739L19.7499 13.5021C19.7933 11.1853 17.9514 9.27143 15.6347 9.22614L15.6053 10.7259ZM18.2501 13.5021C18.2781 14.991 17.0943 16.221 15.6053 16.2501L15.6347 17.7499C17.9514 17.7046 19.7933 15.7907 19.7499 13.4739L18.2501 13.5021ZM15.62 16.25H5V17.75H15.62V16.25Z" fill="currentColor"/>
</svg>
