<svg width="24" height="24" viewBox="0 0 24 24" fill="none" xmlns="http://www.w3.org/2000/svg">
<path fill-rule="evenodd" clip-rule="evenodd" d="M16.3361 14.8171L18.7411 12.5981C18.906 12.4421 18.9994 12.2251 18.9994 11.9981C18.9994 11.7711 18.906 11.5541 18.7411 11.3981L16.3361 9.17906C16.1195 8.988 15.8077 8.94961 15.5512 9.0824C15.2947 9.21519 15.1461 9.49189 15.1771 9.77906V14.2211C15.148 14.5075 15.2973 14.7825 15.5534 14.9142C15.8094 15.0459 16.12 15.0073 16.3361 14.8171V14.8171Z" stroke="currentColor" stroke-width="1.5" stroke-linecap="round" stroke-linejoin="round"/>
<path d="M8.81312 9.77503L8.06744 9.69465C8.06457 9.72135 8.06312 9.74818 8.06312 9.77503H8.81312ZM8.43897 9.07837L8.78377 8.41233L8.43897 9.07837ZM7.65412 9.17503L7.15802 8.61256C7.15345 8.61658 7.14894 8.62066 7.14447 8.6248L7.65412 9.17503ZM5.25412 11.398L4.74439 10.8477L4.73485 10.8569L5.25412 11.398ZM5.25412 12.59L4.73477 13.1313L4.74447 13.1403L5.25412 12.59ZM7.65412 14.813L7.14447 15.3633C7.14894 15.3674 7.15345 15.3715 7.15802 15.3755L7.65412 14.813ZM8.43897 14.9097L8.09417 14.2437L8.09417 14.2437L8.43897 14.9097ZM8.81312 14.213H8.06312C8.06312 14.2399 8.06457 14.2667 8.06744 14.2934L8.81312 14.213ZM8.81312 11.248C8.39891 11.248 8.06312 11.5838 8.06312 11.998C8.06312 12.4122 8.39891 12.748 8.81312 12.748V11.248ZM15.1771 12.748C15.5913 12.748 15.9271 12.4122 15.9271 11.998C15.9271 11.5838 15.5913 11.248 15.1771 11.248V12.748ZM9.56312 11.998V9.77503H8.06312V11.998H9.56312ZM9.5588 9.85541C9.62293 9.26056 9.3151 8.68739 8.78377 8.41233L8.09417 9.74441C8.07585 9.73493 8.06523 9.71516 8.06744 9.69465L9.5588 9.85541ZM8.78377 8.41233C8.25244 8.13727 7.60673 8.21679 7.15802 8.61256L8.15023 9.73751C8.13476 9.75116 8.11249 9.7539 8.09417 9.74441L8.78377 8.41233ZM7.14447 8.6248L4.74447 10.8478L5.76378 11.9483L8.16378 9.72526L7.14447 8.6248ZM4.73485 10.8569C4.42512 11.1541 4.25002 11.5648 4.25002 11.994H5.75002C5.75002 11.9733 5.75846 11.9535 5.7734 11.9392L4.73485 10.8569ZM4.25002 11.994C4.25002 12.4233 4.42512 12.834 4.73485 13.1312L5.7734 12.0489C5.75846 12.0345 5.75002 12.0147 5.75002 11.994H4.25002ZM4.74447 13.1403L7.14447 15.3633L8.16378 14.2628L5.76378 12.0398L4.74447 13.1403ZM7.15802 15.3755C7.60673 15.7713 8.25244 15.8508 8.78377 15.5757L8.09417 14.2437C8.11249 14.2342 8.13476 14.2369 8.15023 14.2506L7.15802 15.3755ZM8.78377 15.5757C9.3151 15.3007 9.62293 14.7275 9.5588 14.1327L8.06744 14.2934C8.06523 14.2729 8.07585 14.2531 8.09417 14.2437L8.78377 15.5757ZM9.56312 14.213V11.998H8.06312V14.213H9.56312ZM8.81312 12.748H15.1771V11.248H8.81312V12.748Z" fill="currentColor"/>
</svg>
