<svg width="24" height="24" viewBox="0 0 24 24" fill="none" xmlns="http://www.w3.org/2000/svg">
<path fill-rule="evenodd" clip-rule="evenodd" d="M9.1715 6.19152C9.91537 5.42959 10.9352 5 12 5C13.0648 5 14.0846 5.42959 14.8285 6.19152C16.3905 7.79072 16.3905 10.3443 14.8285 11.9435L14.1215 12.6625C13.5636 13.234 12.7987 13.5562 12 13.5562C11.2013 13.5562 10.4364 13.234 9.8785 12.6625L9.1715 11.9435C7.6095 10.3443 7.6095 7.79072 9.1715 6.19152V6.19152Z" stroke="currentColor" stroke-width="1.5" stroke-linecap="round" stroke-linejoin="round"/>
<path d="M12.0145 13.5565C12.0145 14.4315 11.7145 15.7125 13.7535 15.7125C14.1657 15.7045 14.5776 15.7424 14.9815 15.8255C16.2575 16.1195 15.9705 17.7935 15.9705 19.0015" stroke="currentColor" stroke-width="1.5" stroke-linecap="round" stroke-linejoin="round"/>
</svg>
