<svg width="24" height="24" viewBox="0 0 24 24" fill="none" xmlns="http://www.w3.org/2000/svg">
<path fill-rule="evenodd" clip-rule="evenodd" d="M5.00002 18.211V9.737C4.99724 9.30439 5.34541 8.9513 5.77802 8.948H8.88902C9.32162 8.9513 9.66979 9.30439 9.66702 9.737V5.789C9.66424 5.35678 10.0118 5.00385 10.444 5H13.556C13.9886 5.0033 14.3368 5.35639 14.334 5.789V8.158C14.3312 7.72539 14.6794 7.3723 15.112 7.369H18.223C18.6552 7.37285 19.0028 7.72578 19 8.158V18.211C19.0028 18.6436 18.6546 18.9967 18.222 19H5.77802C5.34541 18.9967 4.99724 18.6436 5.00002 18.211V18.211Z" stroke="currentColor" stroke-width="1.5" stroke-linecap="round" stroke-linejoin="round"/>
<path d="M8.91702 19C8.91702 19.4142 9.2528 19.75 9.66702 19.75C10.0812 19.75 10.417 19.4142 10.417 19H8.91702ZM10.417 9.73696C10.417 9.32275 10.0812 8.98696 9.66702 8.98696C9.2528 8.98696 8.91702 9.32275 8.91702 9.73696H10.417ZM13.583 19C13.583 19.4142 13.9188 19.75 14.333 19.75C14.7472 19.75 15.083 19.4142 15.083 19H13.583ZM15.083 8.15796C15.083 7.74375 14.7472 7.40796 14.333 7.40796C13.9188 7.40796 13.583 7.74375 13.583 8.15796H15.083ZM10.417 19V9.73696H8.91702V19H10.417ZM15.083 19V8.15796H13.583V19H15.083Z" fill="currentColor"/>
</svg>
