<svg width="24" height="24" viewBox="0 0 24 24" fill="none" xmlns="http://www.w3.org/2000/svg">
<path d="M17 9.25C16.5858 9.25 16.25 9.58579 16.25 10C16.25 10.4142 16.5858 10.75 17 10.75V9.25ZM17 13.25C16.5858 13.25 16.25 13.5858 16.25 14C16.25 14.4142 16.5858 14.75 17 14.75V13.25ZM17.75 10C17.75 9.58579 17.4142 9.25 17 9.25C16.5858 9.25 16.25 9.58579 16.25 10H17.75ZM16.25 14C16.25 14.4142 16.5858 14.75 17 14.75C17.4142 14.75 17.75 14.4142 17.75 14H16.25ZM16.25 10C16.25 10.4142 16.5858 10.75 17 10.75C17.4142 10.75 17.75 10.4142 17.75 10H16.25ZM17.75 14C17.75 13.5858 17.4142 13.25 17 13.25C16.5858 13.25 16.25 13.5858 16.25 14H17.75ZM17 10.75H19V9.25H17V10.75ZM19 10.75C19.1381 10.75 19.25 10.8619 19.25 11H20.75C20.75 10.0335 19.9665 9.25 19 9.25V10.75ZM19.25 11V13H20.75V11H19.25ZM19.25 13C19.25 13.1381 19.1381 13.25 19 13.25V14.75C19.9665 14.75 20.75 13.9665 20.75 13H19.25ZM19 13.25H17V14.75H19V13.25ZM16.25 10V14H17.75V10H16.25ZM17.75 10C17.75 7.92893 16.0711 6.25 14 6.25V7.75C15.2426 7.75 16.25 8.75736 16.25 10H17.75ZM14 6.25H7V7.75H14V6.25ZM7 6.25C4.92893 6.25 3.25 7.92893 3.25 10H4.75C4.75 8.75736 5.75736 7.75 7 7.75V6.25ZM3.25 10V14H4.75V10H3.25ZM3.25 14C3.25 16.0711 4.92893 17.75 7 17.75V16.25C5.75736 16.25 4.75 15.2426 4.75 14H3.25ZM7 17.75H14V16.25H7V17.75ZM14 17.75C16.0711 17.75 17.75 16.0711 17.75 14H16.25C16.25 15.2426 15.2426 16.25 14 16.25V17.75Z" fill="currentColor"/>
</svg>
