<svg width="24" height="24" viewBox="0 0 24 24" fill="none" xmlns="http://www.w3.org/2000/svg">
<path fill-rule="evenodd" clip-rule="evenodd" d="M5 12V6H8C9.65685 6 11 7.34315 11 9C11 10.6569 9.65685 12 8 12C9.65685 12 11 13.3431 11 15C11 16.6569 9.65685 18 8 18H5V12Z" stroke="currentColor" stroke-width="1.5" stroke-linecap="round" stroke-linejoin="round"/>
<path fill-rule="evenodd" clip-rule="evenodd" d="M19 15C19 13.3431 17.6569 12 16 12C14.3431 12 13 13.3431 13 15H19Z" stroke="currentColor" stroke-width="1.5" stroke-linecap="round" stroke-linejoin="round"/>
<path d="M5 11.25C4.58579 11.25 4.25 11.5858 4.25 12C4.25 12.4142 4.58579 12.75 5 12.75V11.25ZM8 12.75C8.41421 12.75 8.75 12.4142 8.75 12C8.75 11.5858 8.41421 11.25 8 11.25V12.75ZM13.75 15C13.75 14.5858 13.4142 14.25 13 14.25C12.5858 14.25 12.25 14.5858 12.25 15L13.75 15ZM14.9295 17.8024L14.6619 18.5031L14.9295 17.8024ZM18.795 17.5C19.0712 17.1913 19.0447 16.7172 18.736 16.441C18.4273 16.1648 17.9532 16.1913 17.677 16.5L18.795 17.5ZM18 10.75C18.4142 10.75 18.75 10.4142 18.75 10C18.75 9.58579 18.4142 9.25 18 9.25V10.75ZM14 9.25C13.5858 9.25 13.25 9.58579 13.25 10C13.25 10.4142 13.5858 10.75 14 10.75V9.25ZM5 12.75H8V11.25H5V12.75ZM12.25 15C12.25 16.5548 13.2095 17.9483 14.6619 18.5031L15.1971 17.1018C14.3257 16.7689 13.75 15.9328 13.75 15L12.25 15ZM14.6619 18.5031C16.1143 19.0578 17.7584 18.6588 18.795 17.5L17.677 16.5C17.0551 17.1953 16.0686 17.4347 15.1971 17.1018L14.6619 18.5031ZM18 9.25H14V10.75H18V9.25Z" fill="currentColor"/>
</svg>
