<svg width="24" height="24" viewBox="0 0 24 24" fill="none" xmlns="http://www.w3.org/2000/svg">
<path fill-rule="evenodd" clip-rule="evenodd" d="M7.74945 17.3586C7.09135 17.472 6.41604 17.3005 5.89185 16.8868C5.36766 16.473 5.04396 15.856 5.00145 15.1896V8.02759C4.97083 7.27605 5.42795 6.59038 6.13345 6.32959C8.2056 5.56915 10.532 6.15154 12.0014 7.79859V18.0196C11.0164 17.1916 9.31445 17.1416 7.74945 17.3586Z" stroke="currentColor" stroke-width="1.5" stroke-linecap="round" stroke-linejoin="round"/>
<path fill-rule="evenodd" clip-rule="evenodd" d="M16.2535 17.3586C16.9116 17.472 17.5869 17.3005 18.1111 16.8868C18.6353 16.473 18.959 15.856 19.0015 15.1896V8.02759C19.0321 7.27605 18.575 6.59038 17.8695 6.32959C15.7973 5.56915 13.4709 6.15154 12.0015 7.79859V18.0196C12.9865 17.1916 14.6885 17.1416 16.2535 17.3586Z" stroke="currentColor" stroke-width="1.5" stroke-linecap="round" stroke-linejoin="round"/>
<path d="M9.50146 11.7695C9.91568 11.7695 10.2515 11.4337 10.2515 11.0195C10.2515 10.6053 9.91568 10.2695 9.50146 10.2695V11.7695ZM7.50146 10.2695C7.08725 10.2695 6.75146 10.6053 6.75146 11.0195C6.75146 11.4337 7.08725 11.7695 7.50146 11.7695V10.2695ZM9.50146 13.7695C9.91568 13.7695 10.2515 13.4337 10.2515 13.0195C10.2515 12.6053 9.91568 12.2695 9.50146 12.2695V13.7695ZM7.50146 12.2695C7.08725 12.2695 6.75146 12.6053 6.75146 13.0195C6.75146 13.4337 7.08725 13.7695 7.50146 13.7695V12.2695ZM16.5015 11.7695C16.9157 11.7695 17.2515 11.4337 17.2515 11.0195C17.2515 10.6053 16.9157 10.2695 16.5015 10.2695V11.7695ZM14.5015 10.2695C14.0873 10.2695 13.7515 10.6053 13.7515 11.0195C13.7515 11.4337 14.0873 11.7695 14.5015 11.7695V10.2695ZM16.5015 13.7695C16.9157 13.7695 17.2515 13.4337 17.2515 13.0195C17.2515 12.6053 16.9157 12.2695 16.5015 12.2695V13.7695ZM14.5015 12.2695C14.0873 12.2695 13.7515 12.6053 13.7515 13.0195C13.7515 13.4337 14.0873 13.7695 14.5015 13.7695V12.2695ZM9.50146 10.2695H7.50146V11.7695H9.50146V10.2695ZM9.50146 12.2695H7.50146V13.7695H9.50146V12.2695ZM16.5015 10.2695H14.5015V11.7695H16.5015V10.2695ZM16.5015 12.2695H14.5015V13.7695H16.5015V12.2695Z" fill="currentColor"/>
</svg>
