<svg width="24" height="24" viewBox="0 0 24 24" fill="none" xmlns="http://www.w3.org/2000/svg">
<path d="M15.9401 16.651C16.3035 16.8498 16.7592 16.7164 16.958 16.353C17.1569 15.9896 17.0235 15.5339 16.6601 15.335L15.9401 16.651ZM6.3461 15.335C5.98272 15.5339 5.84932 15.9896 6.04813 16.353C6.24695 16.7164 6.7027 16.8498 7.06608 16.651L6.3461 15.335ZM17.0472 15.9271C17.0108 15.5145 16.6468 15.2095 16.2342 15.2459C15.8216 15.2823 15.5166 15.6463 15.553 16.0589L17.0472 15.9271ZM16.5911 18.427L17.3411 18.4217C17.3408 18.3845 17.3378 18.3474 17.332 18.3107L16.5911 18.427ZM16.4273 18.8305L16.9613 19.3571H16.9613L16.4273 18.8305ZM16.0261 19V19.75L16.0313 19.75L16.0261 19ZM6.97709 19L6.97184 19.75H6.97709V19ZM6.57591 18.8305L7.10996 18.3039L7.10996 18.3039L6.57591 18.8305ZM6.41209 18.427L5.67172 18.3072C5.66559 18.3451 5.66238 18.3833 5.66211 18.4217L6.41209 18.427ZM7.45012 16.0596C7.48693 15.6471 7.18231 15.2828 6.76973 15.246C6.35716 15.2092 5.99286 15.5138 5.95606 15.9264L7.45012 16.0596ZM15.5536 16.0919C15.6083 16.5025 15.9854 16.7911 16.396 16.7364C16.8066 16.6818 17.0952 16.3047 17.0405 15.8941L15.5536 16.0919ZM17.0405 9.69192C17.0952 9.28132 16.8066 8.90418 16.396 8.84955C15.9854 8.79492 15.6083 9.08348 15.5536 9.49408L17.0405 9.69192ZM15.562 9.4442C15.4798 9.85018 15.7423 10.2459 16.1483 10.3281C16.5543 10.4103 16.95 10.1478 17.0322 9.7418L15.562 9.4442ZM17.3056 8.9115C17.4262 8.51526 17.2028 8.09621 16.8066 7.97553C16.4103 7.85486 15.9913 8.07825 15.8706 8.4745L17.3056 8.9115ZM16.5521 8.88768C16.1626 8.74685 15.7326 8.94846 15.5918 9.338C15.4509 9.72754 15.6526 10.1575 16.0421 10.2983L16.5521 8.88768ZM17.5971 10.063L18.0137 9.43933C17.9633 9.40569 17.909 9.37827 17.8521 9.35768L17.5971 10.063ZM18.0972 10.1257L18.3468 10.833L18.3468 10.833L18.0972 10.1257ZM18.4471 9.763L19.1628 9.98703C19.1664 9.97563 19.1697 9.96415 19.1727 9.95259L18.4471 9.763ZM18.9741 7.746L18.2619 7.51085C18.2569 7.52589 18.2525 7.54108 18.2484 7.55641L18.9741 7.746ZM18.6741 7.046L18.995 6.36807L18.9877 6.36473L18.6741 7.046ZM16.4541 6.024L16.1353 6.70292L16.1405 6.70527L16.4541 6.024ZM16.0281 5.824L16.3468 5.1451C16.3303 5.13733 16.3135 5.13018 16.2964 5.12364L16.0281 5.824ZM13.9689 4.4848C13.5606 4.41477 13.1729 4.68895 13.1029 5.0972C13.0329 5.50545 13.307 5.89317 13.7153 5.9632L13.9689 4.4848ZM14.5918 5.24593C14.6039 4.8319 14.2781 4.48643 13.864 4.47432C13.45 4.46221 13.1045 4.78803 13.0924 5.20207L14.5918 5.24593ZM9.91777 5.20207C9.90565 4.78803 9.56019 4.46221 9.14616 4.47432C8.73212 4.48643 8.4063 4.8319 8.41841 5.24593L9.91777 5.20207ZM13.7097 5.96223C14.1175 6.03532 14.5072 5.76406 14.5803 5.35635C14.6534 4.94864 14.3822 4.55886 13.9744 4.48577L13.7097 5.96223ZM11.5001 5L11.5101 4.25007C11.5028 4.24997 11.4955 4.24998 11.4883 4.25009L11.5001 5ZM9.02911 4.49106C8.62156 4.56506 8.35116 4.95542 8.42515 5.36298C8.49915 5.77053 8.88951 6.04093 9.29707 5.96694L9.02911 4.49106ZM5.95664 15.8941C5.90201 16.3047 6.19057 16.6818 6.60117 16.7364C7.01176 16.7911 7.38891 16.5025 7.44354 16.0919L5.95664 15.8941ZM7.44354 9.49408C7.38891 9.08348 7.01176 8.79492 6.60117 8.84955C6.19057 8.90418 5.90201 9.28133 5.95664 9.69192L7.44354 9.49408ZM5.965 9.7418C6.04718 10.1478 6.44291 10.4103 6.84889 10.3281C7.25487 10.2459 7.51736 9.85018 7.43518 9.4442L5.965 9.7418ZM7.12656 8.4745C7.00588 8.07825 6.58683 7.85486 6.19059 7.97553C5.79434 8.09621 5.57095 8.51526 5.69162 8.9115L7.12656 8.4745ZM6.95509 10.2983C7.34463 10.1575 7.54624 9.72754 7.40541 9.338C7.26458 8.94846 6.83463 8.74685 6.44509 8.88768L6.95509 10.2983ZM5.40009 10.063L5.14509 9.35768C5.08813 9.37827 5.03388 9.40569 4.98352 9.43933L5.40009 10.063ZM4.90001 10.1257L5.14962 9.41849L5.14962 9.41849L4.90001 10.1257ZM4.55009 9.763L3.82401 9.95092C3.82715 9.96304 3.83059 9.97508 3.83433 9.98703L4.55009 9.763ZM4.02909 7.75L4.75516 7.56208C4.75105 7.54619 4.74642 7.53044 4.74127 7.51485L4.02909 7.75ZM4.32909 7.05L4.01544 6.36869L4.00821 6.37211L4.32909 7.05ZM6.54909 6.028L6.86273 6.70929L6.86782 6.7069L6.54909 6.028ZM6.97509 5.828L6.70677 5.12764C6.68971 5.13418 6.67289 5.14133 6.65636 5.1491L6.97509 5.828ZM9.28789 5.9672C9.69614 5.89717 9.97032 5.50945 9.90029 5.1012C9.83026 4.69295 9.44254 4.41877 9.03429 4.4888L9.28789 5.9672ZM16.6601 15.335C13.4468 13.577 9.55934 13.577 6.3461 15.335L7.06608 16.651C9.83071 15.1383 13.1755 15.1383 15.9401 16.651L16.6601 15.335ZM15.553 16.0589C15.6394 17.0391 15.7504 17.9079 15.8502 18.5433L17.332 18.3107C17.2378 17.7101 17.1308 16.8749 17.0472 15.9271L15.553 16.0589ZM15.8411 18.4323C15.8408 18.3843 15.8595 18.3381 15.8932 18.3039L16.9613 19.3571C17.2069 19.108 17.3435 18.7715 17.3411 18.4217L15.8411 18.4323ZM15.8932 18.3039C15.9269 18.2697 15.9728 18.2504 16.0208 18.25L16.0313 19.75C16.3812 19.7475 16.7157 19.6062 16.9613 19.3571L15.8932 18.3039ZM16.0261 18.25H6.97709V19.75H16.0261V18.25ZM6.98234 18.25C7.03035 18.2504 7.07625 18.2697 7.10996 18.3039L6.04187 19.3571C6.28749 19.6062 6.62201 19.7475 6.97184 19.75L6.98234 18.25ZM7.10996 18.3039C7.14366 18.3381 7.16241 18.3843 7.16207 18.4323L5.66211 18.4217C5.65964 18.7715 5.79624 19.108 6.04187 19.3571L7.10996 18.3039ZM7.15246 18.5468C7.25602 17.9068 7.36299 17.0364 7.45012 16.0596L5.95606 15.9264C5.87119 16.8776 5.76816 17.7112 5.67172 18.3072L7.15246 18.5468ZM17.0405 15.8941C16.7667 13.8358 16.7667 11.7502 17.0405 9.69192L15.5536 9.49408C15.2623 11.6837 15.2623 13.9023 15.5536 16.0919L17.0405 15.8941ZM17.0322 9.7418C17.0455 9.67597 17.0841 9.55269 17.1444 9.3799C17.1942 9.23716 17.2663 9.04049 17.3056 8.9115L15.8706 8.4745C15.8429 8.56551 15.7945 8.69534 15.7281 8.88585C15.6721 9.04631 15.5987 9.26302 15.562 9.4442L17.0322 9.7418ZM16.0421 10.2983L17.3421 10.7683L17.8521 9.35768L16.5521 8.88768L16.0421 10.2983ZM17.1805 10.6867C17.5245 10.9164 17.9567 10.9707 18.3468 10.833L17.8476 9.41849C17.9031 9.39888 17.9647 9.4066 18.0137 9.43933L17.1805 10.6867ZM18.3468 10.833C18.7369 10.6953 19.0393 10.3818 19.1628 9.98703L17.7313 9.53897C17.7489 9.48274 17.792 9.4381 17.8476 9.41849L18.3468 10.833ZM19.1727 9.95259L19.6997 7.93559L18.2484 7.55641L17.7214 9.57341L19.1727 9.95259ZM19.6863 7.98115C19.896 7.34606 19.5995 6.65425 18.995 6.36811L18.3532 7.72389C18.2734 7.6861 18.2342 7.59473 18.2619 7.51085L19.6863 7.98115ZM18.9877 6.36473L16.7677 5.34273L16.1405 6.70527L18.3605 7.72727L18.9877 6.36473ZM16.7728 5.3451L16.3468 5.1451L15.7094 6.5029L16.1354 6.7029L16.7728 5.3451ZM16.2964 5.12364C15.5433 4.83512 14.7637 4.62115 13.9689 4.4848L13.7153 5.9632C14.4135 6.08297 15.0983 6.27092 15.7598 6.52436L16.2964 5.12364ZM13.0924 5.20207C13.0673 6.06064 12.364 6.74363 11.5051 6.74363V8.24363C13.1754 8.24363 14.5429 6.91551 14.5918 5.24593L13.0924 5.20207ZM11.5051 6.74363C10.6461 6.74363 9.94289 6.06064 9.91777 5.20207L8.41841 5.24593C8.46726 6.91551 9.8348 8.24363 11.5051 8.24363V6.74363ZM13.9744 4.48577C13.1608 4.33991 12.3366 4.26107 11.5101 4.25007L11.4901 5.74993C12.2345 5.75985 12.9769 5.83085 13.7097 5.96223L13.9744 4.48577ZM11.4883 4.25009C10.6633 4.26309 9.84087 4.34368 9.02911 4.49106L9.29707 5.96694C10.0282 5.8342 10.7689 5.76161 11.5119 5.74991L11.4883 4.25009ZM7.44354 16.0919C7.73488 13.9023 7.73488 11.6837 7.44354 9.49408L5.95664 9.69192C6.23051 11.7502 6.23051 13.8358 5.95664 15.8941L7.44354 16.0919ZM7.43518 9.4442C7.3985 9.26302 7.32509 9.04631 7.26911 8.88585C7.20266 8.69534 7.15427 8.56551 7.12656 8.4745L5.69162 8.9115C5.73091 9.04049 5.80302 9.23716 5.85281 9.3799C5.91309 9.55269 5.95167 9.67597 5.965 9.7418L7.43518 9.4442ZM6.44509 8.88768L5.14509 9.35768L5.65509 10.7683L6.95509 10.2983L6.44509 8.88768ZM4.98352 9.43933C5.03251 9.4066 5.09407 9.39888 5.14962 9.41849L4.65039 10.833C5.04049 10.9707 5.47266 10.9164 5.81666 10.6867L4.98352 9.43933ZM5.14962 9.41849C5.20518 9.4381 5.24825 9.48274 5.26585 9.53897L3.83433 9.98703C3.9579 10.3818 4.2603 10.6953 4.65039 10.833L5.14962 9.41849ZM5.27616 9.57508L4.75516 7.56208L3.30301 7.93792L3.82401 9.95092L5.27616 9.57508ZM4.74127 7.51485C4.76897 7.59873 4.72981 7.6901 4.64997 7.72789L4.00821 6.37211C3.4037 6.65825 3.10721 7.35006 3.31691 7.98515L4.74127 7.51485ZM4.64272 7.73127L6.86272 6.70927L6.23546 5.34673L4.01546 6.36873L4.64272 7.73127ZM6.86782 6.7069L7.29382 6.5069L6.65636 5.1491L6.23036 5.3491L6.86782 6.7069ZM7.24341 6.52836C7.90492 6.27492 8.58969 6.08697 9.28789 5.9672L9.03429 4.4888C8.23943 4.62515 7.45986 4.83912 6.70677 5.12764L7.24341 6.52836Z" fill="currentColor"/>
</svg>
