<svg width="24" height="24" viewBox="0 0 24 24" fill="none" xmlns="http://www.w3.org/2000/svg">
<path d="M9.94308 11.7868C9.58334 11.9921 9.45817 12.4502 9.6635 12.8099C9.86883 13.1697 10.3269 13.2948 10.6866 13.0895L9.94308 11.7868ZM16.8186 9.58951C17.1784 9.38418 17.3036 8.9261 17.0982 8.56636C16.8929 8.20662 16.4348 8.08145 16.0751 8.28678L16.8186 9.58951ZM10.507 11.7132C10.1067 11.607 9.69604 11.8456 9.5899 12.246C9.48376 12.6463 9.72229 13.057 10.1227 13.1631L10.507 11.7132ZM12.5407 13.8041C12.9411 13.9102 13.3517 13.6717 13.4578 13.2713C13.564 12.8709 13.3254 12.4603 12.925 12.3542L12.5407 13.8041ZM9.59097 12.242C9.48263 12.6418 9.71888 13.0537 10.1187 13.162C10.5185 13.2704 10.9304 13.0341 11.0387 12.6343L9.59097 12.242ZM11.6867 10.2433C11.7951 9.84354 11.5588 9.43161 11.159 9.32326C10.7593 9.21491 10.3473 9.45117 10.239 9.85096L11.6867 10.2433ZM16.6115 8.20644C16.2074 8.1155 15.8061 8.36938 15.7152 8.77349C15.6242 9.17759 15.8781 9.57891 16.2822 9.66985L16.6115 8.20644ZM19.8372 10.4698C20.2413 10.5608 20.6426 10.3069 20.7336 9.9028C20.8245 9.4987 20.5706 9.09738 20.1665 9.00644L19.8372 10.4698ZM15.7275 8.72607C15.6103 9.12338 15.8375 9.54041 16.2348 9.65754C16.6321 9.77466 17.0491 9.54753 17.1663 9.15022L15.7275 8.72607ZM18.2093 5.61222C18.3264 5.21491 18.0992 4.79788 17.7019 4.68075C17.3046 4.56363 16.8876 4.79076 16.7705 5.18807L18.2093 5.61222ZM18.9109 12C18.9108 11.5858 18.5749 11.2501 18.1607 11.2501C17.7465 11.2502 17.4108 11.5861 17.4109 12.0003L18.9109 12ZM17.9199 13.8121L18.6434 14.0096L18.6438 14.0083L17.9199 13.8121ZM14.6199 18.0621L14.2493 17.4101L14.2485 17.4105L14.6199 18.0621ZM6.76986 17.5531L6.3166 18.1507L6.31746 18.1513L6.76986 17.5531ZM4.94986 15.5001L5.59743 15.1218L5.59708 15.1212L4.94986 15.5001ZM4.73086 8.90014L4.06035 8.56412L4.05995 8.56492L4.73086 8.90014ZM7.54086 5.93814L7.91171 6.59004L7.91229 6.58971L7.54086 5.93814ZM14.2494 6.58971C14.6093 6.79485 15.0673 6.66943 15.2724 6.30958C15.4776 5.94973 15.3521 5.49172 14.9923 5.28658L14.2494 6.58971ZM16.2559 12.0003C16.256 11.5861 15.9203 11.2503 15.5061 11.2501C15.0918 11.25 14.756 11.5857 14.7559 12L16.2559 12.0003ZM15.3549 13.1321L16.0785 13.3294L16.0787 13.3285L15.3549 13.1321ZM13.2929 15.7891L12.9222 15.1371L12.9215 15.1375L13.2929 15.7891ZM8.38686 15.4711L7.93376 16.0688L7.9345 16.0694L8.38686 15.4711ZM7.24886 14.1881L7.89633 13.8096L7.89617 13.8093L7.24886 14.1881ZM7.11186 10.0651L6.44117 9.72947L6.44084 9.73014L7.11186 10.0651ZM8.86886 8.21114L9.24006 8.86284L9.24025 8.86273L8.86886 8.21114ZM12.9225 8.86273C13.2823 9.06785 13.7403 8.9424 13.9455 8.58254C14.1506 8.22267 14.0251 7.76467 13.6653 7.55956L12.9225 8.86273ZM10.6866 13.0895L16.8186 9.58951L16.0751 8.28678L9.94308 11.7868L10.6866 13.0895ZM10.1227 13.1631L12.5407 13.8041L12.925 12.3542L10.507 11.7132L10.1227 13.1631ZM11.0387 12.6343L11.6867 10.2433L10.239 9.85096L9.59097 12.242L11.0387 12.6343ZM16.2822 9.66985L19.8372 10.4698L20.1665 9.00644L16.6115 8.20644L16.2822 9.66985ZM17.1663 9.15022L18.2093 5.61222L16.7705 5.18807L15.7275 8.72607L17.1663 9.15022ZM17.4109 12.0003C17.411 12.546 17.3387 13.0893 17.196 13.616L18.6438 14.0083C18.8212 13.3536 18.911 12.6783 18.9109 12L17.4109 12.0003ZM17.1963 13.6147C16.7579 15.2214 15.6974 16.5873 14.2493 17.4101L14.9904 18.7142C16.7853 17.6943 18.0999 16.0012 18.6434 14.0096L17.1963 13.6147ZM14.2485 17.4105C12.026 18.6772 9.26258 18.498 7.22227 16.955L6.31746 18.1513C8.83619 20.0562 12.2476 20.2774 14.9912 18.7137L14.2485 17.4105ZM7.22312 16.9556C6.56597 16.4571 6.01354 15.834 5.59743 15.1218L4.30229 15.8785C4.81787 16.7609 5.50235 17.533 6.3166 18.1507L7.22312 16.9556ZM5.59708 15.1212C4.54146 13.3183 4.468 11.1042 5.40178 9.23537L4.05995 8.56492C2.89956 10.8873 2.99085 13.6387 4.30264 15.8791L5.59708 15.1212ZM5.40137 9.23617C5.95809 8.1253 6.83169 7.20445 7.91171 6.59004L7.17001 5.28625C5.83214 6.04734 4.74997 7.18804 4.06035 8.56412L5.40137 9.23617ZM7.91229 6.58971C9.87632 5.4701 12.2854 5.4701 14.2494 6.58971L14.9923 5.28658C12.5678 3.90447 9.59391 3.90447 7.16943 5.28658L7.91229 6.58971ZM14.7559 12C14.7558 12.316 14.7138 12.6307 14.631 12.9357L16.0787 13.3285C16.1962 12.8956 16.2557 12.449 16.2559 12.0003L14.7559 12ZM14.6313 12.9349C14.3772 13.8671 13.7621 14.6596 12.9222 15.1371L13.6635 16.4411C14.8504 15.7664 15.7194 14.6466 16.0785 13.3294L14.6313 12.9349ZM12.9215 15.1375C11.6302 15.8734 10.0247 15.7694 8.83922 14.8729L7.9345 16.0694C9.59839 17.3276 11.8518 17.4736 13.6642 16.4408L12.9215 15.1375ZM8.83996 14.8735C8.45855 14.5843 8.13789 14.2228 7.89633 13.8096L6.60139 14.5667C6.94247 15.1501 7.39522 15.6605 7.93376 16.0688L8.83996 14.8735ZM7.89617 13.8093C7.28502 12.765 7.24241 11.4827 7.78288 10.4001L6.44084 9.73014C5.67403 11.2661 5.73448 13.0853 6.60156 14.567L7.89617 13.8093ZM7.78255 10.4008C8.10562 9.75532 8.61283 9.2201 9.24006 8.86284L8.49766 7.55945C7.61267 8.06352 6.89701 8.81869 6.44117 9.72947L7.78255 10.4008ZM9.24025 8.86273C10.3815 8.21226 11.7812 8.21226 12.9225 8.86273L13.6653 7.55956C12.0636 6.64665 10.0991 6.64665 8.49747 7.55956L9.24025 8.86273Z" fill="currentColor"/>
</svg>
