<svg width="24" height="24" viewBox="0 0 24 24" fill="none" xmlns="http://www.w3.org/2000/svg">
<path fill-rule="evenodd" clip-rule="evenodd" d="M7.76801 18.1003L5.25301 12.8133C4.91566 12.2907 4.91566 11.6189 5.25301 11.0963L7.75201 5.89229C8.13454 5.32445 8.77844 4.98876 9.46301 5.00029H12.502H15.541C16.2256 4.98876 16.8695 5.32445 17.252 5.89229L19.746 11.0923C20.0834 11.6149 20.0834 12.2867 19.746 12.8093L17.236 18.1003C16.8537 18.674 16.2053 19.0133 15.516 19.0003H9.48701C8.79805 19.013 8.15011 18.6737 7.76801 18.1003Z" stroke="currentColor" stroke-width="1.5" stroke-linecap="round" stroke-linejoin="round"/>
<path d="M8.00201 11.2502C7.5878 11.2502 7.25201 11.586 7.25201 12.0002C7.25201 12.4145 7.5878 12.7502 8.00201 12.7502V11.2502ZM17.002 12.7502C17.4162 12.7502 17.752 12.4145 17.752 12.0002C17.752 11.586 17.4162 11.2502 17.002 11.2502V12.7502ZM10.002 8.25024C9.5878 8.25024 9.25201 8.58603 9.25201 9.00024C9.25201 9.41446 9.5878 9.75024 10.002 9.75024V8.25024ZM15.002 9.75024C15.4162 9.75024 15.752 9.41446 15.752 9.00024C15.752 8.58603 15.4162 8.25024 15.002 8.25024V9.75024ZM10.002 14.2502C9.5878 14.2502 9.25201 14.586 9.25201 15.0002C9.25201 15.4145 9.5878 15.7502 10.002 15.7502V14.2502ZM15.002 15.7502C15.4162 15.7502 15.752 15.4145 15.752 15.0002C15.752 14.586 15.4162 14.2502 15.002 14.2502V15.7502ZM8.00201 12.7502H17.002V11.2502H8.00201V12.7502ZM10.002 9.75024H15.002V8.25024H10.002V9.75024ZM10.002 15.7502H15.002V14.2502H10.002V15.7502Z" fill="currentColor"/>
</svg>
