<svg width="24" height="24" viewBox="0 0 24 24" fill="none" xmlns="http://www.w3.org/2000/svg">
<path d="M12 11.7505C12.4142 11.7505 12.75 11.4147 12.75 11.0005C12.75 10.5862 12.4142 10.2505 12 10.2505V11.7505ZM6 10.2505C5.58579 10.2505 5.25 10.5862 5.25 11.0005C5.25 11.4147 5.58579 11.7505 6 11.7505V10.2505ZM12 14.7505C12.4142 14.7505 12.75 14.4147 12.75 14.0005C12.75 13.5862 12.4142 13.2505 12 13.2505V14.7505ZM6 13.2505C5.58579 13.2505 5.25 13.5862 5.25 14.0005C5.25 14.4147 5.58579 14.7505 6 14.7505V13.2505ZM17.7864 6.00938C18.1834 6.12737 18.6009 5.90115 18.7189 5.50409C18.8369 5.10704 18.6107 4.68952 18.2136 4.57153L17.7864 6.00938ZM10.3084 7.93388L9.69795 7.49817L10.3084 7.93388ZM10.3084 16.067L10.9189 15.6313L10.3084 16.067ZM18.2136 19.4294C18.6107 19.3114 18.8369 18.8939 18.7189 18.4968C18.6009 18.0998 18.1834 17.8735 17.7864 17.9915L18.2136 19.4294ZM12 10.2505H6V11.7505H12V10.2505ZM12 13.2505H6V14.7505H12V13.2505ZM18.2136 4.57153C15.0414 3.62884 11.6205 4.80451 9.69795 7.49817L10.9189 8.36958C12.4693 6.19727 15.2281 5.24915 17.7864 6.00938L18.2136 4.57153ZM9.69795 7.49817C7.7754 10.1918 7.7754 13.8091 9.69795 16.5027L10.9189 15.6313C9.36842 13.459 9.36842 10.5419 10.9189 8.36958L9.69795 7.49817ZM9.69795 16.5027C11.6205 19.1964 15.0414 20.3721 18.2136 19.4294L17.7864 17.9915C15.2281 18.7518 12.4693 17.8036 10.9189 15.6313L9.69795 16.5027Z" fill="currentColor"/>
</svg>
