<svg width="24" height="24" viewBox="0 0 24 24" fill="none" xmlns="http://www.w3.org/2000/svg">
<path fill-rule="evenodd" clip-rule="evenodd" d="M6.73841 8.13204C7.49241 7.33204 7.75941 7.11104 8.08041 7.00704C8.30312 6.94934 8.53656 6.94694 8.76041 7.00004C9.05541 7.08704 9.13241 7.15204 10.1004 8.11804C10.9504 8.96704 11.0344 9.05904 11.1164 9.22504C11.2724 9.5168 11.2968 9.86121 11.1834 10.172C11.0994 10.408 10.9754 10.565 10.4604 11.084L10.1244 11.422C10.0358 11.512 10.0149 11.6486 10.0724 11.761C10.8175 13.0395 11.8766 14.1065 13.1494 14.861C13.2958 14.9399 13.4766 14.9144 13.5954 14.798L13.9184 14.479C14.1179 14.2736 14.3293 14.0799 14.5514 13.899C14.8994 13.6828 15.3344 13.662 15.7014 13.844C15.8804 13.929 15.9404 13.983 16.8174 14.86C17.7174 15.76 17.7464 15.792 17.8474 15.999C18.0346 16.3423 18.0328 16.7575 17.8424 17.099C17.7424 17.292 17.6864 17.362 17.1784 17.882C16.8714 18.197 16.5784 18.482 16.5364 18.527C16.1175 18.8751 15.5793 19.0459 15.0364 19.003C14.0435 18.9127 13.0826 18.6055 12.2214 18.103C10.3108 17.0865 8.68554 15.607 7.49441 13.8C7.23341 13.4211 7.00142 13.023 6.80041 12.609C6.26424 11.685 5.98783 10.6333 6.00041 9.56504C6.041 9.0068 6.30753 8.48927 6.73841 8.13204Z" stroke="currentColor" stroke-width="1.5" stroke-linecap="round" stroke-linejoin="round"/>
<path d="M17.7365 5C17.7365 4.58579 17.4007 4.25 16.9865 4.25C16.5722 4.25 16.2365 4.58579 16.2365 5H17.7365ZM16.2365 7.007C16.2365 7.42121 16.5722 7.757 16.9865 7.757C17.4007 7.757 17.7365 7.42121 17.7365 7.007H16.2365ZM17.7365 7.007C17.7365 6.59279 17.4007 6.257 16.9865 6.257C16.5722 6.257 16.2365 6.59279 16.2365 7.007H17.7365ZM16.2365 9.013C16.2365 9.42721 16.5722 9.763 16.9865 9.763C17.4007 9.763 17.7365 9.42721 17.7365 9.013H16.2365ZM16.9865 7.756C17.4007 7.756 17.7365 7.42021 17.7365 7.006C17.7365 6.59179 17.4007 6.256 16.9865 6.256V7.756ZM14.9865 6.256C14.5722 6.256 14.2365 6.59179 14.2365 7.006C14.2365 7.42021 14.5722 7.756 14.9865 7.756V6.256ZM16.9865 6.256C16.5722 6.256 16.2365 6.59179 16.2365 7.006C16.2365 7.42021 16.5722 7.756 16.9865 7.756V6.256ZM18.9865 7.756C19.4007 7.756 19.7365 7.42021 19.7365 7.006C19.7365 6.59179 19.4007 6.256 18.9865 6.256V7.756ZM16.2365 5V7.007H17.7365V5H16.2365ZM16.2365 7.007V9.013H17.7365V7.007H16.2365ZM16.9865 6.256H14.9865V7.756H16.9865V6.256ZM16.9865 7.756H18.9865V6.256H16.9865V7.756Z" fill="currentColor"/>
</svg>
