<svg width="24" height="24" viewBox="0 0 24 24" fill="none" xmlns="http://www.w3.org/2000/svg">
<path fill-rule="evenodd" clip-rule="evenodd" d="M9.16504 14.835C10.0688 15.7395 11.1034 16.503 12.234 17.1C13.0954 17.602 14.0562 17.9092 15.049 18C15.5917 18.0421 16.1295 17.8718 16.549 17.525C16.595 17.485 16.884 17.196 17.191 16.883C17.699 16.364 17.758 16.294 17.855 16.102C18.0467 15.7609 18.0486 15.3449 17.86 15.002C17.76 14.795 17.734 14.767 16.83 13.866C15.953 12.992 15.893 12.937 15.714 12.853C15.3469 12.6718 14.9122 12.6926 14.564 12.908C14.342 13.0882 14.1306 13.2812 13.931 13.486L13.608 13.804C13.489 13.9201 13.3085 13.9456 13.162 13.867C12.5331 13.5088 11.9575 13.0641 11.452 12.546L9.16504 14.835Z" stroke="currentColor" stroke-width="1.5" stroke-linecap="round" stroke-linejoin="round"/>
<path d="M6.8914 13.241C7.12721 13.5815 7.59443 13.6664 7.93497 13.4306C8.27551 13.1948 8.36041 12.7276 8.1246 12.387L6.8914 13.241ZM6.814 11.63L7.4878 11.3006C7.47981 11.2843 7.47123 11.2682 7.46208 11.2525L6.814 11.63ZM6.014 8.596L5.26606 8.54043C5.26491 8.55598 5.26424 8.57156 5.26405 8.58715L6.014 8.596ZM6.754 7.168L7.23068 7.74703C7.25445 7.72746 7.27699 7.70645 7.29818 7.68411L6.754 7.168ZM8.096 6.047L7.90521 5.32167C7.89233 5.32506 7.87954 5.32879 7.86685 5.33286L8.096 6.047ZM8.776 6.037L8.98591 5.31697C8.9725 5.31306 8.95898 5.30953 8.94538 5.30638L8.776 6.037ZM10.116 7.151L10.6451 6.61942L10.645 6.6193L10.116 7.151ZM11.132 8.251L10.4628 8.58971C10.4659 8.59584 10.4691 8.60192 10.4724 8.60796L11.132 8.251ZM11.2 9.2L10.4962 8.94072L10.4938 8.94756L11.2 9.2ZM10.477 10.109L11.0081 10.6385L11.0089 10.6378L10.477 10.109ZM10.141 10.446L9.60987 9.91645L9.60689 9.91948L10.141 10.446ZM9.42133 11.1256C9.61 11.4944 10.0619 11.6404 10.4306 11.4517C10.7994 11.263 10.9454 10.8111 10.7567 10.4424L9.42133 11.1256ZM4.46967 18.4697C4.17678 18.7626 4.17678 19.2374 4.46967 19.5303C4.76256 19.8232 5.23744 19.8232 5.53033 19.5303L4.46967 18.4697ZM9.69533 15.3653C9.98822 15.0724 9.98822 14.5976 9.69533 14.3047C9.40244 14.0118 8.92756 14.0118 8.63467 14.3047L9.69533 15.3653ZM19.5303 5.53033C19.8232 5.23744 19.8232 4.76256 19.5303 4.46967C19.2374 4.17678 18.7626 4.17678 18.4697 4.46967L19.5303 5.53033ZM10.9227 12.0167C10.6298 12.3096 10.6298 12.7844 10.9227 13.0773C11.2156 13.3702 11.6904 13.3702 11.9833 13.0773L10.9227 12.0167ZM8.1246 12.387C7.88529 12.0414 7.67241 11.6783 7.4878 11.3006L6.1402 11.9594C6.35799 12.4049 6.6091 12.8333 6.8914 13.241L8.1246 12.387ZM7.46208 11.2525C6.99425 10.4493 6.75298 9.5343 6.76395 8.60485L5.26405 8.58715C5.24988 9.78783 5.56156 10.9699 6.16592 12.0075L7.46208 11.2525ZM6.76194 8.65157C6.78816 8.29871 6.9575 7.97192 7.23068 7.74703L6.27732 6.58897C5.68798 7.07413 5.32262 7.77917 5.26606 8.54043L6.76194 8.65157ZM7.29818 7.68411C8.08601 6.85343 8.22136 6.79444 8.32515 6.76114L7.86685 5.33286C7.32864 5.50556 6.92999 5.89257 6.20982 6.65189L7.29818 7.68411ZM8.28679 6.77233C8.39144 6.7448 8.50121 6.74319 8.60662 6.76762L8.94538 5.30638C8.60256 5.2269 8.24554 5.23215 7.90521 5.32167L8.28679 6.77233ZM8.56609 6.75703C8.59619 6.7658 8.61061 6.77061 8.619 6.77371C8.62545 6.77609 8.627 6.77698 8.62733 6.77715C8.62775 6.77737 8.64993 6.78841 8.71393 6.84166C8.85882 6.96221 9.09092 7.18914 9.58704 7.6827L10.645 6.6193C10.1731 6.14986 9.88268 5.86279 9.67332 5.68859C9.56019 5.59447 9.44731 5.51294 9.32008 5.4467C9.19097 5.37947 9.07541 5.34307 8.98591 5.31697L8.56609 6.75703ZM9.58692 7.68258C10.0168 8.11044 10.2367 8.33166 10.3608 8.46613C10.4212 8.53155 10.4445 8.56112 10.4531 8.57294C10.4561 8.57701 10.4561 8.57632 10.4628 8.58971L11.8012 7.91229C11.7184 7.74877 11.6288 7.62833 11.4632 7.44887C11.3123 7.28534 11.0652 7.03756 10.6451 6.61942L9.58692 7.68258ZM10.4724 8.60796C10.5278 8.71031 10.5365 8.83153 10.4962 8.94073L11.9038 9.45927C12.093 8.94564 12.0521 8.37544 11.7916 7.89404L10.4724 8.60796ZM10.4938 8.94756C10.4752 8.99945 10.4802 9.04205 9.94513 9.58021L11.0089 10.6378C11.5038 10.1399 11.7568 9.87055 11.9062 9.45244L10.4938 8.94756ZM9.94588 9.57946L9.60988 9.91646L10.6721 10.9755L11.0081 10.6385L9.94588 9.57946ZM9.60689 9.91948C9.29145 10.2395 9.21665 10.7256 9.42133 11.1256L10.7567 10.4424C10.8466 10.6182 10.8138 10.8319 10.6751 10.9725L9.60689 9.91948ZM5.53033 19.5303L9.69533 15.3653L8.63467 14.3047L4.46967 18.4697L5.53033 19.5303ZM18.4697 4.46967L10.9227 12.0167L11.9833 13.0773L19.5303 5.53033L18.4697 4.46967Z" fill="currentColor"/>
</svg>
