<svg width="24" height="24" viewBox="0 0 24 24" fill="none" xmlns="http://www.w3.org/2000/svg">
<path fill-rule="evenodd" clip-rule="evenodd" d="M5.74033 8.16795C6.49433 7.37295 6.76133 7.14995 7.08233 7.04695C7.30482 6.98843 7.53822 6.98499 7.76233 7.03695C8.05733 7.12295 8.13433 7.18795 9.10233 8.15095C9.95233 8.99695 10.0363 9.08895 10.1183 9.25095C10.2769 9.54253 10.3024 9.88825 10.1883 10.1999C10.1043 10.4349 9.98033 10.5909 9.46533 11.1089L9.12933 11.4459C9.04093 11.5356 9.01997 11.6719 9.07733 11.7839C9.82321 13.0565 10.8812 14.1179 12.1513 14.8679C12.2978 14.9465 12.4783 14.921 12.5973 14.8049L12.9203 14.4869C13.1199 14.2821 13.3313 14.0891 13.5533 13.9089C13.9015 13.6935 14.3362 13.6727 14.7033 13.8539C14.8823 13.9379 14.9423 13.9929 15.8193 14.8669C16.7193 15.7669 16.7483 15.7959 16.8493 16.0029C17.0379 16.3458 17.036 16.7618 16.8443 17.1029C16.7443 17.2949 16.6883 17.3649 16.1803 17.8839C15.8733 18.1979 15.5803 18.4839 15.5383 18.5259C15.1188 18.8727 14.581 19.043 14.0383 19.0009C13.0455 18.9101 12.0847 18.6029 11.2233 18.1009C9.31416 17.0894 7.68898 15.6155 6.49633 13.8139C6.23552 13.4373 6.00353 13.0415 5.80233 12.6299C5.26624 11.7109 4.98909 10.6638 5.00033 9.59995C5.04065 9.04147 5.3081 8.52391 5.74033 8.16795Z" stroke="currentColor" stroke-width="1.5" stroke-linecap="round" stroke-linejoin="round"/>
<path d="M14.3416 4.29409C13.9518 4.15416 13.5223 4.35677 13.3824 4.74664C13.2424 5.1365 13.4451 5.56598 13.8349 5.70591L14.3416 4.29409ZM18.2867 10.0832C18.4332 10.4707 18.8661 10.666 19.2535 10.5195C19.641 10.373 19.8363 9.94021 19.6898 9.55276L18.2867 10.0832ZM13.1535 6.52142C12.7495 6.43018 12.348 6.68374 12.2567 7.08778C12.1655 7.49182 12.419 7.89333 12.8231 7.98458L13.1535 6.52142ZM16.0696 11.1774C16.1675 11.5799 16.5732 11.8267 16.9757 11.7287C17.3781 11.6307 17.625 11.2251 17.527 10.8226L16.0696 11.1774ZM13.8349 5.70591C15.8882 6.44286 17.5153 8.04271 18.2867 10.0832L19.6898 9.55276C18.763 7.10139 16.8083 5.17942 14.3416 4.29409L13.8349 5.70591ZM12.8231 7.98458C14.4237 8.34607 15.6814 9.58301 16.0696 11.1774L17.527 10.8226C17.0041 8.67475 15.3098 7.0084 13.1535 6.52142L12.8231 7.98458Z" fill="currentColor"/>
</svg>
