<svg width="24" height="24" viewBox="0 0 24 24" fill="none" xmlns="http://www.w3.org/2000/svg">
<path fill-rule="evenodd" clip-rule="evenodd" d="M5.74034 8.16795C6.49434 7.37295 6.76134 7.14995 7.08234 7.04695C7.30483 6.98843 7.53823 6.98499 7.76234 7.03695C8.05734 7.12295 8.13434 7.18795 9.10234 8.15095C9.95234 8.99695 10.0363 9.08895 10.1183 9.25095C10.277 9.54253 10.3025 9.88825 10.1883 10.1999C10.1043 10.4349 9.98034 10.5909 9.46534 11.1089L9.12934 11.4459C9.04094 11.5356 9.01998 11.6719 9.07734 11.7839C9.82322 13.0565 10.8812 14.1179 12.1513 14.8679C12.2978 14.9465 12.4783 14.921 12.5973 14.8049L12.9203 14.4869C13.1199 14.2821 13.3313 14.0891 13.5533 13.9089C13.9015 13.6935 14.3362 13.6727 14.7033 13.8539C14.8823 13.9379 14.9423 13.9929 15.8193 14.8669C16.7193 15.7669 16.7483 15.7959 16.8493 16.0029C17.0379 16.3458 17.036 16.7618 16.8443 17.1029C16.7443 17.2949 16.6883 17.3649 16.1803 17.8839C15.8733 18.1979 15.5803 18.4839 15.5383 18.5259C15.1188 18.8727 14.581 19.043 14.0383 19.0009C13.0455 18.9101 12.0847 18.6029 11.2233 18.1009C9.31417 17.0894 7.68899 15.6155 6.49634 13.8139C6.23558 13.4376 6.00358 13.0422 5.80234 12.6309C5.26607 11.7116 4.98892 10.6642 5.00034 9.59995C5.04066 9.04147 5.30811 8.52391 5.74034 8.16795Z" stroke="currentColor" stroke-width="1.5" stroke-linecap="round" stroke-linejoin="round"/>
<path d="M15.5186 4.46967C15.2257 4.17678 14.7508 4.17678 14.458 4.46967C14.1651 4.76256 14.1651 5.23744 14.458 5.53033L15.5186 4.46967ZM16.458 7.53033C16.7508 7.82322 17.2257 7.82322 17.5186 7.53033C17.8115 7.23744 17.8115 6.76256 17.5186 6.46967L16.458 7.53033ZM17.5186 6.46967C17.2257 6.17678 16.7508 6.17678 16.458 6.46967C16.1651 6.76256 16.1651 7.23744 16.458 7.53033L17.5186 6.46967ZM18.458 9.53033C18.7508 9.82322 19.2257 9.82322 19.5186 9.53033C19.8115 9.23744 19.8115 8.76256 19.5186 8.46967L18.458 9.53033ZM17.5186 7.53033C17.8115 7.23744 17.8115 6.76256 17.5186 6.46967C17.2257 6.17678 16.7508 6.17678 16.458 6.46967L17.5186 7.53033ZM14.458 8.46967C14.1651 8.76256 14.1651 9.23744 14.458 9.53033C14.7508 9.82322 15.2257 9.82322 15.5186 9.53033L14.458 8.46967ZM16.458 6.46967C16.1651 6.76256 16.1651 7.23744 16.458 7.53033C16.7508 7.82322 17.2257 7.82322 17.5186 7.53033L16.458 6.46967ZM19.5186 5.53033C19.8115 5.23744 19.8115 4.76256 19.5186 4.46967C19.2257 4.17678 18.7508 4.17678 18.458 4.46967L19.5186 5.53033ZM14.458 5.53033L16.458 7.53033L17.5186 6.46967L15.5186 4.46967L14.458 5.53033ZM16.458 7.53033L18.458 9.53033L19.5186 8.46967L17.5186 6.46967L16.458 7.53033ZM16.458 6.46967L14.458 8.46967L15.5186 9.53033L17.5186 7.53033L16.458 6.46967ZM17.5186 7.53033L19.5186 5.53033L18.458 4.46967L16.458 6.46967L17.5186 7.53033Z" fill="currentColor"/>
</svg>
