<svg width="24" height="24" viewBox="0 0 24 24" fill="none" xmlns="http://www.w3.org/2000/svg">
<path fill-rule="evenodd" clip-rule="evenodd" d="M18.8664 10.6375C18.1911 7.2345 15.1251 4.83963 11.6598 5.00839C8.19462 5.17714 5.37582 7.85861 5.03433 11.3111C4.69284 14.7636 6.9317 17.9453 10.2967 18.7896C13.6617 19.634 17.1375 17.8862 18.4664 14.6815C18.9967 13.4027 19.1359 11.9954 18.8664 10.6375Z" stroke="currentColor" stroke-width="1.5" stroke-linecap="round" stroke-linejoin="round"/>
<path fill-rule="evenodd" clip-rule="evenodd" d="M16.1594 11.8315C16.2121 12.1725 16.1809 12.5212 16.0684 12.8475C16.0008 12.9631 15.9061 13.0606 15.7924 13.1315C15.6354 13.2175 15.5764 13.2225 14.7804 13.2245C14.4873 13.2543 14.1913 13.2425 13.9014 13.1895C13.7171 13.1339 13.5654 13.0021 13.4844 12.8275C13.4069 12.6121 13.3806 12.3817 13.4074 12.1545V11.8775C13.4071 11.8039 13.3595 11.739 13.2894 11.7165C12.4559 11.5002 11.581 11.5002 10.7474 11.7165C10.6547 11.7447 10.5909 11.8296 10.5894 11.9265V12.1915C10.5915 12.3584 10.5838 12.5254 10.5664 12.6915C10.5126 12.9252 10.3416 13.1144 10.1144 13.1915C9.8258 13.2515 9.5295 13.2657 9.23644 13.2335C8.49244 13.2335 8.46944 13.2335 8.34344 13.1895C8.12537 13.1255 7.95543 12.9541 7.89344 12.7355C7.84293 12.5397 7.82669 12.3367 7.84544 12.1355C7.84544 11.8795 7.84544 11.6415 7.84544 11.6055C7.87513 11.2891 8.02685 10.9968 8.26844 10.7905C8.71532 10.4172 9.23861 10.1465 9.80144 9.99747C11.0058 9.62723 12.2837 9.56466 13.5184 9.81547C13.7811 9.86257 14.0398 9.92943 14.2924 10.0155C14.8934 10.1738 15.4401 10.4921 15.8744 10.9365C16.0878 11.1833 16.1908 11.5067 16.1594 11.8315V11.8315Z" stroke="currentColor" stroke-width="1.5" stroke-linecap="round" stroke-linejoin="round"/>
</svg>
