<svg width="24" height="24" viewBox="0 0 24 24" fill="none" xmlns="http://www.w3.org/2000/svg">
<path fill-rule="evenodd" clip-rule="evenodd" d="M6.00126 8.23098C6.27229 7.95753 6.61459 7.7656 6.98926 7.67698C7.3517 7.59019 7.73188 7.61458 8.08026 7.74698C8.41971 7.87752 8.70894 8.11248 8.90626 8.41798C9.10531 8.72951 9.20409 9.09458 9.18926 9.46398C9.17449 9.84642 9.05138 10.2168 8.83426 10.532C8.61603 10.8515 8.31349 11.1041 7.96026 11.262C7.6158 11.4173 7.23331 11.4681 6.86026 11.408C6.49957 11.3493 6.16651 11.1785 5.90826 10.92C5.56269 10.5678 5.37873 10.0879 5.40026 9.59498C5.42186 9.0809 5.63646 8.59385 6.00126 8.23098Z" stroke="currentColor" stroke-width="1.5" stroke-linecap="round" stroke-linejoin="round"/>
<path fill-rule="evenodd" clip-rule="evenodd" d="M15.6983 17.969C15.9711 17.6962 16.1622 17.3526 16.2503 16.977C16.3375 16.6115 16.3131 16.2284 16.1803 15.877C16.0508 15.537 15.8169 15.2467 15.5123 15.048C15.203 14.8508 14.8407 14.7534 14.4743 14.769C14.0931 14.7842 13.7243 14.908 13.4113 15.126C13.0921 15.3445 12.8394 15.6469 12.6813 16C12.5272 16.3448 12.4765 16.7269 12.5353 17.1C12.6731 17.9766 13.4488 18.6088 14.3353 18.567C14.8489 18.5475 15.3361 18.3337 15.6983 17.969V17.969Z" stroke="currentColor" stroke-width="1.5" stroke-linecap="round" stroke-linejoin="round"/>
<path d="M11.3657 7.05183C10.9525 7.02289 10.594 7.33438 10.5651 7.74759C10.5361 8.16079 10.8476 8.51922 11.2608 8.54817L11.3657 7.05183ZM15.4743 12.6766C15.5117 13.0892 15.8764 13.3933 16.2889 13.3559C16.7014 13.3186 17.0056 12.9539 16.9682 12.5414L15.4743 12.6766ZM12.7957 4.26162C12.3879 4.189 11.9985 4.46072 11.9259 4.86851C11.8533 5.27631 12.125 5.66577 12.5328 5.73838L12.7957 4.26162ZM18.2387 11.3303C18.3195 11.7366 18.7144 12.0004 19.1206 11.9196C19.5269 11.8388 19.7907 11.4439 19.7098 11.0377L18.2387 11.3303ZM6.59732 8.6862C6.84872 8.35701 6.78565 7.88634 6.45645 7.63494C6.12726 7.38354 5.65659 7.4466 5.40519 7.7758L6.59732 8.6862ZM5.02125 10.518L4.28053 10.4004C4.27731 10.4207 4.27492 10.4412 4.27337 10.4617L5.02125 10.518ZM7.38725 16.578L7.93825 16.0692C7.9257 16.0556 7.91265 16.0425 7.89913 16.0298L7.38725 16.578ZM13.4223 18.954L13.4785 19.7019C13.4994 19.7003 13.5202 19.6979 13.5409 19.6945L13.4223 18.954ZM16.1581 18.5641C16.4862 18.3112 16.5472 17.8403 16.2943 17.5122C16.0415 17.1841 15.5705 17.1231 15.2424 17.3759L16.1581 18.5641ZM11.2608 8.54817C13.488 8.7042 15.2729 10.4531 15.4743 12.6766L16.9682 12.5414C16.7004 9.58479 14.3271 7.2593 11.3657 7.05183L11.2608 8.54817ZM12.5328 5.73838C15.4047 6.24979 17.6695 8.46935 18.2387 11.3303L19.7098 11.0377C19.0201 7.57085 16.2757 4.8813 12.7957 4.26162L12.5328 5.73838ZM5.40519 7.7758C4.81858 8.54393 4.43211 9.44583 4.28053 10.4004L5.76197 10.6356C5.87456 9.92663 6.16161 9.25674 6.59732 8.6862L5.40519 7.7758ZM4.27337 10.4617C4.08505 12.9628 5.04216 15.4143 6.87537 17.1262L7.89913 16.0298C6.39847 14.6285 5.61498 12.6217 5.76914 10.5743L4.27337 10.4617ZM6.83625 17.0868C8.53518 18.9266 10.9813 19.8896 13.4785 19.7019L13.366 18.2061C11.3255 18.3595 9.32655 17.5725 7.93825 16.0692L6.83625 17.0868ZM13.5409 19.6945C14.4939 19.5418 15.3936 19.1532 16.1581 18.5641L15.2424 17.3759C14.6761 17.8124 14.0096 18.1003 13.3036 18.2135L13.5409 19.6945Z" fill="currentColor"/>
</svg>
