<svg width="24" height="24" viewBox="0 0 24 24" fill="none" xmlns="http://www.w3.org/2000/svg">
<path fill-rule="evenodd" clip-rule="evenodd" d="M14.417 11.5881C13.7369 11.5798 13.1915 11.0233 13.197 10.3432C13.2025 9.66311 13.7568 9.11545 14.4369 9.11817C15.117 9.12089 15.6669 9.67297 15.667 10.3531C15.6626 11.0392 15.1031 11.592 14.417 11.5881V11.5881Z" stroke="currentColor" stroke-width="1.5" stroke-linecap="round" stroke-linejoin="round"/>
<path fill-rule="evenodd" clip-rule="evenodd" d="M4 10.765V15.706C4.01101 17.5359 5.5031 19.0105 7.333 19H15.666C16.5449 19.0053 17.39 18.6613 18.0152 18.0435C18.6405 17.4258 18.9947 16.5849 19 15.706V10.765C18.989 8.93511 17.4969 7.46048 15.667 7.471H7.333C5.5031 7.46048 4.01101 8.93511 4 10.765Z" stroke="currentColor" stroke-width="1.5" stroke-linecap="round" stroke-linejoin="round"/>
<path fill-rule="evenodd" clip-rule="evenodd" d="M9.83299 16.529C8.47219 16.513 7.38045 15.3997 7.39107 14.0389C7.40168 12.678 8.51066 11.5819 9.87155 11.5872C11.2324 11.5924 12.3329 12.6971 12.333 14.058C12.3293 14.7172 12.0638 15.348 11.5949 15.8114C11.126 16.2748 10.4922 16.533 9.83299 16.529Z" stroke="currentColor" stroke-width="1.5" stroke-linecap="round" stroke-linejoin="round"/>
<path d="M9 7.47102V5.82402C9.00106 5.60424 9.08945 5.3939 9.24569 5.23934C9.40194 5.08478 9.61323 4.99869 9.833 5.00002H13.167C13.3868 4.99869 13.5981 5.08478 13.7543 5.23934C13.9106 5.3939 13.9989 5.60424 14 5.82402V7.47102" stroke="currentColor" stroke-width="1.5" stroke-linecap="round" stroke-linejoin="round"/>
</svg>
