<svg width="24" height="24" viewBox="0 0 24 24" fill="none" xmlns="http://www.w3.org/2000/svg">
<path fill-rule="evenodd" clip-rule="evenodd" d="M18.9993 12.0005C18.9993 15.8665 15.8653 19.0005 11.9993 19.0005C11.9993 15.6865 12.9993 11.5005 17.9993 11.0005H18.9283C18.9756 11.3317 18.9993 11.6659 18.9993 12.0005V12.0005Z" stroke="currentColor" stroke-width="1.5" stroke-linecap="round" stroke-linejoin="round"/>
<path d="M6.07396 10.2542C5.6618 10.2129 5.29427 10.5136 5.25305 10.9258C5.21184 11.338 5.51255 11.7055 5.9247 11.7467L6.07396 10.2542ZM11.9993 19.0004L11.9992 19.7504C12.1982 19.7505 12.389 19.6714 12.5296 19.5308C12.6703 19.3901 12.7493 19.1994 12.7493 19.0004H11.9993ZM5.00809 12.3342L4.25895 12.37L5.00809 12.3342ZM11.3325 5.03234L11.2609 4.28576L11.3325 5.03234ZM18.186 11.1076C18.2452 11.5175 18.6255 11.8019 19.0355 11.7427C19.4454 11.6836 19.7298 11.3033 19.6706 10.8933L18.186 11.1076ZM5.99933 11.7504C6.41355 11.7504 6.74933 11.4146 6.74933 11.0004C6.74933 10.5862 6.41355 10.2504 5.99933 10.2504V11.7504ZM5.07033 10.2504C4.65612 10.2504 4.32033 10.5862 4.32033 11.0004C4.32033 11.4146 4.65612 11.7504 5.07033 11.7504V10.2504ZM5.99933 10.2504C5.58512 10.2504 5.24933 10.5862 5.24933 11.0004C5.24933 11.4146 5.58512 11.7504 5.99933 11.7504V10.2504ZM17.9993 11.7504C18.4135 11.7504 18.7493 11.4146 18.7493 11.0004C18.7493 10.5862 18.4135 10.2504 17.9993 10.2504V11.7504ZM5.9247 11.7467C8.18525 11.9728 9.4702 13.0065 10.224 14.3188C11.0044 15.6772 11.2493 17.3993 11.2493 19.0004H12.7493C12.7493 17.2875 12.4943 15.2596 11.5247 13.5716C10.5285 11.8374 8.81342 10.5281 6.07396 10.2542L5.9247 11.7467ZM11.9994 18.2504C8.66379 18.25 5.91631 15.6303 5.75724 12.2985L4.25895 12.37C4.4562 16.5015 7.86307 19.75 11.9992 19.7504L11.9994 18.2504ZM5.75724 12.2985C5.59817 8.96665 8.08357 6.09708 11.404 5.77892L11.2609 4.28576C7.1436 4.68028 4.0617 8.23854 4.25895 12.37L5.75724 12.2985ZM11.404 5.77892C14.7244 5.46076 17.7095 7.80615 18.186 11.1076L19.6706 10.8933C19.0798 6.79953 15.3782 3.89125 11.2609 4.28576L11.404 5.77892ZM5.99933 10.2504H5.07033V11.7504H5.99933V10.2504ZM5.99933 11.7504H17.9993V10.2504H5.99933V11.7504Z" fill="currentColor"/>
</svg>
