<svg width="24" height="24" viewBox="0 0 24 24" fill="none" xmlns="http://www.w3.org/2000/svg">
<path fill-rule="evenodd" clip-rule="evenodd" d="M5.00063 16.1407C4.96273 18.2335 6.6278 19.9613 8.72063 20.0007H15.2806C17.3735 19.9613 19.0385 18.2335 19.0006 16.1407L18.5636 11.4527C18.4527 9.68529 17.216 8.19053 15.5006 7.75065C15.1432 7.64667 14.7729 7.59348 14.4006 7.59265H9.60063C9.22837 7.59348 8.85808 7.64667 8.50063 7.75065C6.78636 8.19067 5.55026 9.68433 5.43863 11.4507L5.00063 16.1407Z" stroke="currentColor" stroke-width="1.5" stroke-linecap="round" stroke-linejoin="round"/>
<path d="M14.7506 9.38862C14.7506 9.80283 15.0864 10.1386 15.5006 10.1386C15.9148 10.1386 16.2506 9.80283 16.2506 9.38862H14.7506ZM15.5006 7.36762H16.2506C16.2506 7.36264 16.2506 7.35767 16.2505 7.35269L15.5006 7.36762ZM12.0006 4.00062L11.9865 4.75049C11.9959 4.75067 12.0053 4.75067 12.0147 4.75049L12.0006 4.00062ZM8.50061 7.36762L7.75076 7.35269C7.75066 7.35767 7.75061 7.36264 7.75061 7.36762H8.50061ZM7.75061 9.38762C7.75061 9.80184 8.0864 10.1376 8.50061 10.1376C8.91482 10.1376 9.25061 9.80184 9.25061 9.38762H7.75061ZM15.6963 15.3248C15.8511 14.9406 15.665 14.5037 15.2808 14.3489C14.8966 14.1942 14.4597 14.3802 14.3049 14.7644L15.6963 15.3248ZM14.1166 16.2506L14.5904 16.8321L14.5932 16.8297L14.1166 16.2506ZM9.86461 16.2196L9.37906 16.7913L9.38243 16.7941L9.86461 16.2196ZM9.70079 14.7318C9.55234 14.3451 9.11852 14.152 8.73182 14.3004C8.34512 14.4489 8.15198 14.8827 8.30043 15.2694L9.70079 14.7318ZM9.75061 12.0006C9.75061 11.5864 9.41482 11.2506 9.00061 11.2506C8.5864 11.2506 8.25061 11.5864 8.25061 12.0006H9.75061ZM8.25061 13.0006C8.25061 13.4148 8.5864 13.7506 9.00061 13.7506C9.41482 13.7506 9.75061 13.4148 9.75061 13.0006H8.25061ZM15.7506 12.0006C15.7506 11.5864 15.4148 11.2506 15.0006 11.2506C14.5864 11.2506 14.2506 11.5864 14.2506 12.0006H15.7506ZM14.2506 13.0006C14.2506 13.4148 14.5864 13.7506 15.0006 13.7506C15.4148 13.7506 15.7506 13.4148 15.7506 13.0006H14.2506ZM16.2506 9.38862V7.36762H14.7506V9.38862H16.2506ZM16.2505 7.35269C16.2045 5.04305 14.2962 3.20727 11.9865 3.25075L12.0147 4.75049C13.4968 4.72258 14.7213 5.90054 14.7508 7.38255L16.2505 7.35269ZM12.0147 3.25075C9.70504 3.20727 7.79674 5.04305 7.75076 7.35269L9.25046 7.38255C9.27997 5.90054 10.5045 4.72258 11.9865 4.75049L12.0147 3.25075ZM7.75061 7.36762V9.38762H9.25061V7.36762H7.75061ZM14.3049 14.7644C14.1627 15.1177 13.934 15.4295 13.64 15.6715L14.5932 16.8297C15.081 16.4283 15.4603 15.9108 15.6963 15.3248L14.3049 14.7644ZM13.6429 15.6692C12.6807 16.4531 11.2974 16.4431 10.3468 15.6452L9.38243 16.7941C10.8844 18.0548 13.0702 18.0707 14.5904 16.832L13.6429 15.6692ZM10.3501 15.648C10.0604 15.4018 9.83706 15.0868 9.70079 14.7318L8.30043 15.2694C8.52679 15.8591 8.89769 16.3824 9.37907 16.7912L10.3501 15.648ZM8.25061 12.0006V13.0006H9.75061V12.0006H8.25061ZM14.2506 12.0006V13.0006H15.7506V12.0006H14.2506Z" fill="currentColor"/>
</svg>
