<svg width="24" height="24" viewBox="0 0 24 24" fill="none" xmlns="http://www.w3.org/2000/svg">
<path fill-rule="evenodd" clip-rule="evenodd" d="M8.833 19.237C8.83024 19.655 8.48966 19.9918 8.07169 19.99C7.65371 19.9882 7.31611 19.6483 7.31702 19.2303C7.31793 18.8124 7.65702 18.474 8.075 18.474C8.4949 18.4757 8.83411 18.8171 8.833 19.237V19.237Z" stroke="currentColor" stroke-width="1.5" stroke-linecap="round" stroke-linejoin="round"/>
<path fill-rule="evenodd" clip-rule="evenodd" d="M13.381 19.237C13.3782 19.655 13.0376 19.9918 12.6197 19.99C12.2017 19.9882 11.8641 19.6483 11.865 19.2303C11.8659 18.8124 12.205 18.474 12.623 18.474C13.0429 18.4757 13.3821 18.8171 13.381 19.237Z" stroke="currentColor" stroke-width="1.5" stroke-linecap="round" stroke-linejoin="round"/>
<path fill-rule="evenodd" clip-rule="evenodd" d="M14.731 14.263C15.9328 14.367 17.0577 13.6612 17.487 12.534L18.416 10.152L18.927 8.58897C18.9901 8.42231 19.0117 8.24283 18.99 8.06597C18.853 7.26097 18.052 7.34597 17.085 7.34597H7.23804L7.67204 14.263H14.731Z" stroke="currentColor" stroke-width="1.5" stroke-linecap="round" stroke-linejoin="round"/>
<path d="M6.531 7.59729C6.66923 7.98776 7.09783 8.19224 7.48829 8.054C7.87876 7.91577 8.08324 7.48717 7.945 7.09671L6.531 7.59729ZM6.582 5.494L5.83206 5.48472C5.83096 5.5731 5.8455 5.66098 5.875 5.74429L6.582 5.494ZM6.44332 5.14716L6.98013 4.62339L6.98013 4.62339L6.44332 5.14716ZM6.1 5L6.10916 4.25H6.1V5ZM5 4.25C4.58579 4.25 4.25 4.58579 4.25 5C4.25 5.41421 4.58579 5.75 5 5.75V4.25ZM7.7236 15.0112C8.13683 14.9827 8.44872 14.6246 8.42022 14.2114C8.39172 13.7982 8.03363 13.4863 7.6204 13.5148L7.7236 15.0112ZM7.672 16.789L7.6204 17.5372C7.63757 17.5384 7.65478 17.539 7.672 17.539V16.789ZM14.789 17.539C15.2032 17.539 15.539 17.2032 15.539 16.789C15.539 16.3748 15.2032 16.039 14.789 16.039V17.539ZM7.945 7.09671L7.289 5.24371L5.875 5.74429L6.531 7.59729L7.945 7.09671ZM7.33194 5.50328C7.336 5.17493 7.20945 4.85842 6.98013 4.62339L5.90651 5.67093C5.85798 5.62119 5.8312 5.55421 5.83206 5.48472L7.33194 5.50328ZM6.98013 4.62339C6.75081 4.38836 6.43751 4.25407 6.10916 4.25006L6.09084 5.74994C6.02135 5.74909 5.95504 5.72067 5.90651 5.67093L6.98013 4.62339ZM6.1 4.25H5V5.75H6.1V4.25ZM7.6204 13.5148C6.56334 13.5877 5.7431 14.4664 5.7431 15.526H7.2431C7.2431 15.2548 7.45304 15.0299 7.7236 15.0112L7.6204 13.5148ZM5.7431 15.526C5.7431 16.5856 6.56334 17.4643 7.6204 17.5372L7.7236 16.0408C7.45304 16.0221 7.2431 15.7972 7.2431 15.526H5.7431ZM7.672 17.539H14.789V16.039H7.672V17.539Z" fill="currentColor"/>
</svg>
