<svg width="24" height="24" viewBox="0 0 24 24" fill="none" xmlns="http://www.w3.org/2000/svg">
<path d="M6.76895 15.666C6.86061 16.0699 7.26237 16.3231 7.66632 16.2314C8.07026 16.1398 8.32343 15.738 8.23177 15.334L6.76895 15.666ZM6.00036 8.889L5.25048 8.90221C5.25139 8.95362 5.25758 9.00481 5.26895 9.05495L6.00036 8.889ZM8.25036 6.556L8.25172 5.806C8.24662 5.80599 8.24152 5.80603 8.23642 5.80613L8.25036 6.556ZM9.75636 7.156L9.2416 7.70145C9.45378 7.90169 9.76281 7.96072 10.0339 7.85278C10.3049 7.74484 10.4887 7.48952 10.5052 7.19824L9.75636 7.156ZM12.0004 5L12.0126 4.2501C12.0045 4.24997 11.9963 4.24997 11.9881 4.2501L12.0004 5ZM14.2444 7.156L13.4956 7.19824C13.512 7.48952 13.6958 7.74484 13.9669 7.85278C14.2379 7.96072 14.547 7.90169 14.7591 7.70145L14.2444 7.156ZM15.7504 6.556L15.7643 5.80613C15.7592 5.80603 15.7541 5.80599 15.749 5.806L15.7504 6.556ZM18.0004 8.889L18.7318 9.05495C18.7432 9.00481 18.7493 8.95362 18.7502 8.90221L18.0004 8.889ZM15.769 15.334C15.6773 15.738 15.9305 16.1398 16.3344 16.2314C16.7384 16.3231 17.1401 16.0699 17.2318 15.666L15.769 15.334ZM7.50036 14.75C7.08615 14.75 6.75036 15.0858 6.75036 15.5C6.75036 15.9142 7.08615 16.25 7.50036 16.25V14.75ZM9.75036 16.25C10.1646 16.25 10.5004 15.9142 10.5004 15.5C10.5004 15.0858 10.1646 14.75 9.75036 14.75V16.25ZM8.25036 15.5C8.25036 15.0858 7.91458 14.75 7.50036 14.75C7.08615 14.75 6.75036 15.0858 6.75036 15.5H8.25036ZM7.50036 16.667L8.24931 16.7068C8.25001 16.6936 8.25036 16.6803 8.25036 16.667H7.50036ZM9.50036 19L9.42528 19.7462C9.45023 19.7487 9.47529 19.75 9.50036 19.75V19ZM14.5004 19V19.75C14.5254 19.75 14.5505 19.7487 14.5755 19.7462L14.5004 19ZM16.5004 16.667H15.7504C15.7504 16.6803 15.7507 16.6936 15.7514 16.7068L16.5004 16.667ZM17.2504 15.5C17.2504 15.0858 16.9146 14.75 16.5004 14.75C16.0861 14.75 15.7504 15.0858 15.7504 15.5H17.2504ZM11.2504 15.5C11.2504 15.9142 11.5861 16.25 12.0004 16.25C12.4146 16.25 12.7504 15.9142 12.7504 15.5H11.2504ZM12.7504 12C12.7504 11.5858 12.4146 11.25 12.0004 11.25C11.5861 11.25 11.2504 11.5858 11.2504 12H12.7504ZM12.0004 16.25C12.4146 16.25 12.7504 15.9142 12.7504 15.5C12.7504 15.0858 12.4146 14.75 12.0004 14.75V16.25ZM9.75036 14.75C9.33615 14.75 9.00036 15.0858 9.00036 15.5C9.00036 15.9142 9.33615 16.25 9.75036 16.25V14.75ZM12.0004 14.75C11.5861 14.75 11.2504 15.0858 11.2504 15.5C11.2504 15.9142 11.5861 16.25 12.0004 16.25V14.75ZM14.2504 16.25C14.6646 16.25 15.0004 15.9142 15.0004 15.5C15.0004 15.0858 14.6646 14.75 14.2504 14.75V16.25ZM9.01701 15.6571C9.1038 16.0622 9.50249 16.3201 9.90751 16.2334C10.3125 16.1466 10.5705 15.7479 10.4837 15.3429L9.01701 15.6571ZM9.73371 11.8429C9.64693 11.4378 9.24824 11.1799 8.84322 11.2666C8.4382 11.3534 8.18022 11.7521 8.26701 12.1571L9.73371 11.8429ZM16.5004 16.25C16.9146 16.25 17.2504 15.9142 17.2504 15.5C17.2504 15.0858 16.9146 14.75 16.5004 14.75V16.25ZM14.2504 14.75C13.8361 14.75 13.5004 15.0858 13.5004 15.5C13.5004 15.9142 13.8361 16.25 14.2504 16.25V14.75ZM13.517 15.3429C13.4302 15.7479 13.6882 16.1466 14.0932 16.2334C14.4982 16.3201 14.8969 16.0622 14.9837 15.6571L13.517 15.3429ZM15.7337 12.1571C15.8205 11.7521 15.5625 11.3534 15.1575 11.2666C14.7525 11.1799 14.3538 11.4378 14.267 11.8429L15.7337 12.1571ZM8.23177 15.334L6.73177 8.72305L5.26895 9.05495L6.76895 15.666L8.23177 15.334ZM6.75025 8.87579C6.73524 8.02433 7.41287 7.32171 8.26431 7.30587L8.23642 5.80613C6.55727 5.83736 5.22089 7.22304 5.25048 8.90221L6.75025 8.87579ZM8.24901 7.306C8.61815 7.30666 8.97314 7.44809 9.2416 7.70145L10.2711 6.61055C9.72494 6.09509 9.00272 5.80736 8.25172 5.806L8.24901 7.306ZM10.5052 7.19824C10.5505 6.39502 11.2082 5.76306 12.0126 5.7499L11.9881 4.2501C10.3977 4.27612 9.09714 5.52564 9.00755 7.11376L10.5052 7.19824ZM11.9881 5.7499C12.7925 5.76306 13.4502 6.39503 13.4956 7.19824L14.9932 7.11376C14.9036 5.52564 13.6031 4.27612 12.0126 4.2501L11.9881 5.7499ZM14.7591 7.70145C15.0276 7.44809 15.3826 7.30666 15.7517 7.306L15.749 5.806C14.998 5.80736 14.2758 6.09509 13.7296 6.61055L14.7591 7.70145ZM15.7364 7.30587C16.5879 7.32171 17.2655 8.02433 17.2505 8.87579L18.7502 8.90221C18.7798 7.22304 17.4435 5.83736 15.7643 5.80613L15.7364 7.30587ZM17.269 8.72305L15.769 15.334L17.2318 15.666L18.7318 9.05495L17.269 8.72305ZM7.50036 16.25H9.75036V14.75H7.50036V16.25ZM6.75036 15.5V16.667H8.25036V15.5H6.75036ZM6.75142 16.6272C6.66705 18.214 7.84421 19.5871 9.42528 19.7462L9.57545 18.2538C8.7913 18.1749 8.20746 17.4938 8.24931 16.7068L6.75142 16.6272ZM9.50036 19.75H14.5004V18.25H9.50036V19.75ZM14.5755 19.7462C16.1565 19.5871 17.3337 18.214 17.2493 16.6272L15.7514 16.7068C15.7933 17.4938 15.2094 18.1749 14.4253 18.2538L14.5755 19.7462ZM17.2504 16.667V15.5H15.7504V16.667H17.2504ZM12.7504 15.5V12H11.2504V15.5H12.7504ZM12.0004 14.75H9.75036V16.25H12.0004V14.75ZM12.0004 16.25H14.2504V14.75H12.0004V16.25ZM10.4837 15.3429L9.73371 11.8429L8.26701 12.1571L9.01701 15.6571L10.4837 15.3429ZM16.5004 14.75H14.2504V16.25H16.5004V14.75ZM14.9837 15.6571L15.7337 12.1571L14.267 11.8429L13.517 15.3429L14.9837 15.6571Z" fill="currentColor"/>
</svg>
