<svg width="24" height="24" viewBox="0 0 24 24" fill="none" xmlns="http://www.w3.org/2000/svg">
<path d="M5.09081 13.5485C4.67964 13.4984 4.30569 13.7911 4.25558 14.2023C4.20546 14.6134 4.49816 14.9874 4.90933 15.0375L5.09081 13.5485ZM8.96258 19.0907C9.01269 19.5019 9.38664 19.7946 9.79781 19.7445C10.209 19.6944 10.5017 19.3204 10.4516 18.9093L8.96258 19.0907ZM5.23331 11.2543C4.82148 11.21 4.45169 11.5079 4.40737 11.9198C4.36305 12.3316 4.66098 12.7014 5.07282 12.7457L5.23331 11.2543ZM11.2544 18.9272C11.2987 19.3391 11.6685 19.637 12.0803 19.5927C12.4922 19.5484 12.7901 19.1786 12.7458 18.7668L11.2544 18.9272ZM5.09018 16.2554C4.67897 16.2057 4.30527 16.4987 4.2555 16.9099C4.20573 17.3211 4.49874 17.6948 4.90995 17.7446L5.09018 16.2554ZM6.2555 19.0901C6.30527 19.5013 6.67897 19.7943 7.09018 19.7446C7.5014 19.6948 7.7944 19.3211 7.74463 18.9099L6.2555 19.0901ZM14.6879 18.25C14.2737 18.2523 13.9398 18.5899 13.9421 19.0041C13.9444 19.4184 14.282 19.7523 14.6962 19.75L14.6879 18.25ZM17.7482 17.7142L17.215 17.1869L17.7482 17.7142ZM19.0001 14.644H18.2501L18.2501 14.6482L19.0001 14.644ZM19.0001 9.356L18.2501 9.35183V9.356H19.0001ZM17.7482 6.28576L17.215 6.81315L17.215 6.81315L17.7482 6.28576ZM14.6921 5L14.6962 4.25H14.6921V5ZM9.30807 5V4.24999L9.30392 4.25001L9.30807 5ZM6.25189 6.28576L6.78515 6.81315V6.81315L6.25189 6.28576ZM4.25008 9.36017C4.25238 9.77437 4.59003 10.1083 5.00423 10.106C5.41844 10.1037 5.75236 9.76604 5.75006 9.35183L4.25008 9.36017ZM4.90933 15.0375C7.03153 15.2962 8.70392 16.9685 8.96258 19.0907L10.4516 18.9093C10.1095 16.1025 7.8976 13.8906 5.09081 13.5485L4.90933 15.0375ZM5.07282 12.7457C8.33056 13.0963 10.9038 15.6695 11.2544 18.9272L12.7458 18.7668C12.3197 14.8076 9.19245 11.6804 5.23331 11.2543L5.07282 12.7457ZM4.90995 17.7446C5.61473 17.8299 6.1702 18.3853 6.2555 19.0901L7.74463 18.9099C7.57635 17.5195 6.48055 16.4237 5.09018 16.2554L4.90995 17.7446ZM14.6962 19.75C16.044 19.7425 17.3337 19.2 18.2815 18.2416L17.215 17.1869C16.5469 17.8623 15.6379 18.2448 14.6879 18.25L14.6962 19.75ZM18.2815 18.2416C19.2293 17.2833 19.7575 15.9877 19.7501 14.6398L18.2501 14.6482C18.2554 15.5982 17.883 16.5114 17.215 17.1869L18.2815 18.2416ZM19.7501 14.644V9.356H18.2501V14.644H19.7501ZM19.7501 9.36017C19.7575 8.01233 19.2293 6.71673 18.2815 5.75838L17.215 6.81315C17.883 7.48863 18.2554 8.40182 18.2501 9.35183L19.7501 9.36017ZM18.2815 5.75838C17.3337 4.80004 16.044 4.25746 14.6962 4.25001L14.6879 5.74999C15.6379 5.75524 16.5469 6.13767 17.215 6.81315L18.2815 5.75838ZM14.6921 4.25H9.30807V5.75H14.6921V4.25ZM9.30392 4.25001C7.95609 4.25746 6.66641 4.80004 5.71863 5.75838L6.78515 6.81315C7.45319 6.13767 8.3622 5.75524 9.31221 5.74999L9.30392 4.25001ZM5.71863 5.75838C4.77085 6.71673 4.24259 8.01233 4.25008 9.36017L5.75006 9.35183C5.74478 8.40182 6.11711 7.48863 6.78515 6.81315L5.71863 5.75838Z" fill="currentColor"/>
</svg>
