<svg width="24" height="24" viewBox="0 0 24 24" fill="none" xmlns="http://www.w3.org/2000/svg">
<path fill-rule="evenodd" clip-rule="evenodd" d="M14.5 7C14.5 5.89543 13.6046 5 12.5 5C11.3954 5 10.5 5.89543 10.5 7H14.5Z" stroke="currentColor" stroke-width="1.5" stroke-linecap="round" stroke-linejoin="round"/>
<path d="M10.0303 12.4696C9.73744 12.1767 9.26256 12.1767 8.96967 12.4696C8.67678 12.7625 8.67678 13.2374 8.96967 13.5303L10.0303 12.4696ZM11.5 15L10.9697 15.5303C11.2626 15.8232 11.7374 15.8232 12.0303 15.5303L11.5 15ZM16.0303 11.5303C16.3232 11.2374 16.3232 10.7625 16.0303 10.4696C15.7374 10.1767 15.2626 10.1767 14.9697 10.4696L16.0303 11.5303ZM14.5 6.24996C14.0858 6.24996 13.75 6.58574 13.75 6.99996C13.75 7.41417 14.0858 7.74996 14.5 7.74996V6.24996ZM16.167 6.99996V7.74996C16.175 7.74996 16.1831 7.74983 16.1911 7.74957L16.167 6.99996ZM18 8.71396H18.75C18.75 8.70522 18.7498 8.69649 18.7495 8.68776L18 8.71396ZM18 17.285L18.7496 17.3107C18.7499 17.3021 18.75 17.2936 18.75 17.285H18ZM16.167 19L16.1911 18.2503C16.1831 18.2501 16.175 18.25 16.167 18.25V19ZM8.833 19V18.25C8.82497 18.25 8.81694 18.2501 8.80891 18.2503L8.833 19ZM7 17.286H6.25C6.25 17.2947 6.25015 17.3034 6.25046 17.3122L7 17.286ZM7 8.71396L6.25046 8.68776C6.25015 8.69649 6.25 8.70522 6.25 8.71396H7ZM8.833 6.99996L8.80891 7.74957C8.81694 7.74983 8.82497 7.74996 8.833 7.74996V6.99996ZM10.5 7.74996C10.9142 7.74996 11.25 7.41417 11.25 6.99996C11.25 6.58574 10.9142 6.24996 10.5 6.24996V7.74996ZM8.96967 13.5303L10.9697 15.5303L12.0303 14.4696L10.0303 12.4696L8.96967 13.5303ZM12.0303 15.5303L16.0303 11.5303L14.9697 10.4696L10.9697 14.4696L12.0303 15.5303ZM14.5 7.74996H16.167V6.24996H14.5V7.74996ZM16.1911 7.74957C16.7569 7.73139 17.2307 8.17444 17.2505 8.74016L18.7495 8.68776C18.7009 7.29576 17.535 6.2056 16.1429 6.25035L16.1911 7.74957ZM17.25 8.71396V17.285H18.75V8.71396H17.25ZM17.2504 17.2592C17.231 17.8251 16.7571 18.2685 16.1911 18.2503L16.1429 19.7496C17.5356 19.7943 18.7017 18.7033 18.7496 17.3107L17.2504 17.2592ZM16.167 18.25H8.833V19.75H16.167V18.25ZM8.80891 18.2503C8.24313 18.2685 7.76932 17.8255 7.74954 17.2598L6.25046 17.3122C6.29912 18.7042 7.46497 19.7943 8.85709 19.7496L8.80891 18.2503ZM7.75 17.286V8.71396H6.25V17.286H7.75ZM7.74954 8.74016C7.76932 8.17444 8.24313 7.73139 8.80891 7.74957L8.85709 6.25035C7.46496 6.2056 6.29912 7.29576 6.25046 8.68776L7.74954 8.74016ZM8.833 7.74996H10.5V6.24996H8.833V7.74996Z" fill="currentColor"/>
</svg>
