<svg width="24" height="24" viewBox="0 0 24 24" fill="none" xmlns="http://www.w3.org/2000/svg">
<path fill-rule="evenodd" clip-rule="evenodd" d="M15.523 11.445C17.0887 11.4092 18.3869 12.6493 18.423 14.215C18.4233 14.4838 18.3829 14.7512 18.303 15.008C19.2704 15.1732 19.9832 16.0037 20 16.985C19.9743 18.1231 19.0311 19.0251 17.893 19H10.519C9.38083 19.0251 8.43766 18.1231 8.41199 16.985C8.42671 16.0481 9.07952 15.2425 9.99299 15.034C9.99299 15.0133 9.99299 14.9923 9.99299 14.971C10.0187 13.8328 10.9618 12.9308 12.1 12.956C12.364 12.9556 12.6259 13.003 12.873 13.096C13.3604 12.0774 14.3939 11.4335 15.523 11.445Z" stroke="currentColor" stroke-width="1.5" stroke-linecap="round" stroke-linejoin="round"/>
<path d="M14.733 19.75C15.1472 19.75 15.483 19.4142 15.483 19C15.483 18.5858 15.1472 18.25 14.733 18.25V19.75ZM10.519 18.25C10.1048 18.25 9.769 18.5858 9.769 19C9.769 19.4142 10.1048 19.75 10.519 19.75V18.25ZM13.679 18.25C13.2648 18.25 12.929 18.5858 12.929 19C12.929 19.4142 13.2648 19.75 13.679 19.75V18.25ZM17.893 19.75C18.3072 19.75 18.643 19.4142 18.643 19C18.643 18.5858 18.3072 18.25 17.893 18.25V19.75ZM8.32682 5.17302C8.12194 4.81303 7.66402 4.68729 7.30402 4.89218C6.94403 5.09706 6.81829 5.55498 7.02318 5.91498L8.32682 5.17302ZM7.76817 7.22398C7.97306 7.58397 8.43098 7.70971 8.79098 7.50482C9.15097 7.29994 9.27671 6.84202 9.07183 6.48202L7.76817 7.22398ZM12.8278 5.18131C12.9279 4.77938 12.6832 4.37238 12.2813 4.27225C11.8794 4.17211 11.4724 4.41676 11.3722 4.81869L12.8278 5.18131ZM11.0122 6.26369C10.9121 6.66562 11.1568 7.07262 11.5587 7.17275C11.9606 7.27289 12.3676 7.02824 12.4678 6.62631L11.0122 6.26369ZM5.20698 8.43413C4.80886 8.31981 4.39344 8.54989 4.27913 8.94802C4.16481 9.34614 4.39489 9.76156 4.79302 9.87587L5.20698 8.43413ZM6.20702 10.2819C6.60514 10.3962 7.02056 10.1661 7.13487 9.76798C7.24919 9.36986 7.01911 8.95444 6.62098 8.84013L6.20702 10.2819ZM12.3838 9.75337C12.6894 10.033 13.1638 10.0119 13.4434 9.70625C13.723 9.40063 13.7019 8.92623 13.3962 8.64663L12.3838 9.75337ZM9.538 8.811L9.17194 8.1564C9.16238 8.16175 9.15294 8.1673 9.14363 8.17306L9.538 8.811ZM7.46832 12.1597C7.5593 12.5638 7.96065 12.8177 8.36475 12.7267C8.76884 12.6357 9.02267 12.2344 8.93168 11.8303L7.46832 12.1597ZM14.733 18.25H10.519V19.75H14.733V18.25ZM13.679 19.75H17.893V18.25H13.679V19.75ZM7.02318 5.91498L7.76817 7.22398L9.07183 6.48202L8.32682 5.17302L7.02318 5.91498ZM11.3722 4.81869L11.0122 6.26369L12.4678 6.62631L12.8278 5.18131L11.3722 4.81869ZM4.79302 9.87587L6.20702 10.2819L6.62098 8.84013L5.20698 8.43413L4.79302 9.87587ZM13.3962 8.64663C12.241 7.58976 10.5385 7.39219 9.17194 8.1564L9.90406 9.4656C10.7062 9.017 11.7056 9.13298 12.3838 9.75337L13.3962 8.64663ZM9.14363 8.17306C7.79203 9.0086 7.11927 10.6095 7.46832 12.1597L8.93168 11.8303C8.72319 10.9043 9.12504 9.94803 9.93237 9.44894L9.14363 8.17306Z" fill="currentColor"/>
</svg>
