<svg width="24" height="24" viewBox="0 0 24 24" fill="none" xmlns="http://www.w3.org/2000/svg">
<path fill-rule="evenodd" clip-rule="evenodd" d="M13.591 7.00151C14.4928 6.9746 15.3684 7.30725 16.0249 7.9262C16.6813 8.54515 17.0649 9.39965 17.091 10.3015C17.0914 10.6221 17.0425 10.9408 16.946 11.2465C18.1091 11.4334 18.9729 12.4239 19 13.6015C18.9586 14.9664 17.82 16.0402 16.455 16.0015H7.545C6.17999 16.0402 5.04137 14.9664 5 13.6015C5.02293 12.4783 5.81258 11.5171 6.91 11.2765C6.91 11.2512 6.91 11.2262 6.91 11.2015C6.95137 9.83659 8.08999 8.76283 9.455 8.80151C9.7738 8.80108 10.0901 8.85764 10.389 8.96851C10.9867 7.74927 12.2333 6.98347 13.591 7.00151Z" stroke="currentColor" stroke-width="1.5" stroke-linecap="round" stroke-linejoin="round"/>
<path d="M12.636 16.7515C13.0503 16.7515 13.386 16.4157 13.386 16.0015C13.386 15.5873 13.0503 15.2515 12.636 15.2515V16.7515ZM7.54504 15.2515C7.13083 15.2515 6.79504 15.5873 6.79504 16.0015C6.79504 16.4157 7.13083 16.7515 7.54504 16.7515V15.2515ZM11.364 15.2515C10.9498 15.2515 10.614 15.5873 10.614 16.0015C10.614 16.4157 10.9498 16.7515 11.364 16.7515V15.2515ZM16.455 16.7515C16.8693 16.7515 17.205 16.4157 17.205 16.0015C17.205 15.5873 16.8693 15.2515 16.455 15.2515V16.7515ZM12.636 15.2515H7.54504V16.7515H12.636V15.2515ZM11.364 16.7515H16.455V15.2515H11.364V16.7515Z" fill="currentColor"/>
</svg>
