<svg width="24" height="24" viewBox="0 0 24 24" fill="none" xmlns="http://www.w3.org/2000/svg">
<path fill-rule="evenodd" clip-rule="evenodd" d="M17 15C18.1046 15 19 15.8954 19 17C19 18.1046 18.1046 19 17 19C15.8954 19 15 18.1046 15 17V7C15 5.89543 15.8954 5 17 5C18.1046 5 19 5.89543 19 7C19 8.10457 18.1046 9 17 9H15V15H17Z" stroke="currentColor" stroke-width="1.5" stroke-linecap="round" stroke-linejoin="round"/>
<path d="M9 9V9.75C9.41421 9.75 9.75 9.41421 9.75 9H9ZM9 8.25C8.58579 8.25 8.25 8.58579 8.25 9C8.25 9.41421 8.58579 9.75 9 9.75V8.25ZM15 9.75C15.4142 9.75 15.75 9.41421 15.75 9C15.75 8.58579 15.4142 8.25 15 8.25V9.75ZM9.75 9C9.75 8.58579 9.41421 8.25 9 8.25C8.58579 8.25 8.25 8.58579 8.25 9H9.75ZM8.25 15C8.25 15.4142 8.58579 15.75 9 15.75C9.41421 15.75 9.75 15.4142 9.75 15H8.25ZM9 15H9.75C9.75 14.5858 9.41421 14.25 9 14.25V15ZM9 14.25C8.58579 14.25 8.25 14.5858 8.25 15C8.25 15.4142 8.58579 15.75 9 15.75V14.25ZM15 15.75C15.4142 15.75 15.75 15.4142 15.75 15C15.75 14.5858 15.4142 14.25 15 14.25V15.75ZM9 8.25H7V9.75H9V8.25ZM7 8.25C6.30964 8.25 5.75 7.69036 5.75 7H4.25C4.25 8.51878 5.48122 9.75 7 9.75V8.25ZM5.75 7C5.75 6.30964 6.30964 5.75 7 5.75V4.25C5.48122 4.25 4.25 5.48122 4.25 7H5.75ZM7 5.75C7.69036 5.75 8.25 6.30964 8.25 7H9.75C9.75 5.48122 8.51878 4.25 7 4.25V5.75ZM8.25 7V9H9.75V7H8.25ZM9 9.75H15V8.25H9V9.75ZM8.25 9V15H9.75V9H8.25ZM8.25 15V17H9.75V15H8.25ZM8.25 17C8.25 17.6904 7.69036 18.25 7 18.25V19.75C8.51878 19.75 9.75 18.5188 9.75 17H8.25ZM7 18.25C6.30964 18.25 5.75 17.6904 5.75 17H4.25C4.25 18.5188 5.48122 19.75 7 19.75V18.25ZM5.75 17C5.75 16.3096 6.30964 15.75 7 15.75V14.25C5.48122 14.25 4.25 15.4812 4.25 17H5.75ZM7 15.75H9V14.25H7V15.75ZM9 15.75H15V14.25H9V15.75Z" fill="currentColor"/>
</svg>
