<svg width="24" height="24" viewBox="0 0 24 24" fill="none" xmlns="http://www.w3.org/2000/svg">
<path d="M8.5001 8.517C8.08589 8.517 7.7501 8.85279 7.7501 9.267C7.7501 9.68121 8.08589 10.017 8.5001 10.017V8.517ZM15.5001 10.017C15.9143 10.017 16.2501 9.68121 16.2501 9.267C16.2501 8.85279 15.9143 8.517 15.5001 8.517V10.017ZM9.3751 11.076C8.96089 11.076 8.6251 11.4118 8.6251 11.826C8.6251 12.2402 8.96089 12.576 9.3751 12.576V11.076ZM14.6251 12.576C15.0393 12.576 15.3751 12.2402 15.3751 11.826C15.3751 11.4118 15.0393 11.076 14.6251 11.076V12.576ZM8.6631 5V4.24998L8.65763 4.25002L8.6631 5ZM15.3381 5L15.3438 4.25H15.3381V5ZM19.0001 8.717L18.2501 8.71149V8.717H19.0001ZM19.0001 13.23H18.2501L18.2501 13.2355L19.0001 13.23ZM17.9384 15.8472L17.4042 15.3207L17.4042 15.3207L17.9384 15.8472ZM15.3371 16.947V17.697L15.3426 17.697L15.3371 16.947ZM8.6631 16.947V16.197C8.53469 16.197 8.40843 16.23 8.29641 16.2928L8.6631 16.947ZM5.0001 19H4.2501C4.2501 19.2662 4.39125 19.5125 4.62097 19.6471C4.85068 19.7817 5.13454 19.7844 5.36679 19.6542L5.0001 19ZM5.0001 8.717H5.75012L5.75008 8.71149L5.0001 8.717ZM6.06175 6.09984L5.52756 5.5734H5.52756L6.06175 6.09984ZM8.5001 10.017H15.5001V8.517H8.5001V10.017ZM9.3751 12.576H14.6251V11.076H9.3751V12.576ZM8.6631 5.75H15.3381V4.25H8.6631V5.75ZM15.3324 5.74998C16.9559 5.76225 18.262 7.08806 18.2501 8.71149L19.7501 8.72251C19.7681 6.2708 17.7955 4.26856 15.3438 4.25002L15.3324 5.74998ZM18.2501 8.717V13.23H19.7501V8.717H18.2501ZM18.2501 13.2355C18.2558 14.0153 17.9516 14.7653 17.4042 15.3207L18.4726 16.3736C19.2992 15.5348 19.7587 14.4021 19.7501 13.2245L18.2501 13.2355ZM17.4042 15.3207C16.8569 15.8761 16.1114 16.1913 15.3316 16.197L15.3426 17.697C16.5201 17.6884 17.6461 17.2124 18.4726 16.3736L17.4042 15.3207ZM15.3371 16.197H8.6631V17.697H15.3371V16.197ZM8.29641 16.2928L4.63341 18.3458L5.36679 19.6542L9.02979 17.6012L8.29641 16.2928ZM5.7501 19V8.717H4.2501V19H5.7501ZM5.75008 8.71149C5.74435 7.93175 6.04862 7.18167 6.59595 6.62627L5.52756 5.5734C4.70098 6.41216 4.24147 7.54494 4.25012 8.72251L5.75008 8.71149ZM6.59595 6.62627C7.14328 6.07088 7.88882 5.75566 8.66857 5.74998L8.65763 4.25002C7.48006 4.2586 6.35413 4.73464 5.52756 5.5734L6.59595 6.62627Z" fill="currentColor"/>
</svg>
