<svg width="24" height="24" viewBox="0 0 24 24" fill="none" xmlns="http://www.w3.org/2000/svg">
<path d="M14.5 5C14.5 4.58579 14.1642 4.25 13.75 4.25C13.3358 4.25 13 4.58579 13 5H14.5ZM13.75 10.25H13C13 10.6642 13.3358 11 13.75 11V10.25ZM19 11C19.4142 11 19.75 10.6642 19.75 10.25C19.75 9.83579 19.4142 9.5 19 9.5V11ZM5 13C4.58579 13 4.25 13.3358 4.25 13.75C4.25 14.1642 4.58579 14.5 5 14.5V13ZM10.25 13.75H11C11 13.3358 10.6642 13 10.25 13V13.75ZM9.5 19C9.5 19.4142 9.83579 19.75 10.25 19.75C10.6642 19.75 11 19.4142 11 19H9.5ZM5 9.5C4.58579 9.5 4.25 9.83579 4.25 10.25C4.25 10.6642 4.58579 11 5 11V9.5ZM10.25 10.25V11C10.6642 11 11 10.6642 11 10.25H10.25ZM11 5C11 4.58579 10.6642 4.25 10.25 4.25C9.83579 4.25 9.5 4.58579 9.5 5H11ZM13 19C13 19.4142 13.3358 19.75 13.75 19.75C14.1642 19.75 14.5 19.4142 14.5 19H13ZM13.75 13.75V13C13.3358 13 13 13.3358 13 13.75H13.75ZM19 14.5C19.4142 14.5 19.75 14.1642 19.75 13.75C19.75 13.3358 19.4142 13 19 13V14.5ZM13 5V10.25H14.5V5H13ZM13.75 11H19V9.5H13.75V11ZM5 14.5H10.25V13H5V14.5ZM9.5 13.75V19H11V13.75H9.5ZM5 11H10.25V9.5H5V11ZM11 10.25V5H9.5V10.25H11ZM14.5 19V13.75H13V19H14.5ZM13.75 14.5H19V13H13.75V14.5Z" fill="currentColor"/>
</svg>
