<svg width="24" height="24" viewBox="0 0 24 24" fill="none" xmlns="http://www.w3.org/2000/svg">
<path fill-rule="evenodd" clip-rule="evenodd" d="M6.18026 8.11089C4.34918 10.8506 4.67688 14.4964 6.96716 16.8657C9.25744 19.235 12.8901 19.686 15.6903 17.9489C15.7569 17.9069 15.8236 17.8639 15.8903 17.8199C18.2141 16.267 19.3915 13.4805 18.8852 10.7317C18.3789 7.98298 16.2859 5.79888 13.5613 5.17589L13.3663 5.13489C10.5895 4.5824 7.75335 5.75696 6.18026 8.11089Z" stroke="currentColor" stroke-width="1.5" stroke-linecap="round" stroke-linejoin="round"/>
<path fill-rule="evenodd" clip-rule="evenodd" d="M10.3372 10.8889C9.81404 11.6717 9.90761 12.7134 10.5619 13.3903C11.2163 14.0673 12.2542 14.1962 13.0542 13.6999L13.1112 13.6629C13.7755 13.2194 14.1122 12.4232 13.9676 11.6376C13.823 10.8521 13.2249 10.2279 12.4462 10.0499L12.3902 10.0379C11.597 9.88009 10.7868 10.2155 10.3372 10.8879V10.8889Z" stroke="currentColor" stroke-width="1.5" stroke-linecap="round" stroke-linejoin="round"/>
<path d="M8.00024 10.4999C8.44886 8.88154 9.83234 7.69571 11.5002 7.49988" stroke="currentColor" stroke-width="1.5" stroke-linecap="round"/>
</svg>
