<svg width="24" height="24" viewBox="0 0 24 24" fill="none" xmlns="http://www.w3.org/2000/svg">
<path fill-rule="evenodd" clip-rule="evenodd" d="M12 10.6L5 7.8L12 5L19 7.8L12 10.6Z" stroke="currentColor" stroke-width="1.5" stroke-linecap="round" stroke-linejoin="round"/>
<path d="M5.27854 15.5036C4.89396 15.3498 4.45748 15.5369 4.30364 15.9215C4.14981 16.306 4.33687 16.7425 4.72146 16.8964L5.27854 15.5036ZM12 19L11.7215 19.6964C11.9003 19.7679 12.0997 19.7679 12.2785 19.6964L12 19ZM19.2785 16.8964C19.6631 16.7425 19.8502 16.306 19.6964 15.9215C19.5425 15.5369 19.106 15.3498 18.7215 15.5036L19.2785 16.8964ZM5.27854 11.3036C4.89396 11.1498 4.45748 11.3369 4.30364 11.7215C4.14981 12.106 4.33687 12.5425 4.72146 12.6964L5.27854 11.3036ZM12 14.8L11.7215 15.4964C11.9003 15.5679 12.0997 15.5679 12.2785 15.4964L12 14.8ZM19.2785 12.6964C19.6631 12.5425 19.8502 12.106 19.6964 11.7215C19.5425 11.3369 19.106 11.1498 18.7215 11.3036L19.2785 12.6964ZM4.72146 16.8964L11.7215 19.6964L12.2785 18.3036L5.27854 15.5036L4.72146 16.8964ZM12.2785 19.6964L19.2785 16.8964L18.7215 15.5036L11.7215 18.3036L12.2785 19.6964ZM4.72146 12.6964L11.7215 15.4964L12.2785 14.1036L5.27854 11.3036L4.72146 12.6964ZM12.2785 15.4964L19.2785 12.6964L18.7215 11.3036L11.7215 14.1036L12.2785 15.4964Z" fill="currentColor"/>
</svg>
