<svg width="24" height="24" viewBox="0 0 24 24" fill="none" xmlns="http://www.w3.org/2000/svg">
<path fill-rule="evenodd" clip-rule="evenodd" d="M9.308 4.00001H14.829C14.8863 4.00001 14.9433 4.00367 15 4.01101C17.2473 4.16817 18.9924 6.0332 19 8.28601V14.715C18.9917 17.0871 17.0641 19.0044 14.692 19H9.308C6.93551 19.0044 5.00772 17.0865 5 14.714V8.28601C5.00772 5.91353 6.93551 3.99558 9.308 4.00001Z" stroke="currentColor" stroke-width="1.5" stroke-linecap="round" stroke-linejoin="round"/>
<path d="M19 9.03599C19.4142 9.03599 19.75 8.7002 19.75 8.28599C19.75 7.87177 19.4142 7.53599 19 7.53599V9.03599ZM15 8.28599H14.25C14.25 8.7002 14.5858 9.03599 15 9.03599V8.28599ZM15.75 4.01099C15.75 3.59677 15.4142 3.26099 15 3.26099C14.5858 3.26099 14.25 3.59677 14.25 4.01099H15.75ZM10.5303 9.46966C10.2374 9.17676 9.76256 9.17676 9.46967 9.46966C9.17678 9.76255 9.17678 10.2374 9.46967 10.5303L10.5303 9.46966ZM11.4697 12.5303C11.7626 12.8232 12.2374 12.8232 12.5303 12.5303C12.8232 12.2374 12.8232 11.7625 12.5303 11.4697L11.4697 12.5303ZM12.5303 11.4697C12.2374 11.1768 11.7626 11.1768 11.4697 11.4697C11.1768 11.7625 11.1768 12.2374 11.4697 12.5303L12.5303 11.4697ZM13.4697 14.5303C13.7626 14.8232 14.2374 14.8232 14.5303 14.5303C14.8232 14.2374 14.8232 13.7625 14.5303 13.4697L13.4697 14.5303ZM12.5303 12.5303C12.8232 12.2374 12.8232 11.7625 12.5303 11.4697C12.2374 11.1768 11.7626 11.1768 11.4697 11.4697L12.5303 12.5303ZM9.46967 13.4697C9.17678 13.7625 9.17678 14.2374 9.46967 14.5303C9.76256 14.8232 10.2374 14.8232 10.5303 14.5303L9.46967 13.4697ZM11.4697 11.4697C11.1768 11.7625 11.1768 12.2374 11.4697 12.5303C11.7626 12.8232 12.2374 12.8232 12.5303 12.5303L11.4697 11.4697ZM14.5303 10.5303C14.8232 10.2374 14.8232 9.76255 14.5303 9.46966C14.2374 9.17676 13.7626 9.17676 13.4697 9.46966L14.5303 10.5303ZM19 7.53599H15V9.03599H19V7.53599ZM15.75 8.28599V4.01099H14.25V8.28599H15.75ZM9.46967 10.5303L11.4697 12.5303L12.5303 11.4697L10.5303 9.46966L9.46967 10.5303ZM11.4697 12.5303L13.4697 14.5303L14.5303 13.4697L12.5303 11.4697L11.4697 12.5303ZM11.4697 11.4697L9.46967 13.4697L10.5303 14.5303L12.5303 12.5303L11.4697 11.4697ZM12.5303 12.5303L14.5303 10.5303L13.4697 9.46966L11.4697 11.4697L12.5303 12.5303Z" fill="currentColor"/>
</svg>
