<svg width="24" height="24" viewBox="0 0 24 24" fill="none" xmlns="http://www.w3.org/2000/svg">
<path d="M9 5.75C9.41421 5.75 9.75 5.41421 9.75 5C9.75 4.58579 9.41421 4.25 9 4.25V5.75ZM4.25 11C4.25 11.4142 4.58579 11.75 5 11.75C5.41421 11.75 5.75 11.4142 5.75 11H4.25ZM9 4.25C8.58579 4.25 8.25 4.58579 8.25 5C8.25 5.41421 8.58579 5.75 9 5.75V4.25ZM18.25 11C18.25 11.4142 18.5858 11.75 19 11.75C19.4142 11.75 19.75 11.4142 19.75 11H18.25ZM9.75 5C9.75 4.58579 9.41421 4.25 9 4.25C8.58579 4.25 8.25 4.58579 8.25 5H9.75ZM8.25 11C8.25 11.4142 8.58579 11.75 9 11.75C9.41421 11.75 9.75 11.4142 9.75 11H8.25ZM9 11.75C9.41421 11.75 9.75 11.4142 9.75 11C9.75 10.5858 9.41421 10.25 9 10.25V11.75ZM5 10.25C4.58579 10.25 4.25 10.5858 4.25 11C4.25 11.4142 4.58579 11.75 5 11.75V10.25ZM9 10.25C8.58579 10.25 8.25 10.5858 8.25 11C8.25 11.4142 8.58579 11.75 9 11.75V10.25ZM19 11.75C19.4142 11.75 19.75 11.4142 19.75 11C19.75 10.5858 19.4142 10.25 19 10.25V11.75ZM5.75 11C5.75 10.5858 5.41421 10.25 5 10.25C4.58579 10.25 4.25 10.5858 4.25 11H5.75ZM19.75 11C19.75 10.5858 19.4142 10.25 19 10.25C18.5858 10.25 18.25 10.5858 18.25 11H19.75ZM9 4.25C6.37665 4.25 4.25 6.37665 4.25 9H5.75C5.75 7.20507 7.20507 5.75 9 5.75V4.25ZM4.25 9V11H5.75V9H4.25ZM9 5.75H15V4.25H9V5.75ZM15 5.75C16.7949 5.75 18.25 7.20507 18.25 9H19.75C19.75 6.37665 17.6234 4.25 15 4.25V5.75ZM18.25 9V11H19.75V9H18.25ZM8.25 5V11H9.75V5H8.25ZM9 10.25H5V11.75H9V10.25ZM9 11.75H19V10.25H9V11.75ZM4.25 11V15H5.75V11H4.25ZM4.25 15C4.25 17.6234 6.37665 19.75 9 19.75V18.25C7.20507 18.25 5.75 16.7949 5.75 15H4.25ZM9 19.75H15V18.25H9V19.75ZM15 19.75C17.6234 19.75 19.75 17.6234 19.75 15H18.25C18.25 16.7949 16.7949 18.25 15 18.25V19.75ZM19.75 15V11H18.25V15H19.75Z" fill="currentColor"/>
</svg>
