<svg width="24" height="24" viewBox="0 0 24 24" fill="none" xmlns="http://www.w3.org/2000/svg">
<path d="M19.75 9C19.75 8.58579 19.4142 8.25 19 8.25C18.5858 8.25 18.25 8.58579 18.25 9L19.75 9ZM11 18.25C10.5858 18.25 10.25 18.5858 10.25 19C10.25 19.4142 10.5858 19.75 11 19.75V18.25ZM18.25 9C18.25 9.41421 18.5858 9.75 19 9.75C19.4142 9.75 19.75 9.41421 19.75 9L18.25 9ZM11 4.25C10.5858 4.25 10.25 4.58579 10.25 5C10.25 5.41421 10.5858 5.75 11 5.75V4.25ZM19 9.75C19.4142 9.75 19.75 9.41421 19.75 9C19.75 8.58579 19.4142 8.25 19 8.25V9.75ZM11 8.25C10.5858 8.25 10.25 8.58579 10.25 9C10.25 9.41421 10.5858 9.75 11 9.75V8.25ZM5.75 12C5.75 11.5858 5.41421 11.25 5 11.25C4.58579 11.25 4.25 11.5858 4.25 12H5.75ZM11 19.75C11.4142 19.75 11.75 19.4142 11.75 19C11.75 18.5858 11.4142 18.25 11 18.25V19.75ZM4.25 12C4.25 12.4142 4.58579 12.75 5 12.75C5.41421 12.75 5.75 12.4142 5.75 12H4.25ZM11 5.75C11.4142 5.75 11.75 5.41421 11.75 5C11.75 4.58579 11.4142 4.25 11 4.25V5.75ZM5 11.25C4.58579 11.25 4.25 11.5858 4.25 12C4.25 12.4142 4.58579 12.75 5 12.75L5 11.25ZM11 12.75C11.4142 12.75 11.75 12.4142 11.75 12C11.75 11.5858 11.4142 11.25 11 11.25V12.75ZM11.75 12C11.75 11.5858 11.4142 11.25 11 11.25C10.5858 11.25 10.25 11.5858 10.25 12H11.75ZM10.25 19C10.25 19.4142 10.5858 19.75 11 19.75C11.4142 19.75 11.75 19.4142 11.75 19H10.25ZM10.25 12C10.25 12.4142 10.5858 12.75 11 12.75C11.4142 12.75 11.75 12.4142 11.75 12H10.25ZM11.75 9C11.75 8.58579 11.4142 8.25 11 8.25C10.5858 8.25 10.25 8.58579 10.25 9H11.75ZM11.75 5C11.75 4.58579 11.4142 4.25 11 4.25C10.5858 4.25 10.25 4.58579 10.25 5H11.75ZM10.25 9C10.25 9.41421 10.5858 9.75 11 9.75C11.4142 9.75 11.75 9.41421 11.75 9H10.25ZM18.25 9V15H19.75V9L18.25 9ZM18.25 15C18.25 16.7949 16.7949 18.25 15 18.25V19.75C17.6234 19.75 19.75 17.6234 19.75 15H18.25ZM15 18.25H11V19.75H15V18.25ZM19.75 9C19.75 6.37665 17.6234 4.25 15 4.25L15 5.75C16.7949 5.75 18.25 7.20507 18.25 9L19.75 9ZM15 4.25H11V5.75H15L15 4.25ZM19 8.25H11V9.75H19V8.25ZM4.25 12V15H5.75V12H4.25ZM4.25 15C4.25 17.6234 6.37665 19.75 9 19.75V18.25C7.20507 18.25 5.75 16.7949 5.75 15H4.25ZM9 19.75H11V18.25H9V19.75ZM5.75 12L5.75 9H4.25L4.25 12H5.75ZM5.75 9C5.75 7.20507 7.20507 5.75 9 5.75V4.25C6.37665 4.25 4.25 6.37665 4.25 9H5.75ZM9 5.75H11V4.25H9V5.75ZM5 12.75H11V11.25H5L5 12.75ZM10.25 12V19H11.75V12H10.25ZM11.75 12V9H10.25V12H11.75ZM10.25 5V9H11.75V5H10.25Z" fill="currentColor"/>
</svg>
