<svg width="24" height="24" viewBox="0 0 24 24" fill="none" xmlns="http://www.w3.org/2000/svg">
<path fill-rule="evenodd" clip-rule="evenodd" d="M15 5H10C7.79086 5 6 6.79086 6 9V15C6 17.2091 7.79086 19 10 19H15C17.2091 19 19 17.2091 19 15V9C19 6.79086 17.2091 5 15 5Z" stroke="currentColor" stroke-width="1.5" stroke-linecap="round" stroke-linejoin="round"/>
<path d="M15.5 9.75C15.9142 9.75 16.25 9.41421 16.25 9C16.25 8.58579 15.9142 8.25 15.5 8.25V9.75ZM9.5 8.25C9.08579 8.25 8.75 8.58579 8.75 9C8.75 9.41421 9.08579 9.75 9.5 9.75V8.25ZM15.5 12.75C15.9142 12.75 16.25 12.4142 16.25 12C16.25 11.5858 15.9142 11.25 15.5 11.25V12.75ZM9.5 11.25C9.08579 11.25 8.75 11.5858 8.75 12C8.75 12.4142 9.08579 12.75 9.5 12.75V11.25ZM12.5 15.75C12.9142 15.75 13.25 15.4142 13.25 15C13.25 14.5858 12.9142 14.25 12.5 14.25V15.75ZM9.5 14.25C9.08579 14.25 8.75 14.5858 8.75 15C8.75 15.4142 9.08579 15.75 9.5 15.75V14.25ZM15.5 8.25H9.5V9.75H15.5V8.25ZM15.5 11.25H9.5V12.75H15.5V11.25ZM12.5 14.25H9.5V15.75H12.5V14.25Z" fill="currentColor"/>
</svg>
