<svg width="24" height="24" viewBox="0 0 24 24" fill="none" xmlns="http://www.w3.org/2000/svg">
<path fill-rule="evenodd" clip-rule="evenodd" d="M13.8115 18.7617C10.6979 19.5957 7.41731 18.1957 5.86521 15.3707C4.31312 12.5457 4.89079 9.02595 7.26447 6.84524C9.63814 4.66452 13.1941 4.38662 15.8777 6.1721C18.5614 7.95759 19.6788 11.3448 18.5845 14.3767C17.8079 16.532 16.0248 18.1702 13.8115 18.7617Z" stroke="currentColor" stroke-width="1.5" stroke-linecap="round" stroke-linejoin="round"/>
<path d="M13.0628 18.7166C13.0379 19.13 13.3529 19.4854 13.7664 19.5103C14.1799 19.5352 14.5352 19.2202 14.5601 18.8067L13.0628 18.7166ZM10.8443 4.87474C10.6433 4.51255 10.1867 4.38187 9.82456 4.58285C9.46237 4.78383 9.33169 5.24037 9.53267 5.60256L10.8443 4.87474ZM17.2201 6.90386C17.3605 6.51417 17.1584 6.08445 16.7687 5.94405C16.379 5.80365 15.9493 6.00574 15.8089 6.39543L17.2201 6.90386ZM11.7415 11.0346L11.5478 10.3101L11.5469 10.3103L11.7415 11.0346ZM5.89942 9.05069C5.58299 8.7834 5.10979 8.82325 4.8425 9.13969C4.57522 9.45613 4.61507 9.92933 4.93151 10.1966L5.89942 9.05069ZM6.78096 17.0962C6.64042 17.4858 6.84235 17.9156 7.23199 18.0562C7.62164 18.1967 8.05143 17.9948 8.19198 17.6051L6.78096 17.0962ZM12.2596 12.9642L12.0655 12.2398L12.2596 12.9642ZM18.1027 14.9498C18.4192 15.2169 18.8924 15.1769 19.1596 14.8604C19.4268 14.5439 19.3868 14.0707 19.0702 13.8035L18.1027 14.9498ZM14.5601 18.8067C14.72 16.1513 14.1192 13.2715 13.3291 10.7811C12.5367 8.2837 11.535 6.11958 10.8443 4.87474L9.53267 5.60256C10.1759 6.76171 11.1377 8.8341 11.8993 11.2347C12.6632 13.6423 13.207 16.322 13.0628 18.7166L14.5601 18.8067ZM15.8089 6.39543C15.1156 8.31958 13.5237 9.78207 11.5478 10.3101L11.9351 11.7592C14.3858 11.1043 16.3602 9.29041 17.2201 6.90386L15.8089 6.39543ZM11.5469 10.3103C9.5717 10.841 7.46186 10.3704 5.89942 9.05069L4.93151 10.1966C6.86941 11.8335 9.48626 12.4172 11.9361 11.759L11.5469 10.3103ZM8.19198 17.6051C8.88604 15.6809 10.4778 14.2181 12.4537 13.6887L12.0655 12.2398C9.6154 12.8962 7.64159 14.7101 6.78096 17.0962L8.19198 17.6051ZM12.4537 13.6887C14.4296 13.1593 16.5395 13.6303 18.1027 14.9498L19.0702 13.8035C17.1319 12.1674 14.5156 11.5833 12.0655 12.2398L12.4537 13.6887Z" fill="currentColor"/>
</svg>
