<svg width="24" height="24" viewBox="0 0 24 24" fill="none" xmlns="http://www.w3.org/2000/svg">
<path fill-rule="evenodd" clip-rule="evenodd" d="M8.09118 8H9.36418C9.72392 8.00873 10.0086 8.30725 10.0002 8.667V15.333C10.0086 15.6927 9.72392 15.9913 9.36418 16H8.09118C7.73144 15.9913 7.4468 15.6927 7.45518 15.333V14H5.63618C5.27644 13.9913 4.9918 13.6927 5.00018 13.333V10.667C4.9918 10.3073 5.27644 10.0087 5.63618 10H7.45518V8.667C7.4468 8.30725 7.73144 8.00873 8.09118 8Z" stroke="currentColor" stroke-width="1.5" stroke-linecap="round" stroke-linejoin="round"/>
<path fill-rule="evenodd" clip-rule="evenodd" d="M15.9092 16H14.6362C14.2764 15.9913 13.9918 15.6927 14.0002 15.333V8.667C13.9918 8.30725 14.2764 8.00873 14.6362 8H15.9092C16.2689 8.00873 16.5536 8.30725 16.5452 8.667V10H18.3632C18.5361 10.0039 18.7004 10.0764 18.8199 10.2015C18.9393 10.3266 19.0042 10.4941 19.0002 10.667V13.333C19.0086 13.6927 18.7239 13.9913 18.3642 14H16.5452V15.333C16.5536 15.6927 16.2689 15.9913 15.9092 16Z" stroke="currentColor" stroke-width="1.5" stroke-linecap="round" stroke-linejoin="round"/>
<path d="M6.7052 14C6.7052 14.4142 7.04099 14.75 7.4552 14.75C7.86941 14.75 8.2052 14.4142 8.2052 14H6.7052ZM8.2052 10C8.2052 9.58579 7.86941 9.25 7.4552 9.25C7.04099 9.25 6.7052 9.58579 6.7052 10H8.2052ZM17.2962 10C17.2962 9.58579 16.9604 9.25 16.5462 9.25C16.132 9.25 15.7962 9.58579 15.7962 10H17.2962ZM15.7962 14C15.7962 14.4142 16.132 14.75 16.5462 14.75C16.9604 14.75 17.2962 14.4142 17.2962 14H15.7962ZM10.0002 11.25C9.58599 11.25 9.2502 11.5858 9.2502 12C9.2502 12.4142 9.58599 12.75 10.0002 12.75V11.25ZM14.0002 12.75C14.4144 12.75 14.7502 12.4142 14.7502 12C14.7502 11.5858 14.4144 11.25 14.0002 11.25V12.75ZM8.2052 14V10H6.7052V14H8.2052ZM15.7962 10V14H17.2962V10H15.7962ZM10.0002 12.75H14.0002V11.25H10.0002V12.75Z" fill="currentColor"/>
</svg>
