<svg width="24" height="24" viewBox="0 0 24 24" fill="none" xmlns="http://www.w3.org/2000/svg">
<path fill-rule="evenodd" clip-rule="evenodd" d="M17.2 5.12758L18.766 6.37458C18.9172 6.51691 19.0025 6.71571 19.0013 6.92339C19.0002 7.13106 18.9128 7.32892 18.76 7.46958L17.57 8.89358L13.521 13.7226C13.4501 13.8037 13.3558 13.8607 13.251 13.8856L11.151 14.3616C10.8755 14.3754 10.6356 14.1751 10.6 13.9016V11.7436C10.6071 11.6395 10.649 11.5409 10.719 11.4636L14.693 6.97058L16.057 5.34158C16.3268 4.98786 16.8204 4.89545 17.2 5.12758Z" stroke="currentColor" stroke-width="1.5" stroke-linecap="round" stroke-linejoin="round"/>
<path d="M11.533 7.61865C11.9472 7.61865 12.283 7.28287 12.283 6.86865C12.283 6.45444 11.9472 6.11865 11.533 6.11865V7.61865ZM8.73301 6.86865V6.11865L8.73121 6.11865L8.73301 6.86865ZM5.00001 10.6187H5.75001L5.75001 10.617L5.00001 10.6187ZM5.00001 16.2437L5.75001 16.2453V16.2437H5.00001ZM8.73301 19.9937L8.73121 20.7437H8.73301V19.9937ZM14.333 19.9937V20.7437L14.3348 20.7437L14.333 19.9937ZM18.066 16.2437H17.316L17.316 16.2453L18.066 16.2437ZM18.816 12.4937C18.816 12.0794 18.4802 11.7437 18.066 11.7437C17.6518 11.7437 17.316 12.0794 17.316 12.4937H18.816ZM15.3863 6.68446C15.2282 6.30159 14.7897 6.11934 14.4068 6.2774C14.0239 6.43546 13.8417 6.87397 13.9998 7.25684L15.3863 6.68446ZM17.7319 9.62197C18.1363 9.53257 18.3917 9.13222 18.3023 8.72777C18.2129 8.32332 17.8126 8.06792 17.4081 8.15733L17.7319 9.62197ZM7.80001 16.4317C7.3858 16.4317 7.05001 16.7674 7.05001 17.1817C7.05001 17.5959 7.3858 17.9317 7.80001 17.9317V16.4317ZM15.267 17.9317C15.6812 17.9317 16.017 17.5959 16.017 17.1817C16.017 16.7674 15.6812 16.4317 15.267 16.4317V17.9317ZM11.533 6.11865H8.73301V7.61865H11.533V6.11865ZM8.73121 6.11865C6.25081 6.12461 4.2447 8.13986 4.25001 10.6203L5.75001 10.617C5.74647 8.96492 7.08269 7.62262 8.73481 7.61865L8.73121 6.11865ZM4.25001 10.6187V16.2437H5.75001V10.6187H4.25001ZM4.25001 16.242C4.2447 18.7224 6.25081 20.7377 8.73121 20.7437L8.73481 19.2437C7.08269 19.2397 5.74647 17.8974 5.75001 16.2453L4.25001 16.242ZM8.73301 20.7437H14.333V19.2437H8.73301V20.7437ZM14.3348 20.7437C16.8152 20.7377 18.8213 18.7224 18.816 16.242L17.316 16.2453C17.3195 17.8974 15.9833 19.2397 14.3312 19.2437L14.3348 20.7437ZM18.816 16.2437V12.4937H17.316V16.2437H18.816ZM13.9998 7.25684C14.1947 7.72897 14.5923 8.39815 15.1866 8.91521C15.7944 9.44412 16.6679 9.85718 17.7319 9.62197L17.4081 8.15733C16.9431 8.26012 16.5391 8.10369 16.1712 7.7836C15.7897 7.45165 15.5134 6.99233 15.3863 6.68446L13.9998 7.25684ZM7.80001 17.9317H15.267V16.4317H7.80001V17.9317Z" fill="currentColor"/>
</svg>
