<svg width="24" height="24" viewBox="0 0 24 24" fill="none" xmlns="http://www.w3.org/2000/svg">
<path fill-rule="evenodd" clip-rule="evenodd" d="M9.869 15.219C11.0994 16.26 12.9016 16.26 14.132 15.219C14.5191 14.892 14.8176 14.4727 15 14C14.007 14.1555 13.0048 14.245 12 14.268C10.9952 14.245 9.99299 14.1555 9 14C9.18273 14.4728 9.48158 14.8921 9.869 15.219Z" stroke="currentColor" stroke-width="1.5" stroke-linecap="round" stroke-linejoin="round"/>
<path d="M14.3138 11.3027C14.481 11.6817 14.9238 11.8534 15.3027 11.6862C15.6817 11.519 15.8534 11.0762 15.6862 10.6973L14.3138 11.3027ZM12.3138 10.6973C12.1466 11.0762 12.3183 11.519 12.6973 11.6862C13.0762 11.8534 13.519 11.6817 13.6862 11.3027L12.3138 10.6973ZM8.25 11C8.25 11.4142 8.58579 11.75 9 11.75C9.41421 11.75 9.75 11.4142 9.75 11H8.25ZM9.75 10C9.75 9.58579 9.41421 9.25 9 9.25C8.58579 9.25 8.25 9.58579 8.25 10H9.75ZM16.9497 7.05025L16.4194 7.58058L16.9497 7.05025ZM15.6862 10.6973C15.3915 10.0292 14.7302 9.59819 14 9.59819V11.0982C14.1359 11.0982 14.259 11.1784 14.3138 11.3027L15.6862 10.6973ZM14 9.59819C13.2698 9.59819 12.6085 10.0292 12.3138 10.6973L13.6862 11.3027C13.741 11.1784 13.8641 11.0982 14 11.0982V9.59819ZM9.75 11V10H8.25V11H9.75ZM18.25 12C18.25 15.4518 15.4518 18.25 12 18.25V19.75C16.2802 19.75 19.75 16.2802 19.75 12H18.25ZM12 18.25C8.54822 18.25 5.75 15.4518 5.75 12H4.25C4.25 16.2802 7.71979 19.75 12 19.75V18.25ZM5.75 12C5.75 8.54822 8.54822 5.75 12 5.75V4.25C7.71979 4.25 4.25 7.71979 4.25 12H5.75ZM12 5.75C13.6576 5.75 15.2473 6.40848 16.4194 7.58058L17.4801 6.51992C16.0267 5.06652 14.0554 4.25 12 4.25V5.75ZM16.4194 7.58058C17.5915 8.75268 18.25 10.3424 18.25 12H19.75C19.75 9.94457 18.9335 7.97333 17.4801 6.51992L16.4194 7.58058Z" fill="currentColor"/>
</svg>
