<svg width="24" height="24" viewBox="0 0 24 24" fill="none" xmlns="http://www.w3.org/2000/svg">
<path fill-rule="evenodd" clip-rule="evenodd" d="M12 19C15.866 19 19 15.866 19 12C19 8.13401 15.866 5 12 5C8.13401 5 5 8.13401 5 12C5 15.866 8.13401 19 12 19Z" stroke="currentColor" stroke-width="1.5" stroke-linecap="round" stroke-linejoin="round"/>
<path d="M9.75 10C9.75 9.58579 9.41421 9.25 9 9.25C8.58579 9.25 8.25 9.58579 8.25 10H9.75ZM8.25 11C8.25 11.4142 8.58579 11.75 9 11.75C9.41421 11.75 9.75 11.4142 9.75 11H8.25ZM15.75 10C15.75 9.58579 15.4142 9.25 15 9.25C14.5858 9.25 14.25 9.58579 14.25 10H15.75ZM14.25 11C14.25 11.4142 14.5858 11.75 15 11.75C15.4142 11.75 15.75 11.4142 15.75 11H14.25ZM15.0206 14.7497C15.4346 14.7384 15.7611 14.3935 15.7497 13.9794C15.7384 13.5654 15.3935 13.2389 14.9794 13.2503L15.0206 14.7497ZM12.5 14.5L12.7003 15.2228C12.7237 15.2163 12.7467 15.2087 12.7694 15.2L12.5 14.5ZM9.45654 15.4831C9.17108 15.7833 9.18299 16.258 9.48314 16.5435C9.78328 16.8289 10.258 16.817 10.5435 16.5169L9.45654 15.4831ZM8.25 10V11H9.75V10H8.25ZM14.25 10V11H15.75V10H14.25ZM14.9794 13.2503C14.0386 13.2761 13.109 13.462 12.2306 13.8L12.7694 15.2C13.4888 14.9231 14.25 14.7709 15.0206 14.7497L14.9794 13.2503ZM12.2997 13.7772C11.215 14.0779 10.2323 14.6675 9.45654 15.4831L10.5435 16.5169C11.1319 15.8981 11.8774 15.4508 12.7003 15.2228L12.2997 13.7772Z" fill="currentColor"/>
</svg>
