<svg width="24" height="24" viewBox="0 0 24 24" fill="none" xmlns="http://www.w3.org/2000/svg">
<path d="M15 15C14.8187 14.5277 14.5216 14.1085 14.136 13.781C12.9097 12.7517 11.1252 12.7387 9.884 13.75C9.49309 14.0717 9.18914 14.4864 9 14.956" stroke="currentColor" stroke-width="1.5" stroke-linecap="round" stroke-linejoin="round"/>
<path d="M9 10V9" stroke="currentColor" stroke-width="1.5" stroke-linecap="round"/>
<path fill-rule="evenodd" clip-rule="evenodd" d="M19 12C19 15.866 15.866 19 12 19C8.13401 19 5 15.866 5 12C5 8.13401 8.13401 5 12 5C13.8565 5 15.637 5.7375 16.9497 7.05025C18.2625 8.36301 19 10.1435 19 12Z" stroke="currentColor" stroke-width="1.5" stroke-linecap="round" stroke-linejoin="round"/>
<path d="M15 10V9" stroke="currentColor" stroke-width="1.5" stroke-linecap="round"/>
</svg>
