<svg width="24" height="24" viewBox="0 0 24 24" fill="none" xmlns="http://www.w3.org/2000/svg">
<path fill-rule="evenodd" clip-rule="evenodd" d="M9.02086 18.997C6.88994 19.0639 5.10629 17.3947 5.03187 15.264V11.53L5.02687 9.664C4.89841 8.98798 5.23952 8.30986 5.85887 8.01L9.90387 5.597C11.203 4.801 12.8388 4.801 14.1379 5.597L18.1829 8.013C18.8022 8.31286 19.1433 8.99098 19.0149 9.667L19.0099 11.534V15.267C18.9338 17.3965 17.1507 19.0639 15.0209 18.997H9.02086Z" stroke="currentColor" stroke-width="1.5" stroke-linecap="round" stroke-linejoin="round"/>
<path d="M5.40533 9.01651C5.04773 8.80748 4.58838 8.92793 4.37936 9.28553C4.17033 9.64314 4.29077 10.1025 4.64838 10.3115L5.40533 9.01651ZM9.93686 12.534L10.3219 11.8903L10.3153 11.8865L9.93686 12.534ZM14.1039 12.534L13.7254 11.8865L13.7189 11.8904L14.1039 12.534ZM19.3923 10.3115C19.7499 10.1025 19.8704 9.64314 19.6614 9.28553C19.4523 8.92793 18.993 8.80748 18.6354 9.01651L19.3923 10.3115ZM13.839 9.72462C14.2408 9.82508 14.648 9.58076 14.7485 9.17891C14.8489 8.77706 14.6046 8.36986 14.2028 8.2694L13.839 9.72462ZM12.0209 8.49701L12.2028 7.7694C12.0833 7.73954 11.9584 7.73954 11.839 7.7694L12.0209 8.49701ZM9.83895 8.2694C9.43711 8.36986 9.19279 8.77706 9.29325 9.17891C9.39371 9.58076 9.80091 9.82508 10.2028 9.72462L9.83895 8.2694ZM4.64838 10.3115L9.55838 13.1815L10.3153 11.8865L5.40533 9.01651L4.64838 10.3115ZM9.55188 13.1777C11.072 14.0868 12.9688 14.0868 14.4888 13.1777L13.7189 11.8904C12.6729 12.5159 11.3678 12.5159 10.3218 11.8904L9.55188 13.1777ZM14.4823 13.1815L19.3923 10.3115L18.6354 9.01651L13.7254 11.8865L14.4823 13.1815ZM14.2028 8.2694L12.2028 7.7694L11.839 9.22462L13.839 9.72462L14.2028 8.2694ZM11.839 7.7694L9.83895 8.2694L10.2028 9.72462L12.2028 9.22462L11.839 7.7694Z" fill="currentColor"/>
</svg>
