<svg width="24" height="24" viewBox="0 0 24 24" fill="none" xmlns="http://www.w3.org/2000/svg">
<path fill-rule="evenodd" clip-rule="evenodd" d="M19 12.5C19 14.985 15.866 17 12 17C8.134 17 5 14.985 5 12.5C5 10.015 8.134 8 12 8C15.866 8 19 10.015 19 12.5Z" stroke="currentColor" stroke-width="1.5" stroke-linecap="round" stroke-linejoin="round"/>
<path fill-rule="evenodd" clip-rule="evenodd" d="M13.75 12.5C13.7716 13.1393 13.4429 13.7395 12.8926 14.0656C12.3422 14.3917 11.6578 14.3917 11.1075 14.0656C10.5572 13.7395 10.2284 13.1393 10.25 12.5C10.2284 11.8607 10.5572 11.2604 11.1075 10.9344C11.6578 10.6083 12.3422 10.6083 12.8926 10.9344C13.4429 11.2604 13.7716 11.8607 13.75 12.5V12.5Z" stroke="currentColor" stroke-width="1.5" stroke-linecap="round" stroke-linejoin="round"/>
</svg>
