<svg width="24" height="24" viewBox="0 0 24 24" fill="none" xmlns="http://www.w3.org/2000/svg">
<path fill-rule="evenodd" clip-rule="evenodd" d="M9.308 4.00001H14.829C14.8863 4.00001 14.9433 4.00367 15 4.01101C17.2473 4.16817 18.9924 6.0332 19 8.28601V14.715C18.9917 17.0871 17.0641 19.0044 14.692 19H9.308C6.93551 19.0044 5.00772 17.0865 5 14.714V8.28601C5.00772 5.91353 6.93551 3.99558 9.308 4.00001Z" stroke="currentColor" stroke-width="1.5" stroke-linecap="round" stroke-linejoin="round"/>
<path d="M15 16.75C15.4142 16.75 15.75 16.4142 15.75 16C15.75 15.5858 15.4142 15.25 15 15.25V16.75ZM9 15.25C8.58579 15.25 8.25 15.5858 8.25 16C8.25 16.4142 8.58579 16.75 9 16.75V15.25ZM19 9.03599C19.4142 9.03599 19.75 8.7002 19.75 8.28599C19.75 7.87177 19.4142 7.53599 19 7.53599V9.03599ZM15 8.28599H14.25C14.25 8.7002 14.5858 9.03599 15 9.03599V8.28599ZM15.75 4.01099C15.75 3.59677 15.4142 3.26099 15 3.26099C14.5858 3.26099 14.25 3.59677 14.25 4.01099H15.75ZM14.5303 11.5303C14.8232 11.2374 14.8232 10.7625 14.5303 10.4697C14.2374 10.1768 13.7626 10.1768 13.4697 10.4697L14.5303 11.5303ZM11.4697 12.4697C11.1768 12.7625 11.1768 13.2374 11.4697 13.5303C11.7626 13.8232 12.2374 13.8232 12.5303 13.5303L11.4697 12.4697ZM11.4697 13.5303C11.7626 13.8232 12.2374 13.8232 12.5303 13.5303C12.8232 13.2374 12.8232 12.7625 12.5303 12.4697L11.4697 13.5303ZM10.5303 10.4697C10.2374 10.1768 9.76256 10.1768 9.46967 10.4697C9.17678 10.7625 9.17678 11.2374 9.46967 11.5303L10.5303 10.4697ZM11.25 13C11.25 13.4142 11.5858 13.75 12 13.75C12.4142 13.75 12.75 13.4142 12.75 13H11.25ZM12.75 6.99999C12.75 6.58577 12.4142 6.24999 12 6.24999C11.5858 6.24999 11.25 6.58577 11.25 6.99999H12.75ZM15 15.25H9V16.75H15V15.25ZM19 7.53599H15V9.03599H19V7.53599ZM15.75 8.28599V4.01099H14.25V8.28599H15.75ZM13.4697 10.4697L11.4697 12.4697L12.5303 13.5303L14.5303 11.5303L13.4697 10.4697ZM12.5303 12.4697L10.5303 10.4697L9.46967 11.5303L11.4697 13.5303L12.5303 12.4697ZM12.75 13V6.99999H11.25V13H12.75Z" fill="currentColor"/>
</svg>
