<svg width="24" height="24" viewBox="0 0 24 24" fill="none" xmlns="http://www.w3.org/2000/svg">
<path d="M7.11809 6.92205C7.11809 6.50783 6.7823 6.17205 6.36809 6.17205C5.95387 6.17205 5.61809 6.50783 5.61809 6.92205H7.11809ZM6.36809 15.386H5.61807L5.6181 15.3907L6.36809 15.386ZM6.75234 16.2962L6.22592 16.8305H6.22592L6.75234 16.2962ZM7.66809 16.667V15.917L7.66167 15.9171L7.66809 16.667ZM17.7001 16.667L17.7065 15.917H17.7001V16.667ZM18.6158 16.2962L19.1423 16.8305V16.8305L18.6158 16.2962ZM19.0001 15.386L19.7501 15.3907V15.386H19.0001ZM19.0001 8.20005H19.7501L19.7501 8.19542L19.0001 8.20005ZM18.6158 7.28985L18.0894 7.82407H18.0894L18.6158 7.28985ZM17.7001 6.91905V7.66907L17.7065 7.66902L17.7001 6.91905ZM13.1081 6.16905C12.6939 6.16905 12.3581 6.50483 12.3581 6.91905C12.3581 7.33326 12.6939 7.66905 13.1081 7.66905V6.16905ZM5.61909 6.91905C5.61909 7.33326 5.95487 7.66905 6.36909 7.66905C6.7833 7.66905 7.11909 7.33326 7.11909 6.91905H5.61909ZM6.36909 6.28105L5.61909 6.27641V6.28105H6.36909ZM6.75228 5.37192L7.2793 5.90553L6.75228 5.37192ZM7.66609 5.00005L7.66142 5.75005H7.66609V5.00005ZM11.8101 5.00005V5.75007L11.8165 5.75002L11.8101 5.00005ZM12.7258 5.37085L13.2522 4.83663V4.83663L12.7258 5.37085ZM13.1101 6.28105H13.8601L13.8601 6.27642L13.1101 6.28105ZM12.3601 6.92205C12.3601 7.33626 12.6959 7.67205 13.1101 7.67205C13.5243 7.67205 13.8601 7.33626 13.8601 6.92205H12.3601ZM6.37109 6.17205C5.95687 6.17205 5.62109 6.50783 5.62109 6.92205C5.62109 7.33626 5.95687 7.67205 6.37109 7.67205V6.17205ZM13.1081 7.67205C13.5223 7.67205 13.8581 7.33626 13.8581 6.92205C13.8581 6.50783 13.5223 6.17205 13.1081 6.17205V7.67205ZM17.3821 16.667C17.3821 16.2528 17.0463 15.917 16.6321 15.917C16.2179 15.917 15.8821 16.2528 15.8821 16.667H17.3821ZM16.6321 17.667H15.882L15.8822 17.6779L16.6321 17.667ZM16.2596 18.6028L16.797 19.1261L16.797 19.1261L16.2596 18.6028ZM15.3341 19V19.7501L15.3431 19.75L15.3341 19ZM5.30009 19L5.29214 19.75H5.30009V19ZM4.37467 18.605L3.83852 19.1294H3.83852L4.37467 18.605ZM4.00009 17.671L4.75009 17.6797V17.671H4.00009ZM4.00009 10.218H4.75014L4.75004 10.2094L4.00009 10.218ZM4.37467 9.28414L3.83852 8.75969H3.83852L4.37467 9.28414ZM5.30009 8.88905V8.13901L5.29215 8.13909L5.30009 8.88905ZM6.36809 9.63905C6.7823 9.63905 7.11809 9.30326 7.11809 8.88905C7.11809 8.47483 6.7823 8.13905 6.36809 8.13905V9.63905ZM5.61809 6.92205V15.386H7.11809V6.92205H5.61809ZM5.6181 15.3907C5.62144 15.9323 5.84013 16.4503 6.22592 16.8305L7.27875 15.762C7.17677 15.6615 7.11896 15.5246 7.11807 15.3814L5.6181 15.3907ZM6.22592 16.8305C6.61172 17.2106 7.1329 17.4217 7.6745 17.417L7.66167 15.9171C7.5185 15.9183 7.38073 15.8625 7.27875 15.762L6.22592 16.8305ZM7.66809 17.417H17.7001V15.917H7.66809V17.417ZM17.6937 17.417C18.2353 17.4217 18.7565 17.2106 19.1423 16.8305L18.0894 15.762C17.9874 15.8625 17.8497 15.9183 17.7065 15.9171L17.6937 17.417ZM19.1423 16.8305C19.528 16.4503 19.7467 15.9323 19.7501 15.3907L18.2501 15.3814C18.2492 15.5246 18.1914 15.6615 18.0894 15.762L19.1423 16.8305ZM19.7501 15.386V8.20005H18.2501V15.386H19.7501ZM19.7501 8.19542C19.7467 7.65381 19.528 7.13579 19.1423 6.75564L18.0894 7.82407C18.1914 7.92457 18.2492 8.0615 18.2501 8.20467L19.7501 8.19542ZM19.1423 6.75564C18.7565 6.37548 18.2353 6.16444 17.6937 6.16907L17.7065 7.66902C17.8497 7.6678 17.9874 7.72358 18.0894 7.82407L19.1423 6.75564ZM17.7001 6.16905H13.1081V7.66905H17.7001V6.16905ZM7.11909 6.91905V6.28105H5.61909V6.91905H7.11909ZM7.11907 6.28569C7.11996 6.14273 7.17759 6.00599 7.2793 5.90553L6.22525 4.83831C5.84048 5.21833 5.62245 5.73563 5.6191 6.27641L7.11907 6.28569ZM7.2793 5.90553C7.38101 5.80508 7.51846 5.74914 7.66142 5.75003L7.67076 4.25006C7.12998 4.2467 6.61001 4.4583 6.22525 4.83831L7.2793 5.90553ZM7.66609 5.75005H11.8101V4.25005H7.66609V5.75005ZM11.8165 5.75002C11.9597 5.7488 12.0974 5.80458 12.1994 5.90507L13.2522 4.83663C12.8665 4.45648 12.3453 4.24544 11.8037 4.25007L11.8165 5.75002ZM12.1994 5.90507C12.3014 6.00557 12.3592 6.1425 12.3601 6.28567L13.8601 6.27642C13.8567 5.73481 13.638 5.21679 13.2522 4.83663L12.1994 5.90507ZM12.3601 6.28105V6.92205H13.8601V6.28105H12.3601ZM6.37109 7.67205H13.1081V6.17205H6.37109V7.67205ZM15.8821 16.667V17.667H17.3821V16.667H15.8821ZM15.8822 17.6779C15.8843 17.8278 15.8268 17.9723 15.7223 18.0796L16.797 19.1261C17.1795 18.7332 17.39 18.2044 17.382 17.6561L15.8822 17.6779ZM15.7223 18.0796C15.6178 18.187 15.4748 18.2483 15.325 18.2501L15.3431 19.75C15.8914 19.7434 16.4145 19.5189 16.797 19.1261L15.7223 18.0796ZM15.3341 18.25H5.30009V19.75H15.3341V18.25ZM5.30803 18.2501C5.15837 18.2485 5.01547 18.1875 4.91082 18.0805L3.83852 19.1294C4.22153 19.5209 4.74445 19.7442 5.29214 19.75L5.30803 18.2501ZM4.91082 18.0805C4.80616 17.9735 4.74832 17.8293 4.75004 17.6797L3.25014 17.6624C3.24385 18.2101 3.45552 18.7379 3.83852 19.1294L4.91082 18.0805ZM4.75009 17.671V10.218H3.25009V17.671H4.75009ZM4.75004 10.2094C4.74832 10.0598 4.80616 9.91558 4.91082 9.80859L3.83852 8.75969C3.45552 9.15124 3.24385 9.67896 3.25014 10.2267L4.75004 10.2094ZM4.91082 9.80859C5.01548 9.7016 5.15837 9.64059 5.30803 9.63901L5.29215 8.13909C4.74445 8.14489 4.22153 8.36815 3.83852 8.75969L4.91082 9.80859ZM5.30009 9.63905H6.36809V8.13905H5.30009V9.63905Z" fill="currentColor"/>
</svg>
