<svg width="24" height="24" viewBox="0 0 24 24" fill="none" xmlns="http://www.w3.org/2000/svg">
<path d="M11.2921 11.7655C11.3283 11.3529 11.0232 10.9891 10.6105 10.9529C10.1979 10.9167 9.83407 11.2218 9.79788 11.6345L11.2921 11.7655ZM10.029 17.583L9.28188 17.5175C9.27898 17.5505 9.27827 17.5837 9.27977 17.6168L10.029 17.583ZM12.97 17.583L13.7192 17.6168C13.7207 17.5838 13.72 17.5506 13.7172 17.5176L12.97 17.583ZM13.2022 11.6346C13.166 11.222 12.8022 10.9167 12.3896 10.9529C11.977 10.989 11.6717 11.3528 11.7079 11.7654L13.2022 11.6346ZM9.35082 5.22704C9.47621 4.83227 9.25783 4.41058 8.86305 4.28519C8.46827 4.1598 8.04659 4.37818 7.9212 4.77296L9.35082 5.22704ZM8.00001 8.256L7.2523 8.19737C7.25081 8.21637 7.25005 8.23541 7.25001 8.25447L8.00001 8.256ZM9.02501 10.789L9.56294 10.2664L9.56288 10.2663L9.02501 10.789ZM11.4986 12.588C11.9128 12.5888 12.2492 12.2537 12.25 11.8394C12.2508 11.4252 11.9157 11.0888 11.5015 11.088L11.4986 12.588ZM10.75 11.838C10.75 12.2522 11.0858 12.588 11.5 12.588C11.9142 12.588 12.25 12.2522 12.25 11.838H10.75ZM12.25 5.651C12.25 5.23679 11.9142 4.901 11.5 4.901C11.0858 4.901 10.75 5.23679 10.75 5.651H12.25ZM11.4984 11.088C11.0842 11.0889 10.7491 11.4254 10.75 11.8396C10.7509 12.2538 11.0874 12.5889 11.5016 12.588L11.4984 11.088ZM12.6658 12.4198C13.0633 12.3034 13.2912 11.8868 13.1748 11.4892C13.0584 11.0917 12.6418 10.8638 12.2443 10.9802L12.6658 12.4198ZM12.2452 10.9799C11.8475 11.0958 11.6191 11.5121 11.735 11.9098C11.8508 12.3075 12.2671 12.5359 12.6648 12.4201L12.2452 10.9799ZM13.975 10.787L14.5121 11.3105L14.5129 11.3097L13.975 10.787ZM15 8.256L15.75 8.25488C15.75 8.23569 15.7492 8.2165 15.7477 8.19737L15 8.256ZM15.0788 4.77296C14.9534 4.37818 14.5317 4.1598 14.137 4.28519C13.7422 4.41058 13.5238 4.83227 13.6492 5.22704L15.0788 4.77296ZM9.79788 11.6345L9.28188 17.5175L10.7761 17.6485L11.2921 11.7655L9.79788 11.6345ZM9.27977 17.6168C9.3334 18.8038 10.3113 19.7386 11.4995 19.7386V18.2386C11.1134 18.2386 10.7957 17.9348 10.7782 17.5491L9.27977 17.6168ZM11.4995 19.7386C12.6877 19.7386 13.6656 18.8038 13.7192 17.6168L12.2208 17.5491C12.2033 17.9348 11.8856 18.2386 11.4995 18.2386V19.7386ZM13.7172 17.5176L13.2022 11.6346L11.7079 11.7654L12.2229 17.6484L13.7172 17.5176ZM7.9212 4.77296C7.56796 5.88508 7.34352 7.03407 7.2523 8.19737L8.74771 8.31463C8.82996 7.26575 9.03232 6.22978 9.35082 5.22704L7.9212 4.77296ZM7.25001 8.25447C7.24768 9.39592 7.69165 10.4931 8.48714 11.3117L9.56288 10.2663C9.04019 9.72844 8.74847 9.00754 8.75001 8.25753L7.25001 8.25447ZM8.48707 11.3116C9.27785 12.1256 10.3637 12.5858 11.4986 12.588L11.5015 11.088C10.771 11.0866 10.072 10.7903 9.56294 10.2664L8.48707 11.3116ZM12.25 11.838V5.651H10.75V11.838H12.25ZM11.5016 12.588C11.8957 12.5871 12.2876 12.5305 12.6658 12.4198L12.2443 10.9802C12.002 11.0512 11.7508 11.0875 11.4984 11.088L11.5016 12.588ZM12.6648 12.4201C13.366 12.2157 14.0024 11.8335 14.5121 11.3105L13.4379 10.2635C13.1088 10.6012 12.6979 10.848 12.2452 10.9799L12.6648 12.4201ZM14.5129 11.3097C15.3078 10.4917 15.7517 9.3955 15.75 8.25488L14.25 8.25712C14.2511 9.00658 13.9594 9.72683 13.4371 10.2643L14.5129 11.3097ZM15.7477 8.19737C15.6565 7.03407 15.4321 5.88508 15.0788 4.77296L13.6492 5.22704C13.9677 6.22978 14.1701 7.26575 14.2523 8.31463L15.7477 8.19737Z" fill="currentColor"/>
</svg>
