<svg width="24" height="24" viewBox="0 0 24 24" fill="none" xmlns="http://www.w3.org/2000/svg">
<path fill-rule="evenodd" clip-rule="evenodd" d="M14.6921 5H9.30807C8.15914 5.00635 7.0598 5.46885 6.25189 6.28576C5.44398 7.10268 4.99368 8.20708 5.00007 9.356V14.644C5.00007 14.8134 5.00976 14.9827 5.02907 15.151C5.27126 17.3343 7.11136 18.9895 9.30807 19H14.6921C15.841 18.9937 16.9403 18.5311 17.7482 17.7142C18.5562 16.8973 19.0064 15.7929 19.0001 14.644V9.356C19.0064 8.20708 18.5562 7.10268 17.7482 6.28576C16.9403 5.46885 15.841 5.00635 14.6921 5Z" stroke="currentColor" stroke-width="1.5" stroke-linecap="round" stroke-linejoin="round"/>
<path fill-rule="evenodd" clip-rule="evenodd" d="M9.05306 8.54594C9.05306 8.82595 8.82607 9.05294 8.54606 9.05294C8.26605 9.05294 8.03906 8.82595 8.03906 8.54594C8.03906 8.26593 8.26605 8.03894 8.54606 8.03894C8.82607 8.03894 9.05306 8.26593 9.05306 8.54594Z" stroke="currentColor" stroke-width="1.5" stroke-linecap="round" stroke-linejoin="round"/>
<path d="M5.02905 15.151C5.56565 14.67 6.06414 14.1481 6.52005 13.59C7.19472 12.6773 8.39032 12.3185 9.45605 12.709C11.9801 13.509 14.2331 16.448 16.3941 14.92C17.1877 14.3144 17.8019 13.5046 18.1711 12.577C18.3883 12.0675 18.6666 11.5863 19.0001 11.144" stroke="currentColor" stroke-width="1.5" stroke-linecap="round" stroke-linejoin="round"/>
</svg>
