<svg width="24" height="24" viewBox="0 0 24 24" fill="none" xmlns="http://www.w3.org/2000/svg">
<path fill-rule="evenodd" clip-rule="evenodd" d="M8.50044 10.193C6.53649 10.2248 4.96982 11.842 5.00044 13.806V16.387C4.96982 18.351 6.53649 19.9682 8.50044 20H15.5004C17.4644 19.9682 19.0311 18.351 19.0004 16.387V13.806C19.0311 11.842 17.4644 10.2248 15.5004 10.193H8.50044Z" stroke="currentColor" stroke-width="1.5" stroke-linecap="round" stroke-linejoin="round"/>
<path d="M11.2504 10.193C11.2504 10.6072 11.5862 10.943 12.0004 10.943C12.4146 10.943 12.7504 10.6072 12.7504 10.193H11.2504ZM11.0004 6.581L11.1884 5.85494C11.1823 5.85337 11.1763 5.85188 11.1702 5.85047L11.0004 6.581ZM9.75839 6.452V7.202C9.76373 7.202 9.76907 7.20194 9.77441 7.20183L9.75839 6.452ZM8.75039 4C8.75039 3.58579 8.41461 3.25 8.00039 3.25C7.58618 3.25 7.25039 3.58579 7.25039 4H8.75039ZM8.75039 16.388C8.75039 16.8022 9.08618 17.138 9.50039 17.138C9.91461 17.138 10.2504 16.8022 10.2504 16.388H8.75039ZM10.2504 14.84C10.2504 14.4258 9.91461 14.09 9.50039 14.09C9.08618 14.09 8.75039 14.4258 8.75039 14.84H10.2504ZM8.75039 14.84C8.75039 15.2542 9.08618 15.59 9.50039 15.59C9.91461 15.59 10.2504 15.2542 10.2504 14.84H8.75039ZM10.2504 13.291C10.2504 12.8768 9.91461 12.541 9.50039 12.541C9.08618 12.541 8.75039 12.8768 8.75039 13.291H10.2504ZM9.50039 14.09C9.08618 14.09 8.75039 14.4258 8.75039 14.84C8.75039 15.2542 9.08618 15.59 9.50039 15.59V14.09ZM11.0004 15.59C11.4146 15.59 11.7504 15.2542 11.7504 14.84C11.7504 14.4258 11.4146 14.09 11.0004 14.09V15.59ZM9.50039 15.59C9.91461 15.59 10.2504 15.2542 10.2504 14.84C10.2504 14.4258 9.91461 14.09 9.50039 14.09V15.59ZM8.00039 14.09C7.58618 14.09 7.25039 14.4258 7.25039 14.84C7.25039 15.2542 7.58618 15.59 8.00039 15.59V14.09ZM13.4618 13.8021C13.1735 14.0996 13.181 14.5744 13.4785 14.8626C13.7759 15.1509 14.2508 15.1434 14.539 14.8459L13.4618 13.8021ZM15.539 13.8139C15.8273 13.5164 15.8198 13.0416 15.5223 12.7534C15.2248 12.4651 14.75 12.4726 14.4618 12.7701L15.539 13.8139ZM14.4618 15.8701C14.1735 16.1676 14.181 16.6424 14.4785 16.9306C14.7759 17.2189 15.2508 17.2114 15.539 16.9139L14.4618 15.8701ZM16.539 15.8819C16.8273 15.5844 16.8198 15.1096 16.5223 14.8214C16.2248 14.5331 15.75 14.5406 15.4618 14.8381L16.539 15.8819ZM12.7504 10.193C12.7504 9.61059 12.8246 8.65212 12.728 7.90164C12.6285 7.12821 12.2982 6.14229 11.1884 5.85494L10.8124 7.30706C10.9926 7.35371 11.1623 7.48729 11.2403 8.09311C11.3212 8.72188 11.2504 9.40241 11.2504 10.193H12.7504ZM11.1702 5.85047C10.7023 5.74173 10.2226 5.69192 9.74238 5.70217L9.77441 7.20183C10.1297 7.19424 10.4845 7.2311 10.8306 7.31153L11.1702 5.85047ZM9.75839 5.702C9.32466 5.702 9.10146 5.62443 8.99216 5.56095C8.90019 5.50753 8.84895 5.44223 8.81025 5.3386C8.76385 5.21439 8.73918 5.04034 8.7356 4.79408C8.73385 4.67435 8.73699 4.55063 8.74117 4.41563C8.74516 4.2864 8.75039 4.13962 8.75039 4H7.25039C7.25039 4.11038 7.24626 4.22772 7.24188 4.36931C7.23768 4.50512 7.23347 4.6589 7.23575 4.81592C7.24023 5.12316 7.26918 5.49961 7.40504 5.8634C7.54859 6.24777 7.80823 6.60797 8.23882 6.85805C8.65208 7.09807 9.16313 7.202 9.75839 7.202V5.702ZM10.2504 16.388V14.84H8.75039V16.388H10.2504ZM10.2504 14.84V13.291H8.75039V14.84H10.2504ZM9.50039 15.59H11.0004V14.09H9.50039V15.59ZM9.50039 14.09H8.00039V15.59H9.50039V14.09ZM14.539 14.8459L15.539 13.8139L14.4618 12.7701L13.4618 13.8021L14.539 14.8459ZM15.539 16.9139L16.539 15.8819L15.4618 14.8381L14.4618 15.8701L15.539 16.9139Z" fill="currentColor"/>
</svg>
