<svg width="24" height="24" viewBox="0 0 24 24" fill="none" xmlns="http://www.w3.org/2000/svg">
<path fill-rule="evenodd" clip-rule="evenodd" d="M7.67112 16.0001H8.55412C9.99426 16.0195 11.1782 14.8692 11.2001 13.4291V12.5711C11.1782 11.131 9.99426 9.98058 8.55412 10.0001H7.67112C6.22942 9.97835 5.04304 11.1294 5.02112 12.5711V13.4281C5.03138 14.1206 5.31637 14.7806 5.81336 15.263C6.31034 15.7453 6.97862 16.0105 7.67112 16.0001V16.0001Z" stroke="currentColor" stroke-width="1.5" stroke-linecap="round" stroke-linejoin="round"/>
<path fill-rule="evenodd" clip-rule="evenodd" d="M16.3291 16.0001H15.4461C14.006 16.0195 12.822 14.8692 12.8001 13.4291V12.5711C12.822 11.131 14.006 9.98058 15.4461 10.0001H16.3291C17.7708 9.97835 18.9572 11.1294 18.9791 12.5711V13.4281C18.9688 14.1206 18.6839 14.7806 18.1869 15.263C17.6899 15.7453 17.0216 16.0105 16.3291 16.0001Z" stroke="currentColor" stroke-width="1.5" stroke-linecap="round" stroke-linejoin="round"/>
<path d="M4.27111 12.571C4.27111 12.9852 4.60689 13.321 5.02111 13.321C5.43532 13.321 5.77111 12.9852 5.77111 12.571H4.27111ZM6.19402 8.73626C6.60064 8.65733 6.86629 8.26372 6.78737 7.85709C6.70844 7.45047 6.31483 7.18482 5.9082 7.26374L6.19402 8.73626ZM10.706 12.0068C10.3944 12.2797 10.363 12.7535 10.6359 13.0651C10.9088 13.3767 11.3826 13.4081 11.6942 13.1352L10.706 12.0068ZM12.299 13.1352C12.6106 13.4081 13.0845 13.3767 13.3573 13.0651C13.6302 12.7535 13.5988 12.2797 13.2872 12.0068L12.299 13.1352ZM18.2251 12.571C18.2251 12.9852 18.5609 13.321 18.9751 13.321C19.3893 13.321 19.7251 12.9852 19.7251 12.571H18.2251ZM18.088 7.26374C17.6814 7.18482 17.2878 7.45047 17.2088 7.85709C17.1299 8.26372 17.3956 8.65733 17.8022 8.73626L18.088 7.26374ZM5.77111 12.571C5.77111 11.3905 5.7082 10.4137 5.79815 9.63549C5.84184 9.25744 5.91453 9.02285 5.9936 8.88815C6.05325 8.78652 6.10508 8.75352 6.19402 8.73626L5.9082 7.26374C5.35314 7.37148 4.95421 7.69573 4.69999 8.12882C4.46518 8.52884 4.36087 9.00643 4.30807 9.46326C4.20502 10.3548 4.27111 11.5385 4.27111 12.571H5.77111ZM11.6942 13.1352C11.8673 12.9836 12.1259 12.9836 12.299 13.1352L13.2872 12.0068C12.5484 11.3598 11.4448 11.3598 10.706 12.0068L11.6942 13.1352ZM19.7251 12.571C19.7251 11.5385 19.7912 10.3548 19.6881 9.46326C19.6353 9.00643 19.531 8.52884 19.2962 8.12882C19.042 7.69573 18.6431 7.37148 18.088 7.26374L17.8022 8.73626C17.8911 8.75352 17.943 8.78652 18.0026 8.88815C18.0817 9.02285 18.1544 9.25744 18.1981 9.63549C18.288 10.4137 18.2251 11.3905 18.2251 12.571H19.7251Z" fill="currentColor"/>
</svg>
