<svg width="24" height="24" viewBox="0 0 24 24" fill="none" xmlns="http://www.w3.org/2000/svg">
<path fill-rule="evenodd" clip-rule="evenodd" d="M14.6921 5H9.30807C8.15914 5.00635 7.0598 5.46885 6.25189 6.28576C5.44398 7.10268 4.99368 8.20708 5.00007 9.356V14.644C4.99368 15.7929 5.44398 16.8973 6.25189 17.7142C7.0598 18.5311 8.15914 18.9937 9.30807 19H14.6921C15.841 18.9937 16.9403 18.5311 17.7482 17.7142C18.5562 16.8973 19.0064 15.7929 19.0001 14.644V9.356C19.0064 8.20708 18.5562 7.10268 17.7482 6.28576C16.9403 5.46885 15.841 5.00635 14.6921 5Z" stroke="currentColor" stroke-width="1.5" stroke-linecap="round" stroke-linejoin="round"/>
<path d="M12.6841 10.5291H16.0301V13.8641" stroke="currentColor" stroke-width="1.5" stroke-linecap="round" stroke-linejoin="round"/>
<path d="M16.0301 10.5291L11.8301 14.8491C11.4622 15.2167 10.874 15.241 10.4771 14.9051L9.57707 14.1401C9.36725 13.9618 9.09322 13.8779 8.81956 13.9082C8.54589 13.9384 8.29683 14.0802 8.13107 14.3001C8.09207 14.3521 8.05407 14.4051 8.01007 14.4531L5.68407 17.0001" stroke="currentColor" stroke-width="1.5" stroke-linecap="round" stroke-linejoin="round"/>
</svg>
