<svg width="24" height="24" viewBox="0 0 24 24" fill="none" xmlns="http://www.w3.org/2000/svg">
<path fill-rule="evenodd" clip-rule="evenodd" d="M8.49999 16H15.5V15.25C15.5669 13.2488 14.0011 11.5711 12 11.5C9.99891 11.5711 8.4331 13.2488 8.49999 15.25V16Z" stroke="currentColor" stroke-width="1.5" stroke-linecap="round" stroke-linejoin="round"/>
<path d="M12.75 7C12.75 6.58579 12.4142 6.25 12 6.25C11.5858 6.25 11.25 6.58579 11.25 7H12.75ZM11.25 8.8C11.25 9.21421 11.5858 9.55 12 9.55C12.4142 9.55 12.75 9.21421 12.75 8.8H11.25ZM17.4877 9.63189C17.7765 9.33494 17.7698 8.86011 17.4729 8.57133C17.1759 8.28255 16.7011 8.28917 16.4123 8.58611L17.4877 9.63189ZM15.1743 9.85911C14.8855 10.1561 14.8922 10.6309 15.1891 10.9197C15.4861 11.2085 15.9609 11.2018 16.2497 10.9049L15.1743 9.85911ZM7.58767 8.58611C7.29889 8.28917 6.82406 8.28255 6.52711 8.57133C6.23017 8.86011 6.22355 9.33494 6.51233 9.63189L7.58767 8.58611ZM7.75033 10.9049C8.03911 11.2018 8.51394 11.2085 8.81089 10.9197C9.10783 10.6309 9.11445 10.1561 8.82567 9.85911L7.75033 10.9049ZM19 16.75C19.4142 16.75 19.75 16.4142 19.75 16C19.75 15.5858 19.4142 15.25 19 15.25V16.75ZM15.5 15.25C15.0858 15.25 14.75 15.5858 14.75 16C14.75 16.4142 15.0858 16.75 15.5 16.75V15.25ZM8.5 16.75C8.91421 16.75 9.25 16.4142 9.25 16C9.25 15.5858 8.91421 15.25 8.5 15.25V16.75ZM5 15.25C4.58579 15.25 4.25 15.5858 4.25 16C4.25 16.4142 4.58579 16.75 5 16.75V15.25ZM11.25 7V8.8H12.75V7H11.25ZM16.4123 8.58611L15.1743 9.85911L16.2497 10.9049L17.4877 9.63189L16.4123 8.58611ZM6.51233 9.63189L7.75033 10.9049L8.82567 9.85911L7.58767 8.58611L6.51233 9.63189ZM19 15.25H15.5V16.75H19V15.25ZM8.5 15.25H5V16.75H8.5V15.25Z" fill="currentColor"/>
</svg>
