<svg width="24" height="24" viewBox="0 0 24 24" fill="none" xmlns="http://www.w3.org/2000/svg">
<path d="M4.60572 9.36198C4.25336 9.57974 4.14425 10.0419 4.362 10.3943C4.57976 10.7466 5.04193 10.8557 5.39428 10.638L4.60572 9.36198ZM7.39428 9.40198C7.74664 9.18422 7.85575 8.72205 7.638 8.3697C7.42024 8.01734 6.95807 7.90823 6.60572 8.12598L7.39428 9.40198ZM7.75 8.76398C7.75 8.34977 7.41421 8.01398 7 8.01398C6.58579 8.01398 6.25 8.34977 6.25 8.76398H7.75ZM10 17.75C10.4142 17.75 10.75 17.4142 10.75 17C10.75 16.5858 10.4142 16.25 10 16.25V17.75ZM6.60562 8.12604C6.2533 8.34385 6.14425 8.80604 6.36206 9.15836C6.57987 9.51068 7.04206 9.61973 7.39438 9.40192L6.60562 8.12604ZM11.162 6.19098L10.837 5.51504C10.8132 5.52648 10.7901 5.53916 10.7676 5.55304L11.162 6.19098ZM12.838 6.19098L13.2324 5.55304C13.2099 5.53916 13.1868 5.52648 13.163 5.51504L12.838 6.19098ZM16.6056 9.40192C16.9579 9.61973 17.4201 9.51068 17.6379 9.15836C17.8557 8.80604 17.7467 8.34385 17.3944 8.12604L16.6056 9.40192ZM9.25 17C9.25 17.4142 9.58579 17.75 10 17.75C10.4142 17.75 10.75 17.4142 10.75 17H9.25ZM13.25 17C13.25 17.4142 13.5858 17.75 14 17.75C14.4142 17.75 14.75 17.4142 14.75 17H13.25ZM10 16.25C9.58579 16.25 9.25 16.5858 9.25 17C9.25 17.4142 9.58579 17.75 10 17.75V16.25ZM14 17.75C14.4142 17.75 14.75 17.4142 14.75 17C14.75 16.5858 14.4142 16.25 14 16.25V17.75ZM14 16.25C13.5858 16.25 13.25 16.5858 13.25 17C13.25 17.4142 13.5858 17.75 14 17.75V16.25ZM17.75 8.76398C17.75 8.34977 17.4142 8.01398 17 8.01398C16.5858 8.01398 16.25 8.34977 16.25 8.76398H17.75ZM17.3943 8.12598C17.0419 7.90823 16.5798 8.01734 16.362 8.3697C16.1442 8.72205 16.2534 9.18422 16.6057 9.40198L17.3943 8.12598ZM18.6057 10.638C18.9581 10.8557 19.4202 10.7466 19.638 10.3943C19.8558 10.0419 19.7466 9.57974 19.3943 9.36198L18.6057 10.638ZM5.39428 10.638L7.39428 9.40198L6.60572 8.12598L4.60572 9.36198L5.39428 10.638ZM6.25 8.76398V15.5H7.75V8.76398H6.25ZM6.25 15.5C6.25 16.1176 6.40676 16.7486 6.93266 17.1962C7.42874 17.6184 8.11023 17.75 8.85 17.75V16.25C8.23977 16.25 7.99626 16.1317 7.90484 16.0538C7.84324 16.0014 7.75 15.8824 7.75 15.5H6.25ZM8.85 17.75H10V16.25H8.85V17.75ZM7.39438 9.40192L11.5564 6.82892L10.7676 5.55304L6.60562 8.12604L7.39438 9.40192ZM11.487 6.86692C11.8112 6.71103 12.1888 6.71103 12.513 6.86692L13.163 5.51504C12.4279 5.16165 11.5721 5.16165 10.837 5.51504L11.487 6.86692ZM12.4436 6.82892L16.6056 9.40192L17.3944 8.12604L13.2324 5.55304L12.4436 6.82892ZM10.75 17V16H9.25V17H10.75ZM10.75 16C10.75 15.3096 11.3096 14.75 12 14.75V13.25C10.4812 13.25 9.25 14.4812 9.25 16H10.75ZM12 14.75C12.6904 14.75 13.25 15.3096 13.25 16H14.75C14.75 14.4812 13.5188 13.25 12 13.25V14.75ZM13.25 16V17H14.75V16H13.25ZM10 17.75H14V16.25H10V17.75ZM14 17.75H15.15V16.25H14V17.75ZM15.15 17.75C15.8898 17.75 16.5713 17.6184 17.0673 17.1962C17.5932 16.7486 17.75 16.1176 17.75 15.5H16.25C16.25 15.8824 16.1568 16.0014 16.0952 16.0538C16.0037 16.1317 15.7602 16.25 15.15 16.25V17.75ZM17.75 15.5V8.76398H16.25V15.5H17.75ZM16.6057 9.40198L18.6057 10.638L19.3943 9.36198L17.3943 8.12598L16.6057 9.40198Z" fill="currentColor"/>
</svg>
