<svg width="24" height="24" viewBox="0 0 24 24" fill="none" xmlns="http://www.w3.org/2000/svg">
<path fill-rule="evenodd" clip-rule="evenodd" d="M7.127 7.07343L9.859 5.55343C11.1913 4.81552 12.8097 4.81552 14.142 5.55343L16.874 7.07343C18.1778 7.78618 18.9919 9.15054 19 10.6364V14.8184C18.998 15.9628 18.5193 17.0546 17.679 17.8314C16.8679 18.5863 15.8 19.0043 14.692 19.0004H9.308C8.2 19.0043 7.13206 18.5863 6.321 17.8314C5.48068 17.0546 5.002 15.9628 5 14.8184V10.6364C5.00829 9.15033 5.82281 7.78591 7.127 7.07343Z" stroke="currentColor" stroke-width="1.5" stroke-linecap="round" stroke-linejoin="round"/>
<path d="M9.66699 19.0005V17.6005C9.66699 16.3117 10.7117 15.267 12.0005 15.267C13.2892 15.267 14.334 16.3117 14.334 17.6005V19.0005" stroke="currentColor" stroke-width="1.5" stroke-linecap="round" stroke-linejoin="round"/>
</svg>
