<svg width="24" height="24" viewBox="0 0 24 24" fill="none" xmlns="http://www.w3.org/2000/svg">
<path fill-rule="evenodd" clip-rule="evenodd" d="M13.5 10.4994C13.5 11.3278 12.8284 11.9994 12 11.9994C11.1716 11.9994 10.5 11.3278 10.5 10.4994C10.5 9.67096 11.1716 8.99939 12 8.99939C12.8284 8.99939 13.5 9.67096 13.5 10.4994Z" stroke="currentColor" stroke-width="1.5" stroke-linecap="round" stroke-linejoin="round"/>
<path d="M3.59378 8.36898C3.24558 8.59332 3.14519 9.05746 3.36954 9.40566C3.59388 9.75386 4.05802 9.85425 4.40622 9.6299L3.59378 8.36898ZM8.743 5.94344L8.34207 5.30957L8.33678 5.31298L8.743 5.94344ZM15.256 5.94344L15.6622 5.31291L15.6569 5.30959L15.256 5.94344ZM19.5938 9.62994C19.9421 9.85426 20.4062 9.75382 20.6305 9.4056C20.8548 9.05738 20.7544 8.59325 20.4062 8.36894L19.5938 9.62994ZM12 18.2494C11.5858 18.2494 11.25 18.5852 11.25 18.9994C11.25 19.4137 11.5858 19.7494 12 19.7494V18.2494ZM14.692 18.9994L14.7189 18.2499C14.7099 18.2496 14.701 18.2494 14.692 18.2494L14.692 18.9994ZM19 14.9994L19.7495 15.0282C19.7498 15.0186 19.75 15.009 19.75 14.9994H19ZM19.75 10.9994C19.75 10.5852 19.4142 10.2494 19 10.2494C18.5858 10.2494 18.25 10.5852 18.25 10.9994H19.75ZM12 19.7494C12.4142 19.7494 12.75 19.4137 12.75 18.9994C12.75 18.5852 12.4142 18.2494 12 18.2494V19.7494ZM9.308 18.9994V18.2494C9.29905 18.2494 9.29009 18.2496 9.28114 18.2499L9.308 18.9994ZM5 14.9994H4.25C4.25 15.009 4.25018 15.0186 4.25055 15.0282L5 14.9994ZM5.75 10.9994C5.75 10.5852 5.41421 10.2494 5 10.2494C4.58579 10.2494 4.25 10.5852 4.25 10.9994H5.75ZM11.25 18.9994C11.25 19.4137 11.5858 19.7494 12 19.7494C12.4142 19.7494 12.75 19.4137 12.75 18.9994H11.25ZM12.75 14.9994C12.75 14.5852 12.4142 14.2494 12 14.2494C11.5858 14.2494 11.25 14.5852 11.25 14.9994H12.75ZM4.40622 9.6299L9.14922 6.5739L8.33678 5.31298L3.59378 8.36898L4.40622 9.6299ZM9.14392 6.57729C10.8879 5.47424 13.1111 5.47424 14.8551 6.57729L15.6569 5.30959C13.4233 3.8968 10.5757 3.8968 8.34208 5.30959L9.14392 6.57729ZM14.8498 6.57394L19.5938 9.62994L20.4062 8.36894L15.6622 5.31294L14.8498 6.57394ZM12 19.7494H14.692V18.2494H12V19.7494ZM14.6651 19.749C17.3715 19.8459 19.6458 17.7342 19.7495 15.0282L18.2505 14.9707C18.1785 16.8505 16.5988 18.3173 14.7189 18.2499L14.6651 19.749ZM19.75 14.9994V10.9994H18.25V14.9994H19.75ZM12 18.2494H9.308V19.7494H12V18.2494ZM9.28114 18.2499C7.40124 18.3173 5.82146 16.8505 5.74945 14.9707L4.25055 15.0282C4.35422 17.7342 6.62851 19.8459 9.33486 19.749L9.28114 18.2499ZM5.75 14.9994V10.9994H4.25V14.9994H5.75ZM12.75 18.9994V14.9994H11.25V18.9994H12.75Z" fill="currentColor"/>
</svg>
