<svg width="24" height="24" viewBox="0 0 24 24" fill="none" xmlns="http://www.w3.org/2000/svg">
<path fill-rule="evenodd" clip-rule="evenodd" d="M18.367 15.8321L18.373 10.0391L14.25 5.92908C13.0057 4.69031 10.9942 4.69031 9.74999 5.92908L5.63599 10.0291V15.8291C5.6393 17.5833 7.06377 19.0028 8.81799 19.0001H15.185C16.938 19.0029 18.362 17.5851 18.367 15.8321Z" stroke="currentColor" stroke-width="1.5" stroke-linecap="round" stroke-linejoin="round"/>
<path d="M19.124 6.01807C19.124 5.60385 18.7882 5.26807 18.374 5.26807C17.9598 5.26807 17.624 5.60385 17.624 6.01807H19.124ZM18.374 10.0391H17.624C17.624 10.2384 17.7033 10.4295 17.8445 10.5702L18.374 10.0391ZM19.4705 12.1912C19.7638 12.4837 20.2387 12.4829 20.5311 12.1896C20.8236 11.8962 20.8229 11.4214 20.5295 11.1289L19.4705 12.1912ZM6.16552 10.5602C6.45886 10.2678 6.45959 9.79289 6.16714 9.49955C5.8747 9.20621 5.39982 9.20548 5.10648 9.49793L6.16552 10.5602ZM3.47048 11.1289C3.17714 11.4214 3.17641 11.8962 3.46886 12.1896C3.7613 12.4829 4.23618 12.4837 4.52952 12.1912L3.47048 11.1289ZM13.25 19.0001C13.25 19.4143 13.5858 19.7501 14 19.7501C14.4142 19.7501 14.75 19.4143 14.75 19.0001H13.25ZM9.25 19.0001C9.25 19.4143 9.58579 19.7501 10 19.7501C10.4142 19.7501 10.75 19.4143 10.75 19.0001H9.25ZM17.624 6.01807V10.0391H19.124V6.01807H17.624ZM17.8445 10.5702L19.4705 12.1912L20.5295 11.1289L18.9035 9.50792L17.8445 10.5702ZM5.10648 9.49793L3.47048 11.1289L4.52952 12.1912L6.16552 10.5602L5.10648 9.49793ZM14.75 19.0001V17.2201H13.25V19.0001H14.75ZM14.75 17.2201C14.75 15.7013 13.5188 14.4701 12 14.4701V15.9701C12.6904 15.9701 13.25 16.5297 13.25 17.2201H14.75ZM12 14.4701C10.4812 14.4701 9.25 15.7013 9.25 17.2201H10.75C10.75 16.5297 11.3096 15.9701 12 15.9701V14.4701ZM9.25 17.2201V19.0001H10.75V17.2201H9.25Z" fill="currentColor"/>
</svg>
