<svg width="24" height="24" viewBox="0 0 24 24" fill="none" xmlns="http://www.w3.org/2000/svg">
<path fill-rule="evenodd" clip-rule="evenodd" d="M12 11.9998C12.9665 11.9998 13.75 11.2163 13.75 10.2498C13.75 9.28326 12.9665 8.49976 12 8.49976C11.0335 8.49976 10.25 9.28326 10.25 10.2498C10.25 11.2163 11.0335 11.9998 12 11.9998Z" stroke="currentColor" stroke-width="1.5" stroke-linecap="round" stroke-linejoin="round"/>
<path d="M10.2082 13.8135C9.92138 13.5146 9.44661 13.5048 9.14773 13.7916C8.84885 14.0784 8.83905 14.5532 9.12584 14.852L10.2082 13.8135ZM14.8752 14.852C15.1619 14.5532 15.1521 14.0784 14.8533 13.7916C14.5544 13.5048 14.0796 13.5146 13.7928 13.8135L14.8752 14.852ZM5 17.2528L4.25113 17.2116C4.25038 17.2253 4.25 17.239 4.25 17.2528H5ZM5.254 12.6338L4.50722 12.5644C4.50634 12.5738 4.50565 12.5832 4.50513 12.5926L5.254 12.6338ZM6.677 7.74177L7.00232 8.41754C7.01961 8.40922 7.03657 8.40024 7.05317 8.39061L6.677 7.74177ZM11.022 5.22277L10.697 4.54683C10.6796 4.5552 10.6625 4.56424 10.6458 4.57392L11.022 5.22277ZM12.977 5.22277L13.3532 4.57392C13.3365 4.56424 13.3194 4.5552 13.302 4.54683L12.977 5.22277ZM17.322 7.74177L16.9458 8.39061C16.9623 8.40017 16.9792 8.4091 16.9963 8.41737L17.322 7.74177ZM18.746 12.6338L19.4949 12.5926C19.4944 12.5832 19.4937 12.5738 19.4928 12.5644L18.746 12.6338ZM19 17.2528H19.75C19.75 17.239 19.7496 17.2253 19.7489 17.2116L19 17.2528ZM9.12584 14.852C9.87715 15.635 10.9153 16.0777 12.0005 16.0777V14.5777C11.3239 14.5777 10.6766 14.3017 10.2082 13.8135L9.12584 14.852ZM12.0005 16.0777C13.0857 16.0777 14.1238 15.635 14.8752 14.852L13.7928 13.8135C13.3244 14.3017 12.6771 14.5777 12.0005 14.5777V16.0777ZM5.74887 17.2939L6.00287 12.6749L4.50513 12.5926L4.25113 17.2116L5.74887 17.2939ZM6.00078 12.7032C6.04412 12.2368 6.055 11.7277 6.07147 11.2634C6.08848 10.7838 6.11158 10.3363 6.17311 9.92838C6.29901 9.09373 6.5529 8.63389 7.00232 8.41754L6.35168 7.066C5.2141 7.61364 4.83799 8.7228 4.68989 9.70465C4.61442 10.205 4.58952 10.7277 4.57241 11.2103C4.55475 11.7083 4.54538 12.1537 4.50722 12.5644L6.00078 12.7032ZM7.05317 8.39061L11.3982 5.87161L10.6458 4.57392L6.30083 7.09292L7.05317 8.39061ZM11.347 5.89871C11.7594 5.70043 12.2396 5.70043 12.652 5.89871L13.302 4.54683C12.4788 4.15106 11.5202 4.15106 10.697 4.54683L11.347 5.89871ZM12.6008 5.87161L16.9458 8.39061L17.6982 7.09292L13.3532 4.57392L12.6008 5.87161ZM16.9963 8.41737C17.4463 8.63426 17.7003 9.09461 17.8264 9.92897C17.8881 10.3368 17.9113 10.7842 17.9284 11.2637C17.9449 11.7279 17.9559 12.2369 17.9992 12.7032L19.4928 12.5644C19.4546 12.1536 19.4452 11.7083 19.4274 11.2103C19.4102 10.7277 19.3852 10.2051 19.3096 9.70481C19.1612 8.72293 18.7847 7.61428 17.6477 7.06617L16.9963 8.41737ZM17.9971 12.6749L18.2511 17.2939L19.7489 17.2116L19.4949 12.5926L17.9971 12.6749ZM18.25 17.2528C18.25 17.8364 18.0665 17.9935 17.9381 18.0695C17.7229 18.1967 17.3694 18.2498 16.841 18.2498V19.7498C17.3776 19.7498 18.1036 19.7143 18.7017 19.3606C19.3865 18.9555 19.75 18.2391 19.75 17.2528H18.25ZM16.841 18.2498H7.159V19.7498H16.841V18.2498ZM7.159 18.2498C6.63059 18.2498 6.27711 18.1967 6.06193 18.0695C5.93353 17.9935 5.75 17.8364 5.75 17.2528H4.25C4.25 18.2391 4.61347 18.9555 5.29832 19.3606C5.89639 19.7143 6.62241 19.7498 7.159 19.7498V18.2498Z" fill="currentColor"/>
</svg>
