<svg width="24" height="24" viewBox="0 0 24 24" fill="none" xmlns="http://www.w3.org/2000/svg">
<path d="M8.91728 18.9999C8.91728 19.4142 9.25307 19.7499 9.66728 19.7499C10.0815 19.7499 10.4173 19.4142 10.4173 18.9999H8.91728ZM9.66728 16.6669H8.91728H9.66728ZM13.5853 18.9999C13.5853 19.4142 13.9211 19.7499 14.3353 19.7499C14.7495 19.7499 15.0853 19.4142 15.0853 18.9999H13.5853ZM9.66728 19.7499C10.0815 19.7499 10.4173 19.4142 10.4173 18.9999C10.4173 18.5857 10.0815 18.2499 9.66728 18.2499V19.7499ZM7.33328 18.9999L7.32564 19.7499H7.33328V18.9999ZM5.30128 17.2529L4.5518 17.2807C4.55294 17.3116 4.556 17.3424 4.56095 17.373L5.30128 17.2529ZM5.03228 9.99395L5.78177 9.96617C5.7805 9.93188 5.77687 9.8977 5.77092 9.8639L5.03228 9.99395ZM6.14428 7.74195L5.8033 7.07392L5.79848 7.07642L6.14428 7.74195ZM11.0793 5.22295L11.4203 5.89096L11.4218 5.89017L11.0793 5.22295ZM12.9243 5.22295L12.5818 5.89017L12.5833 5.89096L12.9243 5.22295ZM17.8593 7.74195L18.2051 7.07641L18.2003 7.07394L17.8593 7.74195ZM18.9713 9.99395L18.2326 9.8639C18.2267 9.89767 18.2231 9.93181 18.2218 9.96607L18.9713 9.99395ZM18.7013 17.2529L19.4416 17.373C19.4466 17.3425 19.4496 17.3117 19.4508 17.2808L18.7013 17.2529ZM16.6693 18.9999V19.75L16.6769 19.7499L16.6693 18.9999ZM14.3353 18.2499C13.9211 18.2499 13.5853 18.5857 13.5853 18.9999C13.5853 19.4142 13.9211 19.7499 14.3353 19.7499V18.2499ZM9.66728 18.2499C9.25307 18.2499 8.91728 18.5857 8.91728 18.9999C8.91728 19.4142 9.25307 19.7499 9.66728 19.7499V18.2499ZM14.3353 19.7499C14.7495 19.7499 15.0853 19.4142 15.0853 18.9999C15.0853 18.5857 14.7495 18.2499 14.3353 18.2499V19.7499ZM10.4173 18.9999V16.6669H8.91728V18.9999H10.4173ZM10.4173 16.6669C10.4173 15.7921 11.1265 15.0829 12.0013 15.0829V13.5829C10.298 13.5829 8.91728 14.9637 8.91728 16.6669H10.4173ZM12.0013 15.0829C12.8761 15.0829 13.5853 15.7921 13.5853 16.6669H15.0853C15.0853 14.9637 13.7045 13.5829 12.0013 13.5829V15.0829ZM13.5853 16.6669V18.9999H15.0853V16.6669H13.5853ZM9.66728 18.2499H7.33328V19.7499H9.66728V18.2499ZM7.34092 18.25C6.6937 18.2434 6.14521 17.7718 6.04162 17.1329L4.56095 17.373C4.78137 18.7325 5.94847 19.7359 7.32564 19.7499L7.34092 18.25ZM6.05077 17.2252L5.78177 9.96617L4.2828 10.0217L4.5518 17.2807L6.05077 17.2252ZM5.77092 9.8639C5.66697 9.27348 5.95811 8.68388 6.49008 8.40747L5.79848 7.07642C4.68533 7.65481 4.07613 8.88855 4.29364 10.124L5.77092 9.8639ZM6.48526 8.40996L11.4203 5.89096L10.7383 4.55494L5.80331 7.07394L6.48526 8.40996ZM11.4218 5.89017C11.7859 5.70328 12.2177 5.70328 12.5818 5.89017L13.2668 4.55573C12.4727 4.14809 11.5309 4.14809 10.7368 4.55573L11.4218 5.89017ZM12.5833 5.89096L17.5183 8.40996L18.2003 7.07394L13.2653 4.55494L12.5833 5.89096ZM17.5135 8.40747C18.0455 8.68388 18.3366 9.27348 18.2326 9.8639L19.7099 10.124C19.9274 8.88855 19.3182 7.65481 18.2051 7.07642L17.5135 8.40747ZM18.2218 9.96607L17.9518 17.2251L19.4508 17.2808L19.7208 10.0218L18.2218 9.96607ZM17.961 17.1329C17.8574 17.7718 17.3089 18.2434 16.6616 18.25L16.6769 19.7499C18.0541 19.7359 19.2212 18.7325 19.4416 17.373L17.961 17.1329ZM16.6693 18.2499H14.3353V19.7499H16.6693V18.2499ZM9.66728 19.7499H14.3353V18.2499H9.66728V19.7499Z" fill="currentColor"/>
</svg>
