<svg width="24" height="24" viewBox="0 0 24 24" fill="none" xmlns="http://www.w3.org/2000/svg">
<path fill-rule="evenodd" clip-rule="evenodd" d="M10 13.0005C10 11.8959 10.8954 11.0005 12 11.0005C13.1046 11.0005 14 11.8959 14 13.0005C14 14.1051 13.1046 15.0005 12 15.0005C11.4696 15.0005 10.9609 14.7898 10.5858 14.4147C10.2107 14.0396 10 13.5309 10 13.0005Z" stroke="currentColor" stroke-width="1.5" stroke-linecap="round" stroke-linejoin="round"/>
<path fill-rule="evenodd" clip-rule="evenodd" d="M7.127 7.07343L9.859 5.55343C11.1913 4.81552 12.8097 4.81552 14.142 5.55343L16.874 7.07343C18.1778 7.78618 18.9919 9.15054 19 10.6364V14.8184C18.9649 17.1628 17.0363 19.0349 14.692 19.0004H9.308C6.96367 19.0349 5.03509 17.1628 5 14.8184V10.6364C5.00829 9.15033 5.82281 7.78591 7.127 7.07343Z" stroke="currentColor" stroke-width="1.5" stroke-linecap="round" stroke-linejoin="round"/>
</svg>
