<svg width="24" height="24" viewBox="0 0 24 24" fill="none" xmlns="http://www.w3.org/2000/svg">
<path d="M7.24117 8.95822C7.17779 8.54888 6.79457 8.26843 6.38524 8.33181C5.9759 8.3952 5.69545 8.77841 5.75883 9.18774L7.24117 8.95822ZM7.65 16.5H8.4C8.4 16.4616 8.39705 16.4232 8.39117 16.3852L7.65 16.5ZM10 18.75C10.4142 18.75 10.75 18.4142 10.75 18C10.75 17.5858 10.4142 17.25 10 17.25V18.75ZM6.10563 8.43504C5.7533 8.65284 5.64425 9.11503 5.86206 9.46735C6.07986 9.81968 6.54204 9.92873 6.89437 9.71093L6.10563 8.43504ZM11.162 6.19098L10.837 5.51504C10.8132 5.52648 10.7901 5.53916 10.7676 5.55304L11.162 6.19098ZM12.838 6.19098L13.2324 5.55304C13.2099 5.53916 13.1868 5.52648 13.163 5.51504L12.838 6.19098ZM17.1056 9.71093C17.458 9.92873 17.9201 9.81968 18.1379 9.46735C18.3557 9.11503 18.2467 8.65284 17.8944 8.43504L17.1056 9.71093ZM6.89428 9.71098C7.24664 9.49322 7.35575 9.03106 7.138 8.6787C6.92024 8.32634 6.45807 8.21723 6.10572 8.43498L6.89428 9.71098ZM4.60572 9.36198C4.25336 9.57974 4.14425 10.0419 4.362 10.3943C4.57976 10.7466 5.04193 10.8557 5.39428 10.638L4.60572 9.36198ZM18.2412 9.18774C18.3045 8.77841 18.0241 8.3952 17.6148 8.33181C17.2054 8.26843 16.8222 8.54888 16.7588 8.95822L18.2412 9.18774ZM16.35 16.5L15.6088 16.3852C15.603 16.4232 15.6 16.4616 15.6 16.5H16.35ZM14 17.25C13.5858 17.25 13.25 17.5858 13.25 18C13.25 18.4142 13.5858 18.75 14 18.75V17.25ZM17.8943 8.43498C17.5419 8.21723 17.0798 8.32634 16.862 8.6787C16.6442 9.03106 16.7534 9.49322 17.1057 9.71098L17.8943 8.43498ZM18.6057 10.638C18.9581 10.8557 19.4202 10.7466 19.638 10.3943C19.8558 10.0419 19.7466 9.57974 19.3943 9.36198L18.6057 10.638ZM9.25 18C9.25 18.4142 9.58579 18.75 10 18.75C10.4142 18.75 10.75 18.4142 10.75 18H9.25ZM13.25 18C13.25 18.4142 13.5858 18.75 14 18.75C14.4142 18.75 14.75 18.4142 14.75 18H13.25ZM10 17.25C9.58579 17.25 9.25 17.5858 9.25 18C9.25 18.4142 9.58579 18.75 10 18.75V17.25ZM14 18.75C14.4142 18.75 14.75 18.4142 14.75 18C14.75 17.5858 14.4142 17.25 14 17.25V18.75ZM5.75883 9.18774L6.90883 16.6147L8.39117 16.3852L7.24117 8.95822L5.75883 9.18774ZM6.9 16.5C6.9 17.374 7.22449 18.0279 7.85016 18.3993C8.39002 18.7198 9.0386 18.75 9.5 18.75V17.25C9.0494 17.25 8.77298 17.2027 8.61584 17.1094C8.5563 17.0741 8.51463 17.0321 8.48117 16.9654C8.44392 16.8912 8.4 16.7511 8.4 16.5H6.9ZM9.5 18.75H10V17.25H9.5V18.75ZM6.89437 9.71093L11.5564 6.82893L10.7676 5.55304L6.10563 8.43504L6.89437 9.71093ZM11.487 6.86692C11.8112 6.71103 12.1888 6.71103 12.513 6.86692L13.163 5.51504C12.4279 5.16165 11.5721 5.16165 10.837 5.51504L11.487 6.86692ZM12.4436 6.82893L17.1056 9.71093L17.8944 8.43504L13.2324 5.55304L12.4436 6.82893ZM6.10572 8.43498L4.60572 9.36198L5.39428 10.638L6.89428 9.71098L6.10572 8.43498ZM16.7588 8.95822L15.6088 16.3852L17.0912 16.6147L18.2412 9.18774L16.7588 8.95822ZM15.6 16.5C15.6 16.7511 15.5561 16.8912 15.5188 16.9654C15.4854 17.0321 15.4437 17.0741 15.3842 17.1094C15.227 17.2027 14.9506 17.25 14.5 17.25V18.75C14.9614 18.75 15.61 18.7198 16.1498 18.3993C16.7755 18.0279 17.1 17.374 17.1 16.5H15.6ZM14.5 17.25H14V18.75H14.5V17.25ZM17.1057 9.71098L18.6057 10.638L19.3943 9.36198L17.8943 8.43498L17.1057 9.71098ZM10.75 18V15H9.25V18H10.75ZM10.75 15C10.75 14.8619 10.8619 14.75 11 14.75V13.25C10.0335 13.25 9.25 14.0335 9.25 15H10.75ZM11 14.75H13V13.25H11V14.75ZM13 14.75C13.1381 14.75 13.25 14.8619 13.25 15H14.75C14.75 14.0335 13.9665 13.25 13 13.25V14.75ZM13.25 15V18H14.75V15H13.25ZM10 18.75H14V17.25H10V18.75Z" fill="currentColor"/>
</svg>
