<svg width="24" height="24" viewBox="0 0 24 24" fill="none" xmlns="http://www.w3.org/2000/svg">
<path d="M7.57379 12.559C7.9877 12.5431 8.31035 12.1947 8.29445 11.7808C8.27855 11.3669 7.93012 11.0442 7.51621 11.0601L7.57379 12.559ZM5 9.46155L4.25026 9.44179C4.24981 9.45889 4.24994 9.47601 4.25066 9.4931L5 9.46155ZM6.839 7.20255L7.01044 7.9327C7.02832 7.9285 7.04604 7.92364 7.06357 7.91814L6.839 7.20255ZM6.909 7.11055L6.15965 7.07871L6.15944 7.08496L6.909 7.11055ZM9.455 4.76355L9.42589 5.51299C9.43559 5.51336 9.44529 5.51355 9.455 5.51355V4.76355ZM9.618 4.76355L9.66145 4.01481C9.64698 4.01397 9.63249 4.01355 9.618 4.01355V4.76355ZM10.818 4.25655L11.3851 4.74732L11.3869 4.74525L10.818 4.25655ZM13.591 3.00255L13.5822 3.7525C13.5948 3.75265 13.6073 3.75248 13.6199 3.752L13.591 3.00255ZM17.091 6.23155L17.8408 6.21165L17.8403 6.20009L17.091 6.23155ZM17.818 7.47755L17.4318 8.12045C17.4383 8.12441 17.445 8.12826 17.4517 8.132L17.818 7.47755ZM19 9.46155L19.7493 9.4928C19.7499 9.47887 19.7501 9.46492 19.7499 9.45098L19 9.46155ZM16.4838 11.0611C16.0699 11.0452 15.7214 11.3679 15.7056 11.7818C15.6897 12.1957 16.0123 12.5441 16.4262 12.56L16.4838 11.0611ZM7.546 11.0606C7.13179 11.0606 6.796 11.3963 6.796 11.8106C6.796 12.2248 7.13179 12.5606 7.546 12.5606V11.0606ZM16.455 12.5606C16.8692 12.5606 17.205 12.2248 17.205 11.8106C17.205 11.3963 16.8692 11.0606 16.455 11.0606V12.5606ZM8.22661 11.4955C8.0526 11.1196 7.60682 10.9559 7.23093 11.1299C6.85504 11.3039 6.69138 11.7497 6.86539 12.1256L8.22661 11.4955ZM11.566 20.4946L12.2474 20.1811L12.2466 20.1795L11.566 20.4946ZM12.39 21.0021L12.4165 21.7517H12.4165L12.39 21.0021ZM13.176 20.4376L12.4749 20.1711L12.4742 20.1731L13.176 20.4376ZM17.1561 12.077C17.3032 11.6898 17.1087 11.2566 16.7215 11.1095C16.3343 10.9623 15.9011 11.1569 15.7539 11.5441L17.1561 12.077ZM7.51621 11.0601C6.5788 11.0961 5.7888 10.3673 5.74934 9.43L4.25066 9.4931C4.32489 11.2559 5.81073 12.6267 7.57379 12.559L7.51621 11.0601ZM5.74974 9.48132C5.76932 8.73864 6.28717 8.10252 7.01044 7.9327L6.66756 6.47241C5.28074 6.79803 4.2878 8.01774 4.25026 9.44179L5.74974 9.48132ZM7.06357 7.91814C7.40774 7.81014 7.64626 7.49666 7.65856 7.13614L6.15944 7.08496C6.16885 6.80927 6.35124 6.56956 6.61443 6.48696L7.06357 7.91814ZM7.65832 7.1424C7.69815 6.20513 8.48848 5.47657 9.42589 5.51299L9.48411 4.01412C7.72103 3.94563 6.23459 5.31589 6.15968 7.07871L7.65832 7.1424ZM9.455 5.51355C9.45511 5.51355 9.45521 5.51355 9.45532 5.51355C9.45543 5.51355 9.45553 5.51355 9.45564 5.51355C9.45575 5.51355 9.45585 5.51355 9.45596 5.51355C9.45607 5.51355 9.45617 5.51355 9.45628 5.51355C9.45639 5.51355 9.4565 5.51355 9.4566 5.51355C9.45671 5.51355 9.45682 5.51355 9.45692 5.51355C9.45703 5.51355 9.45714 5.51355 9.45724 5.51355C9.45735 5.51355 9.45746 5.51355 9.45756 5.51355C9.45767 5.51355 9.45778 5.51355 9.45788 5.51355C9.45799 5.51355 9.4581 5.51355 9.4582 5.51355C9.45831 5.51355 9.45842 5.51355 9.45852 5.51355C9.45863 5.51355 9.45874 5.51355 9.45884 5.51355C9.45895 5.51355 9.45906 5.51355 9.45916 5.51355C9.45927 5.51355 9.45938 5.51355 9.45948 5.51355C9.45959 5.51355 9.4597 5.51355 9.4598 5.51355C9.45991 5.51355 9.46002 5.51355 9.46012 5.51355C9.46023 5.51355 9.46034 5.51355 9.46044 5.51355C9.46055 5.51355 9.46066 5.51355 9.46076 5.51355C9.46087 5.51355 9.46098 5.51355 9.46108 5.51355C9.46119 5.51355 9.4613 5.51355 9.46141 5.51355C9.46151 5.51355 9.46162 5.51355 9.46173 5.51355C9.46183 5.51355 9.46194 5.51355 9.46205 5.51355C9.46215 5.51355 9.46226 5.51355 9.46237 5.51355C9.46247 5.51355 9.46258 5.51355 9.46269 5.51355C9.46279 5.51355 9.4629 5.51355 9.46301 5.51355C9.46311 5.51355 9.46322 5.51355 9.46333 5.51355C9.46343 5.51355 9.46354 5.51355 9.46365 5.51355C9.46375 5.51355 9.46386 5.51355 9.46397 5.51355C9.46407 5.51355 9.46418 5.51355 9.46429 5.51355C9.46439 5.51355 9.4645 5.51355 9.46461 5.51355C9.46471 5.51355 9.46482 5.51355 9.46493 5.51355C9.46503 5.51355 9.46514 5.51355 9.46525 5.51355C9.46535 5.51355 9.46546 5.51355 9.46557 5.51355C9.46567 5.51355 9.46578 5.51355 9.46589 5.51355C9.46599 5.51355 9.4661 5.51355 9.46621 5.51355C9.46631 5.51355 9.46642 5.51355 9.46653 5.51355C9.46663 5.51355 9.46674 5.51355 9.46685 5.51355C9.46695 5.51355 9.46706 5.51355 9.46717 5.51355C9.46727 5.51355 9.46738 5.51355 9.46749 5.51355C9.46759 5.51355 9.4677 5.51355 9.46781 5.51355C9.46791 5.51355 9.46802 5.51355 9.46813 5.51355C9.46823 5.51355 9.46834 5.51355 9.46845 5.51355C9.46855 5.51355 9.46866 5.51355 9.46877 5.51355C9.46887 5.51355 9.46898 5.51355 9.46909 5.51355C9.46919 5.51355 9.4693 5.51355 9.46941 5.51355C9.46951 5.51355 9.46962 5.51355 9.46973 5.51355C9.46983 5.51355 9.46994 5.51355 9.47005 5.51355C9.47015 5.51355 9.47026 5.51355 9.47037 5.51355C9.47047 5.51355 9.47058 5.51355 9.47069 5.51355C9.47079 5.51355 9.4709 5.51355 9.47101 5.51355C9.47111 5.51355 9.47122 5.51355 9.47133 5.51355C9.47143 5.51355 9.47154 5.51355 9.47165 5.51355C9.47175 5.51355 9.47186 5.51355 9.47197 5.51355C9.47207 5.51355 9.47218 5.51355 9.47229 5.51355C9.47239 5.51355 9.4725 5.51355 9.47261 5.51355C9.47271 5.51355 9.47282 5.51355 9.47293 5.51355C9.47303 5.51355 9.47314 5.51355 9.47325 5.51355C9.47335 5.51355 9.47346 5.51355 9.47357 5.51355C9.47367 5.51355 9.47378 5.51355 9.47389 5.51355C9.47399 5.51355 9.4741 5.51355 9.47421 5.51355C9.47431 5.51355 9.47442 5.51355 9.47453 5.51355C9.47463 5.51355 9.47474 5.51355 9.47484 5.51355C9.47495 5.51355 9.47506 5.51355 9.47516 5.51355C9.47527 5.51355 9.47538 5.51355 9.47548 5.51355C9.47559 5.51355 9.4757 5.51355 9.4758 5.51355C9.47591 5.51355 9.47602 5.51355 9.47612 5.51355C9.47623 5.51355 9.47634 5.51355 9.47644 5.51355C9.47655 5.51355 9.47666 5.51355 9.47676 5.51355C9.47687 5.51355 9.47698 5.51355 9.47708 5.51355C9.47719 5.51355 9.4773 5.51355 9.4774 5.51355C9.47751 5.51355 9.47762 5.51355 9.47772 5.51355C9.47783 5.51355 9.47794 5.51355 9.47804 5.51355C9.47815 5.51355 9.47826 5.51355 9.47836 5.51355C9.47847 5.51355 9.47858 5.51355 9.47868 5.51355C9.47879 5.51355 9.4789 5.51355 9.479 5.51355C9.47911 5.51355 9.47922 5.51355 9.47932 5.51355C9.47943 5.51355 9.47954 5.51355 9.47964 5.51355C9.47975 5.51355 9.47986 5.51355 9.47996 5.51355C9.48007 5.51355 9.48017 5.51355 9.48028 5.51355C9.48039 5.51355 9.48049 5.51355 9.4806 5.51355C9.48071 5.51355 9.48081 5.51355 9.48092 5.51355C9.48103 5.51355 9.48113 5.51355 9.48124 5.51355C9.48135 5.51355 9.48145 5.51355 9.48156 5.51355C9.48167 5.51355 9.48177 5.51355 9.48188 5.51355C9.48199 5.51355 9.48209 5.51355 9.4822 5.51355C9.48231 5.51355 9.48241 5.51355 9.48252 5.51355C9.48263 5.51355 9.48273 5.51355 9.48284 5.51355C9.48295 5.51355 9.48305 5.51355 9.48316 5.51355C9.48326 5.51355 9.48337 5.51355 9.48348 5.51355C9.48358 5.51355 9.48369 5.51355 9.4838 5.51355C9.4839 5.51355 9.48401 5.51355 9.48412 5.51355C9.48422 5.51355 9.48433 5.51355 9.48444 5.51355C9.48454 5.51355 9.48465 5.51355 9.48476 5.51355C9.48486 5.51355 9.48497 5.51355 9.48508 5.51355C9.48518 5.51355 9.48529 5.51355 9.4854 5.51355C9.4855 5.51355 9.48561 5.51355 9.48572 5.51355C9.48582 5.51355 9.48593 5.51355 9.48603 5.51355C9.48614 5.51355 9.48625 5.51355 9.48635 5.51355C9.48646 5.51355 9.48657 5.51355 9.48667 5.51355C9.48678 5.51355 9.48689 5.51355 9.48699 5.51355C9.4871 5.51355 9.48721 5.51355 9.48731 5.51355C9.48742 5.51355 9.48753 5.51355 9.48763 5.51355C9.48774 5.51355 9.48785 5.51355 9.48795 5.51355C9.48806 5.51355 9.48816 5.51355 9.48827 5.51355C9.48838 5.51355 9.48848 5.51355 9.48859 5.51355C9.4887 5.51355 9.4888 5.51355 9.48891 5.51355C9.48902 5.51355 9.48912 5.51355 9.48923 5.51355C9.48934 5.51355 9.48944 5.51355 9.48955 5.51355C9.48966 5.51355 9.48976 5.51355 9.48987 5.51355C9.48998 5.51355 9.49008 5.51355 9.49019 5.51355C9.49029 5.51355 9.4904 5.51355 9.49051 5.51355C9.49061 5.51355 9.49072 5.51355 9.49083 5.51355C9.49093 5.51355 9.49104 5.51355 9.49115 5.51355C9.49125 5.51355 9.49136 5.51355 9.49147 5.51355C9.49157 5.51355 9.49168 5.51355 9.49179 5.51355C9.49189 5.51355 9.492 5.51355 9.49211 5.51355C9.49221 5.51355 9.49232 5.51355 9.49242 5.51355C9.49253 5.51355 9.49264 5.51355 9.49274 5.51355C9.49285 5.51355 9.49296 5.51355 9.49306 5.51355C9.49317 5.51355 9.49328 5.51355 9.49338 5.51355C9.49349 5.51355 9.4936 5.51355 9.4937 5.51355C9.49381 5.51355 9.49392 5.51355 9.49402 5.51355C9.49413 5.51355 9.49423 5.51355 9.49434 5.51355C9.49445 5.51355 9.49455 5.51355 9.49466 5.51355C9.49477 5.51355 9.49487 5.51355 9.49498 5.51355C9.49509 5.51355 9.49519 5.51355 9.4953 5.51355C9.49541 5.51355 9.49551 5.51355 9.49562 5.51355C9.49573 5.51355 9.49583 5.51355 9.49594 5.51355C9.49604 5.51355 9.49615 5.51355 9.49626 5.51355C9.49636 5.51355 9.49647 5.51355 9.49658 5.51355C9.49668 5.51355 9.49679 5.51355 9.4969 5.51355C9.497 5.51355 9.49711 5.51355 9.49722 5.51355C9.49732 5.51355 9.49743 5.51355 9.49753 5.51355C9.49764 5.51355 9.49775 5.51355 9.49785 5.51355C9.49796 5.51355 9.49807 5.51355 9.49817 5.51355C9.49828 5.51355 9.49839 5.51355 9.49849 5.51355C9.4986 5.51355 9.4987 5.51355 9.49881 5.51355C9.49892 5.51355 9.49902 5.51355 9.49913 5.51355C9.49924 5.51355 9.49934 5.51355 9.49945 5.51355C9.49956 5.51355 9.49966 5.51355 9.49977 5.51355C9.49988 5.51355 9.49998 5.51355 9.50009 5.51355C9.5002 5.51355 9.5003 5.51355 9.50041 5.51355C9.50051 5.51355 9.50062 5.51355 9.50073 5.51355C9.50083 5.51355 9.50094 5.51355 9.50105 5.51355C9.50115 5.51355 9.50126 5.51355 9.50137 5.51355C9.50147 5.51355 9.50158 5.51355 9.50168 5.51355C9.50179 5.51355 9.5019 5.51355 9.502 5.51355C9.50211 5.51355 9.50222 5.51355 9.50232 5.51355C9.50243 5.51355 9.50254 5.51355 9.50264 5.51355C9.50275 5.51355 9.50285 5.51355 9.50296 5.51355C9.50307 5.51355 9.50317 5.51355 9.50328 5.51355C9.50339 5.51355 9.50349 5.51355 9.5036 5.51355C9.50371 5.51355 9.50381 5.51355 9.50392 5.51355C9.50402 5.51355 9.50413 5.51355 9.50424 5.51355C9.50434 5.51355 9.50445 5.51355 9.50456 5.51355C9.50466 5.51355 9.50477 5.51355 9.50488 5.51355C9.50498 5.51355 9.50509 5.51355 9.5052 5.51355C9.5053 5.51355 9.50541 5.51355 9.50551 5.51355C9.50562 5.51355 9.50573 5.51355 9.50583 5.51355C9.50594 5.51355 9.50605 5.51355 9.50615 5.51355C9.50626 5.51355 9.50637 5.51355 9.50647 5.51355C9.50658 5.51355 9.50668 5.51355 9.50679 5.51355C9.5069 5.51355 9.507 5.51355 9.50711 5.51355C9.50722 5.51355 9.50732 5.51355 9.50743 5.51355C9.50754 5.51355 9.50764 5.51355 9.50775 5.51355C9.50785 5.51355 9.50796 5.51355 9.50807 5.51355C9.50817 5.51355 9.50828 5.51355 9.50839 5.51355C9.50849 5.51355 9.5086 5.51355 9.50871 5.51355C9.50881 5.51355 9.50892 5.51355 9.50902 5.51355C9.50913 5.51355 9.50924 5.51355 9.50934 5.51355C9.50945 5.51355 9.50956 5.51355 9.50966 5.51355C9.50977 5.51355 9.50987 5.51355 9.50998 5.51355C9.51009 5.51355 9.51019 5.51355 9.5103 5.51355C9.51041 5.51355 9.51051 5.51355 9.51062 5.51355C9.51073 5.51355 9.51083 5.51355 9.51094 5.51355C9.51104 5.51355 9.51115 5.51355 9.51126 5.51355C9.51136 5.51355 9.51147 5.51355 9.51158 5.51355C9.51168 5.51355 9.51179 5.51355 9.5119 5.51355C9.512 5.51355 9.51211 5.51355 9.51221 5.51355C9.51232 5.51355 9.51243 5.51355 9.51253 5.51355C9.51264 5.51355 9.51275 5.51355 9.51285 5.51355C9.51296 5.51355 9.51306 5.51355 9.51317 5.51355C9.51328 5.51355 9.51338 5.51355 9.51349 5.51355C9.5136 5.51355 9.5137 5.51355 9.51381 5.51355C9.51392 5.51355 9.51402 5.51355 9.51413 5.51355C9.51423 5.51355 9.51434 5.51355 9.51445 5.51355C9.51455 5.51355 9.51466 5.51355 9.51477 5.51355C9.51487 5.51355 9.51498 5.51355 9.51508 5.51355C9.51519 5.51355 9.5153 5.51355 9.5154 5.51355C9.51551 5.51355 9.51562 5.51355 9.51572 5.51355C9.51583 5.51355 9.51593 5.51355 9.51604 5.51355C9.51615 5.51355 9.51625 5.51355 9.51636 5.51355C9.51647 5.51355 9.51657 5.51355 9.51668 5.51355C9.51678 5.51355 9.51689 5.51355 9.517 5.51355C9.5171 5.51355 9.51721 5.51355 9.51732 5.51355C9.51742 5.51355 9.51753 5.51355 9.51763 5.51355C9.51774 5.51355 9.51785 5.51355 9.51795 5.51355C9.51806 5.51355 9.51817 5.51355 9.51827 5.51355C9.51838 5.51355 9.51849 5.51355 9.51859 5.51355C9.5187 5.51355 9.5188 5.51355 9.51891 5.51355C9.51902 5.51355 9.51912 5.51355 9.51923 5.51355C9.51934 5.51355 9.51944 5.51355 9.51955 5.51355C9.51965 5.51355 9.51976 5.51355 9.51987 5.51355C9.51997 5.51355 9.52008 5.51355 9.52019 5.51355C9.52029 5.51355 9.5204 5.51355 9.5205 5.51355C9.52061 5.51355 9.52072 5.51355 9.52082 5.51355C9.52093 5.51355 9.52104 5.51355 9.52114 5.51355C9.52125 5.51355 9.52135 5.51355 9.52146 5.51355C9.52157 5.51355 9.52167 5.51355 9.52178 5.51355C9.52189 5.51355 9.52199 5.51355 9.5221 5.51355C9.5222 5.51355 9.52231 5.51355 9.52242 5.51355C9.52252 5.51355 9.52263 5.51355 9.52274 5.51355C9.52284 5.51355 9.52295 5.51355 9.52305 5.51355C9.52316 5.51355 9.52327 5.51355 9.52337 5.51355C9.52348 5.51355 9.52358 5.51355 9.52369 5.51355C9.5238 5.51355 9.5239 5.51355 9.52401 5.51355C9.52412 5.51355 9.52422 5.51355 9.52433 5.51355C9.52443 5.51355 9.52454 5.51355 9.52465 5.51355C9.52475 5.51355 9.52486 5.51355 9.52497 5.51355C9.52507 5.51355 9.52518 5.51355 9.52528 5.51355C9.52539 5.51355 9.5255 5.51355 9.5256 5.51355C9.52571 5.51355 9.52582 5.51355 9.52592 5.51355C9.52603 5.51355 9.52613 5.51355 9.52624 5.51355C9.52635 5.51355 9.52645 5.51355 9.52656 5.51355C9.52667 5.51355 9.52677 5.51355 9.52688 5.51355C9.52698 5.51355 9.52709 5.51355 9.5272 5.51355C9.5273 5.51355 9.52741 5.51355 9.52751 5.51355C9.52762 5.51355 9.52773 5.51355 9.52783 5.51355C9.52794 5.51355 9.52805 5.51355 9.52815 5.51355C9.52826 5.51355 9.52836 5.51355 9.52847 5.51355C9.52858 5.51355 9.52868 5.51355 9.52879 5.51355C9.52889 5.51355 9.529 5.51355 9.52911 5.51355C9.52921 5.51355 9.52932 5.51355 9.52943 5.51355C9.52953 5.51355 9.52964 5.51355 9.52974 5.51355C9.52985 5.51355 9.52996 5.51355 9.53006 5.51355C9.53017 5.51355 9.53028 5.51355 9.53038 5.51355C9.53049 5.51355 9.53059 5.51355 9.5307 5.51355C9.53081 5.51355 9.53091 5.51355 9.53102 5.51355C9.53112 5.51355 9.53123 5.51355 9.53134 5.51355C9.53144 5.51355 9.53155 5.51355 9.53166 5.51355C9.53176 5.51355 9.53187 5.51355 9.53197 5.51355C9.53208 5.51355 9.53219 5.51355 9.53229 5.51355C9.5324 5.51355 9.5325 5.51355 9.53261 5.51355C9.53272 5.51355 9.53282 5.51355 9.53293 5.51355C9.53304 5.51355 9.53314 5.51355 9.53325 5.51355C9.53335 5.51355 9.53346 5.51355 9.53357 5.51355C9.53367 5.51355 9.53378 5.51355 9.53388 5.51355C9.53399 5.51355 9.5341 5.51355 9.5342 5.51355C9.53431 5.51355 9.53442 5.51355 9.53452 5.51355C9.53463 5.51355 9.53473 5.51355 9.53484 5.51355C9.53495 5.51355 9.53505 5.51355 9.53516 5.51355C9.53526 5.51355 9.53537 5.51355 9.53548 5.51355C9.53558 5.51355 9.53569 5.51355 9.5358 5.51355C9.5359 5.51355 9.53601 5.51355 9.53611 5.51355C9.53622 5.51355 9.53633 5.51355 9.53643 5.51355C9.53654 5.51355 9.53664 5.51355 9.53675 5.51355C9.53686 5.51355 9.53696 5.51355 9.53707 5.51355C9.53717 5.51355 9.53728 5.51355 9.53739 5.51355C9.53749 5.51355 9.5376 5.51355 9.53771 5.51355C9.53781 5.51355 9.53792 5.51355 9.53802 5.51355C9.53813 5.51355 9.53824 5.51355 9.53834 5.51355C9.53845 5.51355 9.53855 5.51355 9.53866 5.51355C9.53877 5.51355 9.53887 5.51355 9.53898 5.51355C9.53908 5.51355 9.53919 5.51355 9.5393 5.51355C9.5394 5.51355 9.53951 5.51355 9.53962 5.51355C9.53972 5.51355 9.53983 5.51355 9.53993 5.51355C9.54004 5.51355 9.54015 5.51355 9.54025 5.51355C9.54036 5.51355 9.54046 5.51355 9.54057 5.51355C9.54068 5.51355 9.54078 5.51355 9.54089 5.51355C9.54099 5.51355 9.5411 5.51355 9.54121 5.51355C9.54131 5.51355 9.54142 5.51355 9.54152 5.51355C9.54163 5.51355 9.54174 5.51355 9.54184 5.51355C9.54195 5.51355 9.54206 5.51355 9.54216 5.51355C9.54227 5.51355 9.54237 5.51355 9.54248 5.51355C9.54259 5.51355 9.54269 5.51355 9.5428 5.51355C9.5429 5.51355 9.54301 5.51355 9.54312 5.51355C9.54322 5.51355 9.54333 5.51355 9.54343 5.51355C9.54354 5.51355 9.54365 5.51355 9.54375 5.51355C9.54386 5.51355 9.54396 5.51355 9.54407 5.51355C9.54418 5.51355 9.54428 5.51355 9.54439 5.51355C9.54449 5.51355 9.5446 5.51355 9.54471 5.51355C9.54481 5.51355 9.54492 5.51355 9.54502 5.51355C9.54513 5.51355 9.54524 5.51355 9.54534 5.51355C9.54545 5.51355 9.54556 5.51355 9.54566 5.51355C9.54577 5.51355 9.54587 5.51355 9.54598 5.51355C9.54609 5.51355 9.54619 5.51355 9.5463 5.51355C9.5464 5.51355 9.54651 5.51355 9.54662 5.51355C9.54672 5.51355 9.54683 5.51355 9.54693 5.51355C9.54704 5.51355 9.54715 5.51355 9.54725 5.51355C9.54736 5.51355 9.54746 5.51355 9.54757 5.51355C9.54768 5.51355 9.54778 5.51355 9.54789 5.51355C9.54799 5.51355 9.5481 5.51355 9.54821 5.51355C9.54831 5.51355 9.54842 5.51355 9.54852 5.51355C9.54863 5.51355 9.54874 5.51355 9.54884 5.51355C9.54895 5.51355 9.54905 5.51355 9.54916 5.51355C9.54927 5.51355 9.54937 5.51355 9.54948 5.51355C9.54958 5.51355 9.54969 5.51355 9.5498 5.51355C9.5499 5.51355 9.55001 5.51355 9.55011 5.51355C9.55022 5.51355 9.55033 5.51355 9.55043 5.51355C9.55054 5.51355 9.55064 5.51355 9.55075 5.51355C9.55086 5.51355 9.55096 5.51355 9.55107 5.51355C9.55117 5.51355 9.55128 5.51355 9.55139 5.51355C9.55149 5.51355 9.5516 5.51355 9.5517 5.51355C9.55181 5.51355 9.55192 5.51355 9.55202 5.51355C9.55213 5.51355 9.55223 5.51355 9.55234 5.51355C9.55245 5.51355 9.55255 5.51355 9.55266 5.51355C9.55276 5.51355 9.55287 5.51355 9.55298 5.51355C9.55308 5.51355 9.55319 5.51355 9.55329 5.51355C9.5534 5.51355 9.55351 5.51355 9.55361 5.51355C9.55372 5.51355 9.55382 5.51355 9.55393 5.51355C9.55404 5.51355 9.55414 5.51355 9.55425 5.51355C9.55435 5.51355 9.55446 5.51355 9.55457 5.51355C9.55467 5.51355 9.55478 5.51355 9.55488 5.51355C9.55499 5.51355 9.5551 5.51355 9.5552 5.51355C9.55531 5.51355 9.55541 5.51355 9.55552 5.51355C9.55563 5.51355 9.55573 5.51355 9.55584 5.51355C9.55594 5.51355 9.55605 5.51355 9.55616 5.51355C9.55626 5.51355 9.55637 5.51355 9.55647 5.51355C9.55658 5.51355 9.55669 5.51355 9.55679 5.51355C9.5569 5.51355 9.557 5.51355 9.55711 5.51355C9.55722 5.51355 9.55732 5.51355 9.55743 5.51355C9.55753 5.51355 9.55764 5.51355 9.55775 5.51355C9.55785 5.51355 9.55796 5.51355 9.55806 5.51355C9.55817 5.51355 9.55828 5.51355 9.55838 5.51355C9.55849 5.51355 9.55859 5.51355 9.5587 5.51355C9.5588 5.51355 9.55891 5.51355 9.55902 5.51355C9.55912 5.51355 9.55923 5.51355 9.55933 5.51355C9.55944 5.51355 9.55955 5.51355 9.55965 5.51355C9.55976 5.51355 9.55986 5.51355 9.55997 5.51355C9.56008 5.51355 9.56018 5.51355 9.56029 5.51355C9.56039 5.51355 9.5605 5.51355 9.56061 5.51355C9.56071 5.51355 9.56082 5.51355 9.56092 5.51355C9.56103 5.51355 9.56114 5.51355 9.56124 5.51355C9.56135 5.51355 9.56145 5.51355 9.56156 5.51355C9.56167 5.51355 9.56177 5.51355 9.56188 5.51355C9.56198 5.51355 9.56209 5.51355 9.56219 5.51355C9.5623 5.51355 9.56241 5.51355 9.56251 5.51355C9.56262 5.51355 9.56272 5.51355 9.56283 5.51355C9.56294 5.51355 9.56304 5.51355 9.56315 5.51355C9.56325 5.51355 9.56336 5.51355 9.56347 5.51355C9.56357 5.51355 9.56368 5.51355 9.56378 5.51355C9.56389 5.51355 9.56399 5.51355 9.5641 5.51355C9.56421 5.51355 9.56431 5.51355 9.56442 5.51355C9.56452 5.51355 9.56463 5.51355 9.56474 5.51355C9.56484 5.51355 9.56495 5.51355 9.56505 5.51355C9.56516 5.51355 9.56527 5.51355 9.56537 5.51355C9.56548 5.51355 9.56558 5.51355 9.56569 5.51355C9.56579 5.51355 9.5659 5.51355 9.56601 5.51355C9.56611 5.51355 9.56622 5.51355 9.56632 5.51355C9.56643 5.51355 9.56654 5.51355 9.56664 5.51355C9.56675 5.51355 9.56685 5.51355 9.56696 5.51355C9.56707 5.51355 9.56717 5.51355 9.56728 5.51355C9.56738 5.51355 9.56749 5.51355 9.5676 5.51355C9.5677 5.51355 9.56781 5.51355 9.56791 5.51355C9.56802 5.51355 9.56812 5.51355 9.56823 5.51355C9.56834 5.51355 9.56844 5.51355 9.56855 5.51355C9.56865 5.51355 9.56876 5.51355 9.56887 5.51355C9.56897 5.51355 9.56908 5.51355 9.56918 5.51355C9.56929 5.51355 9.56939 5.51355 9.5695 5.51355C9.56961 5.51355 9.56971 5.51355 9.56982 5.51355C9.56992 5.51355 9.57003 5.51355 9.57014 5.51355C9.57024 5.51355 9.57035 5.51355 9.57045 5.51355C9.57056 5.51355 9.57066 5.51355 9.57077 5.51355C9.57088 5.51355 9.57098 5.51355 9.57109 5.51355C9.57119 5.51355 9.5713 5.51355 9.57141 5.51355C9.57151 5.51355 9.57162 5.51355 9.57172 5.51355C9.57183 5.51355 9.57194 5.51355 9.57204 5.51355C9.57215 5.51355 9.57225 5.51355 9.57236 5.51355C9.57246 5.51355 9.57257 5.51355 9.57268 5.51355C9.57278 5.51355 9.57289 5.51355 9.57299 5.51355C9.5731 5.51355 9.5732 5.51355 9.57331 5.51355C9.57342 5.51355 9.57352 5.51355 9.57363 5.51355C9.57373 5.51355 9.57384 5.51355 9.57395 5.51355C9.57405 5.51355 9.57416 5.51355 9.57426 5.51355C9.57437 5.51355 9.57447 5.51355 9.57458 5.51355C9.57469 5.51355 9.57479 5.51355 9.5749 5.51355C9.575 5.51355 9.57511 5.51355 9.57522 5.51355C9.57532 5.51355 9.57543 5.51355 9.57553 5.51355C9.57564 5.51355 9.57574 5.51355 9.57585 5.51355C9.57596 5.51355 9.57606 5.51355 9.57617 5.51355C9.57627 5.51355 9.57638 5.51355 9.57649 5.51355C9.57659 5.51355 9.5767 5.51355 9.5768 5.51355C9.57691 5.51355 9.57701 5.51355 9.57712 5.51355C9.57723 5.51355 9.57733 5.51355 9.57744 5.51355C9.57754 5.51355 9.57765 5.51355 9.57775 5.51355C9.57786 5.51355 9.57797 5.51355 9.57807 5.51355C9.57818 5.51355 9.57828 5.51355 9.57839 5.51355C9.5785 5.51355 9.5786 5.51355 9.57871 5.51355C9.57881 5.51355 9.57892 5.51355 9.57902 5.51355C9.57913 5.51355 9.57924 5.51355 9.57934 5.51355C9.57945 5.51355 9.57955 5.51355 9.57966 5.51355C9.57976 5.51355 9.57987 5.51355 9.57998 5.51355C9.58008 5.51355 9.58019 5.51355 9.58029 5.51355C9.5804 5.51355 9.58051 5.51355 9.58061 5.51355C9.58072 5.51355 9.58082 5.51355 9.58093 5.51355C9.58103 5.51355 9.58114 5.51355 9.58125 5.51355C9.58135 5.51355 9.58146 5.51355 9.58156 5.51355C9.58167 5.51355 9.58177 5.51355 9.58188 5.51355C9.58199 5.51355 9.58209 5.51355 9.5822 5.51355C9.5823 5.51355 9.58241 5.51355 9.58251 5.51355C9.58262 5.51355 9.58273 5.51355 9.58283 5.51355C9.58294 5.51355 9.58304 5.51355 9.58315 5.51355C9.58325 5.51355 9.58336 5.51355 9.58347 5.51355C9.58357 5.51355 9.58368 5.51355 9.58378 5.51355C9.58389 5.51355 9.584 5.51355 9.5841 5.51355C9.58421 5.51355 9.58431 5.51355 9.58442 5.51355C9.58452 5.51355 9.58463 5.51355 9.58474 5.51355C9.58484 5.51355 9.58495 5.51355 9.58505 5.51355C9.58516 5.51355 9.58526 5.51355 9.58537 5.51355C9.58548 5.51355 9.58558 5.51355 9.58569 5.51355C9.58579 5.51355 9.5859 5.51355 9.586 5.51355C9.58611 5.51355 9.58622 5.51355 9.58632 5.51355C9.58643 5.51355 9.58653 5.51355 9.58664 5.51355C9.58674 5.51355 9.58685 5.51355 9.58696 5.51355C9.58706 5.51355 9.58717 5.51355 9.58727 5.51355C9.58738 5.51355 9.58748 5.51355 9.58759 5.51355C9.5877 5.51355 9.5878 5.51355 9.58791 5.51355C9.58801 5.51355 9.58812 5.51355 9.58822 5.51355C9.58833 5.51355 9.58844 5.51355 9.58854 5.51355C9.58865 5.51355 9.58875 5.51355 9.58886 5.51355C9.58896 5.51355 9.58907 5.51355 9.58918 5.51355C9.58928 5.51355 9.58939 5.51355 9.58949 5.51355C9.5896 5.51355 9.5897 5.51355 9.58981 5.51355C9.58992 5.51355 9.59002 5.51355 9.59013 5.51355C9.59023 5.51355 9.59034 5.51355 9.59044 5.51355C9.59055 5.51355 9.59066 5.51355 9.59076 5.51355C9.59087 5.51355 9.59097 5.51355 9.59108 5.51355C9.59118 5.51355 9.59129 5.51355 9.59139 5.51355C9.5915 5.51355 9.59161 5.51355 9.59171 5.51355C9.59182 5.51355 9.59192 5.51355 9.59203 5.51355C9.59213 5.51355 9.59224 5.51355 9.59235 5.51355C9.59245 5.51355 9.59256 5.51355 9.59266 5.51355C9.59277 5.51355 9.59287 5.51355 9.59298 5.51355C9.59309 5.51355 9.59319 5.51355 9.5933 5.51355C9.5934 5.51355 9.59351 5.51355 9.59361 5.51355C9.59372 5.51355 9.59383 5.51355 9.59393 5.51355C9.59404 5.51355 9.59414 5.51355 9.59425 5.51355C9.59435 5.51355 9.59446 5.51355 9.59456 5.51355C9.59467 5.51355 9.59478 5.51355 9.59488 5.51355C9.59499 5.51355 9.59509 5.51355 9.5952 5.51355C9.5953 5.51355 9.59541 5.51355 9.59552 5.51355C9.59562 5.51355 9.59573 5.51355 9.59583 5.51355C9.59594 5.51355 9.59604 5.51355 9.59615 5.51355C9.59626 5.51355 9.59636 5.51355 9.59647 5.51355C9.59657 5.51355 9.59668 5.51355 9.59678 5.51355C9.59689 5.51355 9.59699 5.51355 9.5971 5.51355C9.59721 5.51355 9.59731 5.51355 9.59742 5.51355C9.59752 5.51355 9.59763 5.51355 9.59773 5.51355C9.59784 5.51355 9.59795 5.51355 9.59805 5.51355C9.59816 5.51355 9.59826 5.51355 9.59837 5.51355C9.59847 5.51355 9.59858 5.51355 9.59869 5.51355C9.59879 5.51355 9.5989 5.51355 9.599 5.51355C9.59911 5.51355 9.59921 5.51355 9.59932 5.51355C9.59942 5.51355 9.59953 5.51355 9.59964 5.51355C9.59974 5.51355 9.59985 5.51355 9.59995 5.51355C9.60006 5.51355 9.60016 5.51355 9.60027 5.51355C9.60038 5.51355 9.60048 5.51355 9.60059 5.51355C9.60069 5.51355 9.6008 5.51355 9.6009 5.51355C9.60101 5.51355 9.60111 5.51355 9.60122 5.51355C9.60133 5.51355 9.60143 5.51355 9.60154 5.51355C9.60164 5.51355 9.60175 5.51355 9.60185 5.51355C9.60196 5.51355 9.60206 5.51355 9.60217 5.51355C9.60228 5.51355 9.60238 5.51355 9.60249 5.51355C9.60259 5.51355 9.6027 5.51355 9.6028 5.51355C9.60291 5.51355 9.60301 5.51355 9.60312 5.51355C9.60323 5.51355 9.60333 5.51355 9.60344 5.51355C9.60354 5.51355 9.60365 5.51355 9.60375 5.51355C9.60386 5.51355 9.60397 5.51355 9.60407 5.51355C9.60418 5.51355 9.60428 5.51355 9.60439 5.51355C9.60449 5.51355 9.6046 5.51355 9.6047 5.51355C9.60481 5.51355 9.60492 5.51355 9.60502 5.51355C9.60513 5.51355 9.60523 5.51355 9.60534 5.51355C9.60544 5.51355 9.60555 5.51355 9.60565 5.51355C9.60576 5.51355 9.60587 5.51355 9.60597 5.51355C9.60608 5.51355 9.60618 5.51355 9.60629 5.51355C9.60639 5.51355 9.6065 5.51355 9.6066 5.51355C9.60671 5.51355 9.60682 5.51355 9.60692 5.51355C9.60703 5.51355 9.60713 5.51355 9.60724 5.51355C9.60734 5.51355 9.60745 5.51355 9.60755 5.51355C9.60766 5.51355 9.60777 5.51355 9.60787 5.51355C9.60798 5.51355 9.60808 5.51355 9.60819 5.51355C9.60829 5.51355 9.6084 5.51355 9.6085 5.51355C9.60861 5.51355 9.60872 5.51355 9.60882 5.51355C9.60893 5.51355 9.60903 5.51355 9.60914 5.51355C9.60924 5.51355 9.60935 5.51355 9.60945 5.51355C9.60956 5.51355 9.60967 5.51355 9.60977 5.51355C9.60988 5.51355 9.60998 5.51355 9.61009 5.51355C9.61019 5.51355 9.6103 5.51355 9.6104 5.51355C9.61051 5.51355 9.61062 5.51355 9.61072 5.51355C9.61083 5.51355 9.61093 5.51355 9.61104 5.51355C9.61114 5.51355 9.61125 5.51355 9.61135 5.51355C9.61146 5.51355 9.61156 5.51355 9.61167 5.51355C9.61178 5.51355 9.61188 5.51355 9.61199 5.51355C9.61209 5.51355 9.6122 5.51355 9.6123 5.51355C9.61241 5.51355 9.61251 5.51355 9.61262 5.51355C9.61273 5.51355 9.61283 5.51355 9.61294 5.51355C9.61304 5.51355 9.61315 5.51355 9.61325 5.51355C9.61336 5.51355 9.61346 5.51355 9.61357 5.51355C9.61368 5.51355 9.61378 5.51355 9.61389 5.51355C9.61399 5.51355 9.6141 5.51355 9.6142 5.51355C9.61431 5.51355 9.61441 5.51355 9.61452 5.51355C9.61462 5.51355 9.61473 5.51355 9.61484 5.51355C9.61494 5.51355 9.61505 5.51355 9.61515 5.51355C9.61526 5.51355 9.61536 5.51355 9.61547 5.51355C9.61557 5.51355 9.61568 5.51355 9.61579 5.51355C9.61589 5.51355 9.616 5.51355 9.6161 5.51355C9.61621 5.51355 9.61631 5.51355 9.61642 5.51355C9.61652 5.51355 9.61663 5.51355 9.61673 5.51355C9.61684 5.51355 9.61695 5.51355 9.61705 5.51355C9.61716 5.51355 9.61726 5.51355 9.61737 5.51355C9.61747 5.51355 9.61758 5.51355 9.61768 5.51355C9.61779 5.51355 9.61789 5.51355 9.618 5.51355V4.01355C9.61789 4.01355 9.61779 4.01355 9.61768 4.01355C9.61758 4.01355 9.61747 4.01355 9.61737 4.01355C9.61726 4.01355 9.61716 4.01355 9.61705 4.01355C9.61695 4.01355 9.61684 4.01355 9.61673 4.01355C9.61663 4.01355 9.61652 4.01355 9.61642 4.01355C9.61631 4.01355 9.61621 4.01355 9.6161 4.01355C9.616 4.01355 9.61589 4.01355 9.61579 4.01355C9.61568 4.01355 9.61557 4.01355 9.61547 4.01355C9.61536 4.01355 9.61526 4.01355 9.61515 4.01355C9.61505 4.01355 9.61494 4.01355 9.61484 4.01355C9.61473 4.01355 9.61462 4.01355 9.61452 4.01355C9.61441 4.01355 9.61431 4.01355 9.6142 4.01355C9.6141 4.01355 9.61399 4.01355 9.61389 4.01355C9.61378 4.01355 9.61368 4.01355 9.61357 4.01355C9.61346 4.01355 9.61336 4.01355 9.61325 4.01355C9.61315 4.01355 9.61304 4.01355 9.61294 4.01355C9.61283 4.01355 9.61273 4.01355 9.61262 4.01355C9.61251 4.01355 9.61241 4.01355 9.6123 4.01355C9.6122 4.01355 9.61209 4.01355 9.61199 4.01355C9.61188 4.01355 9.61178 4.01355 9.61167 4.01355C9.61156 4.01355 9.61146 4.01355 9.61135 4.01355C9.61125 4.01355 9.61114 4.01355 9.61104 4.01355C9.61093 4.01355 9.61083 4.01355 9.61072 4.01355C9.61062 4.01355 9.61051 4.01355 9.6104 4.01355C9.6103 4.01355 9.61019 4.01355 9.61009 4.01355C9.60998 4.01355 9.60988 4.01355 9.60977 4.01355C9.60967 4.01355 9.60956 4.01355 9.60945 4.01355C9.60935 4.01355 9.60924 4.01355 9.60914 4.01355C9.60903 4.01355 9.60893 4.01355 9.60882 4.01355C9.60872 4.01355 9.60861 4.01355 9.6085 4.01355C9.6084 4.01355 9.60829 4.01355 9.60819 4.01355C9.60808 4.01355 9.60798 4.01355 9.60787 4.01355C9.60777 4.01355 9.60766 4.01355 9.60755 4.01355C9.60745 4.01355 9.60734 4.01355 9.60724 4.01355C9.60713 4.01355 9.60703 4.01355 9.60692 4.01355C9.60682 4.01355 9.60671 4.01355 9.6066 4.01355C9.6065 4.01355 9.60639 4.01355 9.60629 4.01355C9.60618 4.01355 9.60608 4.01355 9.60597 4.01355C9.60587 4.01355 9.60576 4.01355 9.60565 4.01355C9.60555 4.01355 9.60544 4.01355 9.60534 4.01355C9.60523 4.01355 9.60513 4.01355 9.60502 4.01355C9.60492 4.01355 9.60481 4.01355 9.6047 4.01355C9.6046 4.01355 9.60449 4.01355 9.60439 4.01355C9.60428 4.01355 9.60418 4.01355 9.60407 4.01355C9.60397 4.01355 9.60386 4.01355 9.60375 4.01355C9.60365 4.01355 9.60354 4.01355 9.60344 4.01355C9.60333 4.01355 9.60323 4.01355 9.60312 4.01355C9.60301 4.01355 9.60291 4.01355 9.6028 4.01355C9.6027 4.01355 9.60259 4.01355 9.60249 4.01355C9.60238 4.01355 9.60228 4.01355 9.60217 4.01355C9.60206 4.01355 9.60196 4.01355 9.60185 4.01355C9.60175 4.01355 9.60164 4.01355 9.60154 4.01355C9.60143 4.01355 9.60133 4.01355 9.60122 4.01355C9.60111 4.01355 9.60101 4.01355 9.6009 4.01355C9.6008 4.01355 9.60069 4.01355 9.60059 4.01355C9.60048 4.01355 9.60038 4.01355 9.60027 4.01355C9.60016 4.01355 9.60006 4.01355 9.59995 4.01355C9.59985 4.01355 9.59974 4.01355 9.59964 4.01355C9.59953 4.01355 9.59942 4.01355 9.59932 4.01355C9.59921 4.01355 9.59911 4.01355 9.599 4.01355C9.5989 4.01355 9.59879 4.01355 9.59869 4.01355C9.59858 4.01355 9.59847 4.01355 9.59837 4.01355C9.59826 4.01355 9.59816 4.01355 9.59805 4.01355C9.59795 4.01355 9.59784 4.01355 9.59773 4.01355C9.59763 4.01355 9.59752 4.01355 9.59742 4.01355C9.59731 4.01355 9.59721 4.01355 9.5971 4.01355C9.59699 4.01355 9.59689 4.01355 9.59678 4.01355C9.59668 4.01355 9.59657 4.01355 9.59647 4.01355C9.59636 4.01355 9.59626 4.01355 9.59615 4.01355C9.59604 4.01355 9.59594 4.01355 9.59583 4.01355C9.59573 4.01355 9.59562 4.01355 9.59552 4.01355C9.59541 4.01355 9.5953 4.01355 9.5952 4.01355C9.59509 4.01355 9.59499 4.01355 9.59488 4.01355C9.59478 4.01355 9.59467 4.01355 9.59456 4.01355C9.59446 4.01355 9.59435 4.01355 9.59425 4.01355C9.59414 4.01355 9.59404 4.01355 9.59393 4.01355C9.59383 4.01355 9.59372 4.01355 9.59361 4.01355C9.59351 4.01355 9.5934 4.01355 9.5933 4.01355C9.59319 4.01355 9.59309 4.01355 9.59298 4.01355C9.59287 4.01355 9.59277 4.01355 9.59266 4.01355C9.59256 4.01355 9.59245 4.01355 9.59235 4.01355C9.59224 4.01355 9.59213 4.01355 9.59203 4.01355C9.59192 4.01355 9.59182 4.01355 9.59171 4.01355C9.59161 4.01355 9.5915 4.01355 9.59139 4.01355C9.59129 4.01355 9.59118 4.01355 9.59108 4.01355C9.59097 4.01355 9.59087 4.01355 9.59076 4.01355C9.59066 4.01355 9.59055 4.01355 9.59044 4.01355C9.59034 4.01355 9.59023 4.01355 9.59013 4.01355C9.59002 4.01355 9.58992 4.01355 9.58981 4.01355C9.5897 4.01355 9.5896 4.01355 9.58949 4.01355C9.58939 4.01355 9.58928 4.01355 9.58918 4.01355C9.58907 4.01355 9.58896 4.01355 9.58886 4.01355C9.58875 4.01355 9.58865 4.01355 9.58854 4.01355C9.58844 4.01355 9.58833 4.01355 9.58822 4.01355C9.58812 4.01355 9.58801 4.01355 9.58791 4.01355C9.5878 4.01355 9.5877 4.01355 9.58759 4.01355C9.58748 4.01355 9.58738 4.01355 9.58727 4.01355C9.58717 4.01355 9.58706 4.01355 9.58696 4.01355C9.58685 4.01355 9.58674 4.01355 9.58664 4.01355C9.58653 4.01355 9.58643 4.01355 9.58632 4.01355C9.58622 4.01355 9.58611 4.01355 9.586 4.01355C9.5859 4.01355 9.58579 4.01355 9.58569 4.01355C9.58558 4.01355 9.58548 4.01355 9.58537 4.01355C9.58526 4.01355 9.58516 4.01355 9.58505 4.01355C9.58495 4.01355 9.58484 4.01355 9.58474 4.01355C9.58463 4.01355 9.58452 4.01355 9.58442 4.01355C9.58431 4.01355 9.58421 4.01355 9.5841 4.01355C9.584 4.01355 9.58389 4.01355 9.58378 4.01355C9.58368 4.01355 9.58357 4.01355 9.58347 4.01355C9.58336 4.01355 9.58325 4.01355 9.58315 4.01355C9.58304 4.01355 9.58294 4.01355 9.58283 4.01355C9.58273 4.01355 9.58262 4.01355 9.58251 4.01355C9.58241 4.01355 9.5823 4.01355 9.5822 4.01355C9.58209 4.01355 9.58199 4.01355 9.58188 4.01355C9.58177 4.01355 9.58167 4.01355 9.58156 4.01355C9.58146 4.01355 9.58135 4.01355 9.58125 4.01355C9.58114 4.01355 9.58103 4.01355 9.58093 4.01355C9.58082 4.01355 9.58072 4.01355 9.58061 4.01355C9.58051 4.01355 9.5804 4.01355 9.58029 4.01355C9.58019 4.01355 9.58008 4.01355 9.57998 4.01355C9.57987 4.01355 9.57976 4.01355 9.57966 4.01355C9.57955 4.01355 9.57945 4.01355 9.57934 4.01355C9.57924 4.01355 9.57913 4.01355 9.57902 4.01355C9.57892 4.01355 9.57881 4.01355 9.57871 4.01355C9.5786 4.01355 9.5785 4.01355 9.57839 4.01355C9.57828 4.01355 9.57818 4.01355 9.57807 4.01355C9.57797 4.01355 9.57786 4.01355 9.57775 4.01355C9.57765 4.01355 9.57754 4.01355 9.57744 4.01355C9.57733 4.01355 9.57723 4.01355 9.57712 4.01355C9.57701 4.01355 9.57691 4.01355 9.5768 4.01355C9.5767 4.01355 9.57659 4.01355 9.57649 4.01355C9.57638 4.01355 9.57627 4.01355 9.57617 4.01355C9.57606 4.01355 9.57596 4.01355 9.57585 4.01355C9.57574 4.01355 9.57564 4.01355 9.57553 4.01355C9.57543 4.01355 9.57532 4.01355 9.57522 4.01355C9.57511 4.01355 9.575 4.01355 9.5749 4.01355C9.57479 4.01355 9.57469 4.01355 9.57458 4.01355C9.57447 4.01355 9.57437 4.01355 9.57426 4.01355C9.57416 4.01355 9.57405 4.01355 9.57395 4.01355C9.57384 4.01355 9.57373 4.01355 9.57363 4.01355C9.57352 4.01355 9.57342 4.01355 9.57331 4.01355C9.5732 4.01355 9.5731 4.01355 9.57299 4.01355C9.57289 4.01355 9.57278 4.01355 9.57268 4.01355C9.57257 4.01355 9.57246 4.01355 9.57236 4.01355C9.57225 4.01355 9.57215 4.01355 9.57204 4.01355C9.57194 4.01355 9.57183 4.01355 9.57172 4.01355C9.57162 4.01355 9.57151 4.01355 9.57141 4.01355C9.5713 4.01355 9.57119 4.01355 9.57109 4.01355C9.57098 4.01355 9.57088 4.01355 9.57077 4.01355C9.57066 4.01355 9.57056 4.01355 9.57045 4.01355C9.57035 4.01355 9.57024 4.01355 9.57014 4.01355C9.57003 4.01355 9.56992 4.01355 9.56982 4.01355C9.56971 4.01355 9.56961 4.01355 9.5695 4.01355C9.56939 4.01355 9.56929 4.01355 9.56918 4.01355C9.56908 4.01355 9.56897 4.01355 9.56887 4.01355C9.56876 4.01355 9.56865 4.01355 9.56855 4.01355C9.56844 4.01355 9.56834 4.01355 9.56823 4.01355C9.56812 4.01355 9.56802 4.01355 9.56791 4.01355C9.56781 4.01355 9.5677 4.01355 9.5676 4.01355C9.56749 4.01355 9.56738 4.01355 9.56728 4.01355C9.56717 4.01355 9.56707 4.01355 9.56696 4.01355C9.56685 4.01355 9.56675 4.01355 9.56664 4.01355C9.56654 4.01355 9.56643 4.01355 9.56632 4.01355C9.56622 4.01355 9.56611 4.01355 9.56601 4.01355C9.5659 4.01355 9.56579 4.01355 9.56569 4.01355C9.56558 4.01355 9.56548 4.01355 9.56537 4.01355C9.56527 4.01355 9.56516 4.01355 9.56505 4.01355C9.56495 4.01355 9.56484 4.01355 9.56474 4.01355C9.56463 4.01355 9.56452 4.01355 9.56442 4.01355C9.56431 4.01355 9.56421 4.01355 9.5641 4.01355C9.56399 4.01355 9.56389 4.01355 9.56378 4.01355C9.56368 4.01355 9.56357 4.01355 9.56347 4.01355C9.56336 4.01355 9.56325 4.01355 9.56315 4.01355C9.56304 4.01355 9.56294 4.01355 9.56283 4.01355C9.56272 4.01355 9.56262 4.01355 9.56251 4.01355C9.56241 4.01355 9.5623 4.01355 9.56219 4.01355C9.56209 4.01355 9.56198 4.01355 9.56188 4.01355C9.56177 4.01355 9.56167 4.01355 9.56156 4.01355C9.56145 4.01355 9.56135 4.01355 9.56124 4.01355C9.56114 4.01355 9.56103 4.01355 9.56092 4.01355C9.56082 4.01355 9.56071 4.01355 9.56061 4.01355C9.5605 4.01355 9.56039 4.01355 9.56029 4.01355C9.56018 4.01355 9.56008 4.01355 9.55997 4.01355C9.55986 4.01355 9.55976 4.01355 9.55965 4.01355C9.55955 4.01355 9.55944 4.01355 9.55933 4.01355C9.55923 4.01355 9.55912 4.01355 9.55902 4.01355C9.55891 4.01355 9.5588 4.01355 9.5587 4.01355C9.55859 4.01355 9.55849 4.01355 9.55838 4.01355C9.55828 4.01355 9.55817 4.01355 9.55806 4.01355C9.55796 4.01355 9.55785 4.01355 9.55775 4.01355C9.55764 4.01355 9.55753 4.01355 9.55743 4.01355C9.55732 4.01355 9.55722 4.01355 9.55711 4.01355C9.557 4.01355 9.5569 4.01355 9.55679 4.01355C9.55669 4.01355 9.55658 4.01355 9.55647 4.01355C9.55637 4.01355 9.55626 4.01355 9.55616 4.01355C9.55605 4.01355 9.55594 4.01355 9.55584 4.01355C9.55573 4.01355 9.55563 4.01355 9.55552 4.01355C9.55541 4.01355 9.55531 4.01355 9.5552 4.01355C9.5551 4.01355 9.55499 4.01355 9.55488 4.01355C9.55478 4.01355 9.55467 4.01355 9.55457 4.01355C9.55446 4.01355 9.55435 4.01355 9.55425 4.01355C9.55414 4.01355 9.55404 4.01355 9.55393 4.01355C9.55382 4.01355 9.55372 4.01355 9.55361 4.01355C9.55351 4.01355 9.5534 4.01355 9.55329 4.01355C9.55319 4.01355 9.55308 4.01355 9.55298 4.01355C9.55287 4.01355 9.55276 4.01355 9.55266 4.01355C9.55255 4.01355 9.55245 4.01355 9.55234 4.01355C9.55223 4.01355 9.55213 4.01355 9.55202 4.01355C9.55192 4.01355 9.55181 4.01355 9.5517 4.01355C9.5516 4.01355 9.55149 4.01355 9.55139 4.01355C9.55128 4.01355 9.55117 4.01355 9.55107 4.01355C9.55096 4.01355 9.55086 4.01355 9.55075 4.01355C9.55064 4.01355 9.55054 4.01355 9.55043 4.01355C9.55033 4.01355 9.55022 4.01355 9.55011 4.01355C9.55001 4.01355 9.5499 4.01355 9.5498 4.01355C9.54969 4.01355 9.54958 4.01355 9.54948 4.01355C9.54937 4.01355 9.54927 4.01355 9.54916 4.01355C9.54905 4.01355 9.54895 4.01355 9.54884 4.01355C9.54874 4.01355 9.54863 4.01355 9.54852 4.01355C9.54842 4.01355 9.54831 4.01355 9.54821 4.01355C9.5481 4.01355 9.54799 4.01355 9.54789 4.01355C9.54778 4.01355 9.54768 4.01355 9.54757 4.01355C9.54746 4.01355 9.54736 4.01355 9.54725 4.01355C9.54715 4.01355 9.54704 4.01355 9.54693 4.01355C9.54683 4.01355 9.54672 4.01355 9.54662 4.01355C9.54651 4.01355 9.5464 4.01355 9.5463 4.01355C9.54619 4.01355 9.54609 4.01355 9.54598 4.01355C9.54587 4.01355 9.54577 4.01355 9.54566 4.01355C9.54556 4.01355 9.54545 4.01355 9.54534 4.01355C9.54524 4.01355 9.54513 4.01355 9.54502 4.01355C9.54492 4.01355 9.54481 4.01355 9.54471 4.01355C9.5446 4.01355 9.54449 4.01355 9.54439 4.01355C9.54428 4.01355 9.54418 4.01355 9.54407 4.01355C9.54396 4.01355 9.54386 4.01355 9.54375 4.01355C9.54365 4.01355 9.54354 4.01355 9.54343 4.01355C9.54333 4.01355 9.54322 4.01355 9.54312 4.01355C9.54301 4.01355 9.5429 4.01355 9.5428 4.01355C9.54269 4.01355 9.54259 4.01355 9.54248 4.01355C9.54237 4.01355 9.54227 4.01355 9.54216 4.01355C9.54206 4.01355 9.54195 4.01355 9.54184 4.01355C9.54174 4.01355 9.54163 4.01355 9.54152 4.01355C9.54142 4.01355 9.54131 4.01355 9.54121 4.01355C9.5411 4.01355 9.54099 4.01355 9.54089 4.01355C9.54078 4.01355 9.54068 4.01355 9.54057 4.01355C9.54046 4.01355 9.54036 4.01355 9.54025 4.01355C9.54015 4.01355 9.54004 4.01355 9.53993 4.01355C9.53983 4.01355 9.53972 4.01355 9.53962 4.01355C9.53951 4.01355 9.5394 4.01355 9.5393 4.01355C9.53919 4.01355 9.53908 4.01355 9.53898 4.01355C9.53887 4.01355 9.53877 4.01355 9.53866 4.01355C9.53855 4.01355 9.53845 4.01355 9.53834 4.01355C9.53824 4.01355 9.53813 4.01355 9.53802 4.01355C9.53792 4.01355 9.53781 4.01355 9.53771 4.01355C9.5376 4.01355 9.53749 4.01355 9.53739 4.01355C9.53728 4.01355 9.53717 4.01355 9.53707 4.01355C9.53696 4.01355 9.53686 4.01355 9.53675 4.01355C9.53664 4.01355 9.53654 4.01355 9.53643 4.01355C9.53633 4.01355 9.53622 4.01355 9.53611 4.01355C9.53601 4.01355 9.5359 4.01355 9.5358 4.01355C9.53569 4.01355 9.53558 4.01355 9.53548 4.01355C9.53537 4.01355 9.53526 4.01355 9.53516 4.01355C9.53505 4.01355 9.53495 4.01355 9.53484 4.01355C9.53473 4.01355 9.53463 4.01355 9.53452 4.01355C9.53442 4.01355 9.53431 4.01355 9.5342 4.01355C9.5341 4.01355 9.53399 4.01355 9.53388 4.01355C9.53378 4.01355 9.53367 4.01355 9.53357 4.01355C9.53346 4.01355 9.53335 4.01355 9.53325 4.01355C9.53314 4.01355 9.53304 4.01355 9.53293 4.01355C9.53282 4.01355 9.53272 4.01355 9.53261 4.01355C9.5325 4.01355 9.5324 4.01355 9.53229 4.01355C9.53219 4.01355 9.53208 4.01355 9.53197 4.01355C9.53187 4.01355 9.53176 4.01355 9.53166 4.01355C9.53155 4.01355 9.53144 4.01355 9.53134 4.01355C9.53123 4.01355 9.53112 4.01355 9.53102 4.01355C9.53091 4.01355 9.53081 4.01355 9.5307 4.01355C9.53059 4.01355 9.53049 4.01355 9.53038 4.01355C9.53028 4.01355 9.53017 4.01355 9.53006 4.01355C9.52996 4.01355 9.52985 4.01355 9.52974 4.01355C9.52964 4.01355 9.52953 4.01355 9.52943 4.01355C9.52932 4.01355 9.52921 4.01355 9.52911 4.01355C9.529 4.01355 9.52889 4.01355 9.52879 4.01355C9.52868 4.01355 9.52858 4.01355 9.52847 4.01355C9.52836 4.01355 9.52826 4.01355 9.52815 4.01355C9.52805 4.01355 9.52794 4.01355 9.52783 4.01355C9.52773 4.01355 9.52762 4.01355 9.52751 4.01355C9.52741 4.01355 9.5273 4.01355 9.5272 4.01355C9.52709 4.01355 9.52698 4.01355 9.52688 4.01355C9.52677 4.01355 9.52667 4.01355 9.52656 4.01355C9.52645 4.01355 9.52635 4.01355 9.52624 4.01355C9.52613 4.01355 9.52603 4.01355 9.52592 4.01355C9.52582 4.01355 9.52571 4.01355 9.5256 4.01355C9.5255 4.01355 9.52539 4.01355 9.52528 4.01355C9.52518 4.01355 9.52507 4.01355 9.52497 4.01355C9.52486 4.01355 9.52475 4.01355 9.52465 4.01355C9.52454 4.01355 9.52443 4.01355 9.52433 4.01355C9.52422 4.01355 9.52412 4.01355 9.52401 4.01355C9.5239 4.01355 9.5238 4.01355 9.52369 4.01355C9.52358 4.01355 9.52348 4.01355 9.52337 4.01355C9.52327 4.01355 9.52316 4.01355 9.52305 4.01355C9.52295 4.01355 9.52284 4.01355 9.52274 4.01355C9.52263 4.01355 9.52252 4.01355 9.52242 4.01355C9.52231 4.01355 9.5222 4.01355 9.5221 4.01355C9.52199 4.01355 9.52189 4.01355 9.52178 4.01355C9.52167 4.01355 9.52157 4.01355 9.52146 4.01355C9.52135 4.01355 9.52125 4.01355 9.52114 4.01355C9.52104 4.01355 9.52093 4.01355 9.52082 4.01355C9.52072 4.01355 9.52061 4.01355 9.5205 4.01355C9.5204 4.01355 9.52029 4.01355 9.52019 4.01355C9.52008 4.01355 9.51997 4.01355 9.51987 4.01355C9.51976 4.01355 9.51965 4.01355 9.51955 4.01355C9.51944 4.01355 9.51934 4.01355 9.51923 4.01355C9.51912 4.01355 9.51902 4.01355 9.51891 4.01355C9.5188 4.01355 9.5187 4.01355 9.51859 4.01355C9.51849 4.01355 9.51838 4.01355 9.51827 4.01355C9.51817 4.01355 9.51806 4.01355 9.51795 4.01355C9.51785 4.01355 9.51774 4.01355 9.51763 4.01355C9.51753 4.01355 9.51742 4.01355 9.51732 4.01355C9.51721 4.01355 9.5171 4.01355 9.517 4.01355C9.51689 4.01355 9.51678 4.01355 9.51668 4.01355C9.51657 4.01355 9.51647 4.01355 9.51636 4.01355C9.51625 4.01355 9.51615 4.01355 9.51604 4.01355C9.51593 4.01355 9.51583 4.01355 9.51572 4.01355C9.51562 4.01355 9.51551 4.01355 9.5154 4.01355C9.5153 4.01355 9.51519 4.01355 9.51508 4.01355C9.51498 4.01355 9.51487 4.01355 9.51477 4.01355C9.51466 4.01355 9.51455 4.01355 9.51445 4.01355C9.51434 4.01355 9.51423 4.01355 9.51413 4.01355C9.51402 4.01355 9.51392 4.01355 9.51381 4.01355C9.5137 4.01355 9.5136 4.01355 9.51349 4.01355C9.51338 4.01355 9.51328 4.01355 9.51317 4.01355C9.51306 4.01355 9.51296 4.01355 9.51285 4.01355C9.51275 4.01355 9.51264 4.01355 9.51253 4.01355C9.51243 4.01355 9.51232 4.01355 9.51221 4.01355C9.51211 4.01355 9.512 4.01355 9.5119 4.01355C9.51179 4.01355 9.51168 4.01355 9.51158 4.01355C9.51147 4.01355 9.51136 4.01355 9.51126 4.01355C9.51115 4.01355 9.51104 4.01355 9.51094 4.01355C9.51083 4.01355 9.51073 4.01355 9.51062 4.01355C9.51051 4.01355 9.51041 4.01355 9.5103 4.01355C9.51019 4.01355 9.51009 4.01355 9.50998 4.01355C9.50987 4.01355 9.50977 4.01355 9.50966 4.01355C9.50956 4.01355 9.50945 4.01355 9.50934 4.01355C9.50924 4.01355 9.50913 4.01355 9.50902 4.01355C9.50892 4.01355 9.50881 4.01355 9.50871 4.01355C9.5086 4.01355 9.50849 4.01355 9.50839 4.01355C9.50828 4.01355 9.50817 4.01355 9.50807 4.01355C9.50796 4.01355 9.50785 4.01355 9.50775 4.01355C9.50764 4.01355 9.50754 4.01355 9.50743 4.01355C9.50732 4.01355 9.50722 4.01355 9.50711 4.01355C9.507 4.01355 9.5069 4.01355 9.50679 4.01355C9.50668 4.01355 9.50658 4.01355 9.50647 4.01355C9.50637 4.01355 9.50626 4.01355 9.50615 4.01355C9.50605 4.01355 9.50594 4.01355 9.50583 4.01355C9.50573 4.01355 9.50562 4.01355 9.50551 4.01355C9.50541 4.01355 9.5053 4.01355 9.5052 4.01355C9.50509 4.01355 9.50498 4.01355 9.50488 4.01355C9.50477 4.01355 9.50466 4.01355 9.50456 4.01355C9.50445 4.01355 9.50434 4.01355 9.50424 4.01355C9.50413 4.01355 9.50402 4.01355 9.50392 4.01355C9.50381 4.01355 9.50371 4.01355 9.5036 4.01355C9.50349 4.01355 9.50339 4.01355 9.50328 4.01355C9.50317 4.01355 9.50307 4.01355 9.50296 4.01355C9.50285 4.01355 9.50275 4.01355 9.50264 4.01355C9.50254 4.01355 9.50243 4.01355 9.50232 4.01355C9.50222 4.01355 9.50211 4.01355 9.502 4.01355C9.5019 4.01355 9.50179 4.01355 9.50168 4.01355C9.50158 4.01355 9.50147 4.01355 9.50137 4.01355C9.50126 4.01355 9.50115 4.01355 9.50105 4.01355C9.50094 4.01355 9.50083 4.01355 9.50073 4.01355C9.50062 4.01355 9.50051 4.01355 9.50041 4.01355C9.5003 4.01355 9.5002 4.01355 9.50009 4.01355C9.49998 4.01355 9.49988 4.01355 9.49977 4.01355C9.49966 4.01355 9.49956 4.01355 9.49945 4.01355C9.49934 4.01355 9.49924 4.01355 9.49913 4.01355C9.49902 4.01355 9.49892 4.01355 9.49881 4.01355C9.4987 4.01355 9.4986 4.01355 9.49849 4.01355C9.49839 4.01355 9.49828 4.01355 9.49817 4.01355C9.49807 4.01355 9.49796 4.01355 9.49785 4.01355C9.49775 4.01355 9.49764 4.01355 9.49753 4.01355C9.49743 4.01355 9.49732 4.01355 9.49722 4.01355C9.49711 4.01355 9.497 4.01355 9.4969 4.01355C9.49679 4.01355 9.49668 4.01355 9.49658 4.01355C9.49647 4.01355 9.49636 4.01355 9.49626 4.01355C9.49615 4.01355 9.49604 4.01355 9.49594 4.01355C9.49583 4.01355 9.49573 4.01355 9.49562 4.01355C9.49551 4.01355 9.49541 4.01355 9.4953 4.01355C9.49519 4.01355 9.49509 4.01355 9.49498 4.01355C9.49487 4.01355 9.49477 4.01355 9.49466 4.01355C9.49455 4.01355 9.49445 4.01355 9.49434 4.01355C9.49423 4.01355 9.49413 4.01355 9.49402 4.01355C9.49392 4.01355 9.49381 4.01355 9.4937 4.01355C9.4936 4.01355 9.49349 4.01355 9.49338 4.01355C9.49328 4.01355 9.49317 4.01355 9.49306 4.01355C9.49296 4.01355 9.49285 4.01355 9.49274 4.01355C9.49264 4.01355 9.49253 4.01355 9.49242 4.01355C9.49232 4.01355 9.49221 4.01355 9.49211 4.01355C9.492 4.01355 9.49189 4.01355 9.49179 4.01355C9.49168 4.01355 9.49157 4.01355 9.49147 4.01355C9.49136 4.01355 9.49125 4.01355 9.49115 4.01355C9.49104 4.01355 9.49093 4.01355 9.49083 4.01355C9.49072 4.01355 9.49061 4.01355 9.49051 4.01355C9.4904 4.01355 9.49029 4.01355 9.49019 4.01355C9.49008 4.01355 9.48998 4.01355 9.48987 4.01355C9.48976 4.01355 9.48966 4.01355 9.48955 4.01355C9.48944 4.01355 9.48934 4.01355 9.48923 4.01355C9.48912 4.01355 9.48902 4.01355 9.48891 4.01355C9.4888 4.01355 9.4887 4.01355 9.48859 4.01355C9.48848 4.01355 9.48838 4.01355 9.48827 4.01355C9.48816 4.01355 9.48806 4.01355 9.48795 4.01355C9.48785 4.01355 9.48774 4.01355 9.48763 4.01355C9.48753 4.01355 9.48742 4.01355 9.48731 4.01355C9.48721 4.01355 9.4871 4.01355 9.48699 4.01355C9.48689 4.01355 9.48678 4.01355 9.48667 4.01355C9.48657 4.01355 9.48646 4.01355 9.48635 4.01355C9.48625 4.01355 9.48614 4.01355 9.48603 4.01355C9.48593 4.01355 9.48582 4.01355 9.48572 4.01355C9.48561 4.01355 9.4855 4.01355 9.4854 4.01355C9.48529 4.01355 9.48518 4.01355 9.48508 4.01355C9.48497 4.01355 9.48486 4.01355 9.48476 4.01355C9.48465 4.01355 9.48454 4.01355 9.48444 4.01355C9.48433 4.01355 9.48422 4.01355 9.48412 4.01355C9.48401 4.01355 9.4839 4.01355 9.4838 4.01355C9.48369 4.01355 9.48358 4.01355 9.48348 4.01355C9.48337 4.01355 9.48326 4.01355 9.48316 4.01355C9.48305 4.01355 9.48295 4.01355 9.48284 4.01355C9.48273 4.01355 9.48263 4.01355 9.48252 4.01355C9.48241 4.01355 9.48231 4.01355 9.4822 4.01355C9.48209 4.01355 9.48199 4.01355 9.48188 4.01355C9.48177 4.01355 9.48167 4.01355 9.48156 4.01355C9.48145 4.01355 9.48135 4.01355 9.48124 4.01355C9.48113 4.01355 9.48103 4.01355 9.48092 4.01355C9.48081 4.01355 9.48071 4.01355 9.4806 4.01355C9.48049 4.01355 9.48039 4.01355 9.48028 4.01355C9.48017 4.01355 9.48007 4.01355 9.47996 4.01355C9.47986 4.01355 9.47975 4.01355 9.47964 4.01355C9.47954 4.01355 9.47943 4.01355 9.47932 4.01355C9.47922 4.01355 9.47911 4.01355 9.479 4.01355C9.4789 4.01355 9.47879 4.01355 9.47868 4.01355C9.47858 4.01355 9.47847 4.01355 9.47836 4.01355C9.47826 4.01355 9.47815 4.01355 9.47804 4.01355C9.47794 4.01355 9.47783 4.01355 9.47772 4.01355C9.47762 4.01355 9.47751 4.01355 9.4774 4.01355C9.4773 4.01355 9.47719 4.01355 9.47708 4.01355C9.47698 4.01355 9.47687 4.01355 9.47676 4.01355C9.47666 4.01355 9.47655 4.01355 9.47644 4.01355C9.47634 4.01355 9.47623 4.01355 9.47612 4.01355C9.47602 4.01355 9.47591 4.01355 9.4758 4.01355C9.4757 4.01355 9.47559 4.01355 9.47548 4.01355C9.47538 4.01355 9.47527 4.01355 9.47516 4.01355C9.47506 4.01355 9.47495 4.01355 9.47484 4.01355C9.47474 4.01355 9.47463 4.01355 9.47453 4.01355C9.47442 4.01355 9.47431 4.01355 9.47421 4.01355C9.4741 4.01355 9.47399 4.01355 9.47389 4.01355C9.47378 4.01355 9.47367 4.01355 9.47357 4.01355C9.47346 4.01355 9.47335 4.01355 9.47325 4.01355C9.47314 4.01355 9.47303 4.01355 9.47293 4.01355C9.47282 4.01355 9.47271 4.01355 9.47261 4.01355C9.4725 4.01355 9.47239 4.01355 9.47229 4.01355C9.47218 4.01355 9.47207 4.01355 9.47197 4.01355C9.47186 4.01355 9.47175 4.01355 9.47165 4.01355C9.47154 4.01355 9.47143 4.01355 9.47133 4.01355C9.47122 4.01355 9.47111 4.01355 9.47101 4.01355C9.4709 4.01355 9.47079 4.01355 9.47069 4.01355C9.47058 4.01355 9.47047 4.01355 9.47037 4.01355C9.47026 4.01355 9.47015 4.01355 9.47005 4.01355C9.46994 4.01355 9.46983 4.01355 9.46973 4.01355C9.46962 4.01355 9.46951 4.01355 9.46941 4.01355C9.4693 4.01355 9.46919 4.01355 9.46909 4.01355C9.46898 4.01355 9.46887 4.01355 9.46877 4.01355C9.46866 4.01355 9.46855 4.01355 9.46845 4.01355C9.46834 4.01355 9.46823 4.01355 9.46813 4.01355C9.46802 4.01355 9.46791 4.01355 9.46781 4.01355C9.4677 4.01355 9.46759 4.01355 9.46749 4.01355C9.46738 4.01355 9.46727 4.01355 9.46717 4.01355C9.46706 4.01355 9.46695 4.01355 9.46685 4.01355C9.46674 4.01355 9.46663 4.01355 9.46653 4.01355C9.46642 4.01355 9.46631 4.01355 9.46621 4.01355C9.4661 4.01355 9.46599 4.01355 9.46589 4.01355C9.46578 4.01355 9.46567 4.01355 9.46557 4.01355C9.46546 4.01355 9.46535 4.01355 9.46525 4.01355C9.46514 4.01355 9.46503 4.01355 9.46493 4.01355C9.46482 4.01355 9.46471 4.01355 9.46461 4.01355C9.4645 4.01355 9.46439 4.01355 9.46429 4.01355C9.46418 4.01355 9.46407 4.01355 9.46397 4.01355C9.46386 4.01355 9.46375 4.01355 9.46365 4.01355C9.46354 4.01355 9.46343 4.01355 9.46333 4.01355C9.46322 4.01355 9.46311 4.01355 9.46301 4.01355C9.4629 4.01355 9.46279 4.01355 9.46269 4.01355C9.46258 4.01355 9.46247 4.01355 9.46237 4.01355C9.46226 4.01355 9.46215 4.01355 9.46205 4.01355C9.46194 4.01355 9.46183 4.01355 9.46173 4.01355C9.46162 4.01355 9.46151 4.01355 9.46141 4.01355C9.4613 4.01355 9.46119 4.01355 9.46108 4.01355C9.46098 4.01355 9.46087 4.01355 9.46076 4.01355C9.46066 4.01355 9.46055 4.01355 9.46044 4.01355C9.46034 4.01355 9.46023 4.01355 9.46012 4.01355C9.46002 4.01355 9.45991 4.01355 9.4598 4.01355C9.4597 4.01355 9.45959 4.01355 9.45948 4.01355C9.45938 4.01355 9.45927 4.01355 9.45916 4.01355C9.45906 4.01355 9.45895 4.01355 9.45884 4.01355C9.45874 4.01355 9.45863 4.01355 9.45852 4.01355C9.45842 4.01355 9.45831 4.01355 9.4582 4.01355C9.4581 4.01355 9.45799 4.01355 9.45788 4.01355C9.45778 4.01355 9.45767 4.01355 9.45756 4.01355C9.45746 4.01355 9.45735 4.01355 9.45724 4.01355C9.45714 4.01355 9.45703 4.01355 9.45692 4.01355C9.45682 4.01355 9.45671 4.01355 9.4566 4.01355C9.4565 4.01355 9.45639 4.01355 9.45628 4.01355C9.45617 4.01355 9.45607 4.01355 9.45596 4.01355C9.45585 4.01355 9.45575 4.01355 9.45564 4.01355C9.45553 4.01355 9.45543 4.01355 9.45532 4.01355C9.45521 4.01355 9.45511 4.01355 9.455 4.01355V5.51355ZM9.57455 5.51229C10.2641 5.5523 10.9332 5.26964 11.3851 4.74732L10.2509 3.76578C10.1037 3.93582 9.88593 4.02784 9.66145 4.01481L9.57455 5.51229ZM11.3869 4.74525C11.936 4.10609 12.7397 3.74263 13.5822 3.7525L13.5998 2.2526C12.3138 2.23754 11.0871 2.79229 10.2491 3.76785L11.3869 4.74525ZM13.6199 3.752C15.064 3.69631 16.281 4.81915 16.3417 6.26301L17.8403 6.20009C17.745 3.93052 15.832 2.16558 13.5621 2.25311L13.6199 3.752ZM16.3413 6.25145C16.3617 7.01982 16.7729 7.72462 17.4318 8.12045L18.2042 6.83465C17.9846 6.70271 17.8475 6.46778 17.8407 6.21165L16.3413 6.25145ZM17.4517 8.132C17.9379 8.40418 18.2422 8.91493 18.2501 9.47213L19.7499 9.45098C19.7345 8.35836 19.1378 7.35682 18.1843 6.8231L17.4517 8.132ZM18.2507 9.43031C18.2116 10.3678 17.4214 11.0971 16.4838 11.0611L16.4262 12.56C18.1898 12.6277 19.6758 11.2561 19.7493 9.4928L18.2507 9.43031ZM7.546 12.5606H16.455V11.0606H7.546V12.5606ZM6.86539 12.1256L10.8854 20.8096L12.2466 20.1795L8.22661 11.4955L6.86539 12.1256ZM10.8847 20.808C11.1582 21.4027 11.7623 21.7748 12.4165 21.7517L12.3634 20.2526C12.3139 20.2544 12.2681 20.2262 12.2473 20.1811L10.8847 20.808ZM12.4165 21.7517C13.0707 21.7285 13.647 21.3146 13.8778 20.7021L12.4742 20.1731C12.4567 20.2195 12.413 20.2508 12.3634 20.2526L12.4165 21.7517ZM13.8771 20.704L17.1561 12.077L15.7539 11.5441L12.4749 20.1711L13.8771 20.704Z" fill="currentColor"/>
</svg>
