<svg width="24" height="24" viewBox="0 0 24 24" fill="none" xmlns="http://www.w3.org/2000/svg">
<path fill-rule="evenodd" clip-rule="evenodd" d="M15 5H9C6.79086 5 5 6.79086 5 9V15C5 17.2091 6.79086 19 9 19H15C17.2091 19 19 17.2091 19 15V9C19 6.79086 17.2091 5 15 5Z" stroke="currentColor" stroke-width="1.5" stroke-linecap="round" stroke-linejoin="round"/>
<path fill-rule="evenodd" clip-rule="evenodd" d="M12 15C10.3431 15 9 13.6569 9 12C9 10.3431 10.3431 9 12 9C13.6569 9 15 10.3431 15 12C15 12.7956 14.6839 13.5587 14.1213 14.1213C13.5587 14.6839 12.7956 15 12 15Z" stroke="currentColor" stroke-width="1.5" stroke-linecap="round" stroke-linejoin="round"/>
<rect x="15" y="9" width="2" height="2" rx="1" transform="rotate(-90 15 9)" fill="currentColor"/>
<rect x="15.5" y="8.5" width="1" height="1" rx="0.5" transform="rotate(-90 15.5 8.5)" stroke="currentColor" stroke-linecap="round"/>
</svg>
