<svg width="24" height="24" viewBox="0 0 24 24" fill="none" xmlns="http://www.w3.org/2000/svg">
<path fill-rule="evenodd" clip-rule="evenodd" d="M6.5 19C5.9641 19 5.46891 18.7141 5.20096 18.25C4.93301 17.7859 4.93301 17.2141 5.20096 16.75C5.46891 16.2859 5.9641 16 6.5 16H17.5C18.3284 16 19 16.6716 19 17.5C19 18.3284 18.3284 19 17.5 19H6.5Z" stroke="currentColor" stroke-width="1.5" stroke-linecap="round" stroke-linejoin="round"/>
<path fill-rule="evenodd" clip-rule="evenodd" d="M5 8C6.265 10.228 9.065 13.569 12 8C14.935 13.569 17.735 10.228 19 8L17.6 16H6.4L5 8Z" stroke="currentColor" stroke-width="1.5" stroke-linecap="round" stroke-linejoin="round"/>
<path fill-rule="evenodd" clip-rule="evenodd" d="M12 8C11.1716 8 10.5 7.32843 10.5 6.5C10.5 5.67157 11.1716 5 12 5C12.8284 5 13.5 5.67157 13.5 6.5C13.5 6.89782 13.342 7.27936 13.0607 7.56066C12.7794 7.84196 12.3978 8 12 8Z" stroke="currentColor" stroke-width="1.5" stroke-linecap="round" stroke-linejoin="round"/>
<path fill-rule="evenodd" clip-rule="evenodd" d="M19 8C18.4477 8 18 7.55228 18 7C18 6.44772 18.4477 6 19 6C19.5523 6 20 6.44772 20 7C20 7.26522 19.8946 7.51957 19.7071 7.70711C19.5196 7.89464 19.2652 8 19 8Z" stroke="currentColor" stroke-width="1.5" stroke-linecap="round" stroke-linejoin="round"/>
<path fill-rule="evenodd" clip-rule="evenodd" d="M5 8C4.44772 8 4 7.55228 4 7C4 6.44772 4.44772 6 5 6C5.55228 6 6 6.44772 6 7C6 7.26522 5.89464 7.51957 5.70711 7.70711C5.51957 7.89464 5.26522 8 5 8Z" stroke="currentColor" stroke-width="1.5" stroke-linecap="round" stroke-linejoin="round"/>
</svg>
