<svg width="24" height="24" viewBox="0 0 24 24" fill="none" xmlns="http://www.w3.org/2000/svg">
<path d="M10.25 9.02609L9.50135 8.98104C9.50045 8.99604 9.5 9.01107 9.5 9.02609H10.25ZM9.71578 8.10171L9.38104 8.77286L9.38104 8.77286L9.71578 8.10171ZM8.656 8.23109L8.16963 7.66018C8.16481 7.66428 8.16005 7.66844 8.15534 7.67266L8.656 8.23109ZM5.35 11.1951L4.84934 10.6367L4.84814 10.6377L5.35 11.1951ZM5 11.9901L5.75008 11.9963L5.74997 11.9839L5 11.9901ZM5.35 12.7851L4.84813 13.3424L4.84943 13.3436L5.35 12.7851ZM8.656 15.7481L8.15543 16.3066C8.16011 16.3108 8.16484 16.3149 8.16963 16.319L8.656 15.7481ZM9.71578 15.8775L9.38104 15.2063V15.2063L9.71578 15.8775ZM10.25 14.9531H9.5C9.5 14.9681 9.50045 14.9831 9.50135 14.9981L10.25 14.9531ZM10.25 11.2401C9.83579 11.2401 9.5 11.5759 9.5 11.9901C9.5 12.4043 9.83579 12.7401 10.25 12.7401V11.2401ZM19 12.7401C19.4142 12.7401 19.75 12.4043 19.75 11.9901C19.75 11.5759 19.4142 11.2401 19 11.2401V12.7401ZM11 11.9901V9.02609H9.5V11.9901L11 11.9901ZM10.9986 9.07114C11.04 8.38367 10.6668 7.73794 10.0505 7.43055L9.38104 8.77286C9.45925 8.81187 9.5066 8.89381 9.50135 8.98104L10.9986 9.07114ZM10.0505 7.43055C9.4342 7.12317 8.69388 7.21355 8.16963 7.66018L9.14237 8.802C9.2089 8.74533 9.30284 8.73386 9.38104 8.77286L10.0505 7.43055ZM8.15534 7.67266L4.84934 10.6367L5.85066 11.7535L9.15666 8.78952L8.15534 7.67266ZM4.84814 10.6377C4.46349 10.9841 4.24573 11.4787 4.25003 11.9963L5.74997 11.9839C5.74924 11.8957 5.78634 11.8114 5.85186 11.7524L4.84814 10.6377ZM4.25003 11.9839C4.24573 12.5015 4.46349 12.9961 4.84814 13.3424L5.85186 12.2277C5.78634 12.1687 5.74924 12.0845 5.74997 11.9963L4.25003 11.9839ZM4.84943 13.3436L8.15543 16.3066L9.15656 15.1896L5.85056 12.2266L4.84943 13.3436ZM8.16963 16.319C8.69389 16.7656 9.4342 16.856 10.0505 16.5486L9.38104 15.2063C9.30284 15.2453 9.2089 15.2339 9.14237 15.1772L8.16963 16.319ZM10.0505 16.5486C10.6668 16.2412 11.04 15.5955 10.9986 14.908L9.50135 14.9981C9.5066 15.0854 9.45925 15.1673 9.38104 15.2063L10.0505 16.5486ZM11 14.9531V11.9901L9.5 11.9901V14.9531L11 14.9531ZM10.25 12.7401H19V11.2401H10.25V12.7401Z" fill="currentColor"/>
</svg>
