<svg width="24" height="24" viewBox="0 0 24 24" fill="none" xmlns="http://www.w3.org/2000/svg">
<path fill-rule="evenodd" clip-rule="evenodd" d="M13.167 18.086C13.1891 18.5672 12.8181 18.9757 12.337 19H10.664C10.1829 18.9757 9.81191 18.5672 9.83399 18.086V16.311C7.47523 15.4454 6.13685 12.9522 6.71885 10.508C7.30086 8.06376 9.61925 6.44131 12.115 6.73167C14.6107 7.02203 16.4947 9.13341 16.5 11.646C16.4934 13.7513 15.1565 15.6224 13.167 16.311V18.086Z" stroke="currentColor" stroke-width="1.5" stroke-linecap="round" stroke-linejoin="round"/>
<path d="M13.167 17.061C13.5812 17.061 13.917 16.7252 13.917 16.311C13.917 15.8968 13.5812 15.561 13.167 15.561V17.061ZM9.833 15.561C9.41879 15.561 9.083 15.8968 9.083 16.311C9.083 16.7252 9.41879 17.061 9.833 17.061V15.561ZM21 12.396C21.4142 12.396 21.75 12.0602 21.75 11.646C21.75 11.2318 21.4142 10.896 21 10.896V12.396ZM19 10.896C18.5858 10.896 18.25 11.2318 18.25 11.646C18.25 12.0602 18.5858 12.396 19 12.396V10.896ZM4 12.396C4.41421 12.396 4.75 12.0602 4.75 11.646C4.75 11.2318 4.41421 10.896 4 10.896V12.396ZM2 10.896C1.58579 10.896 1.25 11.2318 1.25 11.646C1.25 12.0602 1.58579 12.396 2 12.396V10.896ZM18.7449 5.53371C19.0397 5.24269 19.0427 4.76783 18.7517 4.47307C18.4607 4.17831 17.9858 4.17528 17.6911 4.46629L18.7449 5.53371ZM16.2731 5.86629C15.9783 6.15731 15.9753 6.63217 16.2663 6.92693C16.5573 7.22169 17.0322 7.22472 17.3269 6.93371L16.2731 5.86629ZM6.72768 17.426C7.02203 17.1345 7.02439 16.6597 6.73296 16.3653C6.44153 16.071 5.96666 16.0686 5.67231 16.36L6.72768 17.426ZM4.25831 17.76C3.96397 18.0515 3.96161 18.5263 4.25304 18.8207C4.54447 19.115 5.01934 19.1174 5.31369 18.826L4.25831 17.76ZM17.6933 18.826C17.9877 19.1174 18.4625 19.115 18.754 18.8207C19.0454 18.5263 19.043 18.0515 18.7487 17.76L17.6933 18.826ZM17.3347 16.36C17.0403 16.0686 16.5655 16.071 16.274 16.3653C15.9826 16.6597 15.985 17.1345 16.2793 17.426L17.3347 16.36ZM5.67307 6.93371C5.96783 7.22472 6.44269 7.22169 6.73371 6.92693C7.02472 6.63217 7.02169 6.15731 6.72693 5.86629L5.67307 6.93371ZM5.30893 4.46629C5.01417 4.17528 4.53931 4.17831 4.24829 4.47307C3.95728 4.76783 3.96031 5.24269 4.25507 5.53371L5.30893 4.46629ZM13.167 15.561H9.833V17.061H13.167V15.561ZM21 10.896H19V12.396H21V10.896ZM4 10.896H2V12.396H4V10.896ZM17.6911 4.46629L16.2731 5.86629L17.3269 6.93371L18.7449 5.53371L17.6911 4.46629ZM5.67231 16.36L4.25831 17.76L5.31369 18.826L6.72768 17.426L5.67231 16.36ZM18.7487 17.76L17.3347 16.36L16.2793 17.426L17.6933 18.826L18.7487 17.76ZM6.72693 5.86629L5.30893 4.46629L4.25507 5.53371L5.67307 6.93371L6.72693 5.86629Z" fill="currentColor"/>
</svg>
