<svg width="24" height="24" viewBox="0 0 24 24" fill="none" xmlns="http://www.w3.org/2000/svg">
<path fill-rule="evenodd" clip-rule="evenodd" d="M9.0852 17.982L7.3182 18.882C7.24952 18.9162 7.16799 18.9121 7.10305 18.8713C7.03811 18.8304 6.99914 18.7587 7.0002 18.682V5.955C6.9896 5.4384 7.39961 5.01093 7.9162 5H17.0832C17.5998 5.01093 18.0098 5.4384 17.9992 5.955V18.682C18.0003 18.7587 17.9613 18.8304 17.8963 18.8713C17.8314 18.9121 17.7499 18.9162 17.6812 18.882L15.9142 17.982C15.8438 17.9461 15.7595 17.9514 15.6942 17.996L14.2722 18.962C14.1986 19.0121 14.1018 19.0121 14.0282 18.962L12.6222 18.007C12.5486 17.9569 12.4518 17.9569 12.3782 18.007L10.9722 18.962C10.8986 19.0121 10.8018 19.0121 10.7282 18.962L9.3052 18C9.2407 17.9542 9.1563 17.9472 9.0852 17.982Z" stroke="currentColor" stroke-width="1.5" stroke-linecap="round" stroke-linejoin="round"/>
<path d="M9.99915 13.25C9.58493 13.25 9.24915 13.5858 9.24915 14C9.24915 14.4142 9.58493 14.75 9.99915 14.75V13.25ZM14.9131 14.75C15.3274 14.75 15.6631 14.4142 15.6631 14C15.6631 13.5858 15.3274 13.25 14.9131 13.25V14.75ZM11.0295 9.96967C10.7366 9.67678 10.2617 9.67678 9.96882 9.96967C9.67592 10.2626 9.67592 10.7374 9.96882 11.0303L11.0295 9.96967ZM11.4991 11.5L10.9688 12.0303C11.2617 12.3232 11.7366 12.3232 12.0295 12.0303L11.4991 11.5ZM15.0295 9.03033C15.3224 8.73744 15.3224 8.26256 15.0295 7.96967C14.7366 7.67678 14.2617 7.67678 13.9688 7.96967L15.0295 9.03033ZM9.99915 14.75H14.9131V13.25H9.99915V14.75ZM9.96882 11.0303L10.9688 12.0303L12.0295 10.9697L11.0295 9.96967L9.96882 11.0303ZM12.0295 12.0303L15.0295 9.03033L13.9688 7.96967L10.9688 10.9697L12.0295 12.0303Z" fill="currentColor"/>
</svg>
