<svg width="24" height="24" viewBox="0 0 24 24" fill="none" xmlns="http://www.w3.org/2000/svg">
<path fill-rule="evenodd" clip-rule="evenodd" d="M10.02 13.98C10.9645 14.9246 12.4447 15.0705 13.5554 14.3284C14.6661 13.5864 15.098 12.163 14.5869 10.9289C14.0758 9.69472 12.764 8.99348 11.4539 9.25399C10.1437 9.51451 9.20005 10.6642 9.19995 12C9.1999 12.7427 9.49486 13.4549 10.02 13.98Z" stroke="currentColor" stroke-width="1.5" stroke-linecap="round" stroke-linejoin="round"/>
<path d="M12.75 14.8C12.75 14.3858 12.4142 14.05 12 14.05C11.5858 14.05 11.25 14.3858 11.25 14.8H12.75ZM11.25 19C11.25 19.4142 11.5858 19.75 12 19.75C12.4142 19.75 12.75 19.4142 12.75 19H11.25ZM9.2 12.75C9.61421 12.75 9.95 12.4142 9.95 12C9.95 11.5858 9.61421 11.25 9.2 11.25V12.75ZM5 11.25C4.58579 11.25 4.25 11.5858 4.25 12C4.25 12.4142 4.58579 12.75 5 12.75V11.25ZM11.25 9.2C11.25 9.61421 11.5858 9.95 12 9.95C12.4142 9.95 12.75 9.61421 12.75 9.2H11.25ZM12.75 5C12.75 4.58579 12.4142 4.25 12 4.25C11.5858 4.25 11.25 4.58579 11.25 5H12.75ZM14.8 11.25C14.3858 11.25 14.05 11.5858 14.05 12C14.05 12.4142 14.3858 12.75 14.8 12.75V11.25ZM19 12.75C19.4142 12.75 19.75 12.4142 19.75 12C19.75 11.5858 19.4142 11.25 19 11.25V12.75ZM11.25 14.8V19H12.75V14.8H11.25ZM9.2 11.25H5V12.75H9.2V11.25ZM12.75 9.2V5H11.25V9.2H12.75ZM14.8 12.75H19V11.25H14.8V12.75Z" fill="currentColor"/>
</svg>
