<svg width="24" height="24" viewBox="0 0 24 24" fill="none" xmlns="http://www.w3.org/2000/svg">
<path d="M8.83478 10.1442C9.20436 10.3312 9.65559 10.1832 9.84263 9.81366C10.0297 9.44408 9.88169 8.99286 9.51211 8.80582L8.83478 10.1442ZM7.92845 9.165L7.94312 8.4151L7.93474 8.41503L7.92845 9.165ZM6.17445 9.741L5.72475 9.14075L5.72063 9.14388L6.17445 9.741ZM5.97445 9.901L5.49205 9.32672C5.48608 9.33174 5.48019 9.33684 5.47438 9.34204L5.97445 9.901ZM5.02509 12.4622L5.76866 12.3642L5.02509 12.4622ZM6.60545 14.69L6.94415 14.0208L6.94366 14.0206L6.60545 14.69ZM7.84645 15L7.83069 15.7499L7.84045 15.75L7.84645 15ZM9.83845 14.226L10.3492 14.7752C10.3745 14.7517 10.398 14.7266 10.4198 14.6999L9.83845 14.226ZM14.2144 9.9L14.6816 10.4868C14.6927 10.4779 14.7036 10.4687 14.7142 10.4592L14.2144 9.9ZM14.4144 9.74L14.8515 10.3495C14.8559 10.3464 14.8603 10.3431 14.8646 10.3399L14.4144 9.74ZM18.0824 9.94L17.5697 10.4874L17.5709 10.4885L18.0824 9.94ZM19.0085 12.2375L18.2596 12.1971V12.1971L19.0085 12.2375ZM17.8404 14.422L17.3909 13.8216L17.3905 13.822L17.8404 14.422ZM14.1634 14.212L14.6788 13.6671L14.6779 13.6662L14.1634 14.212ZM14.1883 12.9791C14.0182 12.6014 13.5742 12.4331 13.1965 12.6031C12.8188 12.7732 12.6505 13.2172 12.8206 13.5949L14.1883 12.9791ZM9.71456 9.99432C10.0014 9.69548 9.99162 9.2207 9.69277 8.93389C9.39392 8.64707 8.91915 8.65683 8.63233 8.95568L9.71456 9.99432ZM7.46433 10.1727C7.17752 10.4715 7.18727 10.9463 7.48612 11.2331C7.78497 11.5199 8.25974 11.5102 8.54656 11.2113L7.46433 10.1727ZM8.49024 9.78441C8.66112 10.1617 9.10553 10.3291 9.48285 10.1582C9.86018 9.98732 10.0275 9.54291 9.85665 9.16559L8.49024 9.78441ZM9.18865 7.69059C9.01777 7.31327 8.57336 7.14592 8.19604 7.3168C7.81871 7.48768 7.65136 7.93209 7.82224 8.30941L9.18865 7.69059ZM9.51211 8.80582C9.02511 8.55935 8.48883 8.42582 7.94312 8.41514L7.91377 9.91486C8.23411 9.92112 8.54891 9.99951 8.83478 10.1442L9.51211 8.80582ZM7.93474 8.41503C7.13847 8.40835 6.36204 8.66332 5.72476 9.14077L6.62413 10.3412C6.99844 10.0608 7.45447 9.91105 7.92215 9.91497L7.93474 8.41503ZM5.72063 9.14388C5.64388 9.20221 5.56769 9.26318 5.49205 9.32672L6.45684 10.4753C6.51453 10.4268 6.57168 10.3811 6.62826 10.3381L5.72063 9.14388ZM5.47438 9.34204C4.56938 10.1517 4.12289 11.3562 4.28152 12.5601L5.76866 12.3642C5.6748 11.6518 5.939 10.939 6.47451 10.46L5.47438 9.34204ZM4.28152 12.5601C4.44014 13.764 5.18339 14.8118 6.26723 15.3594L6.94366 14.0206C6.30233 13.6966 5.86253 13.0766 5.76866 12.3642L4.28152 12.5601ZM6.26674 15.3592C6.75221 15.6049 7.28669 15.7384 7.83069 15.7498L7.8622 14.2502C7.54287 14.2435 7.22913 14.1651 6.94415 14.0208L6.26674 15.3592ZM7.84045 15.75C8.77052 15.7574 9.66817 15.4086 10.3492 14.7752L9.32766 13.6768C8.92718 14.0493 8.39934 14.2544 7.85244 14.25L7.84045 15.75ZM10.4198 14.6999C11.6855 13.147 13.1143 11.7346 14.6816 10.4868L13.7473 9.31325C12.096 10.6279 10.5907 12.1161 9.2571 13.7521L10.4198 14.6999ZM14.7142 10.4592C14.7562 10.4217 14.8018 10.3851 14.8515 10.3495L13.9774 9.13048C13.8857 9.19623 13.798 9.26628 13.7147 9.34076L14.7142 10.4592ZM14.8646 10.3399C15.6826 9.72601 16.8233 9.7882 17.5697 10.4874L18.5952 9.39263C17.3174 8.19572 15.3646 8.08925 13.9643 9.14013L14.8646 10.3399ZM17.5709 10.4885C18.0421 10.928 18.2943 11.5537 18.2596 12.1971L19.7574 12.278C19.8161 11.191 19.39 10.134 18.594 9.39153L17.5709 10.4885ZM18.2596 12.1971C18.2248 12.8405 17.9067 13.4354 17.3909 13.8216L18.29 15.0224C19.1613 14.37 19.6987 13.3649 19.7574 12.278L18.2596 12.1971ZM17.3905 13.822C16.5695 14.4376 15.4244 14.3722 14.6788 13.6671L13.6481 14.7569C14.9245 15.964 16.8849 16.0759 18.2904 15.022L17.3905 13.822ZM14.6779 13.6662C14.4712 13.4715 14.3049 13.238 14.1883 12.9791L12.8206 13.5949C13.0179 14.0331 13.2994 14.4282 13.649 14.7578L14.6779 13.6662ZM8.63233 8.95568L7.46433 10.1727L8.54656 11.2113L9.71456 9.99432L8.63233 8.95568ZM9.85665 9.16559L9.18865 7.69059L7.82224 8.30941L8.49024 9.78441L9.85665 9.16559Z" fill="currentColor"/>
</svg>
