<svg width="24" height="24" viewBox="0 0 24 24" fill="none" xmlns="http://www.w3.org/2000/svg">
<path fill-rule="evenodd" clip-rule="evenodd" d="M12 19C8.68629 19 6 16.3137 6 13V9.5C6 8.94772 6.44772 8.5 7 8.5H8C8.55228 8.5 9 8.94772 9 9.5V13C9 14.6569 10.3431 16 12 16C13.6569 16 15 14.6569 15 13V9.5C15 8.94772 15.4477 8.5 16 8.5H17C17.5523 8.5 18 8.94772 18 9.5V13C18 16.3137 15.3137 19 12 19V19Z" stroke="currentColor" stroke-width="1.5" stroke-linecap="round" stroke-linejoin="round"/>
<path d="M15 10.25C14.5858 10.25 14.25 10.5858 14.25 11C14.25 11.4142 14.5858 11.75 15 11.75V10.25ZM18 11.75C18.4142 11.75 18.75 11.4142 18.75 11C18.75 10.5858 18.4142 10.25 18 10.25V11.75ZM6 10.25C5.58579 10.25 5.25 10.5858 5.25 11C5.25 11.4142 5.58579 11.75 6 11.75V10.25ZM9 11.75C9.41421 11.75 9.75 11.4142 9.75 11C9.75 10.5858 9.41421 10.25 9 10.25V11.75ZM12.6708 5.33541C12.8561 4.96493 12.7059 4.51442 12.3354 4.32918C11.9649 4.14394 11.5144 4.29411 11.3292 4.66459L12.6708 5.33541ZM11 7L10.3292 6.66459C10.2129 6.89708 10.2254 7.17319 10.362 7.3943C10.4987 7.61541 10.7401 7.75 11 7.75V7ZM13 7L13.6708 7.33541C13.7871 7.10292 13.7746 6.82681 13.638 6.6057C13.5013 6.38459 13.2599 6.25 13 6.25V7ZM11.3292 8.66459C11.1439 9.03507 11.2941 9.48558 11.6646 9.67082C12.0351 9.85606 12.4856 9.70589 12.6708 9.33541L11.3292 8.66459ZM15 11.75H18V10.25H15V11.75ZM6 11.75H9V10.25H6V11.75ZM11.3292 4.66459L10.3292 6.66459L11.6708 7.33541L12.6708 5.33541L11.3292 4.66459ZM11 7.75H13V6.25H11V7.75ZM12.3292 6.66459L11.3292 8.66459L12.6708 9.33541L13.6708 7.33541L12.3292 6.66459Z" fill="currentColor"/>
</svg>
