<svg width="24" height="24" viewBox="0 0 24 24" fill="none" xmlns="http://www.w3.org/2000/svg">
<path fill-rule="evenodd" clip-rule="evenodd" d="M15.5631 16.1199C14.871 16.81 13.9885 17.2774 13.0288 17.462C12.0617 17.6492 11.0607 17.5459 10.1523 17.165C8.29113 16.3858 7.07347 14.5723 7.05656 12.5547C7.04683 11.0715 7.70821 9.66348 8.8559 8.72397C10.0036 7.78445 11.5145 7.4142 12.9666 7.71668C13.9237 7.9338 14.7953 8.42902 15.4718 9.14008C16.4206 10.0503 16.9696 11.2996 16.9985 12.6141C17.008 13.9276 16.491 15.1903 15.5631 16.1199Z" stroke="currentColor" stroke-width="1.5" stroke-linecap="round" stroke-linejoin="round"/>
<path d="M14.9415 8.60977C14.6486 8.90266 14.6486 9.37754 14.9415 9.67043C15.2344 9.96332 15.7093 9.96332 16.0022 9.67043L14.9415 8.60977ZM18.9635 6.70907C19.2564 6.41617 19.2564 5.9413 18.9635 5.64841C18.6706 5.35551 18.1958 5.35551 17.9029 5.64841L18.9635 6.70907ZM16.0944 5.41461C15.6802 5.41211 15.3424 5.74586 15.3399 6.16007C15.3374 6.57428 15.6711 6.91208 16.0853 6.91458L16.0944 5.41461ZM18.4287 6.92872C18.8429 6.93122 19.1807 6.59747 19.1832 6.18326C19.1857 5.76906 18.8519 5.43125 18.4377 5.42875L18.4287 6.92872ZM19.1832 6.17421C19.1807 5.76001 18.8429 5.42625 18.4287 5.42875C18.0145 5.43125 17.6807 5.76906 17.6832 6.18326L19.1832 6.17421ZM17.6973 8.52662C17.6998 8.94082 18.0377 9.27458 18.4519 9.27208C18.8661 9.26958 19.1998 8.93177 19.1973 8.51756L17.6973 8.52662ZM16.0022 9.67043L18.9635 6.70907L17.9029 5.64841L14.9415 8.60977L16.0022 9.67043ZM16.0853 6.91458L18.4287 6.92872L18.4377 5.42875L16.0944 5.41461L16.0853 6.91458ZM17.6832 6.18326L17.6973 8.52662L19.1973 8.51756L19.1832 6.17421L17.6832 6.18326Z" fill="currentColor"/>
</svg>
