<svg width="24" height="24" viewBox="0 0 24 24" fill="none" xmlns="http://www.w3.org/2000/svg">
<path fill-rule="evenodd" clip-rule="evenodd" d="M13.4 7.24201C13.3906 8.01293 12.7597 8.63119 11.9888 8.62497C11.2179 8.61874 10.597 7.99038 10.6001 7.21941C10.6032 6.44845 11.229 5.82507 12 5.82501C12.3736 5.82713 12.731 5.97764 12.9936 6.24341C13.2562 6.50918 13.4024 6.86841 13.4 7.24201V7.24201Z" stroke="currentColor" stroke-width="1.5" stroke-linecap="round" stroke-linejoin="round"/>
<path d="M9.467 11.534C9.88121 11.534 10.217 11.1982 10.217 10.784C10.217 10.3698 9.88121 10.034 9.467 10.034V11.534ZM6 10.784V10.034C5.6171 10.034 5.29568 10.3224 5.25438 10.7031L6 10.784ZM4.75438 15.3111C4.70969 15.7229 5.0073 16.0929 5.41909 16.1376C5.83089 16.1823 6.20094 15.8847 6.24562 15.4729L4.75438 15.3111ZM8.98559 11.3671C9.30321 11.633 9.77623 11.591 10.0421 11.2734C10.308 10.9558 10.266 10.4828 9.94841 10.2169L8.98559 11.3671ZM9.289 10.643L8.79886 11.2108L8.80759 11.2181L9.289 10.643ZM9.289 4.13298L8.81267 3.55367C8.80804 3.55747 8.80346 3.56134 8.79892 3.56525L9.289 4.13298ZM14.71 4.13298L15.2001 3.56525C15.1932 3.55933 15.1863 3.55354 15.1792 3.54788L14.71 4.13298ZM14.71 10.643L15.1915 11.2182L15.2001 11.2107L14.71 10.643ZM14.0506 10.2169C13.733 10.4828 13.691 10.9558 13.9569 11.2734C14.2228 11.591 14.6958 11.633 15.0134 11.3671L14.0506 10.2169ZM9.94565 10.2154C9.62721 9.95051 9.15433 9.9939 8.88942 10.3123C8.62452 10.6308 8.66792 11.1037 8.98635 11.3686L9.94565 10.2154ZM10.2534 12.4226C10.5718 12.6875 11.0447 12.6441 11.3096 12.3256C11.5745 12.0072 11.5311 11.5343 11.2126 11.2694L10.2534 12.4226ZM14.533 10.033C14.1188 10.033 13.783 10.3688 13.783 10.783C13.783 11.1972 14.1188 11.533 14.533 11.533V10.033ZM18 10.783L18.7456 10.7019C18.7042 10.3213 18.3828 10.033 18 10.033V10.783ZM17.7544 15.464C17.7992 15.8758 18.1693 16.1734 18.581 16.1286C18.9928 16.0838 19.2904 15.7137 19.2456 15.3019L17.7544 15.464ZM15.0152 11.3575C15.3324 11.0912 15.3738 10.6181 15.1075 10.3008C14.8412 9.98355 14.3681 9.94222 14.0508 10.2085L15.0152 11.3575ZM12 12.909L11.5179 13.4835C11.7968 13.7175 12.2034 13.7175 12.4822 13.4835L12 12.909ZM11.2151 11.2714C10.8977 11.0052 10.4247 11.0466 10.1584 11.3639C9.8922 11.6813 9.93362 12.1543 10.2509 12.4205L11.2151 11.2714ZM6.24561 15.473C6.29037 15.0612 5.99283 14.6911 5.58104 14.6464C5.16926 14.6016 4.79915 14.8992 4.75439 15.3109L6.24561 15.473ZM5 19.992L4.25439 19.9109C4.23137 20.1227 4.29949 20.3343 4.44175 20.4928C4.58401 20.6514 4.78698 20.742 5 20.742V19.992ZM11 20.742C11.4142 20.742 11.75 20.4062 11.75 19.992C11.75 19.5778 11.4142 19.242 11 19.242V20.742ZM5.07966 14.7708C4.73661 15.003 4.64671 15.4693 4.87886 15.8123C5.11101 16.1554 5.5773 16.2453 5.92034 16.0131L5.07966 14.7708ZM8.53734 14.2421C8.88039 14.01 8.97029 13.5437 8.73814 13.2006C8.50599 12.8576 8.0397 12.7677 7.69666 12.9998L8.53734 14.2421ZM11.1535 12.467C11.4965 12.2348 11.5863 11.7685 11.3541 11.4255C11.1219 11.0825 10.6556 10.9927 10.3125 11.2249L11.1535 12.467ZM7.69655 12.9959C7.35354 13.2281 7.26373 13.6944 7.49594 14.0374C7.72815 14.3804 8.19445 14.4703 8.53745 14.238L7.69655 12.9959ZM8.80037 13.3079C8.62969 12.9305 8.18537 12.7629 7.80796 12.9336C7.43054 13.1043 7.26295 13.5486 7.43363 13.926L8.80037 13.3079ZM10.3166 20.301C10.4873 20.6784 10.9316 20.846 11.309 20.6754C11.6865 20.5047 11.854 20.0604 11.6834 19.6829L10.3166 20.301ZM11 19.242C10.5858 19.242 10.25 19.5778 10.25 19.992C10.25 20.4062 10.5858 20.742 11 20.742V19.242ZM14 20.742C14.4142 20.742 14.75 20.4062 14.75 19.992C14.75 19.5778 14.4142 19.242 14 19.242V20.742ZM14 19.242C13.5858 19.242 13.25 19.5778 13.25 19.992C13.25 20.4062 13.5858 20.742 14 20.742V19.242ZM19 19.992V20.742C19.213 20.742 19.416 20.6514 19.5582 20.4928C19.7005 20.3343 19.7686 20.1227 19.7456 19.9109L19 19.992ZM19.2456 15.3109C19.2008 14.8992 18.8307 14.6016 18.419 14.6464C18.0072 14.6911 17.7096 15.0612 17.7544 15.473L19.2456 15.3109ZM13.4639 19.4675C13.1742 19.7636 13.1794 20.2385 13.4755 20.5281C13.7716 20.8178 14.2465 20.8125 14.5361 20.5165L13.4639 19.4675ZM19.0361 15.9165C19.3258 15.6204 19.3206 15.1455 19.0245 14.8559C18.7284 14.5662 18.2535 14.5714 17.9639 14.8675L19.0361 15.9165ZM9.467 10.034H6V11.534H9.467V10.034ZM5.25438 10.7031L4.75438 15.3111L6.24562 15.4729L6.74562 10.8649L5.25438 10.7031ZM9.94841 10.2169L9.77041 10.0679L8.80759 11.2181L8.98559 11.3671L9.94841 10.2169ZM9.77908 10.0753C8.99788 9.4009 8.5488 8.41998 8.5488 7.38798H7.0488C7.0488 8.85604 7.68764 10.2514 8.79892 11.2107L9.77908 10.0753ZM8.5488 7.38798C8.5488 6.35599 8.99788 5.37507 9.77908 4.70072L8.79892 3.56525C7.68764 4.52454 7.0488 5.91993 7.0488 7.38798H8.5488ZM9.76533 4.7123C10.6777 3.96215 11.4371 3.72314 12.0952 3.75237C12.7681 3.78226 13.4676 4.09803 14.2408 4.71809L15.1792 3.54788C14.2714 2.81994 13.2729 2.30321 12.1618 2.25385C11.0359 2.20383 9.92532 2.63882 8.81267 3.55367L9.76533 4.7123ZM14.2199 4.70072C15.0011 5.37507 15.4502 6.35599 15.4502 7.38798H16.9502C16.9502 5.91993 16.3114 4.52454 15.2001 3.56525L14.2199 4.70072ZM15.4502 7.38798C15.4502 8.41998 15.0011 9.4009 14.2199 10.0753L15.2001 11.2107C16.3114 10.2514 16.9502 8.85604 16.9502 7.38798H15.4502ZM14.2286 10.0679L14.0506 10.2169L15.0134 11.3671L15.1914 11.2181L14.2286 10.0679ZM8.98635 11.3686L10.2534 12.4226L11.2126 11.2694L9.94565 10.2154L8.98635 11.3686ZM14.533 11.533H18V10.033H14.533V11.533ZM17.2544 10.864L17.7544 15.464L19.2456 15.3019L18.7456 10.7019L17.2544 10.864ZM14.0508 10.2085L11.5178 12.3345L12.4822 13.4835L15.0152 11.3575L14.0508 10.2085ZM12.4821 12.3344L11.2151 11.2714L10.2509 12.4205L11.5179 13.4835L12.4821 12.3344ZM4.75439 15.3109L4.25439 19.9109L5.74561 20.073L6.24561 15.473L4.75439 15.3109ZM5 20.742H11V19.242H5V20.742ZM5.92034 16.0131L8.53734 14.2421L7.69666 12.9998L5.07966 14.7708L5.92034 16.0131ZM10.3125 11.2249L7.69655 12.9959L8.53745 14.238L11.1535 12.467L10.3125 11.2249ZM7.43363 13.926L10.3166 20.301L11.6834 19.6829L8.80037 13.3079L7.43363 13.926ZM11 20.742H14V19.242H11V20.742ZM14 20.742H19V19.242H14V20.742ZM19.7456 19.9109L19.2456 15.3109L17.7544 15.473L18.2544 20.073L19.7456 19.9109ZM14.5361 20.5165L19.0361 15.9165L17.9639 14.8675L13.4639 19.4675L14.5361 20.5165Z" fill="currentColor"/>
</svg>
