<svg width="24" height="24" viewBox="0 0 24 24" fill="none" xmlns="http://www.w3.org/2000/svg">
<path fill-rule="evenodd" clip-rule="evenodd" d="M19 7.187V16.24C19 16.7536 18.7744 17.2413 18.383 17.5738C17.9916 17.9063 17.4738 18.0501 16.967 17.967L14.722 17.6L9.278 19L6.468 18.54C5.6216 18.4018 5.00006 17.6706 5 16.813V7.76C4.99999 7.24641 5.22559 6.75874 5.61702 6.42623C6.00844 6.09372 6.52617 5.94995 7.033 6.033L9.278 6.4L14.722 5L17.532 5.46C18.3784 5.5982 18.9999 6.3294 19 7.187Z" stroke="currentColor" stroke-width="1.5" stroke-linecap="round" stroke-linejoin="round"/>
<path d="M10.028 6.4C10.028 5.98579 9.69217 5.65 9.27795 5.65C8.86374 5.65 8.52795 5.98579 8.52795 6.4H10.028ZM8.52795 19C8.52795 19.4142 8.86374 19.75 9.27795 19.75C9.69217 19.75 10.028 19.4142 10.028 19H8.52795ZM15.472 5C15.472 4.58579 15.1362 4.25 14.722 4.25C14.3077 4.25 13.972 4.58579 13.972 5H15.472ZM13.972 17.6C13.972 18.0142 14.3077 18.35 14.722 18.35C15.1362 18.35 15.472 18.0142 15.472 17.6H13.972ZM8.52795 6.4V19H10.028V6.4H8.52795ZM13.972 5V17.6H15.472V5H13.972Z" fill="currentColor"/>
</svg>
