<svg width="24" height="24" viewBox="0 0 24 24" fill="none" xmlns="http://www.w3.org/2000/svg">
<path fill-rule="evenodd" clip-rule="evenodd" d="M6.17957 7.04804C4.32313 9.76117 4.69091 13.4171 7.05057 15.706L9.66657 17.714L11.9996 20L14.3326 17.714L16.9486 15.706C19.3082 13.4171 19.676 9.76117 17.8196 7.04804C17.0441 5.91512 15.9515 5.03638 14.6786 4.52204C12.9604 3.82599 11.0387 3.82599 9.32057 4.52204C8.04767 5.03638 6.95499 5.91512 6.17957 7.04804Z" stroke="currentColor" stroke-width="1.5" stroke-linecap="round" stroke-linejoin="round"/>
<path fill-rule="evenodd" clip-rule="evenodd" d="M11.9995 13.1431C13.2556 13.1172 14.2554 12.0826 14.2383 10.8264C14.2212 9.57013 13.1935 8.56315 11.9372 8.57159C10.6808 8.58002 9.66677 9.60071 9.6665 10.8571C9.67969 12.1325 10.7241 13.1558 11.9995 13.1431Z" stroke="currentColor" stroke-width="1.5" stroke-linecap="round" stroke-linejoin="round"/>
</svg>
