<svg width="24" height="24" viewBox="0 0 24 24" fill="none" xmlns="http://www.w3.org/2000/svg">
<path fill-rule="evenodd" clip-rule="evenodd" d="M9.02115 7.80099H14.9792C16.0545 7.80918 17.0825 8.24451 17.8367 9.0111C18.5909 9.77768 19.0095 10.8126 19.0002 11.888V15.909C19.0151 18.1453 17.2155 19.9709 14.9792 19.988H9.02115C7.94649 19.9798 6.91909 19.545 6.165 18.7793C5.41091 18.0136 4.9919 16.9797 5.00015 15.905V11.888C4.99083 10.8126 5.40937 9.77768 6.16358 9.0111C6.91778 8.24451 7.94579 7.80918 9.02115 7.80099Z" stroke="currentColor" stroke-width="1.5" stroke-linecap="round" stroke-linejoin="round"/>
<path d="M9.77118 7.801C9.77118 7.38679 9.43539 7.051 9.02118 7.051C8.60697 7.051 8.27118 7.38679 8.27118 7.801H9.77118ZM8.27118 19.988C8.27118 20.4022 8.60697 20.738 9.02118 20.738C9.43539 20.738 9.77118 20.4022 9.77118 19.988H8.27118ZM15.7292 7.801C15.7292 7.38679 15.3934 7.051 14.9792 7.051C14.565 7.051 14.2292 7.38679 14.2292 7.801H15.7292ZM14.2292 19.988C14.2292 20.4022 14.565 20.738 14.9792 20.738C15.3934 20.738 15.7292 20.4022 15.7292 19.988H14.2292ZM8.45018 7.8C8.45018 8.21421 8.78597 8.55 9.20018 8.55C9.61439 8.55 9.95018 8.21421 9.95018 7.8H8.45018ZM14.0502 7.8C14.0502 8.21421 14.386 8.55 14.8002 8.55C15.2144 8.55 15.5502 8.21421 15.5502 7.8H14.0502ZM12.7502 12.019C12.7502 11.6048 12.4144 11.269 12.0002 11.269C11.586 11.269 11.2502 11.6048 11.2502 12.019H12.7502ZM11.2502 13.425C11.2502 13.8392 11.586 14.175 12.0002 14.175C12.4144 14.175 12.7502 13.8392 12.7502 13.425H11.2502ZM12.7502 13.425C12.7502 13.0108 12.4144 12.675 12.0002 12.675C11.586 12.675 11.2502 13.0108 11.2502 13.425H12.7502ZM11.2502 14.832C11.2502 15.2462 11.586 15.582 12.0002 15.582C12.4144 15.582 12.7502 15.2462 12.7502 14.832H11.2502ZM12.0002 12.675C11.586 12.675 11.2502 13.0108 11.2502 13.425C11.2502 13.8392 11.586 14.175 12.0002 14.175V12.675ZM13.4002 14.175C13.8144 14.175 14.1502 13.8392 14.1502 13.425C14.1502 13.0108 13.8144 12.675 13.4002 12.675V14.175ZM12.0002 14.175C12.4144 14.175 12.7502 13.8392 12.7502 13.425C12.7502 13.0108 12.4144 12.675 12.0002 12.675V14.175ZM10.6002 12.675C10.186 12.675 9.85018 13.0108 9.85018 13.425C9.85018 13.8392 10.186 14.175 10.6002 14.175V12.675ZM8.27118 7.801V19.988H9.77118V7.801H8.27118ZM14.2292 7.801V19.988H15.7292V7.801H14.2292ZM9.95018 7.8C9.95018 6.66782 10.868 5.75 12.0002 5.75V4.25C10.0396 4.25 8.45018 5.83939 8.45018 7.8H9.95018ZM12.0002 5.75C13.1324 5.75 14.0502 6.66782 14.0502 7.8H15.5502C15.5502 5.83939 13.9608 4.25 12.0002 4.25V5.75ZM11.2502 12.019V13.425H12.7502V12.019H11.2502ZM11.2502 13.425V14.832H12.7502V13.425H11.2502ZM12.0002 14.175H13.4002V12.675H12.0002V14.175ZM12.0002 12.675H10.6002V14.175H12.0002V12.675Z" fill="currentColor"/>
</svg>
