<svg width="24" height="24" viewBox="0 0 24 24" fill="none" xmlns="http://www.w3.org/2000/svg">
<rect x="6" y="3" width="12" height="18" rx="3" stroke="currentColor" stroke-width="1.5" stroke-linecap="round" stroke-linejoin="round"/>
<path d="M12 18.5C11.8665 18.5 11.7409 18.448 11.6465 18.3536C11.552 18.2591 11.5 18.1336 11.5 18C11.5 17.9008 11.5291 17.8047 11.5843 17.7222C11.6394 17.6397 11.717 17.576 11.8086 17.5381C11.8696 17.5128 11.934 17.5 12 17.5C12.0327 17.5 12.0655 17.5032 12.0975 17.5096C12.1949 17.529 12.2834 17.5763 12.3536 17.6464C12.4237 17.7166 12.471 17.8051 12.4904 17.9025C12.5098 17.9998 12.4999 18.0997 12.4619 18.1913C12.424 18.283 12.3603 18.3606 12.2778 18.4157C12.1953 18.4709 12.0992 18.5 12 18.5Z" fill="currentColor"/>
<path d="M12 19C11.7348 19 11.4804 18.8946 11.2929 18.7071C11.1054 18.5196 11 18.2652 11 18C11 17.8022 11.0586 17.6089 11.1685 17.4444C11.2784 17.28 11.4346 17.1518 11.6173 17.0761C11.8 17.0004 12.0011 16.9806 12.1951 17.0192C12.3891 17.0578 12.5673 17.153 12.7071 17.2929C12.847 17.4327 12.9422 17.6109 12.9808 17.8049C13.0194 17.9989 12.9996 18.2 12.9239 18.3827C12.8482 18.5654 12.72 18.7216 12.5556 18.8315C12.3911 18.9414 12.1978 19 12 19Z" fill="currentColor"/>
</svg>
