<svg width="24" height="24" viewBox="0 0 24 24" fill="none" xmlns="http://www.w3.org/2000/svg">
<path fill-rule="evenodd" clip-rule="evenodd" d="M7.00009 12.0008C6.99604 10.6271 7.37712 9.2798 8.10009 8.11177C8.80106 6.97733 9.82625 6.07929 11.0431 5.53377C12.2306 5.00425 13.5552 4.86422 14.8271 5.13377L15.0091 5.17577C14.2053 5.71232 13.5258 6.41473 13.0161 7.23577C12.2931 8.4038 11.912 9.7511 11.9161 11.1248C11.9068 12.9579 12.5921 14.7265 13.8341 16.0748C14.6848 16.9942 15.785 17.6458 17.0001 17.9498C15.9784 18.6323 14.7778 18.9979 13.5491 19.0008C11.7877 18.9902 10.1101 18.2475 8.91809 16.9508C7.67612 15.6025 6.99083 13.8339 7.00009 12.0008Z" stroke="currentColor" stroke-width="1.5" stroke-linecap="round" stroke-linejoin="round"/>
</svg>
