<svg width="24" height="24" viewBox="0 0 24 24" fill="none" xmlns="http://www.w3.org/2000/svg">
<path d="M8.25 9.775C8.25 9.36079 7.91421 9.025 7.5 9.025C7.08579 9.025 6.75 9.36079 6.75 9.775H8.25ZM7.5 14.5H6.74998L6.75002 14.5048L7.5 14.5ZM10 17L9.99525 17.75H10V17ZM14 17V17.75L14.0048 17.75L14 17ZM16.5 14.5L17.25 14.5048V14.5H16.5ZM17.25 9.775C17.25 9.36079 16.9142 9.025 16.5 9.025C16.0858 9.025 15.75 9.36079 15.75 9.775H17.25ZM7.22314 10.472C7.6081 10.6249 8.04412 10.4368 8.19703 10.0519C8.34993 9.6669 8.16182 9.23088 7.77686 9.07797L7.22314 10.472ZM5 8.782L4.723 8.08503C4.43742 8.19853 4.24997 8.47476 4.25 8.78207C4.25003 9.08939 4.43753 9.36559 4.72314 9.47903L5 8.782ZM12 6L12.277 5.30303C12.0991 5.23232 11.9009 5.23232 11.723 5.30303L12 6ZM19 8.782L19.2771 9.47893C19.5626 9.36541 19.75 9.08921 19.75 8.78194C19.75 8.47468 19.5625 8.19851 19.277 8.08503L19 8.782ZM16.2229 9.07907C15.838 9.23211 15.65 9.6682 15.8031 10.0531C15.9561 10.438 16.3922 10.626 16.7771 10.4729L16.2229 9.07907ZM7.77694 9.079C7.392 8.92605 6.95595 9.11412 6.803 9.49906C6.65005 9.884 6.83812 10.32 7.22306 10.473L7.77694 9.079ZM12 11.564L11.7231 12.261C11.9009 12.3317 12.0991 12.3317 12.2769 12.261L12 11.564ZM16.7769 10.473C17.1619 10.32 17.3499 9.884 17.197 9.49906C17.044 9.11412 16.608 8.92605 16.2231 9.079L16.7769 10.473ZM6.75 9.775V14.5H8.25V9.775H6.75ZM6.75002 14.5048C6.76135 16.2923 8.20767 17.7387 9.99525 17.75L10.0048 16.25C9.03817 16.2439 8.25611 15.4618 8.24998 14.4952L6.75002 14.5048ZM10 17.75H14V16.25H10V17.75ZM14.0048 17.75C15.7923 17.7387 17.2387 16.2923 17.25 14.5048L15.75 14.4952C15.7439 15.4618 14.9618 16.2439 13.9952 16.25L14.0048 17.75ZM17.25 14.5V9.775H15.75V14.5H17.25ZM7.77686 9.07797L5.27686 8.08497L4.72314 9.47903L7.22314 10.472L7.77686 9.07797ZM5.277 9.47897L12.277 6.69697L11.723 5.30303L4.723 8.08503L5.277 9.47897ZM11.723 6.69697L18.723 9.47897L19.277 8.08503L12.277 5.30303L11.723 6.69697ZM18.7229 8.08507L16.2229 9.07907L16.7771 10.4729L19.2771 9.47893L18.7229 8.08507ZM7.22306 10.473L11.7231 12.261L12.2769 10.867L7.77694 9.079L7.22306 10.473ZM12.2769 12.261L16.7769 10.473L16.2231 9.079L11.7231 10.867L12.2769 12.261Z" fill="currentColor"/>
</svg>
