<svg width="24" height="24" viewBox="0 0 24 24" fill="none" xmlns="http://www.w3.org/2000/svg">
<path fill-rule="evenodd" clip-rule="evenodd" d="M7 10C7 7.23858 9.23858 5 12 5C14.7614 5 17 7.23858 17 10V14C17 16.7614 14.7614 19 12 19C9.23858 19 7 16.7614 7 14V10Z" stroke="currentColor" stroke-width="1.5" stroke-linecap="round" stroke-linejoin="round"/>
<path d="M12.75 9C12.75 8.58579 12.4142 8.25 12 8.25C11.5858 8.25 11.25 8.58579 11.25 9H12.75ZM11.25 11C11.25 11.4142 11.5858 11.75 12 11.75C12.4142 11.75 12.75 11.4142 12.75 11H11.25ZM14.75 14C14.75 13.5858 14.4142 13.25 14 13.25C13.5858 13.25 13.25 13.5858 13.25 14H14.75ZM10.75 14C10.75 13.5858 10.4142 13.25 10 13.25C9.58579 13.25 9.25 13.5858 9.25 14H10.75ZM11.25 9V11H12.75V9H11.25ZM13.25 14C13.25 14.6904 12.6904 15.25 12 15.25V16.75C13.5188 16.75 14.75 15.5188 14.75 14H13.25ZM12 15.25C11.3096 15.25 10.75 14.6904 10.75 14H9.25C9.25 15.5188 10.4812 16.75 12 16.75V15.25Z" fill="currentColor"/>
</svg>
