<svg width="24" height="24" viewBox="0 0 24 24" fill="none" xmlns="http://www.w3.org/2000/svg">
<path fill-rule="evenodd" clip-rule="evenodd" d="M8.43254 9.34601H12.7225C14.3464 9.36152 15.7524 10.4779 16.1355 12.056H16.8495C18.1003 12.1228 19.0618 13.188 19.0005 14.439C19.0618 15.6897 18.1009 16.7547 16.8505 16.822H16.1365C15.9823 18.5999 14.5079 19.9728 12.7235 20H8.43254C6.50448 19.9666 4.96823 18.3771 5.00054 16.449V12.9C4.98422 11.9736 5.33667 11.0786 5.98033 10.4121C6.62398 9.74553 7.5061 9.36205 8.43254 9.34601Z" stroke="currentColor" stroke-width="1.5" stroke-linecap="round" stroke-linejoin="round"/>
<path d="M16.8866 12.056C16.8866 11.6418 16.5508 11.306 16.1366 11.306C15.7224 11.306 15.3866 11.6418 15.3866 12.056H16.8866ZM15.3866 16.822C15.3866 17.2362 15.7224 17.572 16.1366 17.572C16.5508 17.572 16.8866 17.2362 16.8866 16.822H15.3866ZM7.85967 4.65973C7.73304 4.26534 7.31068 4.04828 6.9163 4.1749C6.52191 4.30153 6.30485 4.72389 6.43147 5.11827L7.85967 4.65973ZM7.28647 7.78127C7.4131 8.17566 7.83546 8.39272 8.22984 8.2661C8.62423 8.13947 8.84129 7.71711 8.71467 7.32273L7.28647 7.78127ZM11.3276 4C11.3276 3.58579 10.9918 3.25 10.5776 3.25C10.1634 3.25 9.82757 3.58579 9.82757 4H11.3276ZM9.82757 6.663C9.82757 7.07721 10.1634 7.413 10.5776 7.413C10.9918 7.413 11.3276 7.07721 11.3276 6.663H9.82757ZM14.7244 5.119C14.8515 4.72475 14.6348 4.30216 14.2406 4.17514C13.8463 4.04811 13.4237 4.26474 13.2967 4.659L14.7244 5.119ZM12.4387 7.322C12.3117 7.71625 12.5283 8.13884 12.9226 8.26586C13.3168 8.39289 13.7394 8.17626 13.8664 7.782L12.4387 7.322ZM15.3866 12.056V16.822H16.8866V12.056H15.3866ZM6.43147 5.11827L7.28647 7.78127L8.71467 7.32273L7.85967 4.65973L6.43147 5.11827ZM9.82757 4V6.663H11.3276V4H9.82757ZM13.2967 4.659L12.4387 7.322L13.8664 7.782L14.7244 5.119L13.2967 4.659Z" fill="currentColor"/>
</svg>
