<svg width="24" height="24" viewBox="0 0 24 24" fill="none" xmlns="http://www.w3.org/2000/svg">
<path fill-rule="evenodd" clip-rule="evenodd" d="M6.12045 19C4.94206 18.9747 4 18.0122 4 16.8335C4 15.6548 4.94206 14.6923 6.12045 14.667C7.29884 14.6923 8.2409 15.6548 8.2409 16.8335C8.2409 18.0122 7.29884 18.9747 6.12045 19V19Z" stroke="currentColor" stroke-width="1.5" stroke-linecap="round" stroke-linejoin="round"/>
<path fill-rule="evenodd" clip-rule="evenodd" d="M17.8544 17.764C16.9747 17.7778 16.174 17.2583 15.828 16.4494C15.482 15.6405 15.6595 14.7026 16.2771 14.076C16.8947 13.4494 17.8299 13.2585 18.6438 13.5927C19.4576 13.927 19.9885 14.7202 19.9874 15.6C19.9952 16.7862 19.0407 17.7546 17.8544 17.764V17.764Z" stroke="currentColor" stroke-width="1.5" stroke-linecap="round" stroke-linejoin="round"/>
<path d="M7.50244 16.833C7.50244 17.2472 7.83823 17.583 8.25244 17.583C8.66665 17.583 9.00244 17.2472 9.00244 16.833H7.50244ZM9.00244 8.5C9.00244 8.08579 8.66665 7.75 8.25244 7.75C7.83823 7.75 7.50244 8.08579 7.50244 8.5H9.00244ZM7.50244 8.5C7.50244 8.91421 7.83823 9.25 8.25244 9.25C8.66665 9.25 9.00244 8.91421 9.00244 8.5H7.50244ZM19.2374 8.5C19.2374 8.91421 19.5732 9.25 19.9874 9.25C20.4017 9.25 20.7374 8.91421 20.7374 8.5H19.2374ZM8.25244 7.75C7.83823 7.75 7.50244 8.08579 7.50244 8.5C7.50244 8.91421 7.83823 9.25 8.25244 9.25V7.75ZM19.9874 9.25C20.4017 9.25 20.7374 8.91421 20.7374 8.5C20.7374 8.08579 20.4017 7.75 19.9874 7.75V9.25ZM20.7374 8.5C20.7374 8.08579 20.4017 7.75 19.9874 7.75C19.5732 7.75 19.2374 8.08579 19.2374 8.5H20.7374ZM19.2374 15.6C19.2374 16.0142 19.5732 16.35 19.9874 16.35C20.4017 16.35 20.7374 16.0142 20.7374 15.6H19.2374ZM9.00244 16.833V8.5H7.50244V16.833H9.00244ZM9.00244 8.5V7H7.50244V8.5H9.00244ZM9.00244 7C9.00244 6.30964 9.56209 5.75 10.2524 5.75V4.25C8.73366 4.25 7.50244 5.48122 7.50244 7H9.00244ZM10.2524 5.75H17.9874V4.25H10.2524V5.75ZM17.9874 5.75C18.6778 5.75 19.2374 6.30964 19.2374 7H20.7374C20.7374 5.48122 19.5062 4.25 17.9874 4.25V5.75ZM19.2374 7V8.5H20.7374V7H19.2374ZM8.25244 9.25H19.9874V7.75H8.25244V9.25ZM19.2374 8.5V15.6H20.7374V8.5H19.2374Z" fill="currentColor"/>
</svg>
