<svg width="24" height="24" viewBox="0 0 24 24" fill="none" xmlns="http://www.w3.org/2000/svg">
<path fill-rule="evenodd" clip-rule="evenodd" d="M10.1205 19.0028C8.94206 18.9775 8 18.015 8 16.8363C8 15.6576 8.94206 14.6951 10.1205 14.6698C11.2988 14.6951 12.2409 15.6576 12.2409 16.8363C12.2409 18.015 11.2988 18.9775 10.1205 19.0028V19.0028Z" stroke="currentColor" stroke-width="1.5" stroke-linecap="round" stroke-linejoin="round"/>
<path d="M11.5024 16.8358C11.5024 17.25 11.8382 17.5858 12.2524 17.5858C12.6667 17.5858 13.0024 17.25 13.0024 16.8358H11.5024ZM13.0024 8.50279C13.0024 8.08857 12.6667 7.75279 12.2524 7.75279C11.8382 7.75279 11.5024 8.08857 11.5024 8.50279H13.0024ZM12.2524 8.50279H11.5024C11.5024 8.71537 11.5927 8.91798 11.7507 9.06021C11.9087 9.20244 12.1196 9.27093 12.331 9.24866L12.2524 8.50279ZM12.2524 7.00279H13.0024C13.0024 6.98925 13.0021 6.97573 13.0014 6.96221L12.2524 7.00279ZM12.8062 5.5565L13.3365 6.08683L12.8062 5.5565ZM14.2524 5.00279L14.2119 5.75169C14.2254 5.75242 14.2389 5.75279 14.2524 5.75279V5.00279ZM15.4084 5.00279V5.75279L15.412 5.75278L15.4084 5.00279ZM16.9927 6.49867L16.2437 6.53814V6.53814L16.9927 6.49867ZM15.5744 8.15279L15.4991 7.40657L15.4959 7.40691L15.5744 8.15279ZM13.0024 16.8358V8.50279H11.5024V16.8358H13.0024ZM13.0024 8.50279V7.00279H11.5024V8.50279H13.0024ZM13.0014 6.96221C12.9837 6.63607 13.1055 6.31779 13.3365 6.08683L12.2758 5.02617C11.7436 5.55838 11.4628 6.2918 11.5035 7.04336L13.0014 6.96221ZM13.3365 6.08683C13.5675 5.85587 13.8857 5.73402 14.2119 5.75169L14.293 4.25388C13.5415 4.21317 12.808 4.49396 12.2758 5.02617L13.3365 6.08683ZM14.2524 5.75279H15.4084V4.25279H14.2524V5.75279ZM15.412 5.75278C15.8544 5.7507 16.2204 6.09636 16.2437 6.53814L17.7417 6.4592C17.6762 5.21805 16.6478 4.24695 15.4049 4.25279L15.412 5.75278ZM16.2437 6.53814C16.267 6.97993 15.9393 7.36215 15.4991 7.40658L15.6498 8.89899C16.8864 8.77418 17.8071 7.70036 17.7417 6.4592L16.2437 6.53814ZM15.4959 7.40691L12.1739 7.75691L12.331 9.24866L15.653 8.89866L15.4959 7.40691Z" fill="currentColor"/>
</svg>
