<svg width="24" height="24" viewBox="0 0 24 24" fill="none" xmlns="http://www.w3.org/2000/svg">
<path d="M12.0124 7.14978C12.4265 7.1398 12.7541 6.79602 12.7441 6.38193C12.7342 5.96783 12.3904 5.64024 11.9763 5.65022L12.0124 7.14978ZM6.46836 12.193H7.21836C7.21836 12.1872 7.2183 12.1815 7.21816 12.1757L6.46836 12.193ZM6.46836 14.51L6.50649 15.259C6.90537 15.2387 7.21836 14.9094 7.21836 14.51H6.46836ZM6.46836 17.6L6.43024 18.349C6.44293 18.3497 6.45565 18.35 6.46836 18.35V17.6ZM9.66136 18.35C10.0756 18.35 10.4114 18.0142 10.4114 17.6C10.4114 17.1858 10.0756 16.85 9.66136 16.85V18.35ZM11.2444 6.4C11.2444 6.81421 11.5801 7.15 11.9944 7.15C12.4086 7.15 12.7444 6.81421 12.7444 6.4H11.2444ZM12.7444 4C12.7444 3.58579 12.4086 3.25 11.9944 3.25C11.5801 3.25 11.2444 3.58579 11.2444 4H12.7444ZM12.0124 5.65022C11.5983 5.64024 11.2546 5.96783 11.2446 6.38193C11.2346 6.79602 11.5622 7.1398 11.9763 7.14978L12.0124 5.65022ZM17.5204 12.193L16.7706 12.1757C16.7704 12.1815 16.7704 12.1872 16.7704 12.193H17.5204ZM17.5204 14.51H16.7704C16.7704 14.9094 17.0834 15.2387 17.4822 15.259L17.5204 14.51ZM17.5204 17.6V18.35C17.5331 18.35 17.5458 18.3497 17.5585 18.349L17.5204 17.6ZM14.3274 16.85C13.9131 16.85 13.5774 17.1858 13.5774 17.6C13.5774 18.0142 13.9131 18.35 14.3274 18.35V16.85ZM10.4104 17.6027C10.4119 17.1885 10.0773 16.8515 9.66311 16.85C9.2489 16.8485 8.91188 17.183 8.91037 17.5973L10.4104 17.6027ZM10.3434 19.3L10.8842 18.7804L10.883 18.7791L10.3434 19.3ZM13.6434 19.3L13.1037 18.7791L13.1025 18.7804L13.6434 19.3ZM15.0764 17.5973C15.0748 17.183 14.7378 16.8485 14.3236 16.85C13.9094 16.8515 13.5749 17.1885 13.5764 17.6027L15.0764 17.5973ZM9.65936 16.85C9.24515 16.85 8.90936 17.1858 8.90936 17.6C8.90936 18.0142 9.24515 18.35 9.65936 18.35V16.85ZM14.3274 18.35C14.7416 18.35 15.0774 18.0142 15.0774 17.6C15.0774 17.1858 14.7416 16.85 14.3274 16.85V18.35ZM11.9763 5.65022C8.43755 5.73552 5.63691 8.67147 5.71856 12.2103L7.21816 12.1757C7.15561 9.46448 9.30128 7.21514 12.0124 7.14978L11.9763 5.65022ZM5.71836 12.193V14.51H7.21836V12.193H5.71836ZM6.43024 13.761C5.2086 13.8231 4.25 14.8318 4.25 16.055H5.75C5.75 15.6306 6.08261 15.2806 6.50649 15.259L6.43024 13.761ZM4.25 16.055C4.25 17.2782 5.2086 18.2868 6.43024 18.349L6.50649 16.851C6.08261 16.8294 5.75 16.4794 5.75 16.055H4.25ZM6.46836 18.35H9.66136V16.85H6.46836V18.35ZM12.7444 6.4V4H11.2444V6.4H12.7444ZM11.9763 7.14978C14.6874 7.21514 16.8331 9.46448 16.7706 12.1757L18.2702 12.2103C18.3518 8.67147 15.5512 5.73552 12.0124 5.65022L11.9763 7.14978ZM16.7704 12.193V14.51H18.2704V12.193H16.7704ZM17.4822 15.259C17.9061 15.2806 18.2387 15.6306 18.2387 16.055H19.7387C19.7387 14.8318 18.7801 13.8231 17.5585 13.761L17.4822 15.259ZM18.2387 16.055C18.2387 16.4794 17.9061 16.8294 17.4822 16.851L17.5585 18.349C18.7801 18.2868 19.7387 17.2782 19.7387 16.055H18.2387ZM17.5204 16.85H14.3274V18.35H17.5204V16.85ZM8.91037 17.5973C8.90733 18.4265 9.22783 19.2242 9.80374 19.8209L10.883 18.7791C10.5783 18.4635 10.4088 18.0414 10.4104 17.6027L8.91037 17.5973ZM9.8025 19.8196C10.3753 20.4159 11.1665 20.7529 11.9934 20.7529V19.2529C11.5748 19.2529 11.1742 19.0823 10.8842 18.7804L9.8025 19.8196ZM11.9934 20.7529C12.8202 20.7529 13.6114 20.4159 14.1842 19.8196L13.1025 18.7804C12.8125 19.0823 12.412 19.2529 11.9934 19.2529V20.7529ZM14.183 19.8209C14.7589 19.2242 15.0794 18.4265 15.0764 17.5973L13.5764 17.6027C13.578 18.0414 13.4084 18.4635 13.1037 18.7791L14.183 19.8209ZM9.65936 18.35H14.3274V16.85H9.65936V18.35Z" fill="currentColor"/>
</svg>
