<svg width="24" height="24" viewBox="0 0 24 24" fill="none" xmlns="http://www.w3.org/2000/svg">
<path d="M9.78906 4.75C9.37485 4.75 9.03906 5.08579 9.03906 5.5C9.03906 5.91421 9.37485 6.25 9.78906 6.25V4.75ZM13.2111 6.25C13.6253 6.25 13.9611 5.91421 13.9611 5.5C13.9611 5.08579 13.6253 4.75 13.2111 4.75V6.25ZM9.50004 17.836C9.91426 17.836 10.25 17.5002 10.25 17.086C10.25 16.6718 9.91426 16.336 9.50004 16.336V17.836ZM7.44604 17.086L7.43805 17.836H7.44604V17.086ZM6.23104 16.386L6.87592 16.0029L6.8694 15.9923L6.23104 16.386ZM6.36504 12.246L5.61504 12.24V12.246H6.36504ZM11.5 7.18701L11.4949 7.93707L11.5052 7.937L11.5 7.18701ZM16.635 12.247H17.3851L17.385 12.2411L16.635 12.247ZM16.769 16.385L16.1313 15.99L16.1243 16.0019L16.769 16.385ZM15.554 17.085V17.8351L15.562 17.835L15.554 17.085ZM13.5 16.335C13.0858 16.335 12.75 16.6708 12.75 17.085C12.75 17.4992 13.0858 17.835 13.5 17.835V16.335ZM10.2501 17.085C10.2501 16.6707 9.91427 16.335 9.50006 16.335C9.08585 16.335 8.75006 16.6707 8.75006 17.085H10.2501ZM9.50006 17.568H8.74994L8.75018 17.5812L9.50006 17.568ZM11.5001 19.5L11.5128 18.7501C11.5043 18.7499 11.4958 18.7499 11.4874 18.7501L11.5001 19.5ZM13.5001 17.569L14.2501 17.5826V17.569H13.5001ZM14.2501 17.086C14.2501 16.6717 13.9143 16.336 13.5001 16.336C13.0858 16.336 12.7501 16.6717 12.7501 17.086H14.2501ZM9.50006 16.3361C9.08585 16.3361 8.75006 16.6718 8.75006 17.0861C8.75006 17.5003 9.08585 17.8361 9.50006 17.8361V16.3361ZM13.5001 17.8361C13.9143 17.8361 14.2501 17.5003 14.2501 17.0861C14.2501 16.6718 13.9143 16.3361 13.5001 16.3361V17.8361ZM9.78906 6.25H13.2111V4.75H9.78906V6.25ZM9.50004 16.336H7.44604V17.836H9.50004V16.336ZM7.45404 16.3361C7.21638 16.3335 6.99723 16.2073 6.87583 16.0029L5.58626 16.7691C5.97506 17.4235 6.67691 17.8279 7.43805 17.836L7.45404 16.3361ZM6.8694 15.9923C6.73259 15.7705 6.7124 15.4707 6.81415 14.9318C6.87034 14.6342 6.92445 14.4346 6.99609 14.0841C7.05785 13.7819 7.11504 13.4386 7.11504 13.086H5.61504C5.61504 13.2864 5.58186 13.5127 5.52647 13.7838C5.48095 14.0065 5.39112 14.3837 5.34019 14.6535C5.22769 15.2494 5.1405 16.0465 5.59269 16.7797L6.8694 15.9923ZM7.11504 13.086V12.246H5.61504V13.086H7.11504ZM7.11502 12.252C7.13426 9.85157 9.0944 7.92044 11.4949 7.937L11.5052 6.43703C8.27699 6.41477 5.64095 9.0118 5.61507 12.24L7.11502 12.252ZM11.5052 7.937C13.906 7.92045 15.8663 9.85209 15.8851 12.2529L17.385 12.2411C17.3598 9.0125 14.7235 6.41477 11.4949 6.43703L11.5052 7.937ZM15.885 12.247V13.085H17.385V12.247H15.885ZM15.885 13.085C15.885 13.4384 15.9422 13.7823 16.004 14.0851C16.0758 14.4372 16.1296 14.6351 16.1859 14.9338C16.2878 15.4733 16.2671 15.771 16.1314 15.9901L17.4067 16.7799C17.86 16.048 17.7723 15.2507 17.6599 14.6555C17.6092 14.3868 17.519 14.0074 17.4737 13.7853C17.4183 13.5138 17.385 13.2866 17.385 13.085H15.885ZM16.1243 16.0019C16.0029 16.2063 15.7837 16.3325 15.5461 16.3351L15.562 17.835C16.3232 17.8269 17.025 17.4225 17.4138 16.7681L16.1243 16.0019ZM15.554 16.335H13.5V17.835H15.554V16.335ZM8.75006 17.085V17.568H10.2501V17.085H8.75006ZM8.75018 17.5812C8.77665 19.0808 10.0132 20.2752 11.5128 20.2499L11.4874 18.7501C10.8157 18.7614 10.2618 18.2264 10.2499 17.5547L8.75018 17.5812ZM11.4874 20.2499C12.9864 20.2753 14.2227 19.0816 14.2499 17.5826L12.7502 17.5553C12.738 18.2268 12.1842 18.7614 11.5128 18.7501L11.4874 20.2499ZM14.2501 17.569V17.086H12.7501V17.569H14.2501ZM9.50006 17.8361H13.5001V16.3361H9.50006V17.8361Z" fill="currentColor"/>
</svg>
