<svg width="24" height="24" viewBox="0 0 24 24" fill="none" xmlns="http://www.w3.org/2000/svg">
<path fill-rule="evenodd" clip-rule="evenodd" d="M6.47505 12.463C6.35904 9.29213 8.83053 6.6252 12.001 6.5C15.1716 6.6252 17.6431 9.29213 17.527 12.463C17.527 13.78 18.958 15.063 19 16.383C19 16.4017 19 16.4203 19 16.439C19.031 17.2847 18.3717 17.9959 17.526 18.029H14.334C14.337 18.677 14.0928 19.3018 13.651 19.776C13.2264 20.2372 12.628 20.4996 12.001 20.4996C11.3741 20.4996 10.7757 20.2372 10.351 19.776C9.90934 19.3018 9.66508 18.677 9.66805 18.029H6.47505C5.62942 17.9959 4.97008 17.2847 5.00105 16.439C5.00105 16.4203 5.00105 16.4017 5.00105 16.383C5.04405 15.067 6.47505 13.781 6.47505 12.463Z" stroke="currentColor" stroke-width="1.5" stroke-linecap="round" stroke-linejoin="round"/>
<path d="M9.66797 17.279C9.25376 17.279 8.91797 17.6148 8.91797 18.029C8.91797 18.4432 9.25376 18.779 9.66797 18.779V17.279ZM14.334 18.779C14.7482 18.779 15.084 18.4432 15.084 18.029C15.084 17.6148 14.7482 17.279 14.334 17.279V18.779ZM13.001 5.25C13.4152 5.25 13.751 4.91421 13.751 4.5C13.751 4.08579 13.4152 3.75 13.001 3.75V5.25ZM11.001 3.75C10.5868 3.75 10.251 4.08579 10.251 4.5C10.251 4.91421 10.5868 5.25 11.001 5.25V3.75ZM9.66797 18.779H14.334V17.279H9.66797V18.779ZM13.001 3.75H11.001V5.25H13.001V3.75Z" fill="currentColor"/>
</svg>
