<svg width="24" height="24" viewBox="0 0 24 24" fill="none" xmlns="http://www.w3.org/2000/svg">
<path fill-rule="evenodd" clip-rule="evenodd" d="M7.25175 10.26C8.16875 7.86801 9.42875 7.03601 11.5007 7.03601C13.5727 7.03601 14.8327 7.86801 15.7497 10.26C15.767 10.3055 15.7807 10.3524 15.7907 10.4L16.9787 15.917C17.0415 16.2008 16.9728 16.4978 16.7917 16.7251C16.6105 16.9525 16.3364 17.0858 16.0457 17.088H13.6587C13.7128 17.6989 13.5115 18.3048 13.1026 18.7618C12.6937 19.2188 12.1138 19.4861 11.5007 19.5C10.8873 19.4861 10.307 19.2186 9.89808 18.7611C9.48913 18.3037 9.28806 17.6972 9.34275 17.086H6.95575C6.66509 17.0838 6.39097 16.9505 6.20984 16.7231C6.02871 16.4958 5.95996 16.1988 6.02275 15.915L7.21075 10.4C7.22078 10.3524 7.23449 10.3055 7.25175 10.26Z" stroke="currentColor" stroke-width="1.5" stroke-linejoin="round"/>
<path d="M9.34277 16.336C8.92856 16.336 8.59277 16.6718 8.59277 17.086C8.59277 17.5002 8.92856 17.836 9.34277 17.836V16.336ZM13.6588 17.836C14.073 17.836 14.4088 17.5002 14.4088 17.086C14.4088 16.6718 14.073 16.336 13.6588 16.336V17.836ZM9.87577 4.75C9.46156 4.75 9.12577 5.08579 9.12577 5.5C9.12577 5.91421 9.46156 6.25 9.87577 6.25V4.75ZM13.1258 6.25C13.54 6.25 13.8758 5.91421 13.8758 5.5C13.8758 5.08579 13.54 4.75 13.1258 4.75V6.25ZM9.34277 17.836H13.6588V16.336H9.34277V17.836ZM9.87577 6.25H13.1258V4.75H9.87577V6.25Z" fill="currentColor"/>
</svg>
