<svg width="24" height="24" viewBox="0 0 24 24" fill="none" xmlns="http://www.w3.org/2000/svg">
<path fill-rule="evenodd" clip-rule="evenodd" d="M12.0009 7.14697C9.87588 7.14697 8.86888 8.38197 7.86288 10.607C7.27437 12.1293 6.9818 13.75 7.00088 15.382C8.45385 16.4412 10.2028 17.0173 12.0009 17.029C13.7989 17.0173 15.5479 16.4412 17.0009 15.382C17.0203 13.75 16.728 12.1294 16.1399 10.607C15.1329 8.38197 14.1259 7.14697 12.0009 7.14697Z" stroke="currentColor" stroke-width="1.5" stroke-linecap="round" stroke-linejoin="round"/>
<path d="M14.9456 19.2799C15.2791 19.0343 15.3504 18.5648 15.1048 18.2313C14.8591 17.8977 14.3897 17.8265 14.0561 18.0721L14.9456 19.2799ZM9.94559 18.0721C9.61206 17.8265 9.14256 17.8977 8.89694 18.2313C8.65132 18.5648 8.72259 19.0343 9.05612 19.2799L9.94559 18.0721ZM11.1679 4.75C10.7536 4.75 10.4179 5.08579 10.4179 5.5C10.4179 5.91421 10.7536 6.25 11.1679 6.25V4.75ZM12.8339 6.25C13.2481 6.25 13.5839 5.91421 13.5839 5.5C13.5839 5.08579 13.2481 4.75 12.8339 4.75V6.25ZM14.0561 18.0721C12.8338 18.9722 11.1679 18.9722 9.94559 18.0721L9.05612 19.2799C10.8075 20.5696 13.1943 20.5696 14.9456 19.2799L14.0561 18.0721ZM11.1679 6.25H12.8339V4.75H11.1679V6.25Z" fill="currentColor"/>
</svg>
