<svg width="24" height="24" viewBox="0 0 24 24" fill="none" xmlns="http://www.w3.org/2000/svg">
<path fill-rule="evenodd" clip-rule="evenodd" d="M10.6277 18.4327C11.2575 19.0641 12.2364 19.186 13.0018 18.7281C13.7673 18.2703 14.123 17.3503 13.8647 16.4967C14.2591 17.2273 15.074 17.6268 15.8932 17.4911C16.7123 17.3553 17.3548 16.7143 17.4924 15.8954C17.6301 15.0766 17.2324 14.2607 16.5027 13.8647C17.299 14.1036 18.1591 13.8097 18.6426 13.1334C19.1262 12.4571 19.1262 11.5482 18.6426 10.8719C18.1591 10.1956 17.299 9.90174 16.5027 10.1407C17.2297 9.74347 17.6252 8.92913 17.4878 8.11212C17.3503 7.29511 16.7102 6.65497 15.8932 6.51754C15.0762 6.3801 14.2618 6.77557 13.8647 7.50265C14.1036 6.70635 13.8097 5.84625 13.1334 5.36268C12.4571 4.87911 11.5482 4.87911 10.8719 5.36268C10.1956 5.84625 9.90174 6.70635 10.1407 7.50265C9.74347 6.77557 8.92913 6.3801 8.11212 6.51754C7.29511 6.65497 6.65497 7.29511 6.51754 8.11212C6.3801 8.92913 6.77557 9.74347 7.50265 10.1407C6.70635 9.90174 5.84625 10.1956 5.36268 10.8719C4.87911 11.5482 4.87911 12.4571 5.36268 13.1334C5.84625 13.8097 6.70635 14.1036 7.50265 13.8647C6.77557 14.2618 6.3801 15.0762 6.51754 15.8932C6.65497 16.7102 7.29511 17.3503 8.11212 17.4878C8.92913 17.6252 9.74347 17.2297 10.1407 16.5027C9.93434 17.1881 10.1214 17.9315 10.6277 18.4377V18.4327Z" stroke="currentColor" stroke-width="1.5" stroke-linecap="round" stroke-linejoin="round"/>
<path d="M13.7527 10.2527L10.2527 13.7527" stroke="currentColor" stroke-width="1.5" stroke-linecap="round"/>
<path d="M10.0027 10.5027C9.72696 10.5027 9.50266 10.2784 9.50266 10.0027C9.50266 9.72699 9.72696 9.50269 10.0027 9.50269C10.2784 9.50269 10.5027 9.72699 10.5027 10.0027C10.5027 10.2784 10.2784 10.5027 10.0027 10.5027Z" fill="currentColor"/>
<path d="M10.0027 9.00269C10.5549 9.00269 11.0027 9.45041 11.0027 10.0027C11.0027 10.555 10.5549 11.0027 10.0027 11.0027C9.45038 11.0027 9.00266 10.555 9.00266 10.0027C9.00266 9.45041 9.45038 9.00269 10.0027 9.00269Z" fill="currentColor"/>
<path d="M14.0027 14.5027C13.727 14.5027 13.5027 14.2784 13.5027 14.0027C13.5027 13.727 13.727 13.5027 14.0027 13.5027C14.2784 13.5027 14.5027 13.727 14.5027 14.0027C14.5027 14.2784 14.2784 14.5027 14.0027 14.5027Z" fill="currentColor"/>
<path d="M14.0027 13.0027C14.5549 13.0027 15.0027 13.4504 15.0027 14.0027C15.0027 14.555 14.5549 15.0027 14.0027 15.0027C13.4504 15.0027 13.0027 14.555 13.0027 14.0027C13.0027 13.4504 13.4504 13.0027 14.0027 13.0027Z" fill="currentColor"/>
</svg>
