<svg width="24" height="24" viewBox="0 0 24 24" fill="none" xmlns="http://www.w3.org/2000/svg">
<path d="M4.26942 9.63841C4.17576 10.0419 4.42693 10.4449 4.83041 10.5386C5.2339 10.6322 5.63692 10.3811 5.73058 9.97759L4.26942 9.63841ZM6 5.5V4.75C5.65112 4.75 5.34831 4.99057 5.26942 5.33041L6 5.5ZM10 6.25C10.4142 6.25 10.75 5.91421 10.75 5.5C10.75 5.08579 10.4142 4.75 10 4.75V6.25ZM5.75 9.808C5.75 9.39379 5.41421 9.058 5 9.058C4.58579 9.058 4.25 9.39379 4.25 9.808H5.75ZM5 19.5H4.25C4.25 19.9142 4.58579 20.25 5 20.25V19.5ZM19 19.5V20.25C19.4142 20.25 19.75 19.9142 19.75 19.5H19ZM19.75 9.808C19.75 9.39379 19.4142 9.058 19 9.058C18.5858 9.058 18.25 9.39379 18.25 9.808H19.75ZM5 9.058C4.58579 9.058 4.25 9.39379 4.25 9.808C4.25 10.2222 4.58579 10.558 5 10.558V9.058ZM10 10.558C10.4142 10.558 10.75 10.2222 10.75 9.808C10.75 9.39379 10.4142 9.058 10 9.058V10.558ZM10 9.058C9.58579 9.058 9.25 9.39379 9.25 9.808C9.25 10.2222 9.58579 10.558 10 10.558V9.058ZM14 10.558C14.4142 10.558 14.75 10.2222 14.75 9.808C14.75 9.39379 14.4142 9.058 14 9.058V10.558ZM9.25 9.808C9.25 10.2222 9.58579 10.558 10 10.558C10.4142 10.558 10.75 10.2222 10.75 9.808H9.25ZM10.75 5.5C10.75 5.08579 10.4142 4.75 10 4.75C9.58579 4.75 9.25 5.08579 9.25 5.5H10.75ZM10.75 9.808C10.75 9.39379 10.4142 9.058 10 9.058C9.58579 9.058 9.25 9.39379 9.25 9.808H10.75ZM10 13.5H9.25C9.25 13.7599 9.38459 14.0013 9.6057 14.138C9.82681 14.2746 10.1029 14.2871 10.3354 14.1708L10 13.5ZM12 12.5L12.3354 11.8292C12.1243 11.7236 11.8757 11.7236 11.6646 11.8292L12 12.5ZM14 13.5L13.6646 14.1708C13.8971 14.2871 14.1732 14.2746 14.3943 14.138C14.6154 14.0013 14.75 13.7599 14.75 13.5H14ZM14.75 9.808C14.75 9.39379 14.4142 9.058 14 9.058C13.5858 9.058 13.25 9.39379 13.25 9.808H14.75ZM10 4.75C9.58579 4.75 9.25 5.08579 9.25 5.5C9.25 5.91421 9.58579 6.25 10 6.25V4.75ZM14 6.25C14.4142 6.25 14.75 5.91421 14.75 5.5C14.75 5.08579 14.4142 4.75 14 4.75V6.25ZM18.2694 9.97759C18.3631 10.3811 18.7661 10.6322 19.1696 10.5386C19.5731 10.4449 19.8242 10.0419 19.7306 9.63841L18.2694 9.97759ZM18 5.5L18.7306 5.33041C18.6517 4.99057 18.3489 4.75 18 4.75V5.5ZM14 4.75C13.5858 4.75 13.25 5.08579 13.25 5.5C13.25 5.91421 13.5858 6.25 14 6.25V4.75ZM19 10.558C19.4142 10.558 19.75 10.2222 19.75 9.808C19.75 9.39379 19.4142 9.058 19 9.058V10.558ZM14 9.058C13.5858 9.058 13.25 9.39379 13.25 9.808C13.25 10.2222 13.5858 10.558 14 10.558V9.058ZM13.25 9.808C13.25 10.2222 13.5858 10.558 14 10.558C14.4142 10.558 14.75 10.2222 14.75 9.808H13.25ZM14.75 5.5C14.75 5.08579 14.4142 4.75 14 4.75C13.5858 4.75 13.25 5.08579 13.25 5.5H14.75ZM5.73058 9.97759L6.73058 5.66959L5.26942 5.33041L4.26942 9.63841L5.73058 9.97759ZM6 6.25H10V4.75H6V6.25ZM4.25 9.808V19.5H5.75V9.808H4.25ZM5 20.25H19V18.75H5V20.25ZM19.75 19.5V9.808H18.25V19.5H19.75ZM5 10.558H10V9.058H5V10.558ZM10 10.558H14V9.058H10V10.558ZM10.75 9.808V5.5H9.25V9.808H10.75ZM9.25 9.808V13.5H10.75V9.808H9.25ZM10.3354 14.1708L12.3354 13.1708L11.6646 11.8292L9.66459 12.8292L10.3354 14.1708ZM11.6646 13.1708L13.6646 14.1708L14.3354 12.8292L12.3354 11.8292L11.6646 13.1708ZM14.75 13.5V9.808H13.25V13.5H14.75ZM10 6.25H14V4.75H10V6.25ZM19.7306 9.63841L18.7306 5.33041L17.2694 5.66959L18.2694 9.97759L19.7306 9.63841ZM18 4.75H14V6.25H18V4.75ZM19 9.058H14V10.558H19V9.058ZM14.75 9.808V5.5H13.25V9.808H14.75Z" fill="currentColor"/>
</svg>
