<svg width="24" height="24" viewBox="0 0 24 24" fill="none" xmlns="http://www.w3.org/2000/svg">
<path d="M9.53033 13.4697C9.23744 13.1768 8.76256 13.1768 8.46967 13.4697C8.17678 13.7626 8.17678 14.2374 8.46967 14.5303L9.53033 13.4697ZM11 16L10.4697 16.5303C10.7626 16.8232 11.2374 16.8232 11.5303 16.5303L11 16ZM15.5303 12.5303C15.8232 12.2374 15.8232 11.7626 15.5303 11.4697C15.2374 11.1768 14.7626 11.1768 14.4697 11.4697L15.5303 12.5303ZM4.26942 9.13841C4.17576 9.5419 4.42693 9.94492 4.83041 10.0386C5.2339 10.1322 5.63692 9.88107 5.73058 9.47759L4.26942 9.13841ZM6 5V4.25C5.65112 4.25 5.34831 4.49057 5.26942 4.83041L6 5ZM12 5.75C12.4142 5.75 12.75 5.41421 12.75 5C12.75 4.58579 12.4142 4.25 12 4.25V5.75ZM5.75 9.308C5.75 8.89379 5.41421 8.558 5 8.558C4.58579 8.558 4.25 8.89379 4.25 9.308H5.75ZM5 19H4.25C4.25 19.4142 4.58579 19.75 5 19.75V19ZM19 19V19.75C19.4142 19.75 19.75 19.4142 19.75 19H19ZM19.75 9.308C19.75 8.89379 19.4142 8.558 19 8.558C18.5858 8.558 18.25 8.89379 18.25 9.308H19.75ZM5 8.558C4.58579 8.558 4.25 8.89379 4.25 9.308C4.25 9.72221 4.58579 10.058 5 10.058V8.558ZM12 10.058C12.4142 10.058 12.75 9.72221 12.75 9.308C12.75 8.89379 12.4142 8.558 12 8.558V10.058ZM11.25 9.308C11.25 9.72221 11.5858 10.058 12 10.058C12.4142 10.058 12.75 9.72221 12.75 9.308H11.25ZM12.75 5C12.75 4.58579 12.4142 4.25 12 4.25C11.5858 4.25 11.25 4.58579 11.25 5H12.75ZM12 8.558C11.5858 8.558 11.25 8.89379 11.25 9.308C11.25 9.72221 11.5858 10.058 12 10.058V8.558ZM19 10.058C19.4142 10.058 19.75 9.72221 19.75 9.308C19.75 8.89379 19.4142 8.558 19 8.558V10.058ZM12.75 9.308C12.75 8.89379 12.4142 8.558 12 8.558C11.5858 8.558 11.25 8.89379 11.25 9.308H12.75ZM11.25 11C11.25 11.4142 11.5858 11.75 12 11.75C12.4142 11.75 12.75 11.4142 12.75 11H11.25ZM12 4.25C11.5858 4.25 11.25 4.58579 11.25 5C11.25 5.41421 11.5858 5.75 12 5.75V4.25ZM18 5L18.7306 4.83041C18.6517 4.49057 18.3489 4.25 18 4.25V5ZM18.2694 9.47759C18.3631 9.88107 18.7661 10.1322 19.1696 10.0386C19.5731 9.94492 19.8242 9.5419 19.7306 9.13841L18.2694 9.47759ZM8.46967 14.5303L10.4697 16.5303L11.5303 15.4697L9.53033 13.4697L8.46967 14.5303ZM11.5303 16.5303L15.5303 12.5303L14.4697 11.4697L10.4697 15.4697L11.5303 16.5303ZM5.73058 9.47759L6.73058 5.16959L5.26942 4.83041L4.26942 9.13841L5.73058 9.47759ZM6 5.75H12V4.25H6V5.75ZM4.25 9.308V19H5.75V9.308H4.25ZM5 19.75H19V18.25H5V19.75ZM19.75 19V9.308H18.25V19H19.75ZM5 10.058H12V8.558H5V10.058ZM12.75 9.308V5H11.25V9.308H12.75ZM12 10.058H19V8.558H12V10.058ZM11.25 9.308V11H12.75V9.308H11.25ZM12 5.75H18V4.25H12V5.75ZM17.2694 5.16959L18.2694 9.47759L19.7306 9.13841L18.7306 4.83041L17.2694 5.16959Z" fill="currentColor"/>
</svg>
