<svg width="24" height="24" viewBox="0 0 24 24" fill="none" xmlns="http://www.w3.org/2000/svg">
<path d="M12.7942 7.95881C13.0533 7.63559 13.0013 7.16358 12.678 6.90453C12.3548 6.64549 11.8828 6.6975 11.6238 7.02072L12.7942 7.95881ZM6.311 14.8488L6.87903 15.3385C6.88489 15.3317 6.89062 15.3248 6.89623 15.3178L6.311 14.8488ZM6.14 15.2668L5.39146 15.2179L5.3908 15.2321L6.14 15.2668ZM6 18.2898L5.2508 18.2551C5.24908 18.2923 5.25013 18.3296 5.25396 18.3667L6 18.2898ZM6.787 18.9768L6.81152 19.7264C6.86154 19.7247 6.91126 19.7181 6.95996 19.7065L6.787 18.9768ZM9.787 18.2658L9.95998 18.9956L9.97162 18.9927L9.787 18.2658ZM10.172 18.0218L10.7506 18.4991L10.7571 18.491L10.172 18.0218ZM16.7971 10.959C17.0562 10.6358 17.0043 10.1638 16.6812 9.90466C16.3581 9.64552 15.886 9.69742 15.6269 10.0206L16.7971 10.959ZM11.6269 7.02052C11.3678 7.34365 11.4196 7.81568 11.7428 8.07484C12.0659 8.33399 12.5379 8.28213 12.7971 7.95901L11.6269 7.02052ZM13.8 5.50976L14.3851 5.97901C14.3949 5.96672 14.4044 5.95412 14.4135 5.94123L13.8 5.50976ZM15.429 5.18976L15.9088 4.61332C15.8849 4.59344 15.8598 4.57507 15.8337 4.5583L15.429 5.18976ZM17.666 7.05176L18.1968 6.52192C18.1805 6.50561 18.1635 6.49007 18.1458 6.47532L17.666 7.05176ZM18.0029 7.87264L18.7529 7.87676V7.87676L18.0029 7.87264ZM17.657 8.68976L17.132 8.15412C17.1108 8.17496 17.0908 8.19704 17.0721 8.22025L17.657 8.68976ZM15.6271 10.0203C15.3678 10.3433 15.4195 10.8153 15.7425 11.0746C16.0655 11.3339 16.5376 11.2823 16.7969 10.9593L15.6271 10.0203ZM12.9537 7.37862C12.8923 6.96898 12.5105 6.68666 12.1009 6.74805C11.6912 6.80943 11.4089 7.19127 11.4703 7.60091L12.9537 7.37862ZM16.313 11.2329C16.7234 11.1772 17.0109 10.7992 16.9552 10.3888C16.8994 9.97834 16.5215 9.69082 16.111 9.74659L16.313 11.2329ZM11.6238 7.02072L5.72577 14.3797L6.89623 15.3178L12.7942 7.95881L11.6238 7.02072ZM5.74297 14.359C5.53561 14.5995 5.41226 14.9011 5.39159 15.218L6.88841 15.3156C6.88786 15.324 6.88457 15.3321 6.87903 15.3385L5.74297 14.359ZM5.3908 15.2321L5.2508 18.2551L6.7492 18.3245L6.8892 15.3015L5.3908 15.2321ZM5.25396 18.3667C5.33563 19.1586 6.01588 19.7524 6.81152 19.7264L6.76248 18.2272C6.75928 18.2273 6.75771 18.2268 6.75669 18.2264C6.75526 18.2259 6.75337 18.2249 6.75144 18.2232C6.7495 18.2215 6.74825 18.2198 6.74754 18.2185C6.74703 18.2175 6.74637 18.216 6.74604 18.2128L5.25396 18.3667ZM6.95996 19.7065L9.95996 18.9955L9.61404 17.536L6.61404 18.247L6.95996 19.7065ZM9.97162 18.9927C10.2771 18.9151 10.55 18.7422 10.7506 18.499L9.59345 17.5445C9.59575 17.5417 9.59888 17.5397 9.60238 17.5388L9.97162 18.9927ZM10.7571 18.491L16.7971 10.959L15.6269 10.0206L9.58689 17.5526L10.7571 18.491ZM12.7971 7.95901L14.3851 5.97901L13.2149 5.04052L11.6269 7.02052L12.7971 7.95901ZM14.4135 5.94123C14.5521 5.74411 14.8214 5.6912 15.0243 5.82123L15.8337 4.5583C14.9544 3.99484 13.7873 4.2241 13.1865 5.0783L14.4135 5.94123ZM14.9492 5.7662L17.1862 7.6282L18.1458 6.47532L15.9088 4.61332L14.9492 5.7662ZM17.1352 7.58161C17.2111 7.6577 17.2535 7.761 17.2529 7.86852L18.7529 7.87676C18.7557 7.36905 18.5555 6.88127 18.1968 6.52192L17.1352 7.58161ZM17.2529 7.86852C17.2524 7.97604 17.2088 8.07886 17.132 8.15412L18.182 9.22541C18.5446 8.87002 18.7501 8.38447 18.7529 7.87676L17.2529 7.86852ZM17.0721 8.22025L15.6271 10.0203L16.7969 10.9593L18.2419 9.15928L17.0721 8.22025ZM11.4703 7.60091C11.8196 9.93221 13.9771 11.5503 16.313 11.2329L16.111 9.74659C14.5881 9.95352 13.1815 8.89855 12.9537 7.37862L11.4703 7.60091Z" fill="currentColor"/>
</svg>
