<svg width="24" height="24" viewBox="0 0 24 24" fill="none" xmlns="http://www.w3.org/2000/svg">
<path fill-rule="evenodd" clip-rule="evenodd" d="M16 9C16 11.2091 14.2091 13 12 13C9.79086 13 8 11.2091 8 9C8 6.79086 9.79086 5 12 5C13.0609 5 14.0783 5.42143 14.8284 6.17157C15.5786 6.92172 16 7.93913 16 9Z" stroke="currentColor" stroke-width="1.5" stroke-linecap="round" stroke-linejoin="round"/>
<path d="M12.75 13C12.75 12.5858 12.4142 12.25 12 12.25C11.5858 12.25 11.25 12.5858 11.25 13H12.75ZM11.25 19C11.25 19.4142 11.5858 19.75 12 19.75C12.4142 19.75 12.75 19.4142 12.75 19H11.25ZM11.9205 6.66722C11.5086 6.71115 11.2103 7.08065 11.2542 7.49253C11.2982 7.90441 11.6677 8.20269 12.0795 8.15876L11.9205 6.66722ZM13.2806 8.86503C13.4425 9.24632 13.8827 9.42421 14.264 9.26237C14.6453 9.10053 14.8232 8.66024 14.6614 8.27895L13.2806 8.86503ZM11.25 13V19H12.75V13H11.25ZM12.0795 8.15876C12.5917 8.10414 13.0794 8.39089 13.2806 8.86503L14.6614 8.27895C14.2021 7.19695 13.0893 6.54256 11.9205 6.66722L12.0795 8.15876Z" fill="currentColor"/>
</svg>
