<svg width="24" height="24" viewBox="0 0 24 24" fill="none" xmlns="http://www.w3.org/2000/svg">
<path d="M6.37189 20.0803C6.7316 19.8749 6.85669 19.4168 6.6513 19.0571C6.44591 18.6974 5.98781 18.5723 5.62811 18.7777L6.37189 20.0803ZM5 20H4.25C4.25 20.2673 4.39227 20.5144 4.62345 20.6486C4.85463 20.7828 5.13976 20.7838 5.37189 20.6513L5 20ZM5 4L5.37189 3.3487C5.13976 3.21615 4.85463 3.21717 4.62345 3.35138C4.39227 3.48559 4.25 3.73269 4.25 4H5ZM5.62811 5.2223C5.98781 5.42769 6.44591 5.3026 6.6513 4.94289C6.85669 4.58319 6.7316 4.12509 6.37189 3.9197L5.62811 5.2223ZM5.40798 18.9686C5.15368 19.2955 5.21259 19.7667 5.53955 20.021C5.86652 20.2753 6.33772 20.2164 6.59202 19.8894L5.40798 18.9686ZM14.592 9.60345C14.8463 9.27648 14.7874 8.80528 14.4604 8.55098C14.1335 8.29668 13.6623 8.35559 13.408 8.68255L14.592 9.60345ZM5.62792 18.7778C5.26828 18.9833 5.14331 19.4414 5.3488 19.8011C5.5543 20.1607 6.01243 20.2857 6.37208 20.0802L5.62792 18.7778ZM14.3721 15.5092C14.7317 15.3037 14.8567 14.8456 14.6512 14.4859C14.4457 14.1263 13.9876 14.0013 13.6279 14.2068L14.3721 15.5092ZM14.3721 8.49181C14.0124 8.28631 13.5543 8.41127 13.3488 8.77091C13.1433 9.13055 13.2683 9.58869 13.6279 9.79419L14.3721 8.49181ZM19 12L19.3721 12.6512C19.6058 12.5177 19.75 12.2691 19.75 12C19.75 11.7309 19.6058 11.4823 19.3721 11.3488L19 12ZM13.6279 14.2058C13.2683 14.4113 13.1433 14.8694 13.3488 15.2291C13.5543 15.5887 14.0124 15.7137 14.3721 15.5082L13.6279 14.2058ZM13.6279 9.79416C13.9875 9.99969 14.4456 9.87477 14.6512 9.51514C14.8567 9.15551 14.7318 8.69736 14.3721 8.49184L13.6279 9.79416ZM6.37214 3.91984C6.01251 3.71431 5.55436 3.83923 5.34884 4.19886C5.14331 4.55849 5.26823 5.01664 5.62786 5.22216L6.37214 3.91984ZM6.59202 4.11055C6.33772 3.78359 5.86652 3.72468 5.53955 3.97898C5.21259 4.23328 5.15368 4.70448 5.40798 5.03145L6.59202 4.11055ZM13.408 15.3174C13.6623 15.6444 14.1335 15.7033 14.4604 15.449C14.7874 15.1947 14.8463 14.7235 14.592 14.3966L13.408 15.3174ZM5.62811 18.7777L4.62811 19.3487L5.37189 20.6513L6.37189 20.0803L5.62811 18.7777ZM5.75 20V4H4.25V20H5.75ZM4.62811 4.6513L5.62811 5.2223L6.37189 3.9197L5.37189 3.3487L4.62811 4.6513ZM6.59202 19.8894L14.592 9.60345L13.408 8.68255L5.40798 18.9686L6.59202 19.8894ZM6.37208 20.0802L14.3721 15.5092L13.6279 14.2068L5.62792 18.7778L6.37208 20.0802ZM13.6279 9.79419L18.6279 12.6512L19.3721 11.3488L14.3721 8.49181L13.6279 9.79419ZM18.6279 11.3488L13.6279 14.2058L14.3721 15.5082L19.3721 12.6512L18.6279 11.3488ZM14.3721 8.49184L6.37214 3.91984L5.62786 5.22216L13.6279 9.79416L14.3721 8.49184ZM5.40798 5.03145L13.408 15.3174L14.592 14.3966L6.59202 4.11055L5.40798 5.03145Z" fill="currentColor"/>
</svg>
