<svg width="24" height="24" viewBox="0 0 24 24" fill="none" xmlns="http://www.w3.org/2000/svg">
<path fill-rule="evenodd" clip-rule="evenodd" d="M7.84298 9.22205C6.53511 11.179 6.76924 13.7832 8.40518 15.4755C10.0411 17.1678 12.6359 17.4899 14.636 16.2491C14.684 16.2191 14.7316 16.1884 14.779 16.1571C16.4386 15.0477 17.2793 13.0574 16.9176 11.0942C16.5558 9.13099 15.061 7.57107 13.115 7.12605L12.975 7.10005C10.9926 6.70503 8.96747 7.54241 7.84298 9.22205Z" stroke="currentColor" stroke-width="1.5" stroke-linecap="round" stroke-linejoin="round"/>
<path fill-rule="evenodd" clip-rule="evenodd" d="M19 15.889C19 17.6072 17.6072 19 15.889 19H8.111C6.39284 19 5 17.6072 5 15.889V8.111C5 6.39284 6.39284 5 8.111 5H15.889C17.6072 5 19 6.39284 19 8.111V15.889Z" stroke="currentColor" stroke-width="1.5" stroke-linecap="round" stroke-linejoin="round"/>
<path d="M9.25 12.5C9.25 12.9142 9.58579 13.25 10 13.25C10.4142 13.25 10.75 12.9142 10.75 12.5H9.25ZM10.75 11.5C10.75 11.0858 10.4142 10.75 10 10.75C9.58579 10.75 9.25 11.0858 9.25 11.5H10.75ZM13.25 12.5C13.25 12.9142 13.5858 13.25 14 13.25C14.4142 13.25 14.75 12.9142 14.75 12.5H13.25ZM14.75 11.5C14.75 11.0858 14.4142 10.75 14 10.75C13.5858 10.75 13.25 11.0858 13.25 11.5H14.75ZM10.75 12.5V11.5H9.25V12.5H10.75ZM14.75 12.5V11.5H13.25V12.5H14.75Z" fill="currentColor"/>
</svg>
