<svg width="24" height="24" viewBox="0 0 24 24" fill="none" xmlns="http://www.w3.org/2000/svg">
<path fill-rule="evenodd" clip-rule="evenodd" d="M8.275 17.9344L6.347 18.8784C6.27321 18.9152 6.18572 18.9115 6.11528 18.8687C6.04484 18.8259 6.00131 18.7499 6 18.6674V5.33343C6.00165 5.25118 6.04531 5.17551 6.11569 5.13291C6.18607 5.09032 6.27337 5.08674 6.347 5.12343L8.275 6.06743C8.35208 6.10494 8.44319 6.09925 8.515 6.05243L10.067 5.03943C10.1479 4.98686 10.2521 4.98686 10.333 5.03943L11.867 6.03943C11.9479 6.09201 12.0521 6.09201 12.133 6.03943L13.667 5.03943C13.7479 4.98686 13.8521 4.98686 13.933 5.03943L15.484 6.05243C15.5558 6.09925 15.6469 6.10494 15.724 6.06743L17.653 5.12343C17.7266 5.08674 17.8139 5.09032 17.8843 5.13291C17.9547 5.17551 17.9984 5.25118 18 5.33343V18.6674C17.9984 18.7497 17.9547 18.8254 17.8843 18.868C17.8139 18.9106 17.7266 18.9141 17.653 18.8774L15.725 17.9334C15.6479 17.8959 15.5568 17.9016 15.485 17.9484L13.933 18.9614C13.8521 19.014 13.7479 19.014 13.667 18.9614L12.133 17.9614C12.0521 17.9089 11.9479 17.9089 11.867 17.9614L10.333 18.9614C10.2521 19.014 10.1479 19.014 10.067 18.9614L8.516 17.9484C8.44376 17.9016 8.35218 17.8963 8.275 17.9344Z" stroke="currentColor" stroke-width="1.5" stroke-linecap="round" stroke-linejoin="round"/>
<path d="M9 10.2505C8.58579 10.2505 8.25 10.5863 8.25 11.0005C8.25 11.4147 8.58579 11.7505 9 11.7505V10.2505ZM15 11.7505C15.4142 11.7505 15.75 11.4147 15.75 11.0005C15.75 10.5863 15.4142 10.2505 15 10.2505V11.7505ZM10 12.2505C9.58579 12.2505 9.25 12.5863 9.25 13.0005C9.25 13.4147 9.58579 13.7505 10 13.7505V12.2505ZM14 13.7505C14.4142 13.7505 14.75 13.4147 14.75 13.0005C14.75 12.5863 14.4142 12.2505 14 12.2505V13.7505ZM9 11.7505H15V10.2505H9V11.7505ZM10 13.7505H14V12.2505H10V13.7505Z" fill="currentColor"/>
</svg>
