<svg width="24" height="24" viewBox="0 0 24 24" fill="none" xmlns="http://www.w3.org/2000/svg">
<path d="M10.8662 14.3767C10.5647 14.0927 10.09 14.1069 9.80605 14.4085C9.52204 14.71 9.53625 15.1847 9.83777 15.4687L10.8662 14.3767ZM11.4728 17.0087C11.7743 17.2927 12.249 17.2785 12.533 16.9769C12.817 16.6754 12.8028 16.2008 12.5012 15.9167L11.4728 17.0087ZM12.5012 17.0087C12.8028 16.7247 12.817 16.25 12.533 15.9485C12.249 15.6469 11.7743 15.6327 11.4728 15.9167L12.5012 17.0087ZM9.83777 17.4567C9.53625 17.7408 9.52204 18.2154 9.80605 18.5169C10.09 18.8185 10.5647 18.8327 10.8662 18.5487L9.83777 17.4567ZM11.987 17.2127C12.4012 17.2127 12.737 16.8769 12.737 16.4627C12.737 16.0485 12.4012 15.7127 11.987 15.7127V17.2127ZM9.808 16.4627V15.7127C9.79956 15.7127 9.79112 15.7128 9.78269 15.7131L9.808 16.4627ZM5 11.9797H4.25C4.25 11.9887 4.25016 11.9978 4.25049 12.0068L5 11.9797ZM5 10.4857L4.25049 10.4586C4.25016 10.4676 4.25 10.4767 4.25 10.4857H5ZM9.808 6.0027L9.78269 6.75227C9.79112 6.75256 9.79956 6.7527 9.808 6.7527V6.0027ZM14.192 6.0027V6.7527C14.2004 6.7527 14.2089 6.75256 14.2173 6.75227L14.192 6.0027ZM19 10.4857H19.75C19.75 10.4767 19.7498 10.4676 19.7495 10.4586L19 10.4857ZM19 11.9797L19.7495 12.0068C19.7498 11.9978 19.75 11.9887 19.75 11.9797H19ZM14.192 16.4627L14.2173 15.7131C14.2089 15.7128 14.2004 15.7127 14.192 15.7127V16.4627ZM14 15.7127C13.5858 15.7127 13.25 16.0485 13.25 16.4627C13.25 16.8769 13.5858 17.2127 14 17.2127V15.7127ZM9.83777 15.4687L11.4728 17.0087L12.5012 15.9167L10.8662 14.3767L9.83777 15.4687ZM11.4728 15.9167L9.83777 17.4567L10.8662 18.5487L12.5012 17.0087L11.4728 15.9167ZM11.987 15.7127H9.808V17.2127H11.987V15.7127ZM9.78269 15.7131C7.6315 15.7858 5.82737 14.1036 5.74951 11.9526L4.25049 12.0068C4.35827 14.9843 6.85559 17.3128 9.83331 17.2123L9.78269 15.7131ZM5.75 11.9797V10.4857H4.25V11.9797H5.75ZM5.74951 10.5128C5.82737 8.36182 7.6315 6.67964 9.78269 6.75227L9.83331 5.25313C6.85559 5.15259 4.35827 7.4811 4.25049 10.4586L5.74951 10.5128ZM9.808 6.7527H14.192V5.2527H9.808V6.7527ZM14.2173 6.75227C16.3685 6.67964 18.1726 8.36182 18.2505 10.5128L19.7495 10.4586C19.6417 7.4811 17.1444 5.15259 14.1667 5.25313L14.2173 6.75227ZM18.25 10.4857V11.9797H19.75V10.4857H18.25ZM18.2505 11.9526C18.1726 14.1036 16.3685 15.7858 14.2173 15.7131L14.1667 17.2123C17.1444 17.3128 19.6417 14.9843 19.7495 12.0068L18.2505 11.9526ZM14.192 15.7127H14V17.2127H14.192V15.7127Z" fill="currentColor"/>
</svg>
