<svg width="24" height="24" viewBox="0 0 24 24" fill="none" xmlns="http://www.w3.org/2000/svg">
<path d="M10 7.343C10.4142 7.343 10.75 7.00721 10.75 6.593C10.75 6.17879 10.4142 5.843 10 5.843V7.343ZM9.808 6.593L9.79453 7.343H9.808V6.593ZM5 11.227L4.25013 11.2128C4.25004 11.2176 4.25 11.2223 4.25 11.227H5ZM5 12.772L4.24987 12.772L4.25013 12.786L5 12.772ZM9.808 17.407V16.6569L9.79453 16.6571L9.808 17.407ZM11.988 18.157C12.4022 18.157 12.738 17.8212 12.738 17.407C12.738 16.9928 12.4022 16.657 11.988 16.657V18.157ZM10.8752 15.2787C10.5784 14.9897 10.1036 14.996 9.81465 15.2928C9.52569 15.5896 9.53201 16.0644 9.82878 16.3533L10.8752 15.2787ZM11.4638 17.9453C11.7606 18.2343 12.2354 18.228 12.5243 17.9312C12.8133 17.6344 12.807 17.1596 12.5102 16.8707L11.4638 17.9453ZM12.5102 17.9453C12.807 17.6564 12.8133 17.1816 12.5243 16.8848C12.2354 16.588 11.7606 16.5817 11.4638 16.8707L12.5102 17.9453ZM9.82878 18.4627C9.53201 18.7516 9.52569 19.2264 9.81465 19.5232C10.1036 19.82 10.5784 19.8263 10.8752 19.5373L9.82878 18.4627ZM14 16.657C13.5858 16.657 13.25 16.9928 13.25 17.407C13.25 17.8212 13.5858 18.157 14 18.157V16.657ZM14.192 17.407L14.2055 16.657H14.192V17.407ZM19 12.773L19.7499 12.7872C19.75 12.7824 19.75 12.7777 19.75 12.773H19ZM19 11.228H19.7501L19.7499 11.214L19 11.228ZM14.192 6.593V7.34312L14.2055 7.34288L14.192 6.593ZM12.013 5.843C11.5988 5.843 11.263 6.17879 11.263 6.593C11.263 7.00721 11.5988 7.343 12.013 7.343V5.843ZM13.1248 8.72135C13.4216 9.01031 13.8964 9.00399 14.1853 8.70722C14.4743 8.41045 14.468 7.93562 14.1712 7.64665L13.1248 8.72135ZM12.5362 6.05465C12.2394 5.76569 11.7646 5.77201 11.4757 6.06878C11.1867 6.36555 11.193 6.84038 11.4898 7.12935L12.5362 6.05465ZM11.4898 6.05465C11.193 6.34362 11.1867 6.81845 11.4757 7.11522C11.7646 7.41199 12.2394 7.41831 12.5362 7.12935L11.4898 6.05465ZM14.1712 5.53735C14.468 5.24838 14.4743 4.77355 14.1853 4.47678C13.8964 4.18001 13.4216 4.17369 13.1248 4.46265L14.1712 5.53735ZM10 5.843H9.808V7.343H10V5.843ZM9.82147 5.84312C6.80074 5.78886 4.30721 8.19215 4.25013 11.2128L5.74987 11.2412C5.7913 9.04822 7.60155 7.30349 9.79453 7.34288L9.82147 5.84312ZM4.25 11.227V12.772H5.75V11.227H4.25ZM4.25013 12.786C4.30657 15.8071 6.80029 18.2111 9.82147 18.1569L9.79453 16.6571C7.60123 16.6965 5.79084 14.9513 5.74987 12.758L4.25013 12.786ZM9.808 18.157H11.988V16.657H9.808V18.157ZM9.82878 16.3533L11.4638 17.9453L12.5102 16.8707L10.8752 15.2787L9.82878 16.3533ZM11.4638 16.8707L9.82878 18.4627L10.8752 19.5373L12.5102 17.9453L11.4638 16.8707ZM14 18.157H14.192V16.657H14V18.157ZM14.1785 18.1569C17.1993 18.2111 19.6928 15.8078 19.7499 12.7872L18.2501 12.7588C18.2087 14.9518 16.3985 16.6965 14.2055 16.6571L14.1785 18.1569ZM19.75 12.773V11.228H18.25V12.773H19.75ZM19.7499 11.214C19.6934 8.19286 17.1997 5.78886 14.1785 5.84312L14.2055 7.34288C16.3988 7.30349 18.2092 9.04873 18.2501 11.242L19.7499 11.214ZM14.192 5.843H12.013V7.343H14.192V5.843ZM14.1712 7.64665L12.5362 6.05465L11.4898 7.12935L13.1248 8.72135L14.1712 7.64665ZM12.5362 7.12935L14.1712 5.53735L13.1248 4.46265L11.4898 6.05465L12.5362 7.12935Z" fill="currentColor"/>
</svg>
