<svg width="24" height="24" viewBox="0 0 24 24" fill="none" xmlns="http://www.w3.org/2000/svg">
<path fill-rule="evenodd" clip-rule="evenodd" d="M9.80499 9.01975C9.12799 10.0357 8.51899 11.0527 8.14499 11.7197L7.20599 10.7447C6.62185 10.1277 6.62185 9.16175 7.20599 8.54475C7.48247 8.25472 7.8653 8.09003 8.26599 8.08875H10.451C10.233 8.38775 10.016 8.69975 9.80499 9.01975Z" stroke="currentColor" stroke-width="1.5" stroke-linecap="round" stroke-linejoin="round"/>
<path fill-rule="evenodd" clip-rule="evenodd" d="M14.98 14.1947C13.964 14.8717 12.947 15.4807 12.28 15.8547L13.255 16.7937C13.872 17.3778 14.838 17.3778 15.455 16.7937C15.7451 16.5172 15.9097 16.1344 15.911 15.7337V13.5487C15.612 13.7667 15.3 13.9837 14.98 14.1947Z" stroke="currentColor" stroke-width="1.5" stroke-linecap="round" stroke-linejoin="round"/>
<path d="M7.84944 13.7299C8.14227 13.437 8.14217 12.9621 7.84922 12.6693C7.55626 12.3764 7.08139 12.3765 6.78856 12.6695L7.84944 13.7299ZM4.46956 14.9895C4.17673 15.2824 4.17683 15.7573 4.46978 16.0501C4.76274 16.343 5.23761 16.3429 5.53044 16.0499L4.46956 14.9895ZM9.58856 15.4708C9.88133 15.1778 9.88112 14.7029 9.5881 14.4101C9.29508 14.1174 8.82021 14.1176 8.52744 14.4106L9.58856 15.4708ZM7.36944 15.5696C7.07667 15.8626 7.07688 16.3375 7.3699 16.6303C7.66292 16.923 8.13779 16.9228 8.43056 16.6298L7.36944 15.5696ZM8.67469 11.1847C8.38144 10.8922 7.90657 10.8928 7.61403 11.186C7.32149 11.4793 7.32206 11.9541 7.61531 12.2467L8.67469 11.1847ZM10.217 13.7827L10.748 13.253L10.7467 13.2517L10.217 13.7827ZM11.753 16.3844C12.0456 16.6776 12.5204 16.6782 12.8137 16.3857C13.1069 16.0931 13.1075 15.6183 12.815 15.325L11.753 16.3844ZM9.82849 7.66439C9.59747 8.00819 9.68889 8.47418 10.0327 8.7052C10.3765 8.93623 10.8425 8.84481 11.0735 8.50101L9.82849 7.66439ZM12.269 5.9517L11.7896 5.37492C11.7788 5.38393 11.7682 5.39325 11.7578 5.40286L12.269 5.9517ZM18.906 5.0937L19.6523 5.01934C19.6169 4.66393 19.3358 4.38281 18.9804 4.34739L18.906 5.0937ZM18.048 11.7317L18.5968 12.2429C18.6065 12.2325 18.6159 12.2218 18.625 12.2109L18.048 11.7317ZM15.4987 12.9272C15.1549 13.1582 15.0635 13.6242 15.2945 13.968C15.5255 14.3118 15.9915 14.4032 16.3353 14.1722L15.4987 12.9272ZM11.3302 17.2111C11.6232 16.9183 11.6233 16.4434 11.3304 16.1505C11.0376 15.8575 10.5627 15.8574 10.2698 16.1503L11.3302 17.2111ZM7.94978 18.4693C7.65683 18.7621 7.65673 19.237 7.94956 19.5299C8.24239 19.8229 8.71726 19.823 9.01022 19.5301L7.94978 18.4693ZM16.8613 8.19903C17.1542 7.90614 17.1542 7.43126 16.8613 7.13837C16.5684 6.84548 16.0936 6.84548 15.8007 7.13837L16.8613 8.19903ZM14.5637 8.37537C14.2708 8.66826 14.2708 9.14314 14.5637 9.43603C14.8566 9.72892 15.3314 9.72892 15.6243 9.43603L14.5637 8.37537ZM6.78856 12.6695L4.46956 14.9895L5.53044 16.0499L7.84944 13.7299L6.78856 12.6695ZM8.52744 14.4106L7.36944 15.5696L8.43056 16.6298L9.58856 15.4708L8.52744 14.4106ZM7.61531 12.2467L9.68731 14.3137L10.7467 13.2517L8.67469 11.1847L7.61531 12.2467ZM9.68603 14.3124L11.753 16.3844L12.815 15.325L10.748 13.253L9.68603 14.3124ZM11.0735 8.50101C11.564 7.7711 12.1366 7.09988 12.7802 6.50053L11.7578 5.40286C11.0303 6.08042 10.383 6.83923 9.82849 7.66439L11.0735 8.50101ZM12.7484 6.52848C12.9533 6.35813 13.3056 6.19347 13.8133 6.06099C14.3092 5.9316 14.8943 5.8478 15.5113 5.80023C16.7457 5.70506 18.0326 5.76038 18.8316 5.84L18.9804 4.34739C18.1134 4.26101 16.7363 4.20134 15.396 4.30467C14.7256 4.35635 14.0456 4.45017 13.4346 4.60959C12.8355 4.76593 12.2392 5.00126 11.7896 5.37492L12.7484 6.52848ZM18.1597 5.16806C18.2393 5.96713 18.2946 7.25397 18.1995 8.48855C18.1519 9.10561 18.0681 9.69077 17.9387 10.1868C17.8062 10.6947 17.6415 11.0473 17.471 11.2525L18.625 12.2109C18.9985 11.7611 19.2338 11.1647 19.3901 10.5655C19.5495 9.95438 19.6433 9.27429 19.695 8.60384C19.7984 7.26343 19.7387 5.88627 19.6523 5.01934L18.1597 5.16806ZM17.4992 11.2205C16.8998 11.8641 16.2286 12.4367 15.4987 12.9272L16.3353 14.1722C17.1605 13.6177 17.9193 12.9704 18.5968 12.2429L17.4992 11.2205ZM10.2698 16.1503L7.94978 18.4693L9.01022 19.5301L11.3302 17.2111L10.2698 16.1503ZM15.8007 7.13837L14.5637 8.37537L15.6243 9.43603L16.8613 8.19903L15.8007 7.13837Z" fill="currentColor"/>
</svg>
