<svg width="24" height="24" viewBox="0 0 24 24" fill="none" xmlns="http://www.w3.org/2000/svg">
<path fill-rule="evenodd" clip-rule="evenodd" d="M5 13V11C5 7.68629 7.68629 5 11 5H13C16.3137 5 19 7.68629 19 11V13C19 16.3137 16.3137 19 13 19H11C7.68629 19 5 16.3137 5 13Z" stroke="currentColor" stroke-width="1.5" stroke-linecap="round" stroke-linejoin="round"/>
<path d="M14 9.75001C14.4142 9.75001 14.75 9.41422 14.75 9.00001C14.75 8.58579 14.4142 8.25001 14 8.25001V9.75001ZM10.429 8.25001C10.0148 8.25001 9.679 8.58579 9.679 9.00001C9.679 9.41422 10.0148 9.75001 10.429 9.75001V8.25001ZM10.4219 8.25004C10.0077 8.25397 9.67511 8.59292 9.67903 9.00711C9.68296 9.42131 10.0219 9.7539 10.4361 9.74997L10.4219 8.25004ZM12.571 11.1L13.321 11.1077C13.321 11.1026 13.321 11.0974 13.321 11.0923L12.571 11.1ZM10.429 13.2L10.4361 12.45H10.429V13.2ZM9 13.2V12.45C8.69528 12.45 8.42085 12.6344 8.30565 12.9165C8.19046 13.1986 8.25741 13.5224 8.47504 13.7357L9 13.2ZM11.332 16.5357C11.6279 16.8256 12.1027 16.8208 12.3926 16.525C12.6826 16.2291 12.6778 15.7543 12.382 15.4644L11.332 16.5357ZM10.429 9.75001C10.8432 9.75001 11.179 9.41422 11.179 9.00001C11.179 8.58579 10.8432 8.25001 10.429 8.25001V9.75001ZM9 8.25001C8.58579 8.25001 8.25 8.58579 8.25 9.00001C8.25 9.41422 8.58579 9.75001 9 9.75001V8.25001ZM14 11.85C14.4142 11.85 14.75 11.5142 14.75 11.1C14.75 10.6858 14.4142 10.35 14 10.35V11.85ZM9 10.35C8.58579 10.35 8.25 10.6858 8.25 11.1C8.25 11.5142 8.58579 11.85 9 11.85V10.35ZM14 8.25001H10.429V9.75001H14V8.25001ZM10.4361 9.74997C11.1934 9.74279 11.8132 10.3505 11.821 11.1077L13.321 11.0923C13.3046 9.50713 12.007 8.23501 10.4219 8.25004L10.4361 9.74997ZM11.821 11.0923C11.8132 11.8495 11.1934 12.4572 10.4361 12.45L10.4219 13.95C12.007 13.965 13.3046 12.6929 13.321 11.1077L11.821 11.0923ZM10.429 12.45H9V13.95H10.429V12.45ZM8.47504 13.7357L11.332 16.5357L12.382 15.4644L9.52496 12.6644L8.47504 13.7357ZM10.429 8.25001H9V9.75001H10.429V8.25001ZM14 10.35H9V11.85H14V10.35Z" fill="currentColor"/>
</svg>
