<svg width="24" height="24" viewBox="0 0 24 24" fill="none" xmlns="http://www.w3.org/2000/svg">
<path d="M18.6168 12.1484C18.974 12.3581 19.4336 12.2384 19.6432 11.8811C19.8528 11.5238 19.7331 11.0643 19.3758 10.8547L18.6168 12.1484ZM6.44331 4.13656L6.05624 4.77902L6.06378 4.78344L6.44331 4.13656ZM5.42408 4.1598L5.00816 3.5357L5.00816 3.5357L5.42408 4.1598ZM5.01031 5.09156L4.26841 5.20151C4.27575 5.25101 4.28802 5.29965 4.30505 5.34671L5.01031 5.09156ZM6.62405 11.7567C6.76496 12.1462 7.19495 12.3477 7.58446 12.2068C7.97397 12.0659 8.17549 11.6359 8.03458 11.2464L6.62405 11.7567ZM19.3758 12.1484C19.7331 11.9388 19.8528 11.4793 19.6432 11.122C19.4336 10.7648 18.974 10.6451 18.6168 10.8547L19.3758 12.1484ZM6.44331 18.8666L6.06375 18.2196L6.05627 18.2241L6.44331 18.8666ZM5.42408 18.8433L5.00815 19.4674H5.00815L5.42408 18.8433ZM5.01031 17.9116L4.30505 17.6564C4.28802 17.7035 4.27575 17.7521 4.26841 17.8016L5.01031 17.9116ZM8.03458 11.7567C8.17549 11.3672 7.97397 10.9372 7.58446 10.7963C7.19495 10.6554 6.76496 10.8569 6.62405 11.2464L8.03458 11.7567ZM18.9963 12.2516C19.4105 12.2516 19.7463 11.9158 19.7463 11.5016C19.7463 11.0873 19.4105 10.7516 18.9963 10.7516V12.2516ZM7.32931 10.7516C6.9151 10.7516 6.57931 11.0873 6.57931 11.5016C6.57931 11.9158 6.9151 12.2516 7.32931 12.2516V10.7516ZM19.3758 10.8547L6.82284 3.48968L6.06378 4.78344L18.6168 12.1484L19.3758 10.8547ZM6.83035 3.49414C6.26609 3.15419 5.55633 3.17038 5.00816 3.5357L5.84 4.78391C5.90506 4.74055 5.9893 4.73863 6.05627 4.77898L6.83035 3.49414ZM5.00816 3.5357C4.45998 3.90102 4.17184 4.54987 4.26841 5.20151L5.75221 4.98161C5.74075 4.90427 5.77494 4.82727 5.84 4.78391L5.00816 3.5357ZM4.30505 5.34671L6.62405 11.7567L8.03458 11.2464L5.71558 4.83641L4.30505 5.34671ZM18.6168 10.8547L6.06378 18.2197L6.82284 19.5134L19.3758 12.1484L18.6168 10.8547ZM6.05627 18.2241C5.9893 18.2645 5.90506 18.2626 5.84 18.2192L5.00815 19.4674C5.55633 19.8327 6.26609 19.8489 6.83035 19.509L6.05627 18.2241ZM5.84 18.2192C5.77494 18.1759 5.74075 18.0988 5.75221 18.0215L4.26841 17.8016C4.17184 18.4532 4.45998 19.1021 5.00815 19.4674L5.84 18.2192ZM5.71558 18.1667L8.03458 11.7567L6.62405 11.2464L4.30505 17.6564L5.71558 18.1667ZM18.9963 10.7516H7.32931V12.2516H18.9963V10.7516Z" fill="currentColor"/>
</svg>
