<svg width="24" height="24" viewBox="0 0 24 24" fill="none" xmlns="http://www.w3.org/2000/svg">
<path fill-rule="evenodd" clip-rule="evenodd" d="M18 8.514C18.125 15.345 14.042 18.251 11.727 18.936C11.5736 18.9815 11.4104 18.9815 11.257 18.936C8.98 18.262 5.014 15.442 5 8.854C5.01359 8.28396 5.3346 7.76591 5.839 7.5C9.363 5.514 11.058 5 11.489 5C11.92 5 13.749 5.548 17.507 7.7C17.8029 7.86595 17.99 8.17493 18 8.514Z" stroke="currentColor" stroke-width="1.5" stroke-linecap="round" stroke-linejoin="round"/>
<path d="M11.4999 14.107C11.0857 14.107 10.7499 14.4428 10.7499 14.857C10.7499 15.2712 11.0857 15.607 11.4999 15.607V14.107ZM10.3749 11.2L10.9147 10.6792C10.8886 10.6522 10.8606 10.6272 10.8307 10.6044L10.3749 11.2ZM9.99995 10.4L10.7493 10.4307C10.7497 10.4205 10.7499 10.4102 10.7499 10.4H9.99995ZM11.4999 9.893C11.9142 9.893 12.2499 9.55721 12.2499 9.143C12.2499 8.72879 11.9142 8.393 11.4999 8.393V9.893ZM11.5 15.607C11.9142 15.607 12.2499 15.2712 12.2499 14.857C12.2499 14.4428 11.9142 14.107 11.5 14.107V15.607ZM10.7499 12.95C10.7499 12.5358 10.4142 12.2 9.99995 12.2C9.58574 12.2 9.24995 12.5358 9.24995 12.95H10.7499ZM12.25 14.857C12.25 14.4428 11.9142 14.107 11.5 14.107C11.0857 14.107 10.75 14.4428 10.75 14.857H12.25ZM10.75 16C10.75 16.4142 11.0857 16.75 11.5 16.75C11.9142 16.75 12.25 16.4142 12.25 16H10.75ZM11.5 8.393C11.0857 8.393 10.75 8.72879 10.75 9.143C10.75 9.55721 11.0857 9.893 11.5 9.893V8.393ZM12.25 10.889C12.25 11.3032 12.5857 11.639 13 11.639C13.4142 11.639 13.75 11.3032 13.75 10.889H12.25ZM10.75 9.143C10.75 9.55721 11.0857 9.893 11.5 9.893C11.9142 9.893 12.25 9.55721 12.25 9.143H10.75ZM12.25 8C12.25 7.58579 11.9142 7.25 11.5 7.25C11.0857 7.25 10.75 7.58579 10.75 8H12.25ZM11.4999 15.607C11.8488 15.607 12.3689 15.5227 12.8288 15.2414C13.3278 14.9362 13.7499 14.3935 13.7499 13.585H12.2499C12.2499 13.7096 12.221 13.7796 12.1953 13.822C12.167 13.8684 12.1207 13.9162 12.0461 13.9618C11.881 14.0628 11.6511 14.107 11.4999 14.107V15.607ZM13.7499 13.585C13.7499 13.0929 13.605 12.6801 13.3304 12.3418C13.077 12.0296 12.7475 11.8255 12.4712 11.6733C11.8641 11.339 11.3737 11.155 10.9147 10.6792L9.83522 11.7208C10.5012 12.411 11.3233 12.7535 11.7475 12.9872C11.9867 13.119 12.1026 13.2093 12.1656 13.287C12.2074 13.3385 12.2499 13.4111 12.2499 13.585H13.7499ZM10.8307 10.6044C10.7769 10.5632 10.7465 10.4984 10.7493 10.4307L9.25058 10.3693C9.22781 10.9253 9.47728 11.4575 9.91916 11.7956L10.8307 10.6044ZM10.7499 10.4C10.7499 10.2053 10.7898 10.113 10.8118 10.0753C10.8324 10.04 10.8605 10.0121 10.9114 9.98538C11.0458 9.91473 11.2534 9.893 11.4999 9.893V8.393C11.2465 8.393 10.7041 8.39977 10.2135 8.65762C9.95188 8.79513 9.69873 9.00651 9.51619 9.31942C9.33508 9.62987 9.24995 9.99474 9.24995 10.4H10.7499ZM11.5 14.107C11.4128 14.107 11.2259 14.0662 11.0688 13.9225C10.9344 13.7995 10.7499 13.5357 10.7499 12.95H9.24995C9.24995 13.8903 9.56547 14.58 10.0561 15.029C10.524 15.4573 11.0871 15.607 11.5 15.607V14.107ZM10.75 14.857V16H12.25V14.857H10.75ZM11.5 9.893C11.6614 9.893 11.8448 9.93183 11.9738 10.0333C12.0683 10.1076 12.25 10.3042 12.25 10.889H13.75C13.75 9.94781 13.4316 9.27139 12.9011 8.85421C12.4051 8.46417 11.8385 8.393 11.5 8.393V9.893ZM12.25 9.143V8H10.75V9.143H12.25Z" fill="currentColor"/>
</svg>
