<svg width="24" height="24" viewBox="0 0 24 24" fill="none" xmlns="http://www.w3.org/2000/svg">
<path fill-rule="evenodd" clip-rule="evenodd" d="M5.01132 9.177L5.77532 18.177C5.84062 19.1879 6.66948 19.9803 7.68232 20H16.3253C17.3378 19.9798 18.1661 19.1875 18.2313 18.177L18.9953 9.177C19.0542 8.63047 18.8817 8.08424 18.5196 7.67066C18.1575 7.25708 17.6388 7.01389 17.0893 7H6.91732C6.3678 7.01389 5.84917 7.25708 5.48707 7.67066C5.12497 8.08424 4.95246 8.63047 5.01132 9.177Z" stroke="currentColor" stroke-width="1.5" stroke-linecap="round" stroke-linejoin="round"/>
<path d="M16.203 6.66154C16.0161 7.03118 16.1642 7.48236 16.5338 7.66929C16.9035 7.85621 17.3547 7.7081 17.5416 7.33846L16.203 6.66154ZM16.8515 5.71218L17.5095 5.35226V5.35226L16.8515 5.71218ZM15.7783 5L15.8543 4.25386C15.8291 4.25129 15.8037 4.25 15.7783 4.25V5ZM8.22831 5V4.25C8.20292 4.25 8.17755 4.25129 8.1523 4.25386L8.22831 5ZM7.15513 5.71218L6.49714 5.35226L6.49714 5.35226L7.15513 5.71218ZM6.46502 7.33846C6.65195 7.7081 7.10313 7.85621 7.47277 7.66929C7.84241 7.48236 7.99052 7.03118 7.8036 6.66154L6.46502 7.33846ZM10.2533 11C10.2533 10.5858 9.91752 10.25 9.50331 10.25C9.0891 10.25 8.75331 10.5858 8.75331 11H10.2533ZM9.50331 11.5H8.75331H9.50331ZM15.2533 11C15.2533 10.5858 14.9175 10.25 14.5033 10.25C14.0891 10.25 13.7533 10.5858 13.7533 11H15.2533ZM17.5416 7.33846C17.8586 6.71151 17.8466 5.96863 17.5095 5.35226L16.1935 6.0721C16.2935 6.25502 16.2971 6.47548 16.203 6.66154L17.5416 7.33846ZM17.5095 5.35226C17.1723 4.73588 16.5533 4.32507 15.8543 4.25386L15.7023 5.74614C15.9097 5.76727 16.0934 5.88919 16.1935 6.0721L17.5095 5.35226ZM15.7783 4.25H8.22831V5.75H15.7783V4.25ZM8.1523 4.25386C7.45335 4.32507 6.8343 4.73588 6.49714 5.35226L7.81313 6.0721C7.91318 5.88919 8.0969 5.76727 8.30432 5.74614L8.1523 4.25386ZM6.49714 5.35226C6.15998 5.96863 6.14797 6.71151 6.46502 7.33846L7.8036 6.66154C7.70951 6.47548 7.71307 6.25502 7.81313 6.0721L6.49714 5.35226ZM8.75331 11V11.5H10.2533V11H8.75331ZM8.75331 11.5C8.75331 13.2949 10.2084 14.75 12.0033 14.75V13.25C11.0368 13.25 10.2533 12.4665 10.2533 11.5H8.75331ZM12.0033 14.75C13.7982 14.75 15.2533 13.2949 15.2533 11.5H13.7533C13.7533 12.4665 12.9698 13.25 12.0033 13.25V14.75ZM15.2533 11.5V11H13.7533V11.5H15.2533Z" fill="currentColor"/>
</svg>
