<svg width="24" height="24" viewBox="0 0 24 24" fill="none" xmlns="http://www.w3.org/2000/svg">
<path d="M6.54401 9.53165C6.83763 9.23949 6.83881 8.76462 6.54665 8.47099C6.25449 8.17737 5.77962 8.17619 5.48599 8.46835L6.54401 9.53165ZM2.47099 11.4683C2.17737 11.7605 2.17619 12.2354 2.46835 12.529C2.76051 12.8226 3.23538 12.8238 3.52901 12.5317L2.47099 11.4683ZM3.52901 11.4683C3.23538 11.1762 2.76051 11.1774 2.46835 11.471C2.17619 11.7646 2.17737 12.2395 2.47099 12.5317L3.52901 11.4683ZM5.48599 15.5317C5.77962 15.8238 6.25449 15.8226 6.54665 15.529C6.83881 15.2354 6.83763 14.7605 6.54401 14.4683L5.48599 15.5317ZM3 11.25C2.58579 11.25 2.25 11.5858 2.25 12C2.25 12.4142 2.58579 12.75 3 12.75V11.25ZM17 12.75C17.4142 12.75 17.75 12.4142 17.75 12C17.75 11.5858 17.4142 11.25 17 11.25V12.75ZM5.48599 8.46835L2.47099 11.4683L3.52901 12.5317L6.54401 9.53165L5.48599 8.46835ZM2.47099 12.5317L5.48599 15.5317L6.54401 14.4683L3.52901 11.4683L2.47099 12.5317ZM3 12.75L17 12.75V11.25L3 11.25V12.75Z" fill="currentColor"/>
<path d="M9 15C9 17.2091 10.7909 19 13 19H17C19.2091 19 21 17.2091 21 15V9C21 6.79086 19.2091 5 17 5H13C10.7909 5 9 6.79086 9 9" stroke="currentColor" stroke-width="1.5" stroke-linecap="round" stroke-linejoin="round"/>
</svg>
