<svg width="24" height="24" viewBox="0 0 24 24" fill="none" xmlns="http://www.w3.org/2000/svg">
<path fill-rule="evenodd" clip-rule="evenodd" d="M6.5 7L7.244 11.963L7.4 13L7.989 16.926C7.99546 16.9754 7.99913 17.0252 8 17.075C8.04035 18.1502 8.92407 19.0008 10 19H14C15.047 19.0003 15.917 18.1931 15.995 17.149C16.002 17.049 16.008 16.949 16.023 16.849L16.6 13L17.5 7H6.5Z" stroke="currentColor" stroke-width="1.5" stroke-linecap="round" stroke-linejoin="round"/>
<path fill-rule="evenodd" clip-rule="evenodd" d="M10.5 13C10.5 11.9 11.172 11 12 11C12.828 11 13.5 11.9 13.5 13C13.5 14.1 12.828 15 12 15C11.172 15 10.5 14.1 10.5 13Z" stroke="currentColor" stroke-width="1.5" stroke-linecap="round" stroke-linejoin="round"/>
<path d="M6.5 7.75C6.91421 7.75 7.25 7.41421 7.25 7C7.25 6.58579 6.91421 6.25 6.5 6.25V7.75ZM5 6.25C4.58579 6.25 4.25 6.58579 4.25 7C4.25 7.41421 4.58579 7.75 5 7.75V6.25ZM11.2885 6.76283C11.1575 7.15579 11.3699 7.58053 11.7628 7.71151C12.1558 7.8425 12.5805 7.63013 12.7115 7.23717L11.2885 6.76283ZM12.772 4.684L13.4835 4.92117L13.4836 4.921L12.772 4.684ZM13.721 4L13.7208 4.75H13.721V4ZM15 4.75C15.4142 4.75 15.75 4.41421 15.75 4C15.75 3.58579 15.4142 3.25 15 3.25V4.75ZM17.5 6.25C17.0858 6.25 16.75 6.58579 16.75 7C16.75 7.41421 17.0858 7.75 17.5 7.75V6.25ZM19 7.75C19.4142 7.75 19.75 7.41421 19.75 7C19.75 6.58579 19.4142 6.25 19 6.25V7.75ZM10.0885 13.627C10.4348 13.8543 10.8998 13.7578 11.127 13.4115C11.3543 13.0652 11.2578 12.6002 10.9115 12.373L10.0885 13.627ZM6.9885 12.373C6.6422 12.6002 6.5457 13.0652 6.77297 13.4115C7.00024 13.7578 7.46521 13.8543 7.8115 13.627L6.9885 12.373ZM13.8102 12.3172C13.4331 12.1458 12.9885 12.3127 12.8172 12.6898C12.6458 13.0669 12.8127 13.5115 13.1898 13.6828L13.8102 12.3172ZM17.1575 13.5017C17.4346 13.1938 17.4096 12.7196 17.1017 12.4425C16.7938 12.1654 16.3196 12.1904 16.0425 12.4983L17.1575 13.5017ZM6.5 6.25H5V7.75H6.5V6.25ZM12.7115 7.23717L13.4835 4.92117L12.0605 4.44683L11.2885 6.76283L12.7115 7.23717ZM13.4836 4.921C13.5176 4.81886 13.6132 4.74997 13.7208 4.75L13.7212 3.25C12.9676 3.24982 12.2986 3.73205 12.0604 4.447L13.4836 4.921ZM13.721 4.75H15V3.25H13.721V4.75ZM17.5 7.75H19V6.25H17.5V7.75ZM10.9115 12.373C9.72061 11.5914 8.17939 11.5914 6.9885 12.373L7.8115 13.627C8.50272 13.1734 9.39728 13.1734 10.0885 13.627L10.9115 12.373ZM13.1898 13.6828C13.611 13.8742 14.2867 14.1029 14.9814 14.1713C15.6398 14.236 16.5498 14.1769 17.1575 13.5017L16.0425 12.4983C15.9302 12.6231 15.6567 12.7305 15.1283 12.6785C14.6363 12.6301 14.122 12.4588 13.8102 12.3172L13.1898 13.6828Z" fill="currentColor"/>
</svg>
