<svg width="24" height="24" viewBox="0 0 24 24" fill="none" xmlns="http://www.w3.org/2000/svg">
<path d="M13.25 5C13.25 4.58579 12.9142 4.25 12.5 4.25C12.0858 4.25 11.75 4.58579 11.75 5H13.25ZM11.75 19C11.75 19.4142 12.0858 19.75 12.5 19.75C12.9142 19.75 13.25 19.4142 13.25 19H11.75ZM15.917 6.75C15.917 6.33579 15.5812 6 15.167 6C14.7528 6 14.417 6.33579 14.417 6.75H15.917ZM14.417 17.25C14.417 17.6642 14.7528 18 15.167 18C15.5812 18 15.917 17.6642 15.917 17.25H14.417ZM18.583 8.5C18.583 8.08579 18.2472 7.75 17.833 7.75C17.4188 7.75 17.083 8.08579 17.083 8.5H18.583ZM17.083 15.5C17.083 15.9142 17.4188 16.25 17.833 16.25C18.2472 16.25 18.583 15.9142 18.583 15.5H17.083ZM21.25 10.25C21.25 9.83579 20.9142 9.5 20.5 9.5C20.0858 9.5 19.75 9.83579 19.75 10.25H21.25ZM19.75 13.75C19.75 14.1642 20.0858 14.5 20.5 14.5C20.9142 14.5 21.25 14.1642 21.25 13.75H19.75ZM9.083 17.25C9.083 17.6642 9.41879 18 9.833 18C10.2472 18 10.583 17.6642 10.583 17.25H9.083ZM10.583 6.75C10.583 6.33579 10.2472 6 9.833 6C9.41879 6 9.083 6.33579 9.083 6.75H10.583ZM6.417 15.5C6.417 15.9142 6.75279 16.25 7.167 16.25C7.58121 16.25 7.917 15.9142 7.917 15.5H6.417ZM7.917 8.5C7.917 8.08579 7.58121 7.75 7.167 7.75C6.75279 7.75 6.417 8.08579 6.417 8.5H7.917ZM3.75 13.75C3.75 14.1642 4.08579 14.5 4.5 14.5C4.91421 14.5 5.25 14.1642 5.25 13.75H3.75ZM5.25 10.25C5.25 9.83579 4.91421 9.5 4.5 9.5C4.08579 9.5 3.75 9.83579 3.75 10.25H5.25ZM11.75 5V19H13.25V5H11.75ZM14.417 6.75V17.25H15.917V6.75H14.417ZM17.083 8.5V15.5H18.583V8.5H17.083ZM19.75 10.25V13.75H21.25V10.25H19.75ZM10.583 17.25V6.75H9.083V17.25H10.583ZM7.917 15.5V8.5H6.417V15.5H7.917ZM5.25 13.75V10.25H3.75V13.75H5.25Z" fill="currentColor"/>
</svg>
