<svg width="24" height="24" viewBox="0 0 24 24" fill="none" xmlns="http://www.w3.org/2000/svg">
<path fill-rule="evenodd" clip-rule="evenodd" d="M11 16C10.8369 13.8621 9.13793 12.1631 7 12C9.13793 11.8369 10.8369 10.1379 11 8C11.1631 10.1379 12.8621 11.8369 15 12C12.8621 12.1631 11.1631 13.8621 11 16V16Z" stroke="currentColor" stroke-width="1.5" stroke-linecap="round" stroke-linejoin="round"/>
<path d="M16 19C15.9128 18.3646 15.5239 17.1535 14 17C15.5239 16.8465 15.9128 15.6354 16 15C16.1535 16.5239 17.3646 16.9128 18 17C17.3646 17.0872 16.1535 17.4761 16 19Z" fill="#707070"/>
<path fill-rule="evenodd" clip-rule="evenodd" d="M16 19C15.9182 17.9311 15.0689 17.0818 14 17C15.0689 16.9182 15.9182 16.0689 16 15C16.0818 16.0689 16.9311 16.9182 18 17C16.9311 17.0818 16.0818 17.9311 16 19Z" stroke="currentColor" stroke-width="1.5" stroke-linecap="round" stroke-linejoin="round"/>
<path d="M16 5C16.1535 6.52394 17.3646 6.91282 18 7C17.3646 7.08719 16.1535 7.47606 16 9C15.9128 8.3646 15.5239 7.15348 14 7C15.5239 6.84652 15.9128 5.6354 16 5Z" fill="#707070"/>
<path fill-rule="evenodd" clip-rule="evenodd" d="M16 5C15.9182 6.06887 15.0689 6.91823 14 7C15.0689 7.08177 15.9182 7.93113 16 9C16.0818 7.93113 16.9311 7.08177 18 7C16.9311 6.91823 16.0818 6.06887 16 5Z" stroke="currentColor" stroke-width="1.5" stroke-linecap="round" stroke-linejoin="round"/>
</svg>
