<svg width="24" height="24" viewBox="0 0 24 24" fill="none" xmlns="http://www.w3.org/2000/svg">
<path fill-rule="evenodd" clip-rule="evenodd" d="M13.849 8.515L12 5L10.151 8.515C10.0204 8.77186 9.83131 8.99449 9.599 9.165C9.36556 9.33638 9.09543 9.45107 8.81 9.5L5 10.247L7.66 13.428C8.02377 13.8267 8.19542 14.3643 8.13 14.9L7.624 19L11.132 17.3C11.4026 17.1689 11.6993 17.1006 12 17.1C12.2821 17.1009 12.5599 17.1694 12.81 17.3L16.4 18.895L15.894 14.844C15.83 14.3095 16.002 13.7736 16.365 13.376L19 10.247L15.19 9.5C14.9042 9.45122 14.6337 9.33652 14.4 9.165C14.1681 8.99438 13.9793 8.77175 13.849 8.515Z" stroke="currentColor" stroke-width="1.5" stroke-linecap="round" stroke-linejoin="round"/>
</svg>
