<svg width="24" height="24" viewBox="0 0 24 24" fill="none" xmlns="http://www.w3.org/2000/svg">
<path d="M17.8794 10.196L18.5706 10.4871L17.8794 10.196ZM17.4752 8.11053L16.9428 8.63876L17.4752 8.11053ZM14.211 9.455L14.961 9.45856V9.45502L14.211 9.455ZM14.7622 10.8022L14.2298 11.3304V11.3304L14.7622 10.8022ZM16.855 11.364C16.855 10.9498 16.5192 10.614 16.105 10.614C15.6908 10.614 15.355 10.9498 15.355 11.364H16.855ZM16.105 15.182H15.3549L15.3551 15.1942L16.105 15.182ZM14.2283 18.5155L13.8498 17.868L13.8498 17.868L14.2283 18.5155ZM10.4028 18.5155L10.7813 17.868V17.868L10.4028 18.5155ZM8.52602 15.182L9.27602 15.1942V15.182H8.52602ZM9.27602 11.364C9.27602 10.9498 8.94023 10.614 8.52602 10.614C8.11181 10.614 7.77602 10.9498 7.77602 11.364H9.27602ZM8.52307 12.114C8.93728 12.1156 9.27438 11.7812 9.27601 11.367C9.27764 10.9527 8.94318 10.6156 8.52897 10.614L8.52307 12.114ZM6.73572 10.6142L7.26814 10.0859L6.73572 10.6142ZM6.00002 8.818L6.75002 8.82096V8.818H6.00002ZM6.00002 6L5.46969 5.46967C5.32904 5.61032 5.25002 5.80109 5.25002 6H6.00002ZM7.53035 5.53033C7.82324 5.23744 7.82324 4.76256 7.53035 4.46967C7.23746 4.17678 6.76258 4.17678 6.46969 4.46967L7.53035 5.53033ZM8.52078 10.614C8.10658 10.6169 7.77314 10.955 7.77604 11.3692C7.77893 11.7834 8.11706 12.1169 8.53126 12.114L8.52078 10.614ZM10.2958 10.6087L9.75792 10.086V10.086L10.2958 10.6087ZM11 8.818H10.25C10.25 8.82342 10.2501 8.82885 10.2502 8.83427L11 8.818ZM11 6H11.75C11.75 5.80109 11.671 5.61032 11.5303 5.46967L11 6ZM10.5303 4.46967C10.2375 4.17678 9.76258 4.17678 9.46969 4.46967C9.1768 4.76256 9.1768 5.23744 9.46969 5.53033L10.5303 4.46967ZM16.0991 12.114C17.1765 12.1224 18.1524 11.48 18.5706 10.4871L17.1882 9.9049C17.0059 10.3377 16.5805 10.6177 16.1109 10.614L16.0991 12.114ZM18.5706 10.4871C18.9887 9.49419 18.7664 8.3471 18.0076 7.58229L16.9428 8.63876C17.2735 8.97212 17.3704 9.47212 17.1882 9.9049L18.5706 10.4871ZM18.0076 7.58229C17.2488 6.81749 16.1035 6.58614 15.1073 6.99645L15.6786 8.3834C16.1128 8.20456 16.612 8.3054 16.9428 8.63876L18.0076 7.58229ZM15.1073 6.99645C14.1112 7.40675 13.4611 8.37762 13.461 9.45498L14.961 9.45502C14.961 8.98543 15.2444 8.56225 15.6786 8.3834L15.1073 6.99645ZM13.461 9.45144C13.4577 10.155 13.7343 10.831 14.2298 11.3304L15.2946 10.274C15.0796 10.0572 14.9596 9.76387 14.961 9.45856L13.461 9.45144ZM14.2298 11.3304C14.7253 11.8299 15.3991 12.1118 16.1027 12.114L16.1074 10.614C15.8021 10.613 15.5097 10.4907 15.2946 10.274L14.2298 11.3304ZM15.355 11.364V15.182H16.855V11.364H15.355ZM15.3551 15.1942C15.373 16.2919 14.7975 17.3139 13.8498 17.868L14.6068 19.163C16.0222 18.3355 16.8816 16.8092 16.8549 15.1698L15.3551 15.1942ZM13.8498 17.868C12.902 18.4221 11.7291 18.4221 10.7813 17.868L10.0243 19.163C11.4397 19.9904 13.1913 19.9904 14.6068 19.163L13.8498 17.868ZM10.7813 17.868C9.8335 17.3139 9.25809 16.2919 9.27592 15.1942L7.77612 15.1698C7.74949 16.8092 8.60882 18.3355 10.0243 19.163L10.7813 17.868ZM9.27602 15.182V11.364H7.77602V15.182H9.27602ZM8.52897 10.614C8.05529 10.6121 7.60176 10.4222 7.26814 10.0859L6.2033 11.1424C6.81712 11.7611 7.65156 12.1106 8.52307 12.114L8.52897 10.614ZM7.26814 10.0859C6.93452 9.74966 6.74814 9.29464 6.75001 8.82096L5.25003 8.81504C5.24658 9.68654 5.58949 10.5237 6.2033 11.1424L7.26814 10.0859ZM6.75002 8.818V6H5.25002V8.818H6.75002ZM6.53035 6.53033L7.53035 5.53033L6.46969 4.46967L5.46969 5.46967L6.53035 6.53033ZM8.53126 12.114C9.39934 12.1079 10.2287 11.754 10.8337 11.1314L9.75792 10.086C9.43286 10.4206 8.98722 10.6108 8.52078 10.614L8.53126 12.114ZM10.8337 11.1314C11.4387 10.5088 11.7687 9.66962 11.7498 8.80173L10.2502 8.83427C10.2603 9.30061 10.083 9.75152 9.75792 10.086L10.8337 11.1314ZM11.75 8.818V6H10.25V8.818H11.75ZM11.5303 5.46967L10.5303 4.46967L9.46969 5.53033L10.4697 6.53033L11.5303 5.46967Z" fill="currentColor"/>
</svg>
