<svg width="24" height="24" viewBox="0 0 24 24" fill="none" xmlns="http://www.w3.org/2000/svg">
<path fill-rule="evenodd" clip-rule="evenodd" d="M7.02263 6.5C6.50576 6.5015 6.05281 6.84621 5.91363 7.344L5.07863 9.592C4.82622 10.5412 5.19423 11.5469 5.99963 12.109C6.6169 12.537 7.40429 12.6367 8.10872 12.3759C8.81316 12.1151 9.34587 11.5268 9.53563 10.8L9.70363 9.6L10.1906 6.5H7.02263Z" stroke="currentColor" stroke-width="1.5" stroke-linecap="round" stroke-linejoin="round"/>
<path fill-rule="evenodd" clip-rule="evenodd" d="M16.8176 6.5C17.3345 6.5015 17.7875 6.84621 17.9266 7.344L18.8566 9.449C18.9011 9.54492 18.9347 9.64556 18.9566 9.749C19.1319 10.6557 18.7569 11.5805 17.9996 12.109C17.3824 12.537 16.595 12.6367 15.8905 12.3759C15.1861 12.1151 14.6534 11.5268 14.4636 10.8L14.2996 9.592L13.6506 6.5H16.8176Z" stroke="currentColor" stroke-width="1.5" stroke-linecap="round" stroke-linejoin="round"/>
<path d="M10.1906 5.75C9.77639 5.75 9.4406 6.08579 9.4406 6.5C9.4406 6.91421 9.77639 7.25 10.1906 7.25V5.75ZM13.6506 7.25C14.0648 7.25 14.4006 6.91421 14.4006 6.5C14.4006 6.08579 14.0648 5.75 13.6506 5.75V7.25ZM10.4495 9.60488C10.4566 9.19073 10.1266 8.84923 9.71249 8.84211C9.29833 8.83499 8.95683 9.16496 8.94971 9.57912L10.4495 9.60488ZM9.6896 10.174L8.9396 10.1611V10.174H9.6896ZM14.3036 10.174H15.0536L15.0536 10.1688L14.3036 10.174ZM15.0496 9.58685C15.0467 9.17264 14.7087 8.83917 14.2944 8.84202C13.8802 8.84486 13.5468 9.18295 13.5496 9.59715L15.0496 9.58685ZM6.74954 12.1184C6.75476 11.7043 6.42323 11.3643 6.00905 11.3591C5.59487 11.3538 5.25488 11.6854 5.24966 12.0996L6.74954 12.1184ZM5.9446 16.476L5.19466 16.4666L5.19466 16.467L5.9446 16.476ZM6.52184 17.9058L7.05532 17.3786H7.05532L6.52184 17.9058ZM7.9446 18.5V17.75H7.94455L7.9446 18.5ZM9.9206 19.25C10.3348 19.25 10.6706 18.9142 10.6706 18.5C10.6706 18.0858 10.3348 17.75 9.9206 17.75V19.25ZM18.7495 12.1223C18.7568 11.7082 18.4271 11.3665 18.0129 11.3591C17.5988 11.3518 17.2571 11.6815 17.2497 12.0957L18.7495 12.1223ZM17.9216 16.5L17.1716 16.4867V16.5H17.9216ZM13.9216 17.75C13.5074 17.75 13.1716 18.0858 13.1716 18.5C13.1716 18.9142 13.5074 19.25 13.9216 19.25V17.75ZM9.1716 18.5C9.1716 18.9142 9.50739 19.25 9.9216 19.25C10.3358 19.25 10.6716 18.9142 10.6716 18.5H9.1716ZM13.1716 18.5C13.1716 18.9142 13.5074 19.25 13.9216 19.25C14.3358 19.25 14.6716 18.9142 14.6716 18.5H13.1716ZM9.9216 17.75C9.50739 17.75 9.1716 18.0858 9.1716 18.5C9.1716 18.9142 9.50739 19.25 9.9216 19.25V17.75ZM13.9216 19.25C14.3358 19.25 14.6716 18.9142 14.6716 18.5C14.6716 18.0858 14.3358 17.75 13.9216 17.75V19.25ZM10.1906 7.25H13.6506V5.75H10.1906V7.25ZM8.94971 9.57912L8.93971 10.1611L10.4395 10.1869L10.4495 9.60488L8.94971 9.57912ZM8.9396 10.174C8.9396 11.8623 10.3083 13.231 11.9966 13.231V11.731C11.1367 11.731 10.4396 11.0339 10.4396 10.174H8.9396ZM11.9966 13.231C13.6849 13.231 15.0536 11.8623 15.0536 10.174H13.5536C13.5536 11.0339 12.8565 11.731 11.9966 11.731V13.231ZM15.0536 10.1688L15.0496 9.58685L13.5496 9.59715L13.5536 10.1792L15.0536 10.1688ZM5.24966 12.0996L5.19466 16.4666L6.69454 16.4854L6.74954 12.1184L5.24966 12.0996ZM5.19466 16.467C5.18584 17.202 5.47167 17.91 5.98835 18.4329L7.05532 17.3786C6.82046 17.1409 6.69054 16.8191 6.69455 16.485L5.19466 16.467ZM5.98835 18.4329C6.50504 18.9558 7.20956 19.2501 7.94466 19.25L7.94455 17.75C7.61041 17.75 7.29018 17.6163 7.05532 17.3786L5.98835 18.4329ZM7.9446 19.25H9.9206V17.75H7.9446V19.25ZM17.2497 12.0957L17.1717 16.4867L18.6715 16.5133L18.7495 12.1223L17.2497 12.0957ZM17.1716 16.5C17.1716 17.1904 16.612 17.75 15.9216 17.75V19.25C17.4404 19.25 18.6716 18.0188 18.6716 16.5H17.1716ZM15.9216 17.75H13.9216V19.25H15.9216V17.75ZM10.6716 18.5V17.5H9.1716V18.5H10.6716ZM10.6716 17.5C10.6716 16.8096 11.2312 16.25 11.9216 16.25V14.75C10.4028 14.75 9.1716 15.9812 9.1716 17.5H10.6716ZM11.9216 16.25C12.612 16.25 13.1716 16.8096 13.1716 17.5H14.6716C14.6716 15.9812 13.4404 14.75 11.9216 14.75V16.25ZM13.1716 17.5V18.5H14.6716V17.5H13.1716ZM9.9216 19.25H13.9216V17.75H9.9216V19.25Z" fill="currentColor"/>
</svg>
