<svg width="24" height="24" viewBox="0 0 24 24" fill="none" xmlns="http://www.w3.org/2000/svg">
<path fill-rule="evenodd" clip-rule="evenodd" d="M14.625 12C14.625 13.4497 13.4497 14.625 12 14.625C10.5503 14.625 9.375 13.4497 9.375 12C9.375 10.5503 10.5503 9.375 12 9.375C13.4497 9.375 14.625 10.5503 14.625 12Z" stroke="currentColor" stroke-width="1.5" stroke-linecap="round" stroke-linejoin="round"/>
<path d="M19 12.75C19.4142 12.75 19.75 12.4142 19.75 12C19.75 11.5858 19.4142 11.25 19 11.25V12.75ZM17.25 11.25C16.8358 11.25 16.5 11.5858 16.5 12C16.5 12.4142 16.8358 12.75 17.25 12.75V11.25ZM6.75 12.75C7.16421 12.75 7.5 12.4142 7.5 12C7.5 11.5858 7.16421 11.25 6.75 11.25V12.75ZM5 11.25C4.58579 11.25 4.25 11.5858 4.25 12C4.25 12.4142 4.58579 12.75 5 12.75V11.25ZM12.75 5C12.75 4.58579 12.4142 4.25 12 4.25C11.5858 4.25 11.25 4.58579 11.25 5H12.75ZM11.25 6.75C11.25 7.16421 11.5858 7.5 12 7.5C12.4142 7.5 12.75 7.16421 12.75 6.75H11.25ZM12.75 17.25C12.75 16.8358 12.4142 16.5 12 16.5C11.5858 16.5 11.25 16.8358 11.25 17.25H12.75ZM11.25 19C11.25 19.4142 11.5858 19.75 12 19.75C12.4142 19.75 12.75 19.4142 12.75 19H11.25ZM17.4803 7.58033C17.7732 7.28744 17.7732 6.81256 17.4803 6.51967C17.1874 6.22678 16.7126 6.22678 16.4197 6.51967L17.4803 7.58033ZM15.1817 7.75767C14.8888 8.05056 14.8888 8.52544 15.1817 8.81833C15.4746 9.11122 15.9494 9.11122 16.2423 8.81833L15.1817 7.75767ZM8.81833 16.2423C9.11122 15.9494 9.11122 15.4746 8.81833 15.1817C8.52544 14.8888 8.05056 14.8888 7.75767 15.1817L8.81833 16.2423ZM6.51967 16.4197C6.22678 16.7126 6.22678 17.1874 6.51967 17.4803C6.81256 17.7732 7.28744 17.7732 7.58033 17.4803L6.51967 16.4197ZM7.58033 6.51967C7.28744 6.22678 6.81256 6.22678 6.51967 6.51967C6.22678 6.81256 6.22678 7.28744 6.51967 7.58033L7.58033 6.51967ZM7.75767 8.81833C8.05056 9.11122 8.52544 9.11122 8.81833 8.81833C9.11122 8.52544 9.11122 8.05056 8.81833 7.75767L7.75767 8.81833ZM16.2433 15.1827C15.9504 14.8898 15.4756 14.8898 15.1827 15.1827C14.8898 15.4756 14.8898 15.9504 15.1827 16.2433L16.2433 15.1827ZM16.4197 17.4803C16.7126 17.7732 17.1874 17.7732 17.4803 17.4803C17.7732 17.1874 17.7732 16.7126 17.4803 16.4197L16.4197 17.4803ZM19 11.25H17.25V12.75H19V11.25ZM6.75 11.25H5V12.75H6.75V11.25ZM11.25 5V6.75H12.75V5H11.25ZM11.25 17.25V19H12.75V17.25H11.25ZM16.4197 6.51967L15.1817 7.75767L16.2423 8.81833L17.4803 7.58033L16.4197 6.51967ZM7.75767 15.1817L6.51967 16.4197L7.58033 17.4803L8.81833 16.2423L7.75767 15.1817ZM6.51967 7.58033L7.75767 8.81833L8.81833 7.75767L7.58033 6.51967L6.51967 7.58033ZM15.1827 16.2433L16.4197 17.4803L17.4803 16.4197L16.2433 15.1827L15.1827 16.2433Z" fill="currentColor"/>
</svg>
