<svg width="24" height="24" viewBox="0 0 24 24" fill="none" xmlns="http://www.w3.org/2000/svg">
<path fill-rule="evenodd" clip-rule="evenodd" d="M11.7984 16.3984L14.0984 14.0984L16.3984 11.7984C16.9167 11.263 16.9967 10.4407 16.5914 9.81544C16.1992 9.13641 15.4948 8.69706 14.7124 8.64344C13.6574 8.66444 12.4504 8.87644 11.6974 8.12344L8.95444 5.37944C8.46103 4.87943 7.65612 4.87272 7.15444 5.36444L5.36444 7.15144C4.87272 7.65312 4.87943 8.45803 5.37944 8.95144L8.12344 11.6984C8.87644 12.4514 8.66344 13.6584 8.64344 14.7134C8.69738 15.4954 9.13669 16.1994 9.81544 16.5914C10.4407 16.9967 11.263 16.9167 11.7984 16.3984Z" stroke="currentColor" stroke-width="1.5" stroke-linecap="round" stroke-linejoin="round"/>
<path d="M14.0984 14.0984L18.9984 18.9984" stroke="currentColor" stroke-width="1.5" stroke-linecap="round"/>
</svg>
