<svg width="24" height="24" viewBox="0 0 24 24" fill="none" xmlns="http://www.w3.org/2000/svg">
<path fill-rule="evenodd" clip-rule="evenodd" d="M8.50742 8H15.5074C17.5741 8.14693 19.1361 9.93211 19.0074 12C19.1361 14.0679 17.5741 15.8531 15.5074 16H8.50742C6.44074 15.8531 4.87871 14.0679 5.00742 12C4.87871 9.93211 6.44074 8.14693 8.50742 8Z" stroke="currentColor" stroke-width="1.5" stroke-linecap="round" stroke-linejoin="round"/>
<path fill-rule="evenodd" clip-rule="evenodd" d="M9.00739 14C7.90282 14 7.00739 13.1046 7.00739 12C7.00739 10.8954 7.90282 10 9.00739 10C10.112 10 11.0074 10.8954 11.0074 12C11.0074 12.5304 10.7967 13.0391 10.4216 13.4142C10.0465 13.7893 9.53782 14 9.00739 14Z" stroke="currentColor" stroke-width="1.5" stroke-linecap="round" stroke-linejoin="round"/>
</svg>
