<svg width="24" height="24" viewBox="0 0 24 24" fill="none" xmlns="http://www.w3.org/2000/svg">
<path d="M12.0007 13.537L12.5959 13.0807C12.454 12.8955 12.234 12.787 12.0007 12.787C11.7675 12.787 11.5475 12.8955 11.4055 13.0807L12.0007 13.537ZM8.88974 15.066L8.89204 14.316C8.88678 14.316 8.88153 14.316 8.87627 14.3161L8.88974 15.066ZM8.44674 7.443L8.52022 8.18939C8.76089 8.1657 8.97537 8.02741 9.09627 7.81797C9.21718 7.60853 9.22968 7.35364 9.12984 7.13338L8.44674 7.443ZM8.11174 5.889L8.86174 5.88968V5.889H8.11174ZM15.8897 5.889H15.1397V5.88968L15.8897 5.889ZM15.5547 7.443L14.8716 7.13338C14.7718 7.35364 14.7843 7.60853 14.9052 7.81797C15.0261 8.02741 15.2406 8.1657 15.4813 8.18939L15.5547 7.443ZM18.9949 11.4673L18.2462 11.4238V11.4238L18.9949 11.4673ZM15.1117 15.066L15.1252 14.3161C15.12 14.316 15.1147 14.316 15.1094 14.316L15.1117 15.066ZM12.7507 13.537C12.7507 13.1228 12.415 12.787 12.0007 12.787C11.5865 12.787 11.2507 13.1228 11.2507 13.537H12.7507ZM11.2507 21.066C11.2507 21.4802 11.5865 21.816 12.0007 21.816C12.415 21.816 12.7507 21.4802 12.7507 21.066H11.2507ZM11.2507 13.537C11.2507 13.9512 11.5865 14.287 12.0007 14.287C12.415 14.287 12.7507 13.9512 12.7507 13.537H11.2507ZM12.7507 11.551C12.7507 11.1368 12.415 10.801 12.0007 10.801C11.5865 10.801 11.2507 11.1368 11.2507 11.551H12.7507ZM12.7507 8.566C12.7507 8.15179 12.415 7.816 12.0007 7.816C11.5865 7.816 11.2507 8.15179 11.2507 8.566H12.7507ZM11.2507 9.566C11.2507 9.98021 11.5865 10.316 12.0007 10.316C12.415 10.316 12.7507 9.98021 12.7507 9.566H11.2507ZM12.4507 10.166C12.7821 9.91747 12.8493 9.44737 12.6007 9.116C12.3522 8.78463 11.8821 8.71747 11.5507 8.966L12.4507 10.166ZM9.55074 10.466C9.21937 10.7145 9.15221 11.1846 9.40074 11.516C9.64927 11.8474 10.1194 11.9145 10.4507 11.666L9.55074 10.466ZM12.7507 9.566C12.7507 9.15179 12.415 8.816 12.0007 8.816C11.5865 8.816 11.2507 9.15179 11.2507 9.566H12.7507ZM11.2507 11.551C11.2507 11.9652 11.5865 12.301 12.0007 12.301C12.415 12.301 12.7507 11.9652 12.7507 11.551H11.2507ZM12.2829 10.8561C11.8991 10.7003 11.4616 10.8851 11.3058 11.2689C11.15 11.6527 11.3348 12.0901 11.7186 12.2459L12.2829 10.8561ZM14.2186 13.2609C14.6024 13.4167 15.0398 13.2319 15.1956 12.8481C15.3515 12.4643 15.1667 12.0269 14.7829 11.8711L14.2186 13.2609ZM11.4055 13.0807C10.8064 13.8621 9.87675 14.319 8.89204 14.316L8.88743 15.816C10.3403 15.8205 11.7119 15.1463 12.5959 13.9933L11.4055 13.0807ZM8.87627 14.3161C7.22834 14.3457 5.8509 13.0692 5.75528 11.4238L4.2578 11.5108C4.40013 13.9599 6.45037 15.8599 8.90321 15.8159L8.87627 14.3161ZM5.75528 11.4238C5.65965 9.77837 6.87996 8.35087 8.52022 8.18939L8.37326 6.69661C5.93183 6.93696 4.11548 9.06171 4.2578 11.5108L5.75528 11.4238ZM9.12984 7.13338C8.95276 6.74269 8.86135 6.31863 8.86174 5.88968L7.36174 5.88832C7.36115 6.53131 7.49819 7.16698 7.76363 7.75262L9.12984 7.13338ZM8.86174 5.889C8.86174 4.15538 10.2671 2.75 12.0007 2.75V1.25C9.43869 1.25 7.36174 3.32695 7.36174 5.889H8.86174ZM12.0007 2.75C13.7344 2.75 15.1397 4.15538 15.1397 5.889H16.6397C16.6397 3.32695 14.5628 1.25 12.0007 1.25V2.75ZM15.1397 5.88968C15.1401 6.31863 15.0487 6.74269 14.8716 7.13338L16.2378 7.75262C16.5033 7.16698 16.6403 6.53131 16.6397 5.88832L15.1397 5.88968ZM15.4813 8.18939C17.1215 8.35087 18.3418 9.77837 18.2462 11.4238L19.7437 11.5108C19.886 9.06171 18.0696 6.93696 15.6282 6.69661L15.4813 8.18939ZM18.2462 11.4238C18.1506 13.0692 16.7731 14.3457 15.1252 14.3161L15.0983 15.8159C17.5511 15.8599 19.6013 13.9599 19.7437 11.5108L18.2462 11.4238ZM15.1094 14.316C14.1247 14.319 13.1951 13.8621 12.5959 13.0807L11.4055 13.9933C12.2895 15.1463 13.6612 15.8205 15.114 15.816L15.1094 14.316ZM11.2507 13.537V21.066H12.7507V13.537H11.2507ZM12.7507 13.537V11.551H11.2507V13.537H12.7507ZM11.2507 8.566V9.566H12.7507V8.566H11.2507ZM11.5507 8.966L9.55074 10.466L10.4507 11.666L12.4507 10.166L11.5507 8.966ZM11.2507 9.566V11.551H12.7507V9.566H11.2507ZM11.7186 12.2459L14.2186 13.2609L14.7829 11.8711L12.2829 10.8561L11.7186 12.2459Z" fill="currentColor"/>
</svg>
