<svg width="24" height="24" viewBox="0 0 24 24" fill="none" xmlns="http://www.w3.org/2000/svg">
<path d="M11.25 21.0002C11.25 21.4144 11.5858 21.7502 12 21.7502C12.4142 21.7502 12.75 21.4144 12.75 21.0002H11.25ZM12.75 13.0002C12.75 12.586 12.4142 12.2502 12 12.2502C11.5858 12.2502 11.25 12.586 11.25 13.0002H12.75ZM12.75 10.3732C12.75 9.95897 12.4142 9.62319 12 9.62319C11.5858 9.62319 11.25 9.95897 11.25 10.3732H12.75ZM11.25 11.2532C11.25 11.6674 11.5858 12.0032 12 12.0032C12.4142 12.0032 12.75 11.6674 12.75 11.2532H11.25ZM12.4471 11.8554C12.7796 11.6085 12.8491 11.1387 12.6022 10.8061C12.3553 10.4735 11.8855 10.4041 11.5529 10.651L12.4471 11.8554ZM9.77493 11.971C9.44235 12.2179 9.3729 12.6877 9.61981 13.0203C9.86672 13.3528 10.3365 13.4223 10.6691 13.1754L9.77493 11.971ZM12.75 11.2532C12.75 10.839 12.4142 10.5032 12 10.5032C11.5858 10.5032 11.25 10.839 11.25 11.2532H12.75ZM11.25 13.0002C11.25 13.4144 11.5858 13.7502 12 13.7502C12.4142 13.7502 12.75 13.4144 12.75 13.0002H11.25ZM12.2797 12.3043C11.8953 12.1498 11.4586 12.3362 11.3041 12.7205C11.1496 13.1048 11.336 13.5416 11.7203 13.6961L12.2797 12.3043ZM13.9423 14.5891C14.3267 14.7436 14.7634 14.5572 14.9179 14.1729C15.0724 13.7885 14.886 13.3517 14.5017 13.1973L13.9423 14.5891ZM5 10.0002L4.25 10.0001L5 10.0002ZM10.6348 3.1351L10.7811 3.8707L10.6348 3.1351ZM18.4673 7.32231L19.1602 7.03534V7.03534L18.4673 7.32231ZM15.8887 15.8212L16.3053 16.4448L15.8887 15.8212ZM7.05 14.9502L7.58036 14.4199H7.58036L7.05 14.9502ZM12.75 21.0002V13.0002H11.25V21.0002H12.75ZM11.25 10.3732V11.2532H12.75V10.3732H11.25ZM11.5529 10.651L9.77493 11.971L10.6691 13.1754L12.4471 11.8554L11.5529 10.651ZM11.25 11.2532V13.0002H12.75V11.2532H11.25ZM11.7203 13.6961L13.9423 14.5891L14.5017 13.1973L12.2797 12.3043L11.7203 13.6961ZM5.75 10.0002C5.75022 7.01854 7.85665 4.45221 10.7811 3.8707L10.4886 2.39951C6.86224 3.12057 4.25027 6.30282 4.25 10.0001L5.75 10.0002ZM10.7811 3.8707C13.7055 3.2892 16.6335 4.85447 17.7744 7.60928L19.1602 7.03534C17.7456 3.61938 14.1149 1.67844 10.4886 2.39951L10.7811 3.8707ZM17.7744 7.60928C18.9153 10.3641 17.9513 13.5412 15.472 15.1976L16.3053 16.4448C19.3796 14.3909 20.5749 10.4513 19.1602 7.03534L17.7744 7.60928ZM15.472 15.1976C12.9927 16.854 9.68863 16.5284 7.58036 14.4199L6.51964 15.4805C9.1339 18.095 13.231 18.4988 16.3053 16.4448L15.472 15.1976ZM7.58036 14.4199C6.40828 13.2477 5.74988 11.6579 5.75 10.0002L4.25 10.0001C4.24985 12.0556 5.06627 14.027 6.51964 15.4805L7.58036 14.4199Z" fill="currentColor"/>
</svg>
