<svg width="24" height="24" viewBox="0 0 24 24" fill="none" xmlns="http://www.w3.org/2000/svg">
<path fill-rule="evenodd" clip-rule="evenodd" d="M10.269 17.5H13.731C15.232 17.5279 16.4715 16.334 16.5 14.833V12.167C16.4715 10.666 15.232 9.47211 13.731 9.49999H10.269C8.768 9.47211 7.52845 10.666 7.5 12.167V14.834C7.529 16.3346 8.76839 17.5279 10.269 17.5Z" stroke="currentColor" stroke-width="1.5" stroke-linecap="round" stroke-linejoin="round"/>
<path d="M9.64954 3.62501C9.44244 3.26629 8.98375 3.14337 8.62503 3.35048C8.2663 3.55758 8.14339 4.01627 8.35049 4.37499L9.64954 3.62501ZM10.0825 7.37499C10.2896 7.73371 10.7483 7.85663 11.107 7.64952C11.4657 7.44242 11.5886 6.98373 11.3815 6.62501L10.0825 7.37499ZM15.6495 4.37499C15.8566 4.01627 15.7337 3.55758 15.375 3.35048C15.0163 3.14337 14.5576 3.26629 14.3505 3.62501L15.6495 4.37499ZM12.6185 6.62501C12.4114 6.98373 12.5343 7.44242 12.893 7.64952C13.2517 7.85663 13.7104 7.73371 13.9175 7.37499L12.6185 6.62501ZM13.268 6.25C12.8538 6.25 12.518 6.58579 12.518 7C12.518 7.41421 12.8538 7.75 13.268 7.75V6.25ZM14.692 7L14.6943 6.25H14.692V7ZM19 11.333L18.25 11.3309V11.333H19ZM19 15.666H18.25L18.25 15.6683L19 15.666ZM17.7436 18.7252L17.2117 18.1965L17.7436 18.7252ZM14.692 20V20.75L14.6943 20.75L14.692 20ZM9.30802 20L9.30576 20.75H9.30802V20ZM5.00002 15.667L5.75002 15.6691V15.667H5.00002ZM5.00002 11.333H5.75002L5.75001 11.3309L5.00002 11.333ZM9.30802 7V6.25L9.30576 6.25L9.30802 7ZM10.732 7.75C11.1462 7.75 11.482 7.41421 11.482 7C11.482 6.58579 11.1462 6.25 10.732 6.25V7.75ZM13.268 7.75C13.6822 7.75 14.018 7.41421 14.018 7C14.018 6.58579 13.6822 6.25 13.268 6.25V7.75ZM10.732 6.25C10.3178 6.25 9.98202 6.58579 9.98202 7C9.98202 7.41421 10.3178 7.75 10.732 7.75V6.25ZM8.35049 4.37499L10.0825 7.37499L11.3815 6.62501L9.64954 3.62501L8.35049 4.37499ZM14.3505 3.62501L12.6185 6.62501L13.9175 7.37499L15.6495 4.37499L14.3505 3.62501ZM13.268 7.75H14.692V6.25H13.268V7.75ZM14.6898 7.75C16.6617 7.75592 18.2555 9.35902 18.25 11.3309L19.75 11.3351C19.7578 8.5349 17.4945 6.25842 14.6943 6.25L14.6898 7.75ZM18.25 11.333V15.666H19.75V11.333H18.25ZM18.25 15.6683C18.2529 16.6153 17.8794 17.5248 17.2117 18.1965L18.2755 19.254C19.2237 18.3001 19.7541 17.0087 19.75 15.6637L18.25 15.6683ZM17.2117 18.1965C16.544 18.8682 15.6369 19.2472 14.6898 19.25L14.6943 20.75C16.0392 20.746 17.3274 20.2078 18.2755 19.254L17.2117 18.1965ZM14.692 19.25H9.30802V20.75H14.692V19.25ZM9.31027 19.25C7.33838 19.2441 5.74453 17.641 5.75001 15.6691L4.25002 15.6649C4.24223 18.4651 6.50558 20.7416 9.30576 20.75L9.31027 19.25ZM5.75002 15.667V11.333H4.25002V15.667H5.75002ZM5.75001 11.3309C5.74453 9.35902 7.33838 7.75592 9.31027 7.75L9.30576 6.25C6.50558 6.25842 4.24223 8.5349 4.25002 11.3351L5.75001 11.3309ZM9.30802 7.75H10.732V6.25H9.30802V7.75ZM13.268 6.25H10.732V7.75H13.268V6.25Z" fill="currentColor"/>
</svg>
