<svg width="24" height="24" viewBox="0 0 24 24" fill="none" xmlns="http://www.w3.org/2000/svg">
<path d="M5 17.25C4.58579 17.25 4.25 17.5858 4.25 18C4.25 18.4142 4.58579 18.75 5 18.75V17.25ZM19 18.75C19.4142 18.75 19.75 18.4142 19.75 18C19.75 17.5858 19.4142 17.25 19 17.25V18.75ZM15.75 6C15.75 5.58579 15.4142 5.25 15 5.25C14.5858 5.25 14.25 5.58579 14.25 6H15.75ZM9 13.143H8.25H9ZM9.75 6C9.75 5.58579 9.41421 5.25 9 5.25C8.58579 5.25 8.25 5.58579 8.25 6H9.75ZM5 18.75H19V17.25H5V18.75ZM14.25 6V13.143H15.75V6H14.25ZM14.25 13.143C14.25 14.3856 13.2426 15.393 12 15.393V16.893C14.0711 16.893 15.75 15.2141 15.75 13.143H14.25ZM12 15.393C10.7574 15.393 9.75 14.3856 9.75 13.143H8.25C8.25 15.2141 9.92893 16.893 12 16.893V15.393ZM9.75 13.143V6H8.25V13.143H9.75Z" fill="currentColor"/>
</svg>
