<svg width="24" height="24" viewBox="0 0 24 24" fill="none" xmlns="http://www.w3.org/2000/svg">
<path d="M10.7505 15.5C10.7505 15.9142 11.0863 16.25 11.5005 16.25C11.9147 16.25 12.2505 15.9142 12.2505 15.5H10.7505ZM12.2505 13.75C12.2505 13.3358 11.9147 13 11.5005 13C11.0863 13 10.7505 13.3358 10.7505 13.75H12.2505ZM7.78847 8.61C7.78847 9.02421 8.12426 9.36 8.53847 9.36C8.95269 9.36 9.28847 9.02421 9.28847 8.61H7.78847ZM8.53847 8.15H9.28847C9.28847 8.14252 9.28836 8.13504 9.28814 8.12757L8.53847 8.15ZM11.5005 5L11.5091 4.25005C11.4983 4.24993 11.4876 4.25003 11.4768 4.25037L11.5005 5ZM13.3799 6.88595C13.5782 7.24964 14.0337 7.38377 14.3974 7.18553C14.7611 6.98729 14.8952 6.53175 14.697 6.16805L13.3799 6.88595ZM8.53847 8.61L8.34599 7.88503L8.33519 7.88808L8.53847 8.61ZM9.38447 8.5L9.38378 9.25H9.38447V8.5ZM13.6155 8.5V9.25L13.6162 9.25L13.6155 8.5ZM14.4615 8.61L14.6646 7.88794L14.6539 7.88511L14.4615 8.61ZM17.0005 12L16.2505 11.9918V12H17.0005ZM17.0005 15.5H16.2504L16.2506 15.5123L17.0005 15.5ZM13.6155 19V19.7501L13.6282 19.7499L13.6155 19ZM9.38547 19L9.37272 19.75H9.38547V19ZM6.00047 15.5L6.75047 15.5123V15.5H6.00047ZM6.00047 12H6.75052L6.75043 11.9917L6.00047 12ZM12.2505 15.5V13.75H10.7505V15.5H12.2505ZM9.28847 8.61V8.15H7.78847V8.61H9.28847ZM9.28814 8.12757C9.25002 6.85386 10.2505 5.78987 11.5242 5.74963L11.4768 4.25037C9.37612 4.31674 7.72595 6.07165 7.78881 8.17243L9.28814 8.12757ZM11.4918 5.74995C12.2804 5.75904 13.0025 6.19351 13.3799 6.88595L14.697 6.16805C14.0597 4.99895 12.8405 4.2654 11.5091 4.25005L11.4918 5.74995ZM8.73093 9.33489C8.94393 9.27833 9.1634 9.2498 9.38378 9.25L9.38516 7.75C9.03438 7.74968 8.68505 7.7951 8.34601 7.88511L8.73093 9.33489ZM9.38447 9.25H13.6155V7.75H9.38447V9.25ZM13.6162 9.25C13.8365 9.2498 14.056 9.27833 14.269 9.33489L14.6539 7.88511C14.3149 7.7951 13.9656 7.74968 13.6148 7.75L13.6162 9.25ZM14.2584 9.33198C15.4473 9.66639 16.264 10.7568 16.2505 11.9918L17.7504 12.0082C17.7713 10.0952 16.5062 8.40602 14.6645 7.88802L14.2584 9.33198ZM16.2505 12V15.5H17.7505V12H16.2505ZM16.2506 15.5123C16.275 16.9993 15.0897 18.2248 13.6027 18.2501L13.6282 19.7499C15.9432 19.7105 17.7884 17.8027 17.7504 15.4877L16.2506 15.5123ZM13.6155 18.25H9.38547V19.75H13.6155V18.25ZM9.39822 18.2501C7.9112 18.2248 6.72597 16.9993 6.75037 15.5123L5.25057 15.4877C5.21259 17.8027 7.05775 19.7105 9.37273 19.7499L9.39822 18.2501ZM6.75047 15.5V12H5.25047V15.5H6.75047ZM6.75043 11.9917C6.73683 10.757 7.55316 9.66662 8.74176 9.33192L8.33519 7.88808C6.49399 8.40654 5.22945 10.0956 5.25052 12.0083L6.75043 11.9917Z" fill="currentColor"/>
</svg>
