<svg width="24" height="24" viewBox="0 0 24 24" fill="none" xmlns="http://www.w3.org/2000/svg">
<path fill-rule="evenodd" clip-rule="evenodd" d="M16 7H8V13H16V7Z" stroke="currentColor" stroke-width="1.5" stroke-linecap="round" stroke-linejoin="round"/>
<path d="M12.75 15C12.75 14.5858 12.4142 14.25 12 14.25C11.5858 14.25 11.25 14.5858 11.25 15H12.75ZM11.25 19C11.25 19.4142 11.5858 19.75 12 19.75C12.4142 19.75 12.75 19.4142 12.75 19H11.25ZM13.25 7C13.25 7.41421 13.5858 7.75 14 7.75C14.4142 7.75 14.75 7.41421 14.75 7H13.25ZM14 5H14.75C14.75 4.58579 14.4142 4.25 14 4.25V5ZM10 5V4.25C9.58579 4.25 9.25 4.58579 9.25 5H10ZM9.25 7C9.25 7.41421 9.58579 7.75 10 7.75C10.4142 7.75 10.75 7.41421 10.75 7H9.25ZM13.75 13C13.75 12.5858 13.4142 12.25 13 12.25C12.5858 12.25 12.25 12.5858 12.25 13H13.75ZM13 15V15.75C13.4142 15.75 13.75 15.4142 13.75 15H13ZM11 15H10.25C10.25 15.4142 10.5858 15.75 11 15.75V15ZM11.75 13C11.75 12.5858 11.4142 12.25 11 12.25C10.5858 12.25 10.25 12.5858 10.25 13H11.75ZM11.25 15V19H12.75V15H11.25ZM14.75 7V5H13.25V7H14.75ZM14 4.25H10V5.75H14V4.25ZM9.25 5V7H10.75V5H9.25ZM12.25 13V15H13.75V13H12.25ZM13 14.25H11V15.75H13V14.25ZM11.75 15V13H10.25V15H11.75Z" fill="currentColor"/>
</svg>
