<svg width="24" height="24" viewBox="0 0 24 24" fill="none" xmlns="http://www.w3.org/2000/svg">
<path fill-rule="evenodd" clip-rule="evenodd" d="M14.375 7.375C14.375 8.68668 13.3117 9.75 12 9.75C10.6883 9.75 9.625 8.68668 9.625 7.375C9.625 6.06332 10.6883 5 12 5C13.3117 5 14.375 6.06332 14.375 7.375Z" stroke="currentColor" stroke-width="1.5" stroke-linecap="round" stroke-linejoin="round"/>
<path fill-rule="evenodd" clip-rule="evenodd" d="M16.75 15.775C16.75 17.575 14.623 19.042 12 19.042C9.377 19.042 7.25 17.579 7.25 15.775C7.25 13.971 9.377 12.509 12 12.509C14.623 12.509 16.75 13.971 16.75 15.775Z" stroke="currentColor" stroke-width="1.5" stroke-linecap="round" stroke-linejoin="round"/>
<path fill-rule="evenodd" clip-rule="evenodd" d="M19.4 9.55301C19.4101 10.1315 19.0695 10.6588 18.5379 10.8872C18.0063 11.1157 17.3893 11 16.9765 10.5945C16.5638 10.189 16.4372 9.57418 16.6562 9.03861C16.8753 8.50305 17.3964 8.1531 17.975 8.15301C18.755 8.14635 19.3928 8.77301 19.4 9.55301V9.55301Z" stroke="currentColor" stroke-width="1.5" stroke-linecap="round" stroke-linejoin="round"/>
<path fill-rule="evenodd" clip-rule="evenodd" d="M4.60007 9.55301C4.58992 10.1315 4.9306 10.6588 5.4622 10.8872C5.99381 11.1157 6.61078 11 7.02353 10.5945C7.43627 10.189 7.56284 9.57418 7.34382 9.03861C7.12481 8.50305 6.60369 8.1531 6.02507 8.15301C5.24507 8.14635 4.60722 8.77301 4.60007 9.55301Z" stroke="currentColor" stroke-width="1.5" stroke-linecap="round" stroke-linejoin="round"/>
<path d="M18.7169 17.362C18.3043 17.325 17.9399 17.6295 17.903 18.0421C17.866 18.4547 18.1705 18.8191 18.5831 18.856L18.7169 17.362ZM21.5 15.775L22.2455 15.8567C22.2515 15.8023 22.2515 15.7474 22.2455 15.693L21.5 15.775ZM18.5831 12.695C18.1705 12.7319 17.866 13.0963 17.903 13.5089C17.9399 13.9215 18.3044 14.226 18.7169 14.189L18.5831 12.695ZM5.41689 18.856C5.82945 18.8191 6.13395 18.4547 6.09701 18.0421C6.06007 17.6295 5.69567 17.325 5.28311 17.362L5.41689 18.856ZM2.5 15.775L1.75449 15.693C1.74851 15.7474 1.7485 15.8023 1.75446 15.8567L2.5 15.775ZM5.28308 14.189C5.69564 14.226 6.06005 13.9215 6.09701 13.5089C6.13397 13.0963 5.82948 12.7319 5.41692 12.695L5.28308 14.189ZM18.5831 18.856C20.4169 19.0202 22.045 17.6869 22.2455 15.8567L20.7545 15.6933C20.6429 16.7115 19.7371 17.4533 18.7169 17.362L18.5831 18.856ZM22.2455 15.693C22.0444 13.8633 20.4165 12.5307 18.5831 12.695L18.7169 14.189C19.7369 14.0976 20.6426 14.839 20.7545 15.8569L22.2455 15.693ZM5.28311 17.362C4.26287 17.4533 3.35709 16.7115 3.24554 15.6933L1.75446 15.8567C1.95496 17.6869 3.58306 19.0202 5.41689 18.856L5.28311 17.362ZM3.24551 15.8569C3.35742 14.839 4.26309 14.0976 5.28308 14.189L5.41692 12.695C3.58354 12.5307 1.95564 13.8633 1.75449 15.693L3.24551 15.8569Z" fill="currentColor"/>
</svg>
