<svg width="24" height="24" viewBox="0 0 24 24" fill="none" xmlns="http://www.w3.org/2000/svg">
<path fill-rule="evenodd" clip-rule="evenodd" d="M7 6H12C14.2091 6 16 7.79086 16 10V10.125L17.94 8.912C18.5565 8.52666 19.3336 8.50626 19.9695 8.85871C20.6054 9.21116 21 9.88095 21 10.608V13.392C21.0015 14.1198 20.6075 14.7909 19.9713 15.1443C19.3351 15.4978 18.5571 15.4777 17.94 15.092L16 13.875V14C16 16.2091 14.2091 18 12 18H7C4.79086 18 3 16.2091 3 14V10C3 7.79086 4.79086 6 7 6Z" stroke="currentColor" stroke-width="1.5" stroke-linecap="round" stroke-linejoin="round"/>
<path d="M16.75 10.125C16.75 9.71079 16.4142 9.375 16 9.375C15.5858 9.375 15.25 9.71079 15.25 10.125H16.75ZM15.25 13.875C15.25 14.2892 15.5858 14.625 16 14.625C16.4142 14.625 16.75 14.2892 16.75 13.875H15.25ZM10.25 10C10.25 9.58579 9.91421 9.25 9.5 9.25C9.08579 9.25 8.75 9.58579 8.75 10H10.25ZM8.75 12C8.75 12.4142 9.08579 12.75 9.5 12.75C9.91421 12.75 10.25 12.4142 10.25 12H8.75ZM10.25 12C10.25 11.5858 9.91421 11.25 9.5 11.25C9.08579 11.25 8.75 11.5858 8.75 12H10.25ZM8.75 14C8.75 14.4142 9.08579 14.75 9.5 14.75C9.91421 14.75 10.25 14.4142 10.25 14H8.75ZM9.5 12.75C9.91421 12.75 10.25 12.4142 10.25 12C10.25 11.5858 9.91421 11.25 9.5 11.25V12.75ZM7.5 11.25C7.08579 11.25 6.75 11.5858 6.75 12C6.75 12.4142 7.08579 12.75 7.5 12.75V11.25ZM9.5 11.25C9.08579 11.25 8.75 11.5858 8.75 12C8.75 12.4142 9.08579 12.75 9.5 12.75V11.25ZM11.5 12.75C11.9142 12.75 12.25 12.4142 12.25 12C12.25 11.5858 11.9142 11.25 11.5 11.25V12.75ZM15.25 10.125V13.875H16.75V10.125H15.25ZM8.75 10V12H10.25V10H8.75ZM8.75 12V14H10.25V12H8.75ZM9.5 11.25H7.5V12.75H9.5V11.25ZM9.5 12.75H11.5V11.25H9.5V12.75Z" fill="currentColor"/>
</svg>
