<svg width="24" height="24" viewBox="0 0 24 24" fill="none" xmlns="http://www.w3.org/2000/svg">
<path fill-rule="evenodd" clip-rule="evenodd" d="M7 6H12C14.2091 6 16 7.79086 16 10V10.125L17.94 8.912C18.5565 8.52666 19.3336 8.50626 19.9695 8.85871C20.6054 9.21116 21 9.88095 21 10.608V13.392C21.0015 14.1198 20.6075 14.7909 19.9713 15.1443C19.3351 15.4978 18.5571 15.4777 17.94 15.092L16 13.875V14C16 16.2091 14.2091 18 12 18H7C4.79086 18 3 16.2091 3 14V10C3 7.79086 4.79086 6 7 6Z" stroke="currentColor" stroke-width="1.5" stroke-linecap="round" stroke-linejoin="round"/>
<path fill-rule="evenodd" clip-rule="evenodd" d="M9.5 14C8.39543 14 7.5 13.1046 7.5 12C7.5 10.8954 8.39543 10 9.5 10C10.6046 10 11.5 10.8954 11.5 12C11.5 12.5304 11.2893 13.0391 10.9142 13.4142C10.5391 13.7893 10.0304 14 9.5 14Z" stroke="currentColor" stroke-width="1.5" stroke-linecap="round" stroke-linejoin="round"/>
<path d="M16 10.125V13.875" stroke="currentColor" stroke-width="1.5" stroke-linecap="round"/>
</svg>
