<svg width="24" height="24" viewBox="0 0 24 24" fill="none" xmlns="http://www.w3.org/2000/svg">
<path fill-rule="evenodd" clip-rule="evenodd" d="M19 5H5L12 11.125L19 5Z" stroke="currentColor" stroke-width="1.5" stroke-linecap="round" stroke-linejoin="round"/>
<path d="M12 18.25C11.5858 18.25 11.25 18.5858 11.25 19C11.25 19.4142 11.5858 19.75 12 19.75V18.25ZM17.25 19.75C17.6642 19.75 18 19.4142 18 19C18 18.5858 17.6642 18.25 17.25 18.25V19.75ZM11.25 19C11.25 19.4142 11.5858 19.75 12 19.75C12.4142 19.75 12.75 19.4142 12.75 19H11.25ZM12.75 11.125C12.75 10.7108 12.4142 10.375 12 10.375C11.5858 10.375 11.25 10.7108 11.25 11.125H12.75ZM12 19.75C12.4142 19.75 12.75 19.4142 12.75 19C12.75 18.5858 12.4142 18.25 12 18.25V19.75ZM6.75 18.25C6.33579 18.25 6 18.5858 6 19C6 19.4142 6.33579 19.75 6.75 19.75V18.25ZM12 19.75H17.25V18.25H12V19.75ZM12.75 19V11.125H11.25V19H12.75ZM12 18.25H6.75V19.75H12V18.25Z" fill="currentColor"/>
</svg>
